<svg id="Component_4_1" data-name="Component 4 – 1" xmlns="http://www.w3.org/2000/svg" width="80" height="66" viewBox="0 0 80 66">
  <circle id="Ellipse_54" data-name="Ellipse 54" cx="11" cy="11" r="11" fill="#0fd7ad"/>
  <g id="Group_25" data-name="Group 25" transform="translate(-305 -5896)">
    <g id="Group_18" data-name="Group 18" transform="translate(311.68 5903)">
      <g id="Rectangle_78" data-name="Rectangle 78" transform="translate(0.32)" fill="none" stroke="#383838" stroke-width="2">
        <rect width="68" height="46" rx="5" stroke="none"/>
        <rect x="1" y="1" width="66" height="44" rx="4" fill="none"/>
      </g>
      <rect id="Rectangle_81" data-name="Rectangle 81" width="68" height="2" transform="translate(0.32 37)" fill="#383838"/>
      <g id="Path_55" data-name="Path 55" transform="translate(42.12 52.26) rotate(180)" fill="#fff">
        <path d="M 13.10400009155273 6.799999713897705 L 2.495999813079834 6.799999713897705 C 1.920669674873352 6.799999713897705 1.41599977016449 6.052340030670166 1.41599977016449 5.199999809265137 L 1.41599977016449 5.160059928894043 L 1.412819743156433 5.12024974822998 L 1.083199739456177 0.9999998807907104 L 14.51679992675781 0.9999998807907104 L 14.18717956542969 5.12024974822998 L 14.18400001525879 5.160059928894043 L 14.18400001525879 5.199999809265137 C 14.18400001525879 6.052340030670166 13.67932987213135 6.799999713897705 13.10400009155273 6.799999713897705 Z" stroke="none"/>
        <path d="M 2.166388511657715 2 L 2.415999412536621 5.120129585266113 L 2.415999412536621 5.199999809265137 C 2.415999412536621 5.512184619903564 2.526710510253906 5.719360828399658 2.595321655273438 5.799999713897705 L 13.00467777252197 5.799999713897705 C 13.07328987121582 5.719360828399658 13.18400001525879 5.512184619903564 13.18400001525879 5.199999809265137 L 13.18400001525879 5.120129585266113 L 13.4336109161377 2 L 2.166388511657715 2 M 0 0 L 15.59999942779541 0 L 15.18400001525879 5.199999809265137 C 15.18400001525879 6.635939598083496 14.2527494430542 7.799999713897705 13.10400009155273 7.799999713897705 L 2.495999336242676 7.799999713897705 C 1.347249984741211 7.799999713897705 0.4159994125366211 6.635939598083496 0.4159994125366211 5.199999809265137 L 0 0 Z" stroke="none" fill="#383838"/>
      </g>
      <g id="Rectangle_79" data-name="Rectangle 79" transform="translate(22.32 51)" fill="none" stroke="#383838" stroke-width="2">
        <rect width="24" height="8" rx="2" stroke="none"/>
        <rect x="1" y="1" width="22" height="6" rx="1" fill="none"/>
      </g>
      <rect id="Rectangle_80" data-name="Rectangle 80" width="7" height="1" rx="0.5" transform="translate(30.32 41)" fill="#383838"/>
    </g>
    <g id="Group_16" data-name="Group 16" transform="translate(307 5930.3)">
      <g id="Rectangle_74" data-name="Rectangle 74" transform="translate(0 -0.3)" fill="#fff" stroke="#383838" stroke-width="2">
        <rect width="20" height="31" rx="5" stroke="none"/>
        <rect x="1" y="1" width="18" height="29" rx="4" fill="none"/>
      </g>
      <g id="Path_53" data-name="Path 53" transform="translate(6.24 0.78)" fill="#fff">
        <path d="M 6.285051822662354 1.339999914169312 L 1.514947772026062 1.339999914169312 L 1.398708462715149 0.9999999403953552 L 6.401291370391846 0.9999999403953552 L 6.285051822662354 1.339999914169312 Z" stroke="none"/>
        <path d="M 0 0 L 7.799999713897705 0 L 7.199999809265137 1.754999876022339 C 7.199999809265137 2.078089952468872 6.931369781494141 2.339999914169312 6.599999904632568 2.339999914169312 L 1.199999809265137 2.339999914169312 C 0.8686299324035645 2.339999914169312 0.5999999046325684 2.078089952468872 0.5999999046325684 1.754999876022339 L 0 0 Z" stroke="none" fill="#383838"/>
      </g>
      <rect id="Rectangle_76" data-name="Rectangle 76" width="8" height="1" rx="0.5" transform="translate(6 26.7)" fill="#383838"/>
    </g>
    <g id="Group_17" data-name="Group 17" transform="translate(360.04 5923.28)">
      <g id="Rectangle_75" data-name="Rectangle 75" transform="translate(-0.04 -0.28)" fill="#fff" stroke="#383838" stroke-width="2">
        <rect width="25" height="38" rx="6" stroke="none"/>
        <rect x="1" y="1" width="23" height="36" rx="5" fill="none"/>
      </g>
      <g id="Path_54" data-name="Path 54" transform="translate(7.8 0)" fill="#fff">
        <path d="M 7.307953834533691 1.619999885559082 L 2.052045822143555 1.619999885559082 L 2.016045808792114 1.5 L 7.343953609466553 1.5 L 7.307953834533691 1.619999885559082 Z" stroke="none"/>
        <path d="M 0 0 L 9.359999656677246 0 L 8.736000061035156 2.079999923706055 C 8.736000061035156 2.654379844665527 8.177249908447266 3.119999885559082 7.48799991607666 3.119999885559082 L 1.871999740600586 3.119999885559082 C 1.18274974822998 3.119999885559082 0.6239995956420898 2.654379844665527 0.6239995956420898 2.079999923706055 L 0 0 Z" stroke="none" fill="#383838"/>
      </g>
      <rect id="Rectangle_77" data-name="Rectangle 77" width="7" height="1" rx="0.5" transform="translate(8.96 33.72)" fill="#383838"/>
    </g>
    <g id="Group_33" data-name="Group 33" transform="translate(331.18 5909.24)">
      <path id="Path_103" data-name="Path 103" d="M633,445.337a.828.828,0,0,1-.685-.322c-.637-.781-1.28-1.558-1.9-2.351a.821.821,0,0,1,.486-1.365.781.781,0,0,0,.077-.013c.254-.091.644.015.748-.21.081-.175-.116-.485-.2-.73a13.189,13.189,0,0,0-4.766-6.321c-.233-.169-.48-.319-.708-.493a.587.587,0,1,1,.674-.958,14.564,14.564,0,0,1,4.011,3.767,14.036,14.036,0,0,1,2.113,4.261c.08.272.194.359.464.282a4.054,4.054,0,0,1,.616-.116.824.824,0,0,1,.924,1.091c-.323.965-.675,1.92-1.02,2.878A.838.838,0,0,1,633,445.337Zm-1.321-2.982,1.219,1.507.64-1.825Z" transform="translate(-607.597 -432.391)" fill="#383838" stroke="#383838" stroke-width="0.4"/>
      <path id="Path_104" data-name="Path 104" d="M357.556,443.409a14.042,14.042,0,0,1,3.44-8.643c.229-.266.294-.446,0-.69-.8-.674-.723-1.653.605-1.826.8-.1,1.589-.314,2.383-.473a.951.951,0,0,1,1.006.263.966.966,0,0,1,.1,1.034c-.316.857-.622,1.717-.938,2.574a.853.853,0,0,1-1.571.286c-.543-.614-.552-.621-1.07.039a13.056,13.056,0,0,0-2.709,6.459c-.073.548-.054,1.1-.117,1.643-.047.406-.284.649-.607.637-.348-.013-.573-.3-.564-.715C357.527,443.8,357.544,443.605,357.556,443.409Zm5.643-8.574.661-1.827-1.89.391Z" transform="translate(-357.522 -431.739)" fill="#383838" stroke="#383838" stroke-width="0.4"/>
      <path id="Path_105" data-name="Path 105" d="M465.336,733.9a11.778,11.778,0,0,1-1.915-.133c-.257-.044-.318.047-.348.26a5.221,5.221,0,0,1-.113.577.822.822,0,0,1-1.365.488q-1.185-.969-2.324-1.993a.852.852,0,0,1,.283-1.486c.958-.341,1.927-.654,2.9-.949a.825.825,0,0,1,1.09.961c-.007.052-.018.1-.027.155-.134.828-.135.839.723.9a13.331,13.331,0,0,0,6.179-.956c.144-.06.286-.13.434-.179a.591.591,0,0,1,.789.307.574.574,0,0,1-.338.771,13.122,13.122,0,0,1-2.131.774A14.122,14.122,0,0,1,465.336,733.9Zm-3.058-1.938-1.836.6,1.475,1.263Z" transform="translate(-452.308 -709.568)" fill="#383838" stroke="#383838" stroke-width="0.4"/>
    </g>
  </g>
</svg>
