<svg xmlns="http://www.w3.org/2000/svg" width="71" height="77" viewBox="0 0 71 77">
  <g id="Component_3_1" data-name="Component 3 – 1" transform="translate(1)">
    <circle id="Ellipse_2" data-name="Ellipse 2" cx="11" cy="11" r="11" transform="translate(47)" fill="#0fd7ad"/>
    <g id="Group_19" data-name="Group 19" transform="translate(-729 -6768)">
      <g id="Path_56" data-name="Path 56" transform="translate(255.678 6294.55)" fill="none" stroke-linecap="round">
        <path d="M539.564,518.155a1.839,1.839,0,0,1-.33.9c-.519.868-1.026,1.742-1.569,2.595a.826.826,0,0,0-.065.965,10.374,10.374,0,0,1,.888,2.144.683.683,0,0,0,.576.522c1.054.239,2.1.505,3.147.782a1.217,1.217,0,0,1,1.1,1.4q.02,2.474,0,4.947a1.216,1.216,0,0,1-1.1,1.4c-1.021.274-2.04.557-3.073.774a.831.831,0,0,0-.7.655,6.762,6.762,0,0,1-.633,1.562,1.458,1.458,0,0,0,.088,1.844c.475.669.858,1.4,1.28,2.109.569.954.525,1.3-.274,2.1q-1.572,1.577-3.147,3.15c-.836.835-1.179.871-2.221.244-.846-.509-1.7-1.007-2.537-1.529a.681.681,0,0,0-.768-.045,6.834,6.834,0,0,1-1.611.694,1.608,1.608,0,0,0-1.336,1.535c-.134.809-.374,1.6-.576,2.4a1.274,1.274,0,0,1-1.443,1.148q-2.438.01-4.877,0a1.262,1.262,0,0,1-1.458-1.121c-.264-1.024-.533-2.047-.768-3.077a.767.767,0,0,0-.6-.668,4.531,4.531,0,0,1-1.371-.538,1.812,1.812,0,0,0-2.39.161,22.07,22.07,0,0,1-1.986,1.211,1.264,1.264,0,0,1-1.721-.2q-1.766-1.782-3.55-3.546a1.252,1.252,0,0,1-.224-1.715c.566-.921,1.1-1.862,1.679-2.776a.783.783,0,0,0,.038-.9,10.2,10.2,0,0,1-.865-2.077.777.777,0,0,0-.658-.615c-1.055-.232-2.095-.531-3.146-.78a1.269,1.269,0,0,1-1.076-1.362q-.01-2.509,0-5.018a1.272,1.272,0,0,1,1.078-1.362c1.029-.245,2.047-.533,3.079-.762a.816.816,0,0,0,.728-.632,9.356,9.356,0,0,1,.861-2.078.776.776,0,0,0-.041-.9c-.556-.872-1.078-1.766-1.605-2.655a1.262,1.262,0,0,1,.21-1.881q1.718-1.73,3.451-3.446a1.269,1.269,0,0,1,1.828-.212c.911.537,1.826,1.068,2.719,1.635a.706.706,0,0,0,.824.055,11.23,11.23,0,0,1,2.206-.92.667.667,0,0,0,.518-.569c.242-1.029.512-2.052.775-3.076.236-.919.558-1.187,1.468-1.191q2.439-.01,4.877,0a1.261,1.261,0,0,1,1.443,1.142q.379,1.5.739,3.012a.86.86,0,0,0,.644.716,17.444,17.444,0,0,1,2.142.89.688.688,0,0,0,.762-.034c.917-.573,1.848-1.122,2.78-1.671a1.274,1.274,0,0,1,1.828.23c1.154,1.145,2.3,2.3,3.45,3.446A1.488,1.488,0,0,1,539.564,518.155Z" stroke="none"/>
        <path d="M 522.8231201171875 511.4237670898438 C 522.1463623046875 511.4237670898438 521.4586181640625 511.4249267578125 520.7733764648438 511.4273071289062 C 520.7423706054688 511.547607421875 520.7113037109375 511.6679077148438 520.6802368164062 511.7882690429688 C 520.4796142578125 512.5653076171875 520.2721557617188 513.368896484375 520.0881958007812 514.1520385742188 C 519.7843627929688 515.4475708007812 518.8942260742188 515.9691162109375 518.2009887695312 516.178466796875 C 517.5386352539062 516.3785400390625 516.9282836914062 516.63232421875 516.3864135742188 516.9329833984375 C 515.956787109375 517.1712036132812 515.5075073242188 517.2919921875 515.0509643554688 517.2919921875 C 514.524658203125 517.2919921875 514.024169921875 517.1367797851562 513.5205688476562 516.8173828125 C 512.7675170898438 516.3394775390625 512.0057373046875 515.8917846679688 511.19921875 515.4177856445312 L 511.1741333007812 515.4030151367188 C 510.2005004882812 516.3685913085938 509.2275390625 517.3402099609375 508.2745361328125 518.2987060546875 C 508.3017578125 518.3446044921875 508.3289184570312 518.3905639648438 508.3561401367188 518.4365234375 C 508.8036499023438 519.1925048828125 509.226318359375 519.9066162109375 509.6764526367188 520.6123046875 C 510.2763061523438 521.5527954101562 510.3132934570312 522.5996704101562 509.7807006835938 523.5599975585938 C 509.4735717773438 524.11376953125 509.244873046875 524.6629638671875 509.1011962890625 525.1915893554688 C 508.894775390625 525.9523315429688 508.3411865234375 526.9273681640625 506.875732421875 527.2526245117188 C 506.3104248046875 527.3779296875 505.7496337890625 527.5219116210938 505.1559448242188 527.6744384765625 C 504.8709106445312 527.7476196289062 504.5794067382812 527.822509765625 504.2850341796875 527.8956909179688 C 504.2808837890625 529.2654418945312 504.2808837890625 530.6320190429688 504.2850341796875 531.9705200195312 C 504.5942993164062 532.0474853515625 504.9000854492188 532.1265258789062 505.198974609375 532.2037963867188 C 505.799560546875 532.3590087890625 506.3668212890625 532.5056762695312 506.9371337890625 532.6307983398438 C 508.0136108398438 532.8668212890625 508.77685546875 533.5798950195312 509.0862426757812 534.638671875 C 509.2561645507812 535.22021484375 509.489990234375 535.7821044921875 509.7811889648438 536.30859375 C 510.3109130859375 537.26611328125 510.2762451171875 538.3101806640625 509.6835327148438 539.2486572265625 C 509.3611450195312 539.7589721679688 509.0545654296875 540.2739868164062 508.7299194335938 540.8192749023438 C 508.5816650390625 541.0682983398438 508.43017578125 541.32275390625 508.2762451171875 541.5780029296875 C 509.3781127929688 542.6715698242188 510.3135375976562 543.6056518554688 511.172119140625 544.4697265625 C 511.2703857421875 544.4135131835938 511.3674926757812 544.3587036132812 511.4631958007812 544.3046264648438 C 511.8798828125 544.0692749023438 512.2734985351562 543.8469848632812 512.5867919921875 543.6094970703125 C 513.4268798828125 542.9727172851562 514.2540893554688 542.6631469726562 515.11572265625 542.6631469726562 C 515.876220703125 542.6631469726562 516.6187133789062 542.91015625 517.3221435546875 543.3968505859375 C 517.4319458007812 543.4707641601562 517.8032836914062 543.5734252929688 518.0489501953125 543.6414184570312 L 518.0885009765625 543.65234375 C 518.8327026367188 543.8580932617188 519.787109375 544.3980712890625 520.108154296875 545.802978515625 C 520.307861328125 546.6788330078125 520.5401000976562 547.5774536132812 520.7650756835938 548.4471435546875 C 521.5089721679688 548.44921875 522.2088012695312 548.4501953125 522.89404296875 548.4501953125 C 523.5651245117188 548.4501953125 524.2239990234375 548.4491577148438 524.8579711914062 548.4471435546875 C 524.8836669921875 548.349853515625 524.9093017578125 548.2535400390625 524.9345703125 548.15869140625 C 525.0830078125 547.6016845703125 525.2232055664062 547.0755615234375 525.306396484375 546.5729370117188 C 525.6654663085938 544.4044189453125 527.0706787109375 543.65673828125 528.1861572265625 543.411376953125 C 528.4201049804688 543.3599243164062 528.7732543945312 543.1746826171875 529.11474609375 542.9955444335938 C 529.1786499023438 542.9620361328125 529.2423706054688 542.9285888671875 529.306640625 542.895263671875 C 529.7188720703125 542.681640625 530.1460571289062 542.5733032226562 530.5764770507812 542.5733032226562 C 531.0881958007812 542.5733032226562 531.5708618164062 542.7190551757812 532.0517578125 543.0186157226562 C 532.60546875 543.3633422851562 533.1836547851562 543.7080688476562 533.7427978515625 544.0413818359375 C 533.9810180664062 544.1834106445312 534.2191772460938 544.3253784179688 534.4569091796875 544.4681396484375 C 535.4818115234375 543.4445190429688 536.4278564453125 542.497802734375 537.340576171875 541.5823364257812 C 537.2486572265625 541.4252319335938 537.1593017578125 541.2695922851562 537.072021484375 541.1176147460938 C 536.7992553710938 540.6424560546875 536.5416259765625 540.1936645507812 536.2628173828125 539.8010864257812 C 535.0655517578125 538.115478515625 535.5250244140625 536.651611328125 536.121337890625 535.7202758789062 C 536.244140625 535.528564453125 536.3606567382812 535.1658935546875 536.473388671875 534.815185546875 C 536.4947509765625 534.7487182617188 536.51611328125 534.682373046875 536.5379638671875 534.6154174804688 C 536.9822387695312 533.2564086914062 537.974365234375 532.782470703125 538.7281494140625 532.624267578125 C 539.5794067382812 532.4454345703125 540.4228515625 532.2186889648438 541.31494140625 531.9783935546875 C 541.32373046875 530.6165161132812 541.32373046875 529.245849609375 541.3148803710938 527.892578125 C 540.2890625 527.6238403320312 539.425048828125 527.4110717773438 538.62060546875 527.2286376953125 C 537.5924072265625 526.9951782226562 536.8641357421875 526.3189086914062 536.5697631835938 525.3245849609375 C 536.374755859375 524.6661987304688 536.1414184570312 524.0995483398438 535.8565673828125 523.5926513671875 C 535.4713745117188 522.9075927734375 535.1798095703125 521.82763671875 535.9781494140625 520.5736694335938 C 536.3746337890625 519.9507446289062 536.7486572265625 519.3206787109375 537.1446533203125 518.6536254882812 C 537.21484375 518.5352783203125 537.28515625 518.4169311523438 537.35546875 518.2986450195312 C 536.8781127929688 517.8233642578125 536.3999633789062 517.3441162109375 535.93505859375 516.8781127929688 C 535.450927734375 516.3928833007812 534.952880859375 515.8937377929688 534.4578857421875 515.4011840820312 C 533.6590576171875 515.872314453125 532.8423461914062 516.3569946289062 532.0498046875 516.85205078125 C 531.586669921875 517.141357421875 531.0973510742188 517.2880859375 530.5953979492188 517.2880859375 C 530.1838989257812 517.2880859375 529.7825927734375 517.1921997070312 529.3681640625 516.9947509765625 C 528.75732421875 516.70361328125 528.1051025390625 516.40625 527.474609375 516.203369140625 C 526.7505493164062 515.970703125 525.8197021484375 515.4072875976562 525.4966430664062 514.044677734375 C 525.3077392578125 513.2479248046875 525.1024169921875 512.4083862304688 524.8564453125 511.4273071289062 C 524.1834106445312 511.4249267578125 523.5011596679688 511.4237670898438 522.8231201171875 511.4237670898438 M 522.8231201171875 509.4237670898438 C 523.6355590820312 509.4237670898438 524.4480590820312 509.4254150390625 525.2605590820312 509.4288940429688 C 526.1240844726562 509.4325561523438 526.490966796875 509.7271728515625 526.7034301757812 510.571044921875 C 526.9559936523438 511.573486328125 527.2041625976562 512.5772705078125 527.4426879882812 513.583251953125 C 527.5291748046875 513.947998046875 527.6834106445312 514.1697387695312 528.0865478515625 514.29931640625 C 528.8206787109375 514.5355224609375 529.5308227539062 514.8567504882812 530.2286376953125 515.1893310546875 C 530.5188598632812 515.32763671875 530.7202758789062 515.324462890625 530.990234375 515.1558227539062 C 531.906982421875 514.5831298828125 532.8385009765625 514.0339965820312 533.7699584960938 513.485107421875 C 534.50830078125 513.0497436523438 534.98583984375 513.1072387695312 535.5983276367188 513.7149658203125 C 536.7523803710938 514.8598022460938 537.8948364257812 516.0164184570312 539.04833984375 517.1614379882812 C 539.3436889648438 517.4548950195312 539.5528564453125 517.7781982421875 539.5637817382812 518.15478515625 C 539.5466918945312 518.525634765625 539.3910522460938 518.7905883789062 539.2342529296875 519.0529174804688 C 538.7156982421875 519.9204711914062 538.2080078125 520.7951049804688 537.6653442382812 521.6476440429688 C 537.4545288085938 521.978759765625 537.3948974609375 522.2478637695312 537.5999145507812 522.6124877929688 C 537.9799194335938 523.2886962890625 538.2667846679688 524.0115966796875 538.4874267578125 524.7566528320312 C 538.5765380859375 525.0576782226562 538.7452392578125 525.2060546875 539.0634765625 525.2783203125 C 540.1172485351562 525.5172119140625 541.165283203125 525.7833251953125 542.2100219726562 526.0601806640625 C 543.0394897460938 526.280029296875 543.30517578125 526.613525390625 543.3118286132812 527.4605102539062 C 543.3248291015625 529.109619140625 543.3247680664062 530.7589111328125 543.3119506835938 532.4078369140625 C 543.3054809570312 533.2564697265625 543.0409545898438 533.585693359375 542.2125854492188 533.8079833984375 C 541.1920776367188 534.0818481445312 540.1723022460938 534.3645629882812 539.1392822265625 534.58154296875 C 538.7251586914062 534.66845703125 538.559326171875 534.8685913085938 538.4389038085938 535.2369384765625 C 538.2644653320312 535.7714233398438 538.1038208007812 536.3331298828125 537.8055419921875 536.7988891601562 C 537.3731689453125 537.4741821289062 537.4488525390625 538.01708984375 537.8933715820312 538.6429443359375 C 538.3682861328125 539.3117065429688 538.7515869140625 540.0457763671875 539.1731567382812 540.7523193359375 C 539.7421875 541.7066040039062 539.6980590820312 542.0506591796875 538.8992309570312 542.8517456054688 C 537.8513793945312 543.9028930664062 536.8021850585938 544.9525756835938 535.7520141601562 546.0012817382812 C 534.9159545898438 546.8363647460938 534.572509765625 546.8720092773438 533.5313110351562 546.2453002929688 C 532.6853637695312 545.736083984375 531.8326416015625 545.2381591796875 530.99462890625 544.7163696289062 C 530.7305908203125 544.5519409179688 530.5196533203125 544.5192260742188 530.2269287109375 544.6709594726562 C 529.7075805664062 544.9403686523438 529.1776123046875 545.2410888671875 528.6159057617188 545.3646850585938 C 527.7425537109375 545.5567626953125 527.4149780273438 546.0816650390625 527.279541015625 546.899658203125 C 527.1456298828125 547.7086181640625 526.90576171875 548.50048828125 526.70361328125 549.2974243164062 C 526.4901733398438 550.1376953125 526.112548828125 550.4423217773438 525.2608642578125 550.4457397460938 C 523.63525390625 550.4521484375 522.0096435546875 550.451171875 520.3842163085938 550.4459838867188 C 519.5098876953125 550.4432983398438 519.1417846679688 550.1591186523438 518.92626953125 549.324951171875 C 518.6619873046875 548.30126953125 518.3931884765625 547.2781982421875 518.158203125 546.24755859375 C 518.0758666992188 545.8872680664062 517.9290771484375 545.6832885742188 517.5555419921875 545.5800170898438 C 517.0828857421875 545.4491577148438 516.5787963867188 545.314453125 516.1847534179688 545.0419311523438 C 515.3121337890625 544.4381103515625 514.5858154296875 544.6038208007812 513.794921875 545.203369140625 C 513.1802978515625 545.6692504882812 512.4736328125 546.0136108398438 511.809326171875 546.4140625 C 511.1840209960938 546.7910766601562 510.616943359375 546.7501831054688 510.08837890625 546.2169189453125 C 508.9107666015625 545.029052734375 507.7258911132812 543.8485717773438 506.5381469726562 542.6709594726562 C 506.0146484375 542.1519165039062 505.9205322265625 541.596923828125 506.3138427734375 540.9559936523438 C 506.8794555664062 540.0345458984375 507.415283203125 539.094482421875 507.99267578125 538.1804809570312 C 508.1932373046875 537.8629150390625 508.2137451171875 537.6068725585938 508.0311279296875 537.2767944335938 C 507.6670532226562 536.6184692382812 507.3777465820312 535.922607421875 507.16650390625 535.1995849609375 C 507.064697265625 534.8511962890625 506.887939453125 534.6675415039062 506.5087890625 534.5844116210938 C 505.4537963867188 534.3529052734375 504.4139404296875 534.0536499023438 503.3624267578125 533.8043212890625 C 502.6300659179688 533.630615234375 502.2894287109375 533.1685791015625 502.28662109375 532.4420776367188 C 502.2802124023438 530.769287109375 502.2803955078125 529.0965576171875 502.28662109375 527.4239501953125 C 502.2891845703125 526.6959228515625 502.6351318359375 526.2354736328125 503.3641357421875 526.0616455078125 C 504.392578125 525.816650390625 505.4111328125 525.5286865234375 506.4429931640625 525.2999877929688 C 506.8296508789062 525.2141723632812 507.06201171875 525.0694580078125 507.1710205078125 524.6677856445312 C 507.368408203125 523.9415283203125 507.6668701171875 523.2477416992188 508.0316162109375 522.5900268554688 C 508.2149658203125 522.2594604492188 508.1930541992188 522.0057983398438 507.990234375 521.6878051757812 C 507.4342041015625 520.8161010742188 506.91259765625 519.9221801757812 506.384765625 519.0328369140625 C 505.903564453125 518.221923828125 505.947265625 517.8037109375 506.594482421875 517.1519775390625 C 507.7398681640625 515.99853515625 508.8901977539062 514.8499755859375 510.045166015625 513.7061157226562 C 510.6530151367188 513.1041259765625 511.12255859375 513.0517578125 511.873046875 513.4938354492188 C 512.7845458984375 514.0303955078125 513.699462890625 514.5621948242188 514.5921630859375 515.128662109375 C 514.8833618164062 515.3133544921875 515.108642578125 515.3546752929688 515.41650390625 515.1838989257812 C 516.115966796875 514.7957763671875 516.858642578125 514.4946899414062 517.6226806640625 514.263916015625 C 517.9415283203125 514.1676025390625 518.0685424804688 514.0044555664062 518.1410522460938 513.6953125 C 518.3827514648438 512.6661376953125 518.6534423828125 511.6436767578125 518.916015625 510.6195068359375 C 519.151611328125 509.70068359375 519.4738159179688 509.432373046875 520.3837890625 509.4287719726562 C 521.1968994140625 509.4254150390625 522.010009765625 509.4237670898438 522.8231201171875 509.4237670898438 Z" stroke="none" fill="#291b14"/>
      </g>
      <g id="Path_66" data-name="Path 66" transform="translate(194.678 6233.587)" fill="none" stroke-linecap="round">
        <path d="M583.784,600.629a9.641,9.641,0,1,1,9.685-9.624A9.657,9.657,0,0,1,583.784,600.629Z" stroke="none"/>
        <path d="M 583.7971801757812 598.6287841796875 C 588.0228881835938 598.6287841796875 591.4647827148438 595.207763671875 591.4697875976562 591.0027465820312 C 591.4722290039062 588.9637451171875 590.677001953125 587.0433959960938 589.2305908203125 585.5955200195312 C 587.7835083007812 584.14697265625 585.861328125 583.3480834960938 583.8202514648438 583.345947265625 L 583.8095703125 583.345947265625 C 581.7590942382812 583.345947265625 579.833251953125 584.138427734375 578.386962890625 585.577392578125 C 576.9422607421875 587.0148315429688 576.1445922851562 588.9299926757812 576.140869140625 590.9701538085938 C 576.13720703125 593.0098266601562 576.9310302734375 594.9305419921875 578.3760986328125 596.37841796875 C 579.8218383789062 597.826904296875 581.7434692382812 598.6260986328125 583.788818359375 598.6287841796875 L 583.7971801757812 598.6287841796875 M 583.7971801757812 600.6287841796875 C 583.7926635742188 600.6287841796875 583.7890014648438 600.6287841796875 583.784423828125 600.6287841796875 C 578.4550170898438 600.621826171875 574.1312866210938 596.2897338867188 574.140869140625 590.966552734375 C 574.1505737304688 585.6422119140625 578.4695434570312 581.345947265625 583.8095703125 581.345947265625 C 583.8131713867188 581.345947265625 583.816650390625 581.345947265625 583.8202514648438 581.345947265625 C 589.1484985351562 581.3515014648438 593.4761962890625 585.6834716796875 593.4697875976562 591.0051879882812 C 593.4634399414062 596.3158569335938 589.1268920898438 600.6287841796875 583.7971801757812 600.6287841796875 Z" stroke="none" fill="#291b14"/>
      </g>
      <path id="Path_67" data-name="Path 67" d="M367.6,444.265H344.553a1.634,1.634,0,0,1-1.7-1.707V390" transform="translate(390.962 6395.913)" fill="none" stroke="#291b14" stroke-linecap="round" stroke-miterlimit="10" stroke-width="2"/>
      <path id="Path_68" data-name="Path 68" d="M364.753,306.761h2.86a1.28,1.28,0,0,1,1.343,1.357v2.031a5.055,5.055,0,0,1-5.422,5.068h-48.44s-4.056.076-4.056-4.645v-3.887s-.014-4.75,3.716-4.75H369.8s3.992.22,3.992,4.935v26.866" transform="translate(417.962 6471.065)" fill="none" stroke="#291b14" stroke-linecap="round" stroke-miterlimit="10" stroke-width="2"/>
      <path id="Path_69" data-name="Path 69" d="M632.806,301.935s-3.119-.095-3.119,6.309c0,0-.233,6.331,3.119,6.972" transform="translate(147.533 6471.065)" fill="none" stroke="#291b14" stroke-linecap="round" stroke-miterlimit="10" stroke-width="2"/>
      <g id="Path_70" data-name="Path 70" transform="translate(357.745 6376.104)" fill="none" stroke-linecap="round" stroke-miterlimit="10">
        <path d="M390.712,427.617a1.773,1.773,0,0,0,1.314.551h11.517a1.379,1.379,0,0,0,1.472-1.525s.476-5.736-6-10.763a13.254,13.254,0,0,0-16.388,1.428,1.293,1.293,0,0,0-.057,2.162Z" stroke="none"/>
        <path d="M 403.0173950195312 426.1681213378906 C 402.9967956542969 425.6975402832031 402.8984069824219 424.7604675292969 402.4800109863281 423.5865783691406 C 401.6719970703125 421.3196411132812 400.1083679199219 419.2693176269531 397.8323059082031 417.4918518066406 C 397.5650634765625 417.3119506835938 395.0415954589844 415.6771240234375 391.6690063476562 415.6771240234375 C 389.1124267578125 415.6771240234375 386.6629638671875 416.609619140625 384.3806457519531 418.4501037597656 L 392.0912170410156 426.1681213378906 L 403.0173950195312 426.1681213378906 M 403.5965270996094 428.1695251464844 C 403.5623168945312 428.1695251464844 403.54296875 428.1681213378906 403.54296875 428.1681213378906 L 392.0259094238281 428.1681213378906 C 391.1678161621094 428.1681213378906 390.7118530273438 427.6172180175781 390.7118530273438 427.6172180175781 L 382.5721740722656 419.4696960449219 C 381.2396850585938 418.2944641113281 382.6292114257812 417.3079833984375 382.6292114257812 417.3079833984375 C 390.9758911132812 410.0771484375 399.0173645019531 415.8797912597656 399.0173645019531 415.8798217773438 C 405.4912414550781 420.9068298339844 405.014892578125 426.6427001953125 405.014892578125 426.6427001953125 C 405.014892578125 428.0868225097656 403.8609313964844 428.1695251464844 403.5965270996094 428.1695251464844 Z" stroke="none" fill="#291b14"/>
      </g>
      <path id="Path_71" data-name="Path 71" d="M467.243,420.562l5.94-6.045s1.072-1.227,4.277-1.227h12.5" transform="translate(285.399 6376.446)" fill="none" stroke="#291b14" stroke-linecap="round" stroke-miterlimit="10" stroke-width="2"/>
      <path id="Path_72" data-name="Path 72" d="M1103.9,6868.429v19.38" transform="translate(-318.163 -81.108)" fill="none" stroke="#291b14" stroke-linecap="round" stroke-width="2"/>
      <path id="Path_73" data-name="Path 73" d="M1007.6,6924.482h9.806" transform="translate(-236.438 -128.702)" fill="none" stroke="#291b14" stroke-linecap="round" stroke-width="2"/>
      <path id="Path_74" data-name="Path 74" d="M976.146,6956.607h14.509" transform="translate(-209.744 -155.996)" fill="none" stroke="#291b14" stroke-linecap="round" stroke-width="2"/>
      <path id="Path_75" data-name="Path 75" d="M1007.6,6924.482h11.951" transform="translate(-260.527 -115.619)" fill="none" stroke="#291b14" stroke-linecap="round" stroke-width="2"/>
      <path id="Path_76" data-name="Path 76" d="M976.146,6956.607H995.3" transform="translate(-236.333 -142.913)" fill="none" stroke="#291b14" stroke-linecap="round" stroke-width="2"/>
      <path id="Path_77" data-name="Path 77" d="M976.146,6956.607h15.771" transform="translate(-236.333 -137.95)" fill="none" stroke="#291b14" stroke-linecap="round" stroke-width="2"/>
    </g>
  </g>
</svg>
