<svg id="Component_2_1" data-name="Component 2 – 1" xmlns="http://www.w3.org/2000/svg" width="68.002" height="75" viewBox="0 0 68.002 75">
  <circle id="Ellipse_55" data-name="Ellipse 55" cx="11" cy="11" r="11" transform="translate(0 53)" fill="#0fd7ad"/>
  <g id="Group_301" data-name="Group 301" transform="translate(-307 -6616)">
    <path id="Path_81" data-name="Path 81" d="M420.929,389.746a9.1,9.1,0,0,1,7.492-8.474s1.235-.008,7.344,0v7.364" transform="translate(-100.452 6246.036)" fill="none" stroke="#383838" stroke-linecap="round" stroke-miterlimit="10" stroke-width="2"/>
    <path id="Path_82" data-name="Path 82" d="M516.783,389.793s-.357-6.6,7.533-8.477H536.1s7.293,1.156,7.525,8.478" transform="translate(-178.107 6245.989)" fill="none" stroke="#383838" stroke-linecap="round" stroke-miterlimit="10" stroke-width="2"/>
    <path id="Path_83" data-name="Path 83" d="M378.849,531.15l-.665-.023s-4.936.5-5.292-4.42l0-8.72s-.248-6.925,7.495-8.739h7.341v7.179" transform="translate(-60.887 6141.371)" fill="none" stroke="#383838" stroke-linecap="round" stroke-miterlimit="10" stroke-width="2"/>
    <path id="Path_84" data-name="Path 84" d="M474.8,530.963l-.652-.023s-4.84.495-5.188-4.413l0-8.706A8.941,8.941,0,0,1,476.3,509.1h7.2l4.313-.034s6.848,1.234,7.28,8.372v9.114s.16,4.416-5.753,4.416" transform="translate(-139.377 6140.852)" fill="none" stroke="#383838" stroke-linecap="round" stroke-miterlimit="10" stroke-width="2"/>
    <line id="Line_1" data-name="Line 1" y1="24" transform="translate(319 6662)" fill="none" stroke="#383838" stroke-linecap="round" stroke-miterlimit="10" stroke-width="2"/>
    <line id="Line_8" data-name="Line 8" y1="24" transform="translate(335.933 6662)" fill="none" stroke="#383838" stroke-linecap="round" stroke-miterlimit="10" stroke-width="2"/>
    <line id="Line_9" data-name="Line 9" y1="24" transform="translate(349.895 6662)" fill="none" stroke="#383838" stroke-linecap="round" stroke-miterlimit="10" stroke-width="2"/>
    <line id="Line_3" data-name="Line 3" y1="11" transform="translate(326.958 6675)" fill="none" stroke="#383838" stroke-linecap="round" stroke-miterlimit="10" stroke-width="2"/>
    <line id="Line_10" data-name="Line 10" y1="7" transform="translate(342.914 6651)" fill="none" stroke="#383838" stroke-linecap="round" stroke-miterlimit="10" stroke-width="2"/>
    <line id="Line_11" data-name="Line 11" y1="6" transform="translate(351.889 6628)" fill="none" stroke="#383838" stroke-linecap="round" stroke-miterlimit="10" stroke-width="2"/>
    <line id="Line_2" data-name="Line 2" y1="24" transform="translate(366.827 6662)" fill="none" stroke="#383838" stroke-linecap="round" stroke-miterlimit="10" stroke-width="2"/>
    <line id="Line_7" data-name="Line 7" y1="11" transform="translate(342.914 6675)" fill="none" stroke="#383838" stroke-linecap="round" stroke-miterlimit="10" stroke-width="2"/>
    <path id="Path_85" data-name="Path 85" d="M381.76,531.15l.665-.023s4.936.5,5.292-4.42l0-8.72s.248-6.925-7.495-8.739h-7.341v7.179" transform="translate(-13.723 6141.371)" fill="none" stroke="#383838" stroke-linecap="round" stroke-miterlimit="10" stroke-width="2"/>
    <g id="Ellipse_3" data-name="Ellipse 3" transform="translate(320 6639)" fill="none" stroke="#383838" stroke-width="2">
      <ellipse cx="5.5" cy="6" rx="5.5" ry="6" stroke="none"/>
      <ellipse cx="5.5" cy="6" rx="4.5" ry="5" fill="none"/>
    </g>
    <g id="Ellipse_11" data-name="Ellipse 11" transform="translate(335.916 6638)" fill="none" stroke="#383838" stroke-width="2">
      <circle cx="6.5" cy="6.5" r="6.5" stroke="none"/>
      <circle cx="6.5" cy="6.5" r="5.5" fill="none"/>
    </g>
    <g id="Ellipse_7" data-name="Ellipse 7" transform="translate(328.943 6616)" fill="none" stroke="#383838" stroke-width="2">
      <ellipse cx="5.5" cy="6" rx="5.5" ry="6" stroke="none"/>
      <ellipse cx="5.5" cy="6" rx="4.5" ry="5" fill="none"/>
    </g>
    <g id="Ellipse_10" data-name="Ellipse 10" transform="translate(345.883 6616)" fill="none" stroke="#383838" stroke-width="2">
      <circle cx="6" cy="6" r="6" stroke="none"/>
      <circle cx="6" cy="6" r="5" fill="none"/>
    </g>
    <g id="Ellipse_4" data-name="Ellipse 4" transform="translate(352.827 6639)" fill="none" stroke="#383838" stroke-width="2">
      <circle cx="6" cy="6" r="6" stroke="none"/>
      <circle cx="6" cy="6" r="5" fill="none"/>
    </g>
    <line id="Line_12" data-name="Line 12" y1="11" transform="translate(330.947 6675)" fill="none" stroke="#383838" stroke-linecap="round" stroke-miterlimit="10" stroke-width="2"/>
    <line id="Line_13" data-name="Line 13" y1="11" transform="translate(354.881 6675)" fill="none" stroke="#383838" stroke-linecap="round" stroke-miterlimit="10" stroke-width="2"/>
    <line id="Line_14" data-name="Line 14" y1="11" transform="translate(359.867 6675)" fill="none" stroke="#383838" stroke-linecap="round" stroke-miterlimit="10" stroke-width="2"/>
  </g>
</svg>
