<svg xmlns="http://www.w3.org/2000/svg" width="74" height="74.412" viewBox="0 0 74 74.412">
  <g id="Component_1_1" data-name="Component 1 – 1" transform="translate(0 0.412)">
    <circle id="Ellipse_56" data-name="Ellipse 56" cx="11" cy="11" r="11" transform="translate(52 52)" fill="#0fd7ad"/>
    <g id="Group_22" data-name="Group 22" transform="translate(-1005 -6280)">
      <path id="Path_92" data-name="Path 92" d="M583.969,360.48v14.442a1.431,1.431,0,0,0,1.488,1.455h14.409" transform="translate(474.545 5920.108)" fill="none" stroke="#383838" stroke-linecap="round" stroke-miterlimit="10" stroke-width="2"/>
      <path id="Path_94" data-name="Path 94" d="M1052.034,6300.586h20.607" transform="translate(-21.162 -8.811)" fill="none" stroke="#383838" stroke-linecap="round" stroke-width="2"/>
      <path id="Path_96" data-name="Path 96" d="M1052.035,6300.586h38.27" transform="translate(-21.192 9.747)" fill="none" stroke="#383838" stroke-linecap="round" stroke-width="2"/>
      <path id="Path_97" data-name="Path 97" d="M1052.035,6300.586h38.27" transform="translate(-21.192 19.08)" fill="none" stroke="#383838" stroke-linecap="round" stroke-width="2"/>
      <g id="Path_86" data-name="Path 86" transform="translate(614.013 5920.868)" fill="none">
        <path d="M411,394.164q0-16.767,0-33.533c0-1.222.262-1.489,1.464-1.489q16.32,0,32.641-.011a1.392,1.392,0,0,1,1.082.433q7.184,7.22,14.394,14.414a1.483,1.483,0,0,1,.4,1.173q-.01,16.188-.006,32.377,0,10.082,0,20.163c0,1.158-.283,1.439-1.444,1.439H412.453c-1.167,0-1.448-.278-1.448-1.434Q411,410.931,411,394.164Z" stroke="none"/>
        <path d="M 435.9945983886719 427.1317749023438 C 443.6563720703125 427.1317749023438 451.318359375 427.1316528320312 458.9801635742188 427.1314697265625 C 458.9805908203125 423.0126953125 458.9805603027344 418.8941955566406 458.9804992675781 414.7754516601562 L 458.9806213378906 402.9776611328125 C 458.9808044433594 393.8759765625 458.9810180664062 384.465087890625 458.9864807128906 375.2082824707031 C 454.4625549316406 370.6954345703125 449.8607788085938 366.0871887207031 444.9301452636719 361.1321411132812 C 436.0492248535156 361.1402587890625 427.0241394042969 361.1412048339844 418.2943420410156 361.1421203613281 L 413.0049438476562 361.1427307128906 C 413.0046997070312 369.3136291503906 413.0047302246094 377.4850463867188 413.0047607421875 385.6560363769531 L 413.0047912597656 401.2022399902344 C 413.0047607421875 409.84521484375 413.0047302246094 418.4884033203125 413.0050964355469 427.1314697265625 C 420.6682434082031 427.1316528320312 428.3313903808594 427.1317749023438 435.9945983886719 427.1317749023438 M 435.9945983886719 429.1317749023438 C 428.1474609375 429.1317749023438 420.3003234863281 429.1316528320312 412.4532470703125 429.1314392089844 C 411.286376953125 429.1314392089844 411.005126953125 428.853515625 411.005126953125 427.697265625 C 411.0046081542969 416.5196838378906 411.0047912597656 405.3420715332031 411.0047912597656 394.1644897460938 C 411.0047912597656 382.9867248535156 411.0046081542969 371.8091125488281 411.0049743652344 360.6315307617188 C 411.0049743652344 359.4091186523438 411.26708984375 359.1427917480469 412.4694213867188 359.1427917480469 C 423.3495483398438 359.1412353515625 434.2296447753906 359.1420288085938 445.1099548339844 359.1319885253906 C 445.1106262207031 359.1319885253906 445.1113586425781 359.1319885253906 445.1120300292969 359.1319885253906 C 445.5499572753906 359.1319885253906 445.8763732910156 359.24755859375 446.1923217773438 359.5651245117188 C 450.9817199707031 364.3785705566406 455.7789611816406 369.1841735839844 460.5864562988281 373.9793701171875 C 460.9346618652344 374.3268737792969 460.9866333007812 374.7052001953125 460.9865112304688 375.1527404785156 C 460.9801025390625 385.9448852539062 460.9808959960938 396.7372131347656 460.9804992675781 407.529296875 C 460.9803161621094 414.2503356933594 460.9808959960938 420.9714050292969 460.9801025390625 427.6924743652344 C 460.9801025390625 428.8504333496094 460.6976013183594 429.1314392089844 459.5360717773438 429.1314392089844 C 451.6889343261719 429.1316528320312 443.8417663574219 429.1317749023438 435.9945983886719 429.1317749023438 Z" stroke="none" fill="#383838"/>
      </g>
      <g id="Group_21" data-name="Group 21" transform="translate(1005 6326.449)">
        <g id="Path_87" data-name="Path 87" transform="translate(-481.054 -566.754)" fill="#fff">
          <path d="M 492.8182983398438 589.3051147460938 C 489.9781799316406 589.3051147460938 487.2913513183594 588.18994140625 485.2527770996094 586.1649780273438 C 483.212158203125 584.137939453125 482.0763244628906 581.4518432617188 482.0545043945312 578.6013793945312 C 482.0323486328125 575.7059936523438 483.1361694335938 572.989501953125 485.1626892089844 570.9522705078125 C 487.1918334960938 568.912353515625 489.92333984375 567.7767333984375 492.85400390625 567.754638671875 C 492.8809509277344 567.75439453125 492.9082336425781 567.7543334960938 492.9351501464844 567.7543334960938 C 495.7602844238281 567.7543334960938 498.422119140625 568.866943359375 500.4303588867188 570.8873291015625 C 502.4443054199219 572.9134521484375 503.571533203125 575.6212768554688 503.6043395996094 578.5120849609375 C 503.6361999511719 581.3231811523438 502.5362548828125 584.0037841796875 500.5071411132812 586.06005859375 C 498.4754333496094 588.1189575195312 495.7897644042969 589.2711791992188 492.9448547363281 589.3043823242188 C 492.90283203125 589.3048706054688 492.8601684570312 589.3051147460938 492.8182983398438 589.3051147460938 Z" stroke="none"/>
          <path d="M 492.9351501464844 568.7543334960938 C 492.9107055664062 568.7543334960938 492.8858947753906 568.75439453125 492.861572265625 568.7545776367188 C 490.1961364746094 568.7747192382812 487.7137451171875 569.8056640625 485.8716430664062 571.657470703125 C 484.0348510742188 573.5040283203125 483.0343627929688 575.9673461914062 483.0544738769531 578.5936889648438 C 483.0742492675781 581.1787109375 484.1052551269531 583.6156005859375 485.95751953125 585.4555053710938 C 487.8074951171875 587.2930908203125 490.2440185546875 588.3051147460938 492.8182983398438 588.3051147460938 C 492.8562622070312 588.3051147460938 492.8949279785156 588.304931640625 492.9331665039062 588.304443359375 C 495.5129089355469 588.2742919921875 497.9499206542969 587.227783203125 499.7953491210938 585.357666015625 C 501.6355895996094 583.4927978515625 502.6332092285156 581.065673828125 502.6044006347656 578.5234375 C 502.5745544433594 575.8943481445312 501.5505981445312 573.4328002929688 499.7211303710938 571.59228515625 C 497.9020080566406 569.76220703125 495.4920349121094 568.7543334960938 492.9351501464844 568.7543334960938 M 492.9351501464844 566.7543334960938 C 499.328857421875 566.7543334960938 504.5302429199219 571.9802856445312 504.6042785644531 578.500732421875 C 504.6764526367188 584.8690185546875 499.3870849609375 590.2291870117188 492.95654296875 590.3043212890625 C 492.9106750488281 590.3048706054688 492.8640747070312 590.3051147460938 492.8182983398438 590.3051147460938 C 486.3999633789062 590.3051147460938 481.1038818359375 585.0552978515625 481.0545349121094 578.6090087890625 C 481.0044555664062 572.0662841796875 486.2384338378906 566.8045654296875 492.8464660644531 566.754638671875 C 492.8759155273438 566.75439453125 492.9057312011719 566.7543334960938 492.9351501464844 566.7543334960938 Z" stroke="none" fill="#383838"/>
        </g>
        <path id="Path_93" data-name="Path 93" d="M30.73,26.509,34.04,29.7a1.019,1.019,0,0,0,1.456,0l7.009-6.748" transform="translate(-24.253 -14.704)" fill="none" stroke="#383838" stroke-linecap="round" stroke-miterlimit="10" stroke-width="2"/>
      </g>
      <path id="Path_98" data-name="Path 98" d="M1052.034,6300.586h20.607" transform="translate(-21.162 0.414)" fill="none" stroke="#383838" stroke-linecap="round" stroke-width="2"/>
      <path id="Path_99" data-name="Path 99" d="M1052.035,6300.586h38.27" transform="translate(-21.192 28.413)" fill="none" stroke="#383838" stroke-linecap="round" stroke-width="2"/>
      <path id="Union_15" data-name="Union 15" d="M2.764,11.877a1.592,1.592,0,0,1-1.4-1.319c-.031-.143-.036-.292-.053-.438a2.155,2.155,0,0,1,.762-1.379c.435-.4.436-.4.043-.831Q1.579,7.33,1.04,6.752a4.214,4.214,0,0,1-.89-1.3c-.031-.1-.063-.2-.094-.3a3.059,3.059,0,0,1,.3-2,2.561,2.561,0,0,1,1.871-1.28A2.671,2.671,0,0,1,4.886,2.923c.084.109.164.22.246.331.022.058.041.118.066.174.156.346.114.559-.132.666s-.43-.023-.594-.361a1.562,1.562,0,0,0-.614-.765,1.858,1.858,0,0,0-2.373.093A1.738,1.738,0,0,0,.8,4.653a1.456,1.456,0,0,0,.3.919,20.375,20.375,0,0,0,1.5,1.715c.4.438.4.434.812.046a7.035,7.035,0,0,1-.187,1.2.283.283,0,0,0-.005.059.283.283,0,0,1,.005-.059,7.035,7.035,0,0,0,.187-1.2c.5-.556,1-1.118,1.5-1.668a6.133,6.133,0,0,1,.84-.917c.555-.257.862-.146,1.136.412.02.04.039.072.089.07a.784.784,0,0,1,.05.287.784.784,0,0,0-.05-.287c.183-.437.413-.622.753-.6.379.02.571.207.739.746.156-.263.3-.507.443-.748a.718.718,0,0,1,1.083-.209c.14.085.166.252.27.36l1-1.513a2.584,2.584,0,0,0,.456-.7c.074-.293-.3-.409-.446-.622a1.482,1.482,0,0,1-.294-.78,1.187,1.187,0,0,1,1.919-.9,1.41,1.41,0,0,1,.449.776,1.555,1.555,0,0,1-.34.991c-.2.242-.258.441-.013.7a1.737,1.737,0,0,1,.235.476A2.1,2.1,0,0,1,12.8,5.3a.388.388,0,0,0-.046.113c-1.261.962-2.623,1.78-3.925,2.712.158.067.268-.023.38-.062q2.293-.791,4.581-1.593L16.54,5.5c.271-.027.523-.241.812-.08.248.34.184.57-.2.717-.242.092-.485.182-.728.273-1.314.42-2.62.864-3.912,1.346q-1.849.625-3.7,1.25a3.289,3.289,0,0,1-.487.143.7.7,0,0,1-.767-.432.735.735,0,0,1,.262-.861c.216-.152.431-.305.647-.458l3.278-2.215a1.389,1.389,0,0,0,.547-2.077L11.027,5.09c-.044.058-.09.115-.131.175-.438.64-1.026.615-1.409-.074a7.409,7.409,0,0,0-.531.874A.727.727,0,0,1,7.889,6.3a.855.855,0,0,1-.3-.582c-.179.3-.305.595-.665.632q0-.026,0-.053,0,.026,0,.053A.631.631,0,0,1,6.435,6.3a.878.878,0,0,1-.369-.767c-.444.486-.849.928-1.252,1.372-.12.133-.233.272-.348.408-.273.291-.542.586-.821.872-.093.1-.1.16,0,.256.148.149.28.314.426.467a1.961,1.961,0,0,1,.61,1.529,1.777,1.777,0,0,1-.768,1.177,1.82,1.82,0,0,1-.9.284A1.3,1.3,0,0,1,2.764,11.877Zm-.008-.106c0-.2.074-.386.074-.583C2.83,11.385,2.756,11.575,2.756,11.771ZM3.83,10.577a.978.978,0,0,0-.318-1.132c-.159-.166-.3-.346-.456-.52a.172.172,0,0,0,.162-.193.172.172,0,0,1-.162.193,2.9,2.9,0,0,0-.81.848.79.79,0,0,0-.075.779,1.009,1.009,0,0,0,.657.585A.951.951,0,0,0,3.83,10.577Zm8.058-9.7a.364.364,0,0,0-.06.512,1.622,1.622,0,0,0,.408.411c.1-.158.2-.3.283-.461a.368.368,0,0,0-.14-.495A.391.391,0,0,0,12.15.76.378.378,0,0,0,11.888.874Z" transform="translate(1051.136 6333.247)" fill="#383838"/>
    </g>
  </g>
</svg>
