<svg xmlns="http://www.w3.org/2000/svg" xmlns:xlink="http://www.w3.org/1999/xlink" width="96" height="96" viewBox="0 0 96 96">
  <defs>
    <filter id="Path_26892" x="0" y="0" width="96" height="96" filterUnits="userSpaceOnUse">
      <feOffset dx="4" dy="16" input="SourceAlpha"/>
      <feGaussianBlur stdDeviation="6" result="blur"/>
      <feFlood flood-opacity="0.039"/>
      <feComposite operator="in" in2="blur"/>
      <feComposite in="SourceGraphic"/>
    </filter>
  </defs>
  <g id="education" transform="translate(-669 -10979)">
    <g transform="matrix(1, 0, 0, 1, 669, 10979)" filter="url(#Path_26892)">
      <path id="Path_26892-2" data-name="Path 26892" d="M10,0H50A10,10,0,0,1,60,10V50A10,10,0,0,1,50,60H10A10,10,0,0,1,0,50V10A10,10,0,0,1,10,0Z" transform="translate(14 2)" fill="#ff6d66" opacity="0.1"/>
    </g>
    <g id="Group_60" data-name="Group 60" transform="translate(304.635 10642.25)">
      <path id="Path_188" data-name="Path 188" d="M424.315,432.189a1.665,1.665,0,0,0,.148,1.684,3.82,3.82,0,0,1,.159.4.576.576,0,0,1-.3.745.536.536,0,0,1-.732-.291c-.153-.313-.269-.645-.419-.96a1.088,1.088,0,0,0-.233-.245,1.11,1.11,0,0,0-.1.3c-.014.325,0,.651-.009.976-.014.4-.242.651-.563.651a.6.6,0,0,1-.569-.648c-.013-.338,0-.677-.01-1.015a.885.885,0,0,0-.1-.263c-.075.069-.178.124-.219.21-.144.3-.259.621-.4.927a.559.559,0,0,1-.768.357.6.6,0,0,1-.279-.818c.05-.133.108-.264.165-.394a2.062,2.062,0,0,0,.241-1.353,2.054,2.054,0,0,1,.564-1.842c-.286-.242-.557-.47-.826-.7a1.767,1.767,0,0,1-.633-1.437c.01-2.134,0-4.269.01-6.4a.46.46,0,0,0-.353-.531c-.981-.343-1.952-.719-2.924-1.087-.48-.181-.679-.434-.665-.834a.85.85,0,0,1,.67-.792q5.489-2.052,10.973-4.117a2.793,2.793,0,0,1,2.039-.024q5.54,2.08,11.081,4.156a.807.807,0,0,1,.631.821.832.832,0,0,1-.634.782c-.986.368-1.968.751-2.96,1.1a.46.46,0,0,0-.349.533c.012,2.1,0,4.191.013,6.286a1.97,1.97,0,0,1-.7,1.606,11.19,11.19,0,0,1-5.591,2.529A14.281,14.281,0,0,1,424.315,432.189Zm-1.49-3.221c0,.3,0,.613,0,.925,0,.073.015.181.061.212a6.3,6.3,0,0,0,1.313.807,12.556,12.556,0,0,0,6.079.465,10.919,10.919,0,0,0,4.924-2.012,1.614,1.614,0,0,0,.569-1.759l-.37.252a12.1,12.1,0,0,1-5.692,1.985c-.453.046-.722-.15-.756-.508s.212-.6.648-.658c.389-.052.78-.093,1.164-.171a10.044,10.044,0,0,0,4.695-2.159.943.943,0,0,0,.354-.807c-.017-1-.006-2-.006-3.007v-.412c-.2.065-.34.108-.481.161-2.02.757-4.041,1.509-6.057,2.275a2.851,2.851,0,0,1-2.147,0c-.968-.382-1.946-.736-2.921-1.1-.444-.166-.891-.327-1.38-.506v3.536c0,1.177-.012,1.219,1.113,1.548.933.273,1.895.443,2.848.636.427.086.677.317.639.67s-.3.536-.726.5a6.423,6.423,0,0,1-.978-.132C424.766,429.481,423.817,429.224,422.826,428.967ZM439,419.655a1.152,1.152,0,0,0-.163-.1c-3.374-1.265-6.744-2.539-10.129-3.773a1.8,1.8,0,0,0-1.138.033c-2.564.929-5.114,1.9-7.668,2.857-.83.311-1.659.625-2.521.949a.952.952,0,0,0,.126.081c1.52.572,3.039,1.146,4.563,1.706a.541.541,0,0,0,.381-.052c1.161-.579,2.313-1.175,3.476-1.751a.49.49,0,0,0,.309-.5,2,2,0,0,1,2.151-2.05,2.093,2.093,0,0,1,1.734,2.561.919.919,0,0,1-.361.559,2.487,2.487,0,0,1-2,.4,1.838,1.838,0,0,0-1.7.262c-.193.122-.406.211-.61.315l-1.721.873c.19.078.3.127.414.17,1.068.4,2.145.783,3.2,1.213a2.172,2.172,0,0,0,1.692,0c2.12-.814,4.251-1.6,6.377-2.4C436.6,420.561,437.786,420.113,439,419.655Zm-17.384,7.262a.831.831,0,0,0,.06-.171c0-1.339.007-2.677,0-4.016a.348.348,0,0,0-.155-.263c-.3-.132-.6-.231-.947-.357,0,1.273,0,2.494,0,3.714a.425.425,0,0,0,.1.281C420.977,426.378,421.288,426.633,421.617,426.917Zm6.575-7.468.008.036a4.192,4.192,0,0,0,.615-.176.373.373,0,0,0,.184-.273.807.807,0,1,0-1.614,0c.02.446.437.313.693.409A.343.343,0,0,0,428.192,419.448Zm-5.9,13c.176-.048.4-.1.609-.175a.3.3,0,0,0,.162-.21.823.823,0,0,0-.516-.826.81.81,0,0,0-.962.348c-.267.424-.188.646.282.775C421.986,432.4,422.111,432.415,422.288,432.451Zm-1.665-4.823c-.206,1.022.045,1.511,1.054,2.024,0-.431.005-.84-.006-1.249a.277.277,0,0,0-.121-.179C421.247,428.021,420.937,427.829,420.623,427.629Z" transform="translate(-19.823 -58.902)" fill="#ff6d66"/>
      <path id="Path_189" data-name="Path 189" d="M463.386,650.685h-7.765a2.577,2.577,0,0,1-.337-.006.584.584,0,0,1-.045-1.149,1.73,1.73,0,0,1,.374-.016h15.679c.434.008.7.23.7.585s-.259.585-.694.586q-2.644,0-5.289,0Z" transform="translate(-55.015 -269.432)" fill="#ff6d66"/>
      <path id="Path_190" data-name="Path 190" d="M463.343,625.248h7.838c.5,0,.771.216.763.592s-.281.578-.784.579q-2.644,0-5.288,0H455.6c-.595,0-.882-.2-.875-.6s.278-.569.859-.569Z" transform="translate(-54.964 -247.696)" fill="#ff6d66"/>
      <path id="Path_191" data-name="Path 191" d="M484.893,674h5.617a2.373,2.373,0,0,1,.389.015.571.571,0,0,1,.06,1.112,2.074,2.074,0,0,1-.5.042q-5.578,0-11.156,0a2.3,2.3,0,0,1-.465-.031.572.572,0,0,1,.051-1.129,3.136,3.136,0,0,1,.389-.011Z" transform="translate(-76.509 -291.365)" fill="#ff6d66"/>
    </g>
    <path id="Path_187" data-name="Path 187" d="M421.5,348.75c.128.051.257.1.384.153a2.268,2.268,0,0,1,1.463,1.971,5.219,5.219,0,0,1,.018.546q0,7.948,0,15.9a3.711,3.711,0,0,1-.012.429.56.56,0,0,1-1.118,0,3.622,3.622,0,0,1-.014-.468q0-6.6,0-13.2v-.519h-27.7v.484q0,16.034,0,32.067c0,1.054.4,1.466,1.426,1.466H420.79c1.026,0,1.429-.411,1.429-1.464q0-7.636,0-15.272a3.584,3.584,0,0,1,.014-.468.56.56,0,0,1,1.118,0,4.159,4.159,0,0,1,.012.468q0,7.5,0,15c0,1.716-.342,2.248-1.866,2.9H395.236a5.756,5.756,0,0,1-.626-.264,2.46,2.46,0,0,1-1.245-2.365q.014-17.371.007-34.743c0-.169,0-.339.017-.507a2.2,2.2,0,0,1,1.028-1.734,6.478,6.478,0,0,1,.82-.388Zm.72,3.591c0-.369,0-.716,0-1.063a1.187,1.187,0,0,0-1.342-1.355H399.515c-.134,0-.268.012-.4.018v2.4Zm-24.3-2.408c-.828,0-1.626-.023-2.422.009a1.013,1.013,0,0,0-.932.847,14.967,14.967,0,0,0-.012,1.548h3.366Z" transform="translate(304.635 10642.25)" fill="#ff6d66"/>
  </g>
</svg>
