<svg xmlns="http://www.w3.org/2000/svg" xmlns:xlink="http://www.w3.org/1999/xlink" width="96" height="96" viewBox="0 0 96 96">
  <defs>
    <filter id="Rectangle_174" x="0" y="0" width="96" height="96" filterUnits="userSpaceOnUse">
      <feOffset dx="4" dy="16" input="SourceAlpha"/>
      <feGaussianBlur stdDeviation="6" result="blur"/>
      <feFlood flood-opacity="0.039"/>
      <feComposite operator="in" in2="blur"/>
      <feComposite in="SourceGraphic"/>
    </filter>
  </defs>
  <g id="Group_25150" data-name="Group 25150" transform="translate(-422 -10979)">
    <g transform="matrix(1, 0, 0, 1, 422, 10979)" filter="url(#Rectangle_174)">
      <rect id="Rectangle_174-2" data-name="Rectangle 174" width="60" height="60" rx="10" transform="translate(14 2)" fill="#7595ec" opacity="0.1"/>
    </g>
    <g id="Group_57" data-name="Group 57" transform="translate(74.25 10630.25)">
      <path id="Path_154" data-name="Path 154" d="M397.732,360.75q2.764,2.743,5.523,5.492a.762.762,0,0,1,.228.47c.015,2,.01,3.993.01,6.014h-1.31v-5.288c-.177-.008-.31-.02-.443-.02-.933,0-1.865,0-2.8,0a2.005,2.005,0,0,1-2.128-2.109c0-1.027,0-2.055,0-3.082a1.108,1.108,0,0,0-.028-.142H376.309a2.021,2.021,0,0,0-2.222,2.223q0,16.453,0,32.905a2.015,2.015,0,0,0,2.2,2.2q11.839,0,23.679,0a2.278,2.278,0,0,0,1.515-.5l.864.976a3.6,3.6,0,0,1-1.689.856H375.591a10.661,10.661,0,0,1-1.423-.631,3.424,3.424,0,0,1-1.418-2.2V363.583c.03-.089.066-.177.089-.268a3.286,3.286,0,0,1,1.785-2.217,8.862,8.862,0,0,1,.966-.349Zm.424,2.409c0,.762-.032,1.55.022,2.331a.744.744,0,0,0,.469.541c.82.058,1.646.026,2.414.026Z" transform="translate(0)" fill="#7595ec"/>
      <path id="Path_155" data-name="Path 155" d="M582.089,503.509c-.337.535-.89.457-1.451.46,0,.677,0,1.322,0,1.967,0,.679-.25.927-.932.927q-6.323,0-12.647,0c-.679,0-.923-.249-.926-.931,0-.633,0-1.267,0-1.97-.238,0-.457.008-.676,0a.716.716,0,0,1-.77-.764c-.012-1-.028-2,.006-2.991a2.153,2.153,0,0,1,2.1-2.04c.483-.015.966,0,1.4,0,.355-.549.672-1.075,1.025-1.577a2.769,2.769,0,0,0,.543-1.781c-.022-.437-.021-.877,0-1.314a5.656,5.656,0,0,0-1.132-3.64,5.792,5.792,0,1,1,9.6-.141,6.373,6.373,0,0,0-1.221,4.164,2.6,2.6,0,0,1,0,.453,3.5,3.5,0,0,0,.8,2.655,14.085,14.085,0,0,1,.766,1.2c1.454-.14,2.909-.093,3.512,1.7Zm-5.246-5.373a8.259,8.259,0,0,1-.61-.942,4.607,4.607,0,0,1-.608-1.582,25.865,25.865,0,0,1,.09-3.79A6.184,6.184,0,0,1,576.974,489a4.307,4.307,0,0,0-.18-5.15,4.345,4.345,0,0,0-7,5.145,6.858,6.858,0,0,1,1.368,3.4c.062.811.019,1.63.046,2.444a3.956,3.956,0,0,1-.76,2.507c-.178.248-.338.509-.525.794Zm3.746,4.355a.415.415,0,0,0,.041-.107q.006-.838.008-1.675c0-.9-.191-1.1-1.076-1.1h-9.148c-1.147,0-2.295,0-3.442,0-.491,0-.81.232-.826.654-.029.734-.008,1.47-.008,2.225ZM579.15,505.4v-1.412H567.619V505.4Z" transform="translate(-171.339 -109.015)" fill="#7595ec"/>
      <path id="Path_158" data-name="Path 158" d="M423.257,572.042a7.252,7.252,0,1,1-7.287-7.285A7.262,7.262,0,0,1,423.257,572.042Zm-7.246,5.768a5.8,5.8,0,1,0-5.807-5.784A5.805,5.805,0,0,0,416.011,577.809Z" transform="translate(-31.652 -182.864)" fill="#7595ec"/>
      <path id="Path_159" data-name="Path 159" d="M429.3,458.5v1.4H409.045v-1.4Z" transform="translate(-31.907 -87.716)" fill="#7595ec"/>
      <path id="Path_160" data-name="Path 160" d="M408.924,506.337v-1.4h20.251v1.4Z" transform="translate(-31.801 -129.812)" fill="#7595ec"/>
      <path id="Path_162" data-name="Path 162" d="M444.925,435.837v-1.4h13.751v1.4Z" transform="translate(-64.3 -67.394)" fill="#7595ec"/>
      <path id="Path_164" data-name="Path 164" d="M504.927,554.335v-1.4h15.9v1.4Z" transform="translate(-124.376 -173.289)" fill="#7595ec"/>
      <path id="Path_166" data-name="Path 166" d="M411.793,435.935h-2.846v-1.4h2.846Z" transform="translate(-31.821 -67.481)" fill="#7595ec"/>
      <path id="Path_168" data-name="Path 168" d="M411.815,554.35h-2.838v-1.411h2.838Z" transform="translate(-31.848 -173.291)" fill="#7595ec"/>
      <path id="Path_169" data-name="Path 169" d="M443.5,606.523l3.864-3.876,1.062,1.076c-.39.362-.785.711-1.159,1.081-1.02,1.009-2.029,2.028-3.045,3.04-.512.51-.84.511-1.345.009q-.963-.958-1.919-1.924a.508.508,0,0,1-.055-.1l1.034-.944Z" transform="translate(-60.562 -215.367)" fill="#7595ec"/>
    </g>
  </g>
</svg>
