<svg xmlns="http://www.w3.org/2000/svg" xmlns:xlink="http://www.w3.org/1999/xlink" width="96" height="96" viewBox="0 0 96 96">
  <defs>
    <filter id="Rectangle_182" x="0" y="0" width="96" height="96" filterUnits="userSpaceOnUse">
      <feOffset dx="4" dy="16" input="SourceAlpha"/>
      <feGaussianBlur stdDeviation="6" result="blur"/>
      <feFlood flood-opacity="0.039"/>
      <feComposite operator="in" in2="blur"/>
      <feComposite in="SourceGraphic"/>
    </filter>
  </defs>
  <g id="Group_25148" data-name="Group 25148" transform="translate(-806 -11144)">
    <g transform="matrix(1, 0, 0, 1, 806, 11144)" filter="url(#Rectangle_182)">
      <rect id="Rectangle_182-2" data-name="Rectangle 182" width="60" height="60" rx="10" transform="translate(14 2)" fill="#7595ec" opacity="0.1"/>
    </g>
    <path id="Path_179" data-name="Path 179" d="M378.6,381.553l-.442-.535c-.1.132-.177.228-.251.324a3.93,3.93,0,0,1-3.127,1.595c-.652.016-1.3,0-1.957,0a.69.69,0,0,1-.52-1.2,6.444,6.444,0,0,0,1.771-4.819,7.571,7.571,0,0,1,.069-1.645,2.234,2.234,0,0,1,3.086-1.651c.293.123.574.277.881.426a3.325,3.325,0,0,1,2.4-1.28,3.27,3.27,0,0,1,3.507,2.96,23.887,23.887,0,0,1,.006,3.556,3.184,3.184,0,0,1-1.143,2.179c.5.5.981.984,1.461,1.474a3.17,3.17,0,0,1,.013,4.725.923.923,0,0,0-.3.739c.021.7.007,1.408.007,2.131l5.423,1.228c1.231.279,2.464.552,3.693.842a4.047,4.047,0,0,1,3.14,3.662q.485,4.869,1.013,9.733a.708.708,0,0,0,.307.441c.846.541,1.7,1.069,2.566,1.573a.944.944,0,0,1,.526.965c-.023.352,0,.707-.008,1.06a.661.661,0,0,1-.706.716q-3.29.011-6.58,0a.626.626,0,0,1-.7-.633c.056-2.092-.615-4.063-.951-6.089-.249-1.5-.594-2.988-.872-4.485-.052-.279-.163-.329-.409-.328q-3.54.011-7.08,0a.511.511,0,0,0-.5.338c-1.248,2.234-2.508,4.46-3.753,6.695a3.943,3.943,0,0,1-4.1,2.22c-2.541-.253-5.078-.538-7.617-.809-.676-.072-1.354-.132-2.028-.219a.463.463,0,0,0-.531.276c-.486.855-1,1.694-1.489,2.548a.855.855,0,0,1-.843.5c-.374-.018-.75.006-1.124-.007a.659.659,0,0,1-.7-.721q-.011-3.349,0-6.7c0-.491.28-.717.83-.718q3.394,0,6.789,0c1.624,0,3.249-.006,4.873.006a.41.41,0,0,0,.47-.339c.752-2.333,1.539-4.653,2.263-6.995a7,7,0,0,0,.1-1.55,3.566,3.566,0,0,0-.528-2.136,5.509,5.509,0,0,1,.227-6.184C376.657,384.092,377.653,382.839,378.6,381.553Zm15.266,26.091c.592-.361,1.1-.723,1.644-.985.46-.22.506-.529.458-.977-.338-3.116-.659-6.233-.983-9.35a2.68,2.68,0,0,0-2-2.378c-.295-.079-.593-.146-.89-.213-.886-.2-1.772-.4-2.667-.594v4.721c.607,0,1.187,0,1.768,0s.772.145.887.721q.538,2.7,1.067,5.394C393.383,405.182,393.619,406.381,393.867,407.644Zm-18.555-5.988c-.183.553-.357,1.084-.534,1.615-.2.6-.336.7-.966.7h-8.927c.123.63.249,1.208.344,1.791.04.244.145.317.378.339.911.083,1.82.192,2.73.289,2.344.249,4.688.505,7.033.74a2.33,2.33,0,0,0,2.238-.959c.571-.806,1.024-1.7,1.545-2.581-1.218-.622-2.38-1.216-3.544-1.808C375.529,401.741,375.44,401.709,375.313,401.656Zm6.041-6.5c.444,0,.891-.029,1.331.009.377.033.459-.245.506-.482.019-.093-.215-.294-.369-.357a11.239,11.239,0,0,0-1.3-.442,1.28,1.28,0,0,1-.875-.761c-.517-1.108-1.036-2.219-1.621-3.29a1.3,1.3,0,0,1,.117-1.608c.917-1.223,1.774-2.492,2.645-3.75a1.365,1.365,0,0,0,.032-1.622,1.391,1.391,0,0,0-1.51-.542,2.118,2.118,0,0,0-1.269.893c-.66.908-1.333,1.807-2,2.712a4.467,4.467,0,0,0,.007,5.6c.655.894,1.374,1.747,1.953,2.689a1.722,1.722,0,0,0,1.934.957A2.39,2.39,0,0,1,381.353,395.153Zm6.66,2.709a.471.471,0,0,0,.045-.113c0-1.555.011-3.109,0-4.664a.441.441,0,0,0-.276-.306c-1.092-.267-2.2-.483-3.283-.769a9.409,9.409,0,0,0-2.956-.23,1.129,1.129,0,0,0,.912.988,2.757,2.757,0,0,1,1.017.356,6.6,6.6,0,0,1,1.181,1.084c.1.115.046.438-.027.63-.151.393-.375.756-.546,1.142a.822.822,0,0,1-.853.534c-1.1-.014-2.2-.039-3.29.009a1.373,1.373,0,0,1-1.385-.7c-.315-.515-.712-.978-1.142-1.557,0,.427-.01.722,0,1.016a2.649,2.649,0,0,0,2.512,2.575C382.611,397.886,385.3,397.862,388.013,397.862ZM381.6,399.19c-1.946.177-3.682-.025-4.891-1.821l-.97,2.964L379.8,402.4Zm-7.436-17.642a2.735,2.735,0,0,0,3.236-2.886c.009-1.07.051-2.14.067-3.21a.368.368,0,0,0-.137-.258,2.777,2.777,0,0,0-.441-.233.963.963,0,0,0-1.492.949c-.009.719.012,1.441-.041,2.157A7.539,7.539,0,0,1,374.168,381.548Zm8.549-4.715a6.575,6.575,0,0,1-.884-.007,1.365,1.365,0,0,0-1.4.588,1.62,1.62,0,0,1-1.625.791c-.017,0-.04.034-.073.064,0,.213-.007.439,0,.664a2.026,2.026,0,0,0,1.87,1.968,1.974,1.974,0,0,0,2.1-1.755C382.774,378.394,382.717,377.631,382.717,376.833Zm.668,7.123a4.878,4.878,0,0,1-1.134,2.193c-.481.692-.966,1.381-1.449,2.071-.677.965-.679.966-.084,1.979.05.084.151.192.231.194.59.017,1.18.009,1.784.009,0-.587.041-1.113-.009-1.631a2.191,2.191,0,0,1,.847-2.227.841.841,0,0,0,.186-.227A1.725,1.725,0,0,0,383.385,383.956Zm-21.3,25.4.093.088a1.279,1.279,0,0,0,.3-.258c.48-.794.953-1.592,1.411-2.4a.778.778,0,0,0,.087-.475c-.121-.709-.263-1.415-.417-2.117a.335.335,0,0,0-.229-.215c-.41-.022-.822-.01-1.246-.01Zm37.267.03.089-.093a1.227,1.227,0,0,0-.247-.31c-.743-.466-1.49-.923-2.247-1.364a.475.475,0,0,0-.4-.015c-.781.455-1.552.928-2.316,1.411-.092.058-.125.211-.213.37Zm-20.567-32.483a2.561,2.561,0,0,0,.529-.278,9.562,9.562,0,0,0,.794-.8,1.009,1.009,0,0,1,.847-.353c.532.019,1.065,0,1.612,0a1.925,1.925,0,0,0-2.216-1.318C379.183,374.413,378.577,375.431,378.785,376.906Z" transform="translate(469.264 10784.236)" fill="#7595ec"/>
  </g>
</svg>
