<svg xmlns="http://www.w3.org/2000/svg" xmlns:xlink="http://www.w3.org/1999/xlink" width="96" height="96" viewBox="0 0 96 96">
  <defs>
    <filter id="Rectangle_173" x="0" y="0" width="96" height="96" filterUnits="userSpaceOnUse">
      <feOffset dx="4" dy="16" input="SourceAlpha"/>
      <feGaussianBlur stdDeviation="6" result="blur"/>
      <feFlood flood-opacity="0.039"/>
      <feComposite operator="in" in2="blur"/>
      <feComposite in="SourceGraphic"/>
    </filter>
  </defs>
  <g id="Group_25149" data-name="Group 25149" transform="translate(-291 -10979)">
    <g transform="matrix(1, 0, 0, 1, 291, 10979)" filter="url(#Rectangle_173)">
      <rect id="Rectangle_173-2" data-name="Rectangle 173" width="60" height="60" rx="10" transform="translate(14 2)" fill="#f9865f" opacity="0.1"/>
    </g>
    <g id="Group_56" data-name="Group 56" transform="translate(-33.75 10639.104)">
      <path id="Path_151" data-name="Path 151" d="M348.75,377.939a1.251,1.251,0,0,1,1.191-.568c1.405.027,2.812.009,4.218.009.8,0,.976.125,1.246.889l2.433-.41.073-.12c-.39-.367-.8-.718-1.166-1.1a11.489,11.489,0,0,1-1.97-12.841.878.878,0,0,1,.442-.449.627.627,0,0,1,.574.171,1.038,1.038,0,0,1,.052.726,24.39,24.39,0,0,0-.862,2.785,9.924,9.924,0,0,0,2.491,8.657c.53.583,1.094,1.134,1.632,1.709a.491.491,0,0,0,.506.176q2.768-.48,5.542-.923a11.107,11.107,0,0,1,3.873.283c.651.126,1.311.216,1.954.378a3.187,3.187,0,0,1,2.521,2.231,2.346,2.346,0,0,1-1.936,2.983,8.89,8.89,0,0,1-2.169-.02c-.92-.077-1.833-.23-2.75-.342a.738.738,0,0,0-.912.642.787.787,0,0,0,.667.919c1.855.34,3.7.743,5.574.957a10.038,10.038,0,0,0,2.573-.33c.1-.015.186-.136.267-.22,2.7-2.811,5.457-5.575,8.095-8.448a9.96,9.96,0,0,0,2.131-10.219,2,2,0,0,0-.089-.2,6.774,6.774,0,0,1-6.108.067,7.036,7.036,0,0,1-3.84-4.854,9.514,9.514,0,0,0-3.047,1.928c-.365.339-.706.706-1.076,1.038a.861.861,0,0,1-1.375-.008c-.36-.325-.69-.683-1.047-1.012a9.012,9.012,0,0,0-5.823-2.559,6.5,6.5,0,0,0-5.039,1.924c-.047.046-.091.1-.137.141-.335.33-.658.361-.921.088s-.216-.608.1-.942a7.383,7.383,0,0,1,2.63-1.811,8.9,8.9,0,0,1,7.85.714,12.637,12.637,0,0,1,3.064,2.491c.309-.3.605-.589.905-.873a10.653,10.653,0,0,1,3.443-2.212.433.433,0,0,0,.326-.483,6.879,6.879,0,0,1,.641-2.918c.21-.454.512-.611.851-.446s.409.491.21.951a5.885,5.885,0,0,0,4.1,8.216,5.771,5.771,0,0,0,6.788-4.536,5.873,5.873,0,0,0-4.318-6.929,5.667,5.667,0,0,0-4.777,1,1.1,1.1,0,0,1-.7.2.581.581,0,0,1-.366-.431.833.833,0,0,1,.253-.6,6.291,6.291,0,0,1,3.215-1.421,6.938,6.938,0,0,1,7.924,6.008,2.44,2.44,0,0,0,.07.261v1.43a2.186,2.186,0,0,0-.072.265,6.911,6.911,0,0,1-2.351,4.353.591.591,0,0,0-.2.756,11.219,11.219,0,0,1-2.56,11.676c-2.172,2.321-4.4,4.589-6.6,6.882-.079.082-.15.172-.289.333.992-.2,1.892-.38,2.795-.55a17.2,17.2,0,0,1,2.377-.4,2.235,2.235,0,0,1,2.318,1.47,2.443,2.443,0,0,1-.879,2.718,4.8,4.8,0,0,1-1.41.733c-3.5,1.162-7.005,2.282-10.5,3.44a8.891,8.891,0,0,1-5.37.249c-3.154-.9-6.317-1.763-9.477-2.64-.381-.106-.764-.2-1.143-.3-.192.685-.454.885-1.114.886-1.471,0-2.943-.01-4.414.006a1.075,1.075,0,0,1-1.108-.635Zm6.595,5.5c0,1.191.01,2.383-.007,3.574,0,.3.095.4.371.474,3.438.94,6.879,1.868,10.3,2.86a7.64,7.64,0,0,0,4.677-.049c2.136-.711,4.281-1.394,6.421-2.091,1.559-.508,3.119-1.013,4.675-1.53a1.8,1.8,0,0,0,1.285-1.218.883.883,0,0,0-.578-1.17,2.346,2.346,0,0,0-1.07-.1c-2.35.449-4.689.954-7.039,1.4a8.28,8.28,0,0,1-2.5.272c-1.958-.246-3.9-.637-5.839-1.022a1.912,1.912,0,0,1-1.447-2.286,1.874,1.874,0,0,1,2.162-1.587c.916.114,1.829.265,2.749.346a6.874,6.874,0,0,0,1.932,0,1.2,1.2,0,0,0,.621-2.058,2.5,2.5,0,0,0-1.549-.843c-.525-.092-1.051-.182-1.573-.293a11.161,11.161,0,0,0-4.3-.227q-4.477.787-8.962,1.529c-.268.045-.342.137-.339.4C355.351,381.034,355.345,382.238,355.345,383.443Zm-5.392-4.849v9.719h4.2v-9.719Z" fill="#f9865f"/>
      <path id="Path_152" data-name="Path 152" d="M463.1,494.8c-.552.964-1.083,1.893-1.615,2.822-.3.528-.647.536-.97.024-.311-.493-.621-.986-.962-1.527-.252.416-.492.787-.7,1.172a.672.672,0,0,1-.671.385c-.823-.016-1.647,0-2.471-.006-.375,0-.574-.16-.572-.451s.2-.44.581-.441c.685,0,1.37-.016,2.054.007a.508.508,0,0,0,.531-.311c.248-.451.524-.888.792-1.328s.617-.446.894-.015c.325.507.644,1.017.986,1.558.072-.113.126-.191.174-.273q.74-1.29,1.476-2.581c.115-.2.224-.4.5-.4.264.007.366.2.473.4q1.014,1.851,2.03,3.7c.056.1.115.2.193.342.37-.62.727-1.2,1.063-1.791a.679.679,0,0,1,.669-.386c1.151.015,2.3,0,3.453.007.365,0,.577.215.517.524-.056.286-.263.37-.529.369-1.032,0-2.064.005-3.1-.006a.414.414,0,0,0-.419.239c-.37.645-.756,1.281-1.138,1.918-.131.218-.227.481-.552.471s-.405-.28-.527-.5q-.99-1.8-1.975-3.6C463.238,495.03,463.182,494.937,463.1,494.8Z" transform="translate(-92.238 -125.652)" fill="#f9865f"/>
      <path id="Path_153" data-name="Path 153" d="M640.67,393.076c0-.573,0-1.1,0-1.619,0-.5.2-.755.579-.767.4-.013.626.252.633.763s0,1.046,0,1.622c.536,0,1.031,0,1.525,0a1.523,1.523,0,0,1,.478.058.544.544,0,0,1,.374.64.536.536,0,0,1-.541.5c-.431.018-.863.009-1.294.012h-.54c0,.45,0,.863,0,1.276a4,4,0,0,1-.022.605.556.556,0,0,1-.616.517.549.549,0,0,1-.566-.569c-.019-.431-.009-.864-.01-1.3,0-.533,0-.533-.514-.534-.4,0-.81.007-1.214,0-.42-.01-.671-.241-.673-.6a.608.608,0,0,1,.665-.612C639.5,393.064,640.06,393.076,640.67,393.076Z" transform="translate(-259.519 -34.793)" fill="#f9865f"/>
    </g>
  </g>
</svg>
