<svg xmlns="http://www.w3.org/2000/svg" xmlns:xlink="http://www.w3.org/1999/xlink" width="96" height="96" viewBox="0 0 96 96">
  <defs>
    <filter id="Rectangle_175" x="0" y="0" width="96" height="96" filterUnits="userSpaceOnUse">
      <feOffset dx="4" dy="16" input="SourceAlpha"/>
      <feGaussianBlur stdDeviation="6" result="blur"/>
      <feFlood flood-opacity="0.039"/>
      <feComposite operator="in" in2="blur"/>
      <feComposite in="SourceGraphic"/>
    </filter>
  </defs>
  <g id="Group_25151" data-name="Group 25151" transform="translate(-535 -10979)">
    <g transform="matrix(1, 0, 0, 1, 535, 10979)" filter="url(#Rectangle_175)">
      <rect id="Rectangle_175-2" data-name="Rectangle 175" width="60" height="60" rx="10" transform="translate(14 2)" fill="#91ba83" opacity="0.1"/>
    </g>
    <g id="Group_59" data-name="Group 59" transform="translate(210.25 10642.25)">
      <path id="Path_178" data-name="Path 178" d="M356.094,388.75h-1.016c-.085-.026-.17-.059-.257-.079A3.608,3.608,0,0,1,352.651,383c.056-.079.1-.165.187-.3h-1.924a2.006,2.006,0,0,1-1.7-.8,6.007,6.007,0,0,1-.463-.886v-.781a2.165,2.165,0,0,1,2.026-1.707c.337-.022.677-.006,1.015-.006h1.491v-.478q0-4.237,0-8.474c0-.507.021-1.015.06-1.52a15.462,15.462,0,0,1,10.88-13.5c.345-.1.832-.114.994-.348.179-.259.069-.724.07-1.1,0-1.18.327-1.564,1.473-1.743.022,0,.04-.031.089-.071a1.982,1.982,0,0,1,.005-.439,6.031,6.031,0,0,1,.335-1.255,1.931,1.931,0,0,1,1.168-.843h.781a2.146,2.146,0,0,1,1.5,2.594c.127.019.189.031.252.037a1.34,1.34,0,0,1,1.316,1.407c.008.364.019.73,0,1.093-.018.281.071.4.357.477a15.434,15.434,0,0,1,11.656,15.1q.007,4.3,0,8.59v.477c.831,0,1.611,0,2.39,0a2.007,2.007,0,0,1,1.715.846,5.84,5.84,0,0,1,.427.865v.781a1.477,1.477,0,0,0-.081.17,2.076,2.076,0,0,1-2,1.511c-.481.016-.963,0-1.445,0h-.587c.127.177.195.27.26.363a3.612,3.612,0,0,1-1.838,5.509c-.208.068-.422.119-.633.177h-1.016a1.75,1.75,0,0,0-.211-.078,3.609,3.609,0,0,1-2.141-5.708c.049-.068.09-.142.167-.264H378.7q-5.077,0-10.153,0a2.166,2.166,0,0,1-.465-.03.572.572,0,0,1,.014-1.114,2.711,2.711,0,0,1,.505-.025l17.651,0a3.526,3.526,0,0,0,.583-.032.895.895,0,0,0,.149-1.721,2.026,2.026,0,0,0-.614-.077q-17.632-.005-35.264,0a2.478,2.478,0,0,0-.389.016.918.918,0,0,0-.794.92.9.9,0,0,0,.829.881,4.3,4.3,0,0,0,.507.017h14.215a3.233,3.233,0,0,1,.506.022.57.57,0,0,1,.037,1.114,2.072,2.072,0,0,1-.465.033q-3.4,0-6.8,0h-.508c.12.163.182.244.241.327a3.608,3.608,0,0,1-1.923,5.576C356.41,388.651,356.252,388.7,356.094,388.75ZM383.045,378.5v-.323c0-2.968.015-5.936-.011-8.9a15.192,15.192,0,0,0-.219-2.4,14.285,14.285,0,0,0-28.357,2.46c-.014,2.942,0,5.884,0,8.826,0,.113.014.226.021.341h4.657a3.533,3.533,0,0,1-.385-2c.007-2.551,0-5.1,0-7.654a2.563,2.563,0,0,1,2.731-2.741c1.315,0,2.63,0,3.944,0h.447c0-.542,0-1.034,0-1.527a1.788,1.788,0,0,1,1.909-1.905c.625-.006,1.25,0,1.875,0a1.821,1.821,0,0,1,2.056,2.069c0,.45,0,.9,0,1.336a1.188,1.188,0,0,0,.137.024q2.07,0,4.14,0a2.569,2.569,0,0,1,2.754,2.758q0,3.651,0,7.3a4.053,4.053,0,0,1-.384,2.336Zm-11.5.008V367.3h-5.593v11.211Zm-6.818-.008V367.3h-1.39c0,.366,0,.7,0,1.041,0,.456.013.912-.011,1.367a.582.582,0,0,1-.581.572.576.576,0,0,1-.576-.569c-.013-.168-.006-.338-.007-.508,0-.633,0-1.267,0-1.932h-.6a1.432,1.432,0,0,0-1.646,1.647q0,4,0,8.007a2.089,2.089,0,0,0,.046.541c.245.9.991,1.224,2.193.98v-.419q0-2.832,0-5.664a2.538,2.538,0,0,1,.017-.428c.048-.275.23-.484.5-.448a1.076,1.076,0,0,1,.585.341c.092.1.07.321.071.488q.006,2.871,0,5.742v.439Zm10.6-11.215v.473q0,2.928,0,5.856a3.26,3.26,0,0,1-.01.39.54.54,0,0,1-.544.513.531.531,0,0,1-.579-.423,1.646,1.646,0,0,1-.039-.424q0-2.947,0-5.895V367.3h-1.391V378.5h1.391v-.448c0-.559-.008-1.119,0-1.679.008-.422.249-.674.6-.666.34.008.552.252.565.658.005.156,0,.312,0,.468,0,.555,0,1.11,0,1.691.326,0,.6.005.87,0a1.343,1.343,0,0,0,1.368-1.359q.017-4.255,0-8.51a1.343,1.343,0,0,0-1.25-1.36C376.012,367.259,375.7,367.285,375.331,367.285ZM358,385.146a2.436,2.436,0,0,0-4.872-.035,2.436,2.436,0,1,0,4.872.035Zm23.947-2.437a2.433,2.433,0,0,0-.026,4.866,2.433,2.433,0,1,0,.026-4.866Zm-11.4-16.624c0-.583.022-1.14-.008-1.694a.556.556,0,0,0-.607-.538q-1.13-.017-2.261,0a.54.54,0,0,0-.589.511c-.032.566-.009,1.134-.009,1.72Zm.5-12.139c0-.344.019-.734-.013-1.119a.393.393,0,0,0-.279-.262c-1.327-.018-2.655-.016-3.982,0-.1,0-.269.116-.273.187-.026.421-.013.844-.013,1.2Zm-1.612-2.588c.142-.685.047-1.12-.292-1.322a.674.674,0,0,0-.8.032c-.461.348-.263.831-.3,1.29Z" fill="#91ba83"/>
    </g>
  </g>
</svg>
