<svg xmlns="http://www.w3.org/2000/svg" xmlns:xlink="http://www.w3.org/1999/xlink" width="96" height="96" viewBox="0 0 96 96">
  <defs>
    <filter id="Rectangle_177" x="0" y="0" width="96" height="96" filterUnits="userSpaceOnUse">
      <feOffset dx="4" dy="16" input="SourceAlpha"/>
      <feGaussianBlur stdDeviation="6" result="blur"/>
      <feFlood flood-opacity="0.039"/>
      <feComposite operator="in" in2="blur"/>
      <feComposite in="SourceGraphic"/>
    </filter>
  </defs>
  <g id="Group_25153" data-name="Group 25153" transform="translate(-806 -10979)">
    <g transform="matrix(1, 0, 0, 1, 806, 10979)" filter="url(#Rectangle_177)">
      <rect id="Rectangle_177-2" data-name="Rectangle 177" width="60" height="60" rx="10" transform="translate(14 2)" fill="#0fd7ad" opacity="0.1"/>
    </g>
    <g id="Group_58" data-name="Group 58" transform="translate(481.25 10642.25)">
      <path id="Path_170" data-name="Path 170" d="M348.75,366.328c.175-.293.411-.491.769-.373s.408.421.407.759q-.009,3.925,0,7.85v.461H387.55V353.053h-3.469c-.561,0-.83-.2-.823-.6s.28-.579.845-.579h3.469c0-.469.023-.909-.007-1.345a.629.629,0,0,0-.61-.6,3.1,3.1,0,0,0-.39-.007h-35.62c-.851,0-1.021.172-1.021,1.032,0,.286,0,.572,0,.924h30.688a2.209,2.209,0,0,1,.467.016.549.549,0,0,1,.482.612.543.543,0,0,1-.52.537,3.692,3.692,0,0,1-.468.009H349.923v10.224c0,.1-.006.209,0,.312.022.337-.045.64-.4.762s-.591-.084-.773-.367v-13.75a2.116,2.116,0,0,1,1.484-1.484h37.031a2.109,2.109,0,0,1,1.484,1.484v28.281A2.117,2.117,0,0,1,386.438,380c-4.282-.03-8.564-.012-12.847-.012H373.1c0,1.347-.006,2.646.011,3.945,0,.1.148.228.256.295.775.477,1.55.955,2.342,1.4a.9.9,0,0,1,.526.911c-.023.454-.02.911,0,1.366a.9.9,0,0,1-.378.839H361.641a.9.9,0,0,1-.378-.838,13.077,13.077,0,0,0,0-1.327.924.924,0,0,1,.525-.951c.793-.446,1.569-.923,2.341-1.406a.561.561,0,0,0,.26-.371c.018-1.236.01-2.473.006-3.709a.639.639,0,0,0-.048-.158h-.476c-4.269,0-8.539-.018-12.808.012a2.115,2.115,0,0,1-2.313-1.486Zm1.176,9.919c0,.671-.013,1.295,0,1.918a.634.634,0,0,0,.581.634,2.165,2.165,0,0,0,.389.014h35.7a2.311,2.311,0,0,0,.389-.014.605.605,0,0,0,.567-.558c.03-.658.009-1.319.009-1.993Zm15.689,3.762a.864.864,0,0,0-.035.164c0,1.249-.01,2.5.008,3.747a.54.54,0,0,0,.256.378,5.784,5.784,0,0,0,5.807.019.487.487,0,0,0,.279-.5c-.012-1.158,0-2.316-.007-3.474,0-.111-.018-.222-.028-.335Zm9.443,7.553a2.441,2.441,0,0,1,0-.391.731.731,0,0,0-.484-.851c-.608-.321-1.18-.71-1.782-1.046a.533.533,0,0,0-.442-.007,6.987,6.987,0,0,1-7.2,0,.49.49,0,0,0-.408-.013c-.712.4-1.412.83-2.108,1.261a.412.412,0,0,0-.18.265c-.025.254-.009.511-.009.783Z" fill="#0fd7ad"/>
      <path id="Path_171" data-name="Path 171" d="M438.681,422.15H427.744c-.733,0-.9-.164-.9-.893q0-8.788,0-17.577c0-.7.173-.872.88-.872h21.991c.678,0,.859.18.859.854q0,8.828,0,17.655c0,.648-.187.833-.841.833Zm10.7-1.194v-13.19H428.045v13.19Zm0-16.951H428.048v2.531H449.38Z" transform="translate(-69.961 -48.426)" fill="#0fd7ad"/>
      <path id="Path_172" data-name="Path 172" d="M512.14,487.5c-.2-.15-.418-.239-.49-.4a1.061,1.061,0,0,1,.013-.585c.016-.087.126-.159.2-.233q2.37-2.372,4.746-4.739a.86.86,0,0,1,.482-.285.667.667,0,0,1,.519.242,1.027,1.027,0,0,1,.032.614c-.013.1-.137.182-.219.265q-2.356,2.358-4.718,4.711A4.647,4.647,0,0,1,512.14,487.5Z" transform="translate(-145.897 -118.707)" fill="#0fd7ad"/>
      <path id="Path_173" data-name="Path 173" d="M585.482,483.986l-1.885-1.881a2.051,2.051,0,0,1-.241-.254.557.557,0,0,1,.041-.778.516.516,0,0,1,.771-.035q1.315,1.276,2.59,2.593a.52.52,0,0,1-.045.773q-1.233,1.249-2.482,2.481a.586.586,0,0,1-.84.017.6.6,0,0,1,.047-.869C584.1,485.357,584.776,484.691,585.482,483.986Z" transform="translate(-210.045 -118.367)" fill="#0fd7ad"/>
      <path id="Path_174" data-name="Path 174" d="M464.319,484.1l1.806,1.791c.083.082.169.162.247.249a.609.609,0,0,1,.022.871.6.6,0,0,1-.841-.039q-1.235-1.218-2.453-2.455a.554.554,0,0,1,0-.862q1.215-1.238,2.453-2.455a.57.57,0,0,1,.864-.02.59.59,0,0,1-.035.84c-.571.587-1.155,1.161-1.733,1.74C464.546,483.863,464.451,483.966,464.319,484.1Z" transform="translate(-102.253 -118.469)" fill="#0fd7ad"/>
      <path id="Path_175" data-name="Path 175" d="M595.484,421.872a.646.646,0,0,1-.632-.62.619.619,0,0,1,.62-.62.6.6,0,0,1,.624.609A.626.626,0,0,1,595.484,421.872Z" transform="translate(-220.467 -64.394)" fill="#0fd7ad"/>
      <path id="Path_176" data-name="Path 176" d="M620.139,421.229a.625.625,0,0,1-.6.644.647.647,0,0,1-.643-.609.619.619,0,0,1,.608-.631A.6.6,0,0,1,620.139,421.229Z" transform="translate(-242.006 -64.394)" fill="#0fd7ad"/>
      <path id="Path_177" data-name="Path 177" d="M572.061,421.243a.63.63,0,0,1-.617.629.643.643,0,0,1-.628-.623.618.618,0,0,1,.622-.617A.606.606,0,0,1,572.061,421.243Z" transform="translate(-198.934 -64.394)" fill="#0fd7ad"/>
    </g>
  </g>
</svg>
