<svg xmlns="http://www.w3.org/2000/svg" xmlns:xlink="http://www.w3.org/1999/xlink" width="96" height="96" viewBox="0 0 96 96">
  <defs>
    <filter id="Rectangle_180" x="0" y="0" width="96" height="96" filterUnits="userSpaceOnUse">
      <feOffset dx="4" dy="16" input="SourceAlpha"/>
      <feGaussianBlur stdDeviation="6" result="blur"/>
      <feFlood flood-opacity="0.039"/>
      <feComposite operator="in" in2="blur"/>
      <feComposite in="SourceGraphic"/>
    </filter>
  </defs>
  <g id="Group_25146" data-name="Group 25146" transform="translate(-535 -11144)">
    <g transform="matrix(1, 0, 0, 1, 535, 11144)" filter="url(#Rectangle_180)">
      <rect id="Rectangle_180-2" data-name="Rectangle 180" width="60" height="60" rx="10" transform="translate(14 2)" fill="#f9865f" opacity="0.1"/>
    </g>
    <g id="Group_45" data-name="Group 45" transform="translate(145.99 10745.553)">
      <path id="Path_118" data-name="Path 118" d="M433.116,414.968a2.371,2.371,0,0,0-2.21,1.661L418.387,418.3a2.078,2.078,0,0,0-1.705,2.345,2.017,2.017,0,0,0,1.946,1.842,1.912,1.912,0,0,0,.245-.016l.51-.067-3.749,11.88a.613.613,0,0,0-.022.088h-2.6l.055.764a4.632,4.632,0,0,0,4.461,4.43h6.788a4.633,4.633,0,0,0,4.462-4.43l.054-.764H426.4c-.006-.028-.014-.059-.023-.088l-3.879-12.3,8.259-1.1v20.526h-4.306a2.525,2.525,0,0,0,0,5.038h13.319a2.525,2.525,0,0,0,0-5.038H435.47V420.255l8.006-1.066-3.661,11.6a.623.623,0,0,0-.022.09h-2.6l.054.764a4.633,4.633,0,0,0,4.462,4.429h6.788a4.632,4.632,0,0,0,4.461-4.429l.055-.764h-2.426a.619.619,0,0,0-.022-.09l-3.8-12.04.867-.116a2.081,2.081,0,0,0,1.707-2.345,2,2,0,0,0-2.192-1.826l-12.083,1.61A2.314,2.314,0,0,0,433.116,414.968Zm-5.8,20.82a3.212,3.212,0,0,1-3,2.357h-6.788a3.213,3.213,0,0,1-3-2.357Zm-2.137-1.419H416.84l3.831-12.141.649-.086Zm14.6,8.3a1.262,1.262,0,0,1,0,2.519H426.456a1.262,1.262,0,0,1,0-2.519h13.319Zm11.72-10.37a3.212,3.212,0,0,1-3,2.355h-6.788a3.212,3.212,0,0,1-3-2.355Zm-2.138-1.419H441.02l3.743-11.863.817-.108Zm-2.064-15.167a.762.762,0,0,1,.1-.006.81.81,0,0,1,.781.739.881.881,0,0,1-.162.62.775.775,0,0,1-.522.319l-12.017,1.6-.589.079-.589.078v22.266h-2.353V419.458l-.589.078-.589.078-12.034,1.6a.737.737,0,0,1-.58-.173.848.848,0,0,1-.3-.558.874.874,0,0,1,.16-.621.774.774,0,0,1,.524-.319l12.228-1.63.589-.079.589-.078v-.273a1.31,1.31,0,0,1,.057-.37,1.253,1.253,0,0,1,.509-.7,1.112,1.112,0,0,1,.61-.187,1.086,1.086,0,0,1,.342.06,1.2,1.2,0,0,1,.661.547,1.3,1.3,0,0,1,.17.612l.582-.078.591-.078Z" transform="translate(0 0)" fill="#f9865f"/>
    </g>
  </g>
</svg>
