<svg xmlns="http://www.w3.org/2000/svg" xmlns:xlink="http://www.w3.org/1999/xlink" width="96" height="96" viewBox="0 0 96 96">
  <defs>
    <filter id="Rectangle_181" x="0" y="0" width="96" height="96" filterUnits="userSpaceOnUse">
      <feOffset dx="4" dy="16" input="SourceAlpha"/>
      <feGaussianBlur stdDeviation="6" result="blur"/>
      <feFlood flood-opacity="0.039"/>
      <feComposite operator="in" in2="blur"/>
      <feComposite in="SourceGraphic"/>
    </filter>
  </defs>
  <g id="Group_25147" data-name="Group 25147" transform="translate(-669 -11144)">
    <g transform="matrix(1, 0, 0, 1, 669, 11144)" filter="url(#Rectangle_181)">
      <rect id="Rectangle_181-2" data-name="Rectangle 181" width="60" height="60" rx="10" transform="translate(14 2)" fill="#91ba83" opacity="0.1"/>
    </g>
    <path id="Union_26" data-name="Union 26" d="M4.527,40a4.508,4.508,0,0,1-.181-9.013c1.554-.031,3.109-.025,4.664-.019q1.034,0,2.068.005h.536c0-.445-.016-.87,0-1.293a15.843,15.843,0,0,1,.181-2.6,9.755,9.755,0,0,1,.864-1.881,2.2,2.2,0,0,0,.232-.688c.038-.41.011-.826.011-1.268h-1.26v-1.3H12.9c0-.618,0-1.192,0-1.766,0-.6.222-.818.832-.82.753,0,1.505,0,2.258,0,.55,0,.776.234.78.791,0,.577,0,1.153,0,1.774h1.266v1.3H16.778c0,.56-.008,1.092.007,1.623,0,.091.095.187.16.269a5.023,5.023,0,0,1,1.118,3.206c0,.87,0,1.74,0,2.631H29.676c0-.163-.006-.332,0-.5a30.09,30.09,0,0,1,.192-3.406,7.733,7.733,0,0,1,.85-1.841,2.19,2.19,0,0,0,.236-.686c.038-.41.011-.827.011-1.27H29.708v-1.3h1.258c0-.617,0-1.19,0-1.764,0-.607.219-.824.825-.827q1.129,0,2.257,0c.554,0,.782.231.787.784,0,.577,0,1.155,0,1.776H36.1v1.3H34.84c0,.559-.008,1.091.007,1.621,0,.092.091.189.157.27a5.044,5.044,0,0,1,1.123,3.244c0,.884,0,1.768,0,2.66a4.519,4.519,0,0,1-.479,8.985c-.054,0-.108,0-.161,0l-16.43,0Q11.791,40,4.527,40Zm-.111-7.729a3.224,3.224,0,1,0,.266,6.443q15.319,0,30.638,0c.107,0,.215,0,.322,0a3.224,3.224,0,0,0-.226-6.444q-5.472-.007-10.944,0H8.447q-.6,0-1.2,0t-1.194,0C5.5,32.251,4.96,32.255,4.416,32.266ZM14.2,24.881a1.169,1.169,0,0,1-.339.907,2.948,2.948,0,0,0-.881,1.857c-.054,1.093-.014,2.19-.014,3.3h3.809c0-.908.007-1.793,0-2.676a3.888,3.888,0,0,0-.977-2.536,1.466,1.466,0,0,1-.3-.787c-.045-.557-.014-1.119-.014-1.7h-1.29C14.193,23.812,14.178,24.347,14.2,24.881Zm18.044.095a2.127,2.127,0,0,1-.284.757,6.041,6.041,0,0,0-.837,1.615c-.176,1.181-.151,2.391-.209,3.59h3.923c0-.9,0-1.774,0-2.646a3.883,3.883,0,0,0-.989-2.572,1.377,1.377,0,0,1-.287-.751c-.042-.569-.013-1.144-.013-1.726h-1.29C32.256,23.851,32.286,24.416,32.243,24.976ZM14.217,21.91h1.236V20.667H14.217Zm18.057,0h1.24V20.668h-1.24ZM4.684,37.419a1.964,1.964,0,0,1-2.1-1.752,1.939,1.939,0,0,1,1.97-2.116c1.988-.008,3.977,0,5.966,0H20q7.679,0,15.357,0a1.937,1.937,0,1,1,.247,3.865c-.094.006-.188,0-.282,0H4.684ZM4.5,34.842a.641.641,0,1,0,.014,0Zm15.48,0a.641.641,0,1,0,.016,0Zm-8.367.633a.642.642,0,1,0,.65-.633h-.009A.648.648,0,0,0,11.616,35.475Zm23.224,0a.642.642,0,1,0,.648-.635h-.007A.648.648,0,0,0,34.84,35.477Zm-7.741,0a.642.642,0,1,0,.648-.635H27.74A.648.648,0,0,0,27.1,35.477Zm-5.2.636h3.948V34.856H21.9Zm-7.741,0H18.1V34.856H14.154Zm-7.741,0h3.948V34.856H6.412ZM29.637,36.1h3.948V34.859H29.637ZM21.4,29.031c-.522,0-.755-.242-.756-.773,0-1.519-.01-3.037,0-4.556a4.978,4.978,0,0,1,1.1-3.092.949.949,0,0,0,.18-.5c.025-.442.008-.886.008-1.374H20.672v-1.3H21.9c.052-.556.125-1.04-.376-1.469-.652-.558-1.228-1.2-1.835-1.813-.455-.458-.458-.746-.01-1.2.682-.686,1.374-1.363,2.045-2.06a.89.89,0,0,0,.2-.485c.033-.265-.007-.538.012-.805a2.328,2.328,0,0,0-.594-1.872,3.1,3.1,0,0,1,.426-4.37,3.178,3.178,0,0,1,4.4.222.841.841,0,0,0,.693.292c1.64-.011,3.279-.005,4.919-.005h.471c0-.613,0-1.187,0-1.761,0-.6.223-.817.833-.819.563,0,1.126,0,1.749,0,0-.228-.011-.437,0-.645a.619.619,0,0,1,.641-.639q1.935-.017,3.87,0a.623.623,0,0,1,.641.68c.012.5,0,.994,0,1.492q0,4.274,0,8.548c0,.685-.2.886-.888.886q-1.673,0-3.347,0c-.738,0-.919-.183-.925-.929,0-.1,0-.21,0-.361-.6,0-1.176,0-1.75,0-.608,0-.827-.219-.83-.823,0-.564,0-1.128,0-1.757H26.781a1.085,1.085,0,0,0-.975.99,5.559,5.559,0,0,0,.072,1.951c.225.552.856.939,1.31,1.4.312.315.632.623.939.943a.653.653,0,0,1,0,1.054c-.573.586-1.131,1.192-1.746,1.731a1.391,1.391,0,0,0-.506,1.608h1.2V18.7H25.809c0,.56-.01,1.092.009,1.623,0,.1.109.208.182.3a4.861,4.861,0,0,1,1.087,3.013c.02,1.545.01,3.091.006,4.637,0,.523-.242.756-.773.757q-1.23,0-2.459,0T21.4,29.031Zm1.828-8.666a1.17,1.17,0,0,1-.338.907A3.306,3.306,0,0,0,22,23.129a8.6,8.6,0,0,0-.063,1.083c-.008,1.164,0,2.329,0,3.512H25.8c0-1.344.006-2.657,0-3.971a3.873,3.873,0,0,0-.976-2.537,1.468,1.468,0,0,1-.3-.787c-.045-.557-.014-1.12-.014-1.693h-1.29C23.225,19.3,23.21,19.831,23.23,20.365Zm.022-2.975h1.243V16.15H23.252Zm-.269-5.772a.283.283,0,0,0-.183.058c-.625.62-1.244,1.245-1.894,1.9.436.424.836.819,1.245,1.205a.381.381,0,0,0,.237.094q1.485.01,2.971,0a.381.381,0,0,0,.236-.1c.409-.386.809-.781,1.257-1.216C26.2,12.913,25.6,12.316,25,11.727a.393.393,0,0,0-.244-.106q-.438-.007-.876-.006T22.982,11.618Zm.273-1.314h1.229V9.011H23.255Zm12.888,0h2.54V1.322h-2.54ZM33.567,9.016h1.242v-6.4H33.567ZM21.936,5.781a1.934,1.934,0,1,0,1.942-1.906H23.87A1.942,1.942,0,0,0,21.936,5.781Zm5.136.654h5.16V5.183h-5.16ZM16.315,17.582l1.5-1.431-1.886-1.88c-.225,0-.457-.016-.69-.033a3.256,3.256,0,0,0-1.493.106c-.642.276-1.089,1.007-1.62,1.54-.074.074-.141.155-.245.27.252.245.488.48.73.709s.494.452.761.7l-.971.875c-.613-.6-1.286-1.236-1.927-1.9-.269-.279-.209-.608.107-.928.689-.7,1.394-1.381,2.071-2.09a.893.893,0,0,0,.236-.549c.019-1.424.011-2.848.01-4.273a1.119,1.119,0,0,0-.936-.947q-1.955,0-3.91,0H7.742c0,.609,0,1.183,0,1.757,0,.6-.222.821-.829.823-.563,0-1.127,0-1.751,0,0,.212.007.407,0,.6a.637.637,0,0,1-.681.684q-1.895.014-3.789,0c-.471,0-.687-.269-.687-.8Q0,7.344,0,3.877C0,2.856,0,1.835,0,.814,0,.231.226.006.8,0Q2.536,0,4.269,0c.69,0,.887.2.892.882,0,.119,0,.238,0,.408H6.823c.734,0,.917.188.919.936q0,.766.007,1.532a.494.494,0,0,0,.045.113h.374c.941,0,1.882-.02,2.822.006a2.54,2.54,0,0,0,1.951-.612,3.082,3.082,0,0,1,4.361.463,3.183,3.183,0,0,1-.262,4.4.75.75,0,0,0-.272.619c.011,1.4,0,2.795.015,4.192a.893.893,0,0,0,.225.553c.658.691,1.342,1.356,2.014,2.033.449.453.449.745,0,1.2-.585.59-1.174,1.176-1.749,1.751Zm-2.1-4.7h1.251V9.011H14.213ZM1.32,10.306H3.85V1.311H1.32Zm3.866-1.3h1.25v-6.4H5.185Zm9.647-5.131a1.935,1.935,0,1,0,.005,0ZM7.77,6.433h3.866V5.187H7.77Z" transform="translate(693 11156)" fill="#91ba83"/>
  </g>
</svg>
