<svg xmlns="http://www.w3.org/2000/svg" xmlns:xlink="http://www.w3.org/1999/xlink" width="96" height="96" viewBox="0 0 96 96">
  <defs>
    <filter id="Rectangle_178" x="0" y="0" width="96" height="96" filterUnits="userSpaceOnUse">
      <feOffset dx="4" dy="16" input="SourceAlpha"/>
      <feGaussianBlur stdDeviation="6" result="blur"/>
      <feFlood flood-opacity="0.039"/>
      <feComposite operator="in" in2="blur"/>
      <feComposite in="SourceGraphic"/>
    </filter>
  </defs>
  <g id="Group_25144" data-name="Group 25144" transform="translate(-291 -11144)">
    <g transform="matrix(1, 0, 0, 1, 291, 11144)" filter="url(#Rectangle_178)">
      <rect id="Rectangle_178-2" data-name="Rectangle 178" width="60" height="60" rx="10" transform="translate(14 2)" fill="#ff6d66" opacity="0.1"/>
    </g>
    <path id="Union_25" data-name="Union 25" d="M24.811,34.914a15.874,15.874,0,0,1-9.581,0c-.252.474-.472.946-.742,1.386a7.824,7.824,0,0,1-11.811,1.74c-.384-.342-.425-.732-.1-1,.25-.205.548-.172.876.114A6.757,6.757,0,0,0,6.6,38.707a6.68,6.68,0,1,0-5.35-7.5,6.8,6.8,0,0,0,.531,3.7c.185.416.086.745-.249.9s-.629,0-.825-.426c-.011-.024-.023-.047-.033-.071a7.858,7.858,0,0,1,1.586-8.654A8,8,0,0,1,4.824,24.9c.082-.035.162-.075.259-.121a15.815,15.815,0,0,1-.027-9.571A18.226,18.226,0,0,1,3,13.913,7.492,7.492,0,0,1,.231,6.031,7.606,7.606,0,0,1,6.246.084C6.331.063,6.413.028,6.5,0H9.232a2.281,2.281,0,0,0,.247.088A7.832,7.832,0,0,1,14.626,3.84c.218.366.389.76.589,1.155a15.778,15.778,0,0,1,9.573-.008c.037-.028.052-.034.057-.045.059-.13.115-.262.176-.391a7.808,7.808,0,0,1,4.6-4.2C30,.211,30.407.116,30.8,0h2.735c.359.1.725.189,1.076.317a7.526,7.526,0,0,1,5.288,6.3A7.683,7.683,0,0,1,35.256,15c-.093.042-.188.083-.31.137a15.966,15.966,0,0,1-.007,9.65A7.875,7.875,0,0,1,33.285,39.93a7.715,7.715,0,0,1-1.037.07A7.989,7.989,0,0,1,24.811,34.914Zm.688-2.753a6.673,6.673,0,1,0,6.677-6.7h0A6.7,6.7,0,0,0,25.5,32.161ZM13.387,26.606a7.768,7.768,0,0,1,2.16,7.159,14.243,14.243,0,0,0,8.93-.018,7.91,7.91,0,0,1,9.306-9.307,14.138,14.138,0,0,0,0-8.958,7.732,7.732,0,0,1-7.127-2.15,7.77,7.77,0,0,1-2.171-7.2,14.556,14.556,0,0,0-8.941,0c.016.153.022.257.039.36a7.791,7.791,0,0,1-1.45,5.988c-.363.5-.7.616-1.027.362-.3-.238-.277-.572.084-1.057a6.673,6.673,0,1,0-7.8,2.195,6.563,6.563,0,0,0,5.588-.3c.444-.225.768-.163.941.177s.03.636-.414.868a7.118,7.118,0,0,1-2.976.86c-.761.036-1.526.007-2.354.007a14.485,14.485,0,0,0,.042,8.857A10,10,0,0,1,7.88,24.3,7.509,7.509,0,0,1,13.387,26.606ZM25.5,7.777A6.673,6.673,0,1,0,32.148,1.1,6.706,6.706,0,0,0,25.5,7.777ZM29.83,36.31a1.644,1.644,0,0,1-1.814-1.817q-.005-2.346,0-4.692A1.632,1.632,0,0,1,29.83,27.99c.781,0,1.562,0,2.342,0s1.562,0,2.342,0A1.634,1.634,0,0,1,36.33,29.8q.005,2.346,0,4.692a1.646,1.646,0,0,1-1.814,1.817l-2.342,0Zm0-7.145c-.521,0-.637.123-.638.656q0,2.328,0,4.657c0,.521.134.657.64.658q2.344,0,4.689,0c.5,0,.637-.14.639-.661,0-.77,0-1.539,0-2.309s0-1.565,0-2.348c0-.526-.123-.652-.642-.653l-2.356,0ZM5.716,34.214q0-2.188,0-4.376a.826.826,0,0,1,.934-.878,3.053,3.053,0,0,1,.4.174q1.86,1.067,3.713,2.146a.833.833,0,0,1,0,1.573Q8.913,33.933,7.052,35a1.177,1.177,0,0,1-.577.173C6.03,35.171,5.717,34.816,5.716,34.214Zm1.195-.487,2.867-1.661L6.91,30.406Zm25.256.184a1.77,1.77,0,1,1,1.77-1.751,1.752,1.752,0,0,1-1.77,1.751Zm-.586-1.778a.591.591,0,0,0,1.182.022.594.594,0,0,0-.579-.607h-.011A.6.6,0,0,0,31.581,32.134ZM16.512,25.741c-.06-1.107-.113-2.214-.168-3.321-.007-.141-.015-.281-.024-.453-.216-.011-.408-.018-.6-.032a1.138,1.138,0,0,1-1.1-1.145q-.019-1.565,0-3.13A1.142,1.142,0,0,1,15.8,16.515a13.727,13.727,0,0,1,2.107.016,6.85,6.85,0,0,0,3.661-.77c.516-.213,1.012-.475,1.514-.721.322-.158.645-.288.644-.766,0-.136.316-.371.5-.381a.84.84,0,0,1,.546.333c.091.107.074.322.075.489q.005,4.519,0,9.038a1.535,1.535,0,0,1-.044.424.526.526,0,0,1-.59.4.492.492,0,0,1-.515-.487c0-.328-.175-.454-.42-.573q-.439-.213-.865-.451a.587.587,0,1,1,.518-1.05c.233.1.459.225.724.356V16.182l-4.5,1.724c0,.8-.006,1.7.011,2.6,0,.078.148.19.248.223.382.127.775.219,1.159.343a.594.594,0,0,1,.455.778.605.605,0,0,1-.8.341.378.378,0,0,1-.074-.024,3.537,3.537,0,0,0-1.915-.236c-.242.014-.487.029-.735.026.047.937.092,1.821.136,2.7.018.352.04.7.048,1.055.01.435-.2.687-.559.7H17.1C16.759,26.406,16.535,26.165,16.512,25.741Zm-.7-5.007h2.14V17.7h-2.14Zm15.263-9.172c0-.952,0-1.9,0-2.855,0-.141,0-.281,0-.475-.285,0-.528.007-.771,0a.592.592,0,0,1-.643-.584.608.608,0,0,1,.652-.584c.232-.009.465,0,.762,0,0-.515,0-1,0-1.493a2.25,2.25,0,0,1,.738-1.782,2.778,2.778,0,0,1,2.354-.53.512.512,0,0,1,.441.6.537.537,0,0,1-.53.529c-.141.01-.283.009-.425.008-.119,0-.237,0-.355,0a1.007,1.007,0,0,0-1.037,1c-.026.442-.01.886-.011,1.329,0,.09.009.18.017.333.265,0,.518,0,.772,0,.427.009.689.228.7.575.009.369-.249.589-.707.6-.243,0-.487,0-.78,0,0,.3,0,.556,0,.813,0,.834,0,1.668,0,2.5,0,.508-.2.761-.577.765h-.008C31.283,12.314,31.077,12.058,31.075,11.562Zm-27.62-.532a.569.569,0,0,1-.32-.683.559.559,0,0,1,.572-.437c.384-.031.767-.073,1.151-.11l.026-.111a3.522,3.522,0,0,1-1.3-2.159,4.58,4.58,0,0,1,.246-2.494.584.584,0,0,1,1.084-.176,3.311,3.311,0,0,0,1.735,1.2c.111.03.225.048.355.075.04-.129.074-.238.107-.347a2.151,2.151,0,0,1,3.131-1.3.58.58,0,0,0,.7-.023c.085-.059.175-.149.267-.155.219-.014.5-.063.644.047a.724.724,0,0,1,.2.6,2.367,2.367,0,0,1-.385.926,1.96,1.96,0,0,0-.31,1.058,4.931,4.931,0,0,1-3.088,4.426,5.115,5.115,0,0,1-2,.416A6.017,6.017,0,0,1,3.455,11.029ZM5.832,8.918c.183.122.387.212.577.324a.587.587,0,0,1,.057,1.047c-.1.077-.217.142-.326.213l.008.084a7.25,7.25,0,0,0,.842-.057A3.909,3.909,0,0,0,10.2,6.313a1.231,1.231,0,0,0-.029-.386A1.3,1.3,0,0,0,9.07,5.4a.976.976,0,0,0-.854.79,2.786,2.786,0,0,0-.021.39c-.014.591-.222.8-.817.775a4.385,4.385,0,0,1-2.405-.806c-.076-.053-.16-.1-.264-.159A2.485,2.485,0,0,0,5.832,8.918Z" transform="translate(315 11156)" fill="#ff6d66"/>
  </g>
</svg>
