<svg xmlns="http://www.w3.org/2000/svg" xmlns:xlink="http://www.w3.org/1999/xlink" width="96" height="96" viewBox="0 0 96 96">
  <defs>
    <filter id="Rectangle_179" x="0" y="0" width="96" height="96" filterUnits="userSpaceOnUse">
      <feOffset dx="4" dy="16" input="SourceAlpha"/>
      <feGaussianBlur stdDeviation="6" result="blur"/>
      <feFlood flood-opacity="0.039"/>
      <feComposite operator="in" in2="blur"/>
      <feComposite in="SourceGraphic"/>
    </filter>
  </defs>
  <g id="Group_25145" data-name="Group 25145" transform="translate(-422 -11144)">
    <g transform="matrix(1, 0, 0, 1, 422, 11144)" filter="url(#Rectangle_179)">
      <rect id="Rectangle_179-2" data-name="Rectangle 179" width="60" height="60" rx="10" transform="translate(14 2)" fill="#0fd7ad" opacity="0.1"/>
    </g>
    <path id="Union_24" data-name="Union 24" d="M32.266,38l-1.084-1.066c-.157.2-.291.4-.446.573s-.333.329-.5.492h-.469l-1.015-.994L27.734,38h-.469l-1.017-1-1.014,1h-.469c-.522-.472-.527-.764-.026-1.284q.494-.512.986-1.027a.631.631,0,0,1,1.043-.005c.234.246.462.5.713.771.274-.283.512-.525.747-.769a.633.633,0,0,1,1.044,0q.329.342.66.681c.016.016.047.019.126.048.212-.231.44-.484.674-.73a.631.631,0,0,1,1.043,0c.329.342.657.684.987,1.025.5.518.493.815-.027,1.286ZM8.141,36.361c-.2-.211-.4-.416-.708-.732-.215.27-.406.539-.627.777-.345.369-.708.4-.988.123s-.249-.657.095-1.018q.545-.574,1.1-1.141A.62.62,0,0,1,8,34.375c.239.244.476.492.756.782.253-.264.48-.5.7-.738a.641.641,0,0,1,1.073-.011q.315.329.631.656a1.324,1.324,0,0,0,.161.1c.2-.237.415-.5.644-.751a.634.634,0,0,1,1.07,0c.225.238.447.48.708.761.252-.266.476-.5.7-.739a.647.647,0,0,1,1.1-.016c.356.373.716.739,1.069,1.113a.669.669,0,0,1,.075.991.625.625,0,0,1-.961-.086c-.229-.235-.441-.489-.734-.818-.266.31-.48.574-.709.822a.636.636,0,0,1-1.072,0l-.7-.739-.733.754a.634.634,0,0,1-1.046,0c-.22-.227-.44-.455-.661-.68-.016-.017-.047-.018-.13-.048-.184.2-.386.424-.591.644a.881.881,0,0,1-.594.363C8.564,36.736,8.375,36.611,8.141,36.361Zm2.512-6.488c-.206-.22-.416-.435-.647-.676-.265.274-.5.518-.736.762a.634.634,0,0,1-1.047-.008L7.5,29.2l-.712.744a.635.635,0,0,1-1.072,0c-.229-.249-.436-.52-.666-.8-.318.335-.545.574-.772.812a.634.634,0,0,1-1.047.008l-.695-.724c-.061.024-.091.027-.107.043q-.319.325-.634.654a.639.639,0,0,1-1.074.015C.478,29.692.24,29.429,0,29.17v-.482c.423-.512.556-.521,1.263-.089a1.183,1.183,0,0,0,.614-1.3,2.214,2.214,0,0,1,0-.4A4.367,4.367,0,0,1,5.2,22.667,15.45,15.45,0,0,1,7.956,22.5c.686-.023,1.372,0,2.064,0a1.66,1.66,0,0,0,.044-.189q.281-3.761.56-7.523.3-3.982.6-7.965c.031-.411-.008-.849.579-1.063a4.676,4.676,0,0,0-.728-.521,1.238,1.238,0,0,0-1.7,1.145c-.047.44-.3.706-.661.684a.61.61,0,0,1-.571-.753,4.359,4.359,0,0,1,.47-1.375,2.415,2.415,0,0,1,1.97-1.1c-.166-.109-.266-.186-.376-.246A3.121,3.121,0,0,0,5.629,6.281c-.027.512-.259.8-.643.787-.4-.01-.622-.321-.6-.855A4.442,4.442,0,0,1,8.023,2c.37-.058.747-.07,1.185-.11-.131-.072-.2-.113-.266-.147A5.016,5.016,0,0,0,1.877,6.227c-.017.553-.233.841-.629.841-.411,0-.652-.315-.617-.882A6.235,6.235,0,0,1,4.008.741,13.451,13.451,0,0,1,6.172,0H7.578a.907.907,0,0,0,.177.068,6.2,6.2,0,0,1,4.568,3.209l.175.3c.089-.151.155-.261.218-.372A6.115,6.115,0,0,1,15.856.449c.5-.2,1.043-.3,1.566-.449h1.406a12.281,12.281,0,0,1,1.888.593,6.29,6.29,0,0,1,3.652,5.639c.031.528-.222.84-.625.836-.386,0-.6-.286-.622-.806a5.01,5.01,0,0,0-7.11-4.493c-.056.027-.108.062-.178.1A14.2,14.2,0,0,1,17.4,2.1,4.452,4.452,0,0,1,20.62,6.265c.01.478-.206.776-.58.8s-.641-.262-.669-.759A3.117,3.117,0,0,0,14.61,3.7c-.041.027-.078.062-.159.126.2.042.354.074.509.111a2.556,2.556,0,0,1,1.91,2.318c.026.466-.191.779-.566.815s-.63-.232-.68-.7a1.3,1.3,0,0,0-.956-1.184,1.212,1.212,0,0,0-1.352.6c.4.2.431.571.459.971.2,2.723.4,5.446.608,8.168q.277,3.7.554,7.406a1.558,1.558,0,0,0,.041.173h.4c1.106,0,2.213,0,3.32,0a4.446,4.446,0,0,1,4.428,4.486,1.859,1.859,0,0,1,0,.361,1.188,1.188,0,0,0,.644,1.279c.23-.237.469-.479.7-.723A.633.633,0,0,1,25.52,27.9l.727.76c.245-.252.467-.473.682-.7.418-.445.728-.445,1.151.011.206.222.41.446.7.765.245-.293.453-.562.68-.813a.636.636,0,0,1,1.072,0c.226.239.451.479.735.78.246-.275.469-.529.7-.779a.64.64,0,0,1,1.073,0c.226.239.456.472.709.733.25-.257.489-.5.724-.743a.632.632,0,0,1,1.046-.006c.235.246.464.5.711.76.265-.268.5-.5.724-.734a.647.647,0,0,1,1.1.011l.647.685c.743-.454.876-.445,1.3.067v.482c-.24.259-.478.522-.721.778a.641.641,0,0,1-1.075-.014c-.226-.237-.457-.468-.71-.725-.252.262-.488.507-.725.751a.635.635,0,0,1-1.047-.007L35,29.2l-.707.741a.635.635,0,0,1-1.072,0c-.228-.249-.432-.522-.662-.8-.324.342-.548.585-.778.821a.634.634,0,0,1-1.047,0c-.237-.244-.469-.491-.69-.724a.557.557,0,0,0-.114.05c-.2.207-.408.414-.607.625-.41.433-.728.44-1.125.009-.221-.239-.428-.491-.667-.765-.3.316-.517.558-.744.8a.634.634,0,0,1-1.072-.012c-.227-.25-.429-.523-.652-.8-.329.343-.557.58-.787.817a.634.634,0,0,1-1.047,0c-.236-.244-.472-.487-.733-.755-.25.264-.475.5-.7.738a.636.636,0,0,1-1.072.005c-.229-.249-.442-.515-.653-.764-.12.093-.153.113-.18.141-.193.2-.387.4-.578.6-.4.425-.716.42-1.126-.014-.216-.229-.437-.451-.645-.665-.057.019-.086.021-.1.037-.222.226-.442.455-.662.682a.635.635,0,0,1-1.047-.005l-.73-.753c-.253.266-.479.5-.706.74a.635.635,0,0,1-1.072,0c-.229-.249-.438-.517-.669-.793-.287.3-.49.5-.689.715a.916.916,0,0,1-.611.374A.886.886,0,0,1,10.652,29.873ZM15.8,28.2c.131.164.24.347.385.557.333-.358.555-.6.78-.839a.635.635,0,0,1,1.071,0c.229.249.44.516.706.831.243-.282.4-.478.571-.661.592-.634.78-.63,1.392.01.178.186.364.364.52.519a1.211,1.211,0,0,0,.655-1.365,1.955,1.955,0,0,1,0-.241,3.16,3.16,0,0,0-3.164-3.22q-6.207-.014-12.415,0a3.114,3.114,0,0,0-3.138,2.859c-.075.714-.27,1.524.66,1.978.173-.189.365-.4.561-.615.48-.521.759-.524,1.231-.015l.639.689c.278-.3.508-.551.743-.8a.622.622,0,0,1,1.017,0c.237.247.466.5.769.824.189-.225.339-.392.477-.57.515-.662.931-.709,1.507.011a6.385,6.385,0,0,0,.49.5c.268-.276.5-.513.725-.751a.634.634,0,0,1,1.046,0l.791.818c.148-.2.27-.369.4-.533.3-.37.536-.561.781-.561S15.485,27.811,15.8,28.2ZM11.3,22.467H13.7c-.066-.858-.128-1.679-.191-2.515H11.493C11.429,20.8,11.368,21.62,11.3,22.467Zm.291-3.856h1.811c-.064-.858-.125-1.68-.187-2.52H11.779C11.717,16.94,11.656,17.771,11.595,18.61Zm.284-3.848H13.12c-.064-.849-.125-1.671-.189-2.517h-.865C12,13.1,11.942,13.918,11.879,14.762Zm.567-7.616q-.136,1.881-.274,3.755h.66c-.1-1.273-.189-2.514-.282-3.756ZM27.408,24.5a1.27,1.27,0,0,1-.135-.757c.1-1.227.226-2.45.341-3.675.061-.649.117-1.3.179-1.993l-2.468,1.181q-1.763.845-3.525,1.692c-.548.263-.828.158-1.089-.408-.228-.494-.449-.991-.675-1.486-.263-.577-.217-.769.313-1.178-.8-.34-1.583-.669-2.363-1A.7.7,0,0,1,17.6,15.8c.291-.566.617-1.113.911-1.678a.692.692,0,0,1,.885-.377c1.192.313,2.383.635,3.579.935a.889.889,0,0,0,.546-.048c.58-.257,1.146-.549,1.754-.846-1.2-.843-2.354-1.659-3.511-2.476A1.311,1.311,0,0,1,21.7,9.059a1.587,1.587,0,0,1,1.56-.253c1.067.37,2.118.794,3.17,1.208,1.125.444,2.241.912,3.371,1.344a.8.8,0,0,0,.571-.032c1.922-.9,3.833-1.832,5.754-2.738A3.342,3.342,0,0,1,38.3,8.362,2.195,2.195,0,0,1,40,10.045v.723a3.865,3.865,0,0,1-2.333,2.56c-1.492.685-2.967,1.409-4.439,2.139a.889.889,0,0,0-.4.47c-.846,2.516-1.669,5.041-2.509,7.559a2.162,2.162,0,0,1-1.166,1.426,1.568,1.568,0,0,1-1.742-.424Zm1.273-9.6a.632.632,0,0,1,.587.749c-.177,1.984-.365,3.967-.549,5.952-.066.713-.131,1.426-.2,2.192.462-.134.573-.5.68-.821.774-2.345,1.529-4.7,2.293-7.045.288-.884.576-1.769.88-2.648a.6.6,0,0,1,.806-.424.652.652,0,0,1,.386.809c-.016.07-.022.143-.038.257,1.365-.662,2.695-1.3,4.012-1.953a2.274,2.274,0,0,0,1.126-1.176.773.773,0,0,0-.548-1.137,1.983,1.983,0,0,0-1-.017c-.875.323-1.732.707-2.576,1.11-3.613,1.722-7.217,3.462-10.83,5.183A1.014,1.014,0,0,1,23.09,16c-1.137-.265-2.267-.563-3.4-.838a.419.419,0,0,0-.357.076,4.7,4.7,0,0,0-.362.664c.2.093.365.171.531.242q1.274.545,2.551,1.085a.662.662,0,0,1,.475.617.683.683,0,0,1-.477.662c-.244.113-.486.229-.753.356.125.266.229.49.353.754,1.8-.866,3.546-1.758,5.335-2.536a1.438,1.438,0,0,0,1.062-1.531.6.6,0,0,1,.6-.654ZM22.37,10.146a1.169,1.169,0,0,0,.148.162q1.943,1.372,3.892,2.736a.335.335,0,0,0,.27.059c.6-.27,1.184-.559,1.85-.878l-1.478-.593c-1.229-.495-2.456-1-3.691-1.48a1.547,1.547,0,0,0-.555-.135A.8.8,0,0,0,22.37,10.146Z" transform="translate(446 11157)" fill="#0fd7ad"/>
  </g>
</svg>
