<svg xmlns="http://www.w3.org/2000/svg" width="50" height="58" viewBox="0 0 50 58">
  <path id="Union_85" data-name="Union 85" d="M17881.4,1963.29a23.377,23.377,0,0,1-5.189-5.907,36.248,36.248,0,0,1-5.846-14.718,24.241,24.241,0,0,1,.73-11.524,15.456,15.456,0,0,1,4.174-6.394,15.3,15.3,0,0,1,6.273-3.687,13.206,13.206,0,0,1,8.076.39c1.3.432,2.588.894,3.9,1.267a9.84,9.84,0,0,0,6.422-.51,21.841,21.841,0,0,1,5.471-1.531,13.186,13.186,0,0,1,9.271,2.436,24.2,24.2,0,0,1,2.406,2,16.126,16.126,0,0,1,1.2,1.327c-4.607,2.763-6.955,6.773-6.51,12.089.438,5.246,3.275,8.921,8.227,11.067-.51,1.058-.977,2.127-1.525,3.155a39.065,39.065,0,0,1-6.43,9.168,10.608,10.608,0,0,1-3.75,2.624,7.372,7.372,0,0,1-5.969-.419,15.081,15.081,0,0,0-4.82-1.5,13.61,13.61,0,0,0-7.266,1.3,10.15,10.15,0,0,1-3.645,1.067c-.164.01-.32.016-.482.016A7.7,7.7,0,0,1,17881.4,1963.29Zm12.8-42.357a8.181,8.181,0,0,1,.174-3.928,13.61,13.61,0,0,1,10.385-9.835c.258-.065.512-.115.764-.172h.461a12.482,12.482,0,0,1-3.471,10.112,10.98,10.98,0,0,1-7.934,3.823l-.125,0Z" transform="translate(-17870 -1906.998)" fill="#383838"/>
</svg>
