<svg xmlns="http://www.w3.org/2000/svg" width="46.002" height="58" viewBox="0 0 46.002 58">
  <path id="Union_84" data-name="Union 84" d="M17894.248,1961.7c-.068-1.866-.031-3.736-.037-5.6v-.717h-2.437V1956c0,1.85.045,3.7-.023,5.549a3.586,3.586,0,0,1-4.9,3.2,3.718,3.718,0,0,1-2.326-3.673c0-1.793-.006-3.587.01-5.38a.543.543,0,0,0-.459-.631,5.836,5.836,0,0,1-4.336-5.634c-.07-2.679-.023-5.36-.023-8.041v-10.986c0-1.274.379-1.655,1.65-1.655h23.285c1.246,0,1.633.385,1.633,1.62,0,6.192-.037,12.384.018,18.574a6.138,6.138,0,0,1-4.455,6.149c-.344.092-.385.274-.383.568q.015,2.719,0,5.437a3.665,3.665,0,0,1-3.223,3.87,3.387,3.387,0,0,1-.436.028A3.564,3.564,0,0,1,17894.248,1961.7Zm16.223-14.145a3.436,3.436,0,0,1-1.729-2.766c-.012-.131-.023-.264-.023-.4v-6c0-1.944-.016-3.889,0-5.833a3.621,3.621,0,1,1,7.236-.038c.049,3.946.064,7.893-.01,11.837a3.634,3.634,0,0,1-3.568,3.741A3.735,3.735,0,0,1,17910.471,1947.551Zm-40.437-3.185c-.059-3.964-.037-7.929-.006-11.894a3.492,3.492,0,0,1,2.2-3.4,3.444,3.444,0,0,1,3.809.6,3.177,3.177,0,0,1,1.2,2.41c.035,2.114.014,4.228.014,6.343h.021c0,1.963.018,3.927,0,5.89a3.6,3.6,0,0,1-3.055,3.709,4.385,4.385,0,0,1-.555.035A3.548,3.548,0,0,1,17870.033,1944.366Zm11.152-18.022c-1.049,0-1.512-.481-1.459-1.55a13.069,13.069,0,0,1,6.379-11.021c.17-.11.346-.218.557-.349-.641-1.485-1.268-2.953-1.893-4.421-.434-1.007-.238-1.531.74-2h.57a7.2,7.2,0,0,1,.973,1.25c.646,1.375,1.217,2.788,1.84,4.235a13.6,13.6,0,0,1,8.209,0c.619-1.449,1.232-2.843,1.809-4.247a2.313,2.313,0,0,1,.994-1.237h.57a1.3,1.3,0,0,1,.748,2c-.625,1.469-1.254,2.935-1.84,4.293,1.086.9,2.2,1.663,3.129,2.6a12.715,12.715,0,0,1,3.756,8.949c.027,1.018-.434,1.5-1.467,1.5q-5.9,0-11.809,0T17881.186,1926.344Zm6.939-7.234a1.176,1.176,0,0,0-1.154,1.2,1.209,1.209,0,0,0,1.189,1.186,1.246,1.246,0,0,0,1.2-1.186,1.208,1.208,0,0,0-1.205-1.2Zm8.508,1.157a1.23,1.23,0,0,0,1.211,1.228,1.2,1.2,0,0,0,1.172-1.2,1.176,1.176,0,0,0-1.172-1.188h-.012A1.205,1.205,0,0,0,17896.633,1920.267Z" transform="translate(-17869.996 -1906.999)" fill="#383838"/>
</svg>
