<svg xmlns="http://www.w3.org/2000/svg" width="50.002" height="45.999" viewBox="0 0 50.002 45.999">
  <path id="Union_86" data-name="Union 86" d="M17903.084,1952.676a16.818,16.818,0,0,1-5.717-3.243,18.09,18.09,0,0,1-1.965-1.781c-.262-.279-.387-.2-.611.018a23.1,23.1,0,0,1-5.3,3.962,10.146,10.146,0,0,1-4.385,1.331,4.489,4.489,0,0,1-4.619-3.027,10.848,10.848,0,0,1-.773-3.441,23.946,23.946,0,0,1,.684-7.313c.076-.315.035-.445-.307-.553a21.221,21.221,0,0,1-7.078-3.58,9.644,9.644,0,0,1-2.074-2.235,4.876,4.876,0,0,1,.234-6.04,12.817,12.817,0,0,1,4.236-3.387,23.942,23.942,0,0,1,4.715-1.916c.332-.1.377-.225.3-.553a25.09,25.09,0,0,1-.76-6.427,10.916,10.916,0,0,1,1.088-4.992,4.41,4.41,0,0,1,4.951-2.379,13.337,13.337,0,0,1,5.658,2.5,25.865,25.865,0,0,1,3.408,2.829c.213.2.324.189.531-.014a23.556,23.556,0,0,1,5.707-4.273,9.23,9.23,0,0,1,4.143-1.165,4.306,4.306,0,0,1,4.074,2.559,11.129,11.129,0,0,1,1.074,5.037c.006.189.006.378.006.567a25.867,25.867,0,0,1-.662,5.671c-.117.553-.121.544.383.7a22.1,22.1,0,0,1,6.912,3.4,9.822,9.822,0,0,1,2.006,2.024,4.811,4.811,0,0,1-.008,6.036,12.625,12.625,0,0,1-4.053,3.422,24.519,24.519,0,0,1-4.9,2.1c-.211.067-.373.121-.3.432a25.578,25.578,0,0,1,.7,5.383,13.884,13.884,0,0,1-.717,5.154,4.771,4.771,0,0,1-3.309,3.355,5.078,5.078,0,0,1-1.252.153A7.151,7.151,0,0,1,17903.084,1952.676Zm4.205-13.425a44.046,44.046,0,0,1-6.121.99.815.815,0,0,0-.648.418,47.69,47.69,0,0,1-3.67,4.817c-.187.216-.215.333.006.544a21.8,21.8,0,0,0,4.938,3.724,7.034,7.034,0,0,0,3.539,1,2.115,2.115,0,0,0,1.764-.953,5.224,5.224,0,0,0,.535-1.03,12.657,12.657,0,0,0,.629-4.2c-.045-.589-.08-1.381-.166-2.168a24.139,24.139,0,0,0-.494-2.9c-.031-.144-.07-.255-.215-.255A.4.4,0,0,0,17907.289,1939.251Zm-24.781.342a25.95,25.95,0,0,0-.691,5.658,8.7,8.7,0,0,0,.094,1.534,7.53,7.53,0,0,0,.67,2.51,2.339,2.339,0,0,0,2.293,1.435,6.385,6.385,0,0,0,2.168-.445,19.22,19.22,0,0,0,6.379-4.34c.143-.135.111-.22-.006-.36a53.1,53.1,0,0,1-3.953-5.042.492.492,0,0,0-.4-.261,45.293,45.293,0,0,1-6.166-.913.76.76,0,0,0-.158-.022C17882.615,1939.346,17882.551,1939.406,17882.508,1939.593Zm9.756.963c-.086.139.076.238.148.337.768,1.034,1.592,2.024,2.42,3.009.215.252.332.2.512-.023.607-.774,1.232-1.529,1.836-2.307a6.127,6.127,0,0,0,.76-1.1c-.207.014-.369.027-.535.031q-2.4.054-4.809,0c-.061,0-.131-.015-.193-.015A.148.148,0,0,0,17892.264,1940.555Zm6.822-2.379c.225-.014.463,0,.615-.247a68.6,68.6,0,0,0,4.277-7.7.507.507,0,0,0,.01-.495,69.871,69.871,0,0,0-4.309-7.677.4.4,0,0,0-.342-.207c-.818-.04-1.637-.117-2.455-.139a58.1,58.1,0,0,0-6.131.135.536.536,0,0,0-.473.279,66.966,66.966,0,0,0-4.232,7.583.6.6,0,0,0-.008.567,64.89,64.89,0,0,0,4.285,7.65.54.54,0,0,0,.482.265c1.361.063,2.729.112,4.182.1C17896.3,1938.306,17897.691,1938.257,17899.086,1938.176Zm-15.85-1.268c-.053.175,0,.274.189.31.328.054.66.135.994.193a30.813,30.813,0,0,0,3.3.477c-1.084-1.736-2.023-3.45-2.955-5.249C17884.172,1934.092,17883.678,1935.486,17883.236,1936.908Zm19.088.958a43.439,43.439,0,0,0,4.4-.755c.246-.054.176-.211.121-.36-.332-.935-.656-1.871-1-2.8-.166-.445-.359-.881-.566-1.4C17904.348,1934.389,17903.391,1936.1,17902.324,1937.865Zm-21.592-14.27a25.808,25.808,0,0,0-3.5,1.358,12.77,12.77,0,0,0-4.057,2.824,3.535,3.535,0,0,0-1.029,2.2,3.114,3.114,0,0,0,.314,1.12,6.836,6.836,0,0,0,1.848,2.159,19.805,19.805,0,0,0,6.49,3.274c.27.09.311-.067.369-.256a55.762,55.762,0,0,1,2.227-5.982.658.658,0,0,0,.008-.571,49.263,49.263,0,0,1-2.189-5.865c-.064-.21-.146-.3-.285-.3A.608.608,0,0,0,17880.732,1923.6Zm28.086.292a48.09,48.09,0,0,1-2.154,5.7.813.813,0,0,0,.014.755,49.291,49.291,0,0,1,2.244,5.8c.09.3.2.333.459.247a23.9,23.9,0,0,0,4.52-1.974,11.092,11.092,0,0,0,3.021-2.4,3.322,3.322,0,0,0,.918-2,2.731,2.731,0,0,0-.418-1.408,6.517,6.517,0,0,0-1.512-1.669,20.013,20.013,0,0,0-6.639-3.319.606.606,0,0,0-.186-.037C17908.941,1923.59,17908.881,1923.688,17908.818,1923.888Zm-6.463-1.687c1.029,1.7,1.979,3.382,2.9,5.172.584-1.394,1.066-2.743,1.5-4.106.076-.247-.014-.319-.242-.373-.928-.216-1.863-.387-2.8-.535a6.8,6.8,0,0,0-1.187-.163C17902.471,1922.2,17902.414,1922.2,17902.355,1922.2Zm-14.85-.014a37.579,37.579,0,0,0-4.111.715c-.158.036-.189.121-.145.256.445,1.4.928,2.788,1.516,4.21.9-1.785,1.85-3.476,2.861-5.141a.549.549,0,0,0-.115-.041Zm17.764-12.953a5.978,5.978,0,0,0-2.334.5,20.516,20.516,0,0,0-6.2,4.358c-.168.157-.145.265,0,.427a50.174,50.174,0,0,1,3.881,5.006.43.43,0,0,0,.338.234,46.794,46.794,0,0,1,6.164.99c.271.063.324-.014.379-.261a22.906,22.906,0,0,0,.594-6.841,7.6,7.6,0,0,0-.818-3.13,2.164,2.164,0,0,0-1.893-1.285Zm-22.91,1.97a11.38,11.38,0,0,0-.543,3.755,27.181,27.181,0,0,0,.688,5.4c.08.36.221.418.535.346a44.522,44.522,0,0,1,5.969-.949.463.463,0,0,0,.387-.22,47.913,47.913,0,0,1,3.871-4.961c.193-.211.193-.337-.018-.544a26.409,26.409,0,0,0-2.762-2.312,12.407,12.407,0,0,0-4.834-2.357,4.766,4.766,0,0,0-.891-.093A2.411,2.411,0,0,0,17882.359,1911.2Zm12.449,4.938c-.635.7-1.223,1.43-1.8,2.172-.293.369-.572.751-.932,1.223a53.531,53.531,0,0,1,5.762,0,1.16,1.16,0,0,0-.01-.148c-.818-1.151-1.709-2.235-2.621-3.3a.254.254,0,0,0-.176-.11C17894.945,1915.975,17894.883,1916.063,17894.809,1916.143Zm.184,17.859a3.883,3.883,0,1,1,.121,0Z" transform="translate(-17870 -1907)" fill="#383838"/>
</svg>
