<svg xmlns="http://www.w3.org/2000/svg" width="46" height="58" viewBox="0 0 46 58">
  <path id="Union_87" data-name="Union 87" d="M17898.426,1965q-6.589-6.714-13.178-13.428c-.689-.7-1.406-1.366-2.174-2.1.309-.35.535-.64.793-.9,4.592-4.643,9.2-9.273,13.773-13.939a2.656,2.656,0,0,1,2.115-.864c4.922.042,9.842.02,14.768.02h1.4c-5.2,5.233-10.232,10.3-15.48,15.591,1.566,1.5,3,2.814,4.373,4.2,3.744,3.793,7.461,7.615,11.189,11.426ZM17870,1935.855c.2-.207.5-.547.826-.874q13.371-13.519,26.74-27.04c.3-.3.572-.626.857-.94H17916q-7.626,7.76-15.25,15.52-10.74,10.9-21.5,21.772c-.18.182-.371.353-.5.475C17875.846,1941.806,17872.953,1938.859,17870,1935.855Z" transform="translate(-17870.002 -1907.001)" fill="#383838"/>
</svg>
