<svg xmlns="http://www.w3.org/2000/svg" width="49.998" height="50" viewBox="0 0 49.998 50">
  <path id="Union_88" data-name="Union 88" d="M17892.852,1957a1.837,1.837,0,0,0-.986-.207A25.057,25.057,0,0,1,17870,1933.05l0-2.209c.633-8.852,4.666-15.694,12.252-20.336a24.124,24.124,0,0,1,14.979-3.405,24.846,24.846,0,0,1,9.219,2.665c.369.188.473.294.082.594a7.143,7.143,0,0,0-2.275,2.943c-.158.375-.311.371-.627.223a20.434,20.434,0,0,0-29,16.74,20.437,20.437,0,0,0,40.455,5.489,20.072,20.072,0,0,0-1.111-11.231c-.2-.489-.225-.734.373-.939a6.844,6.844,0,0,0,2.768-1.94c.426-.461.436-.46.7.133a25.016,25.016,0,0,1-19.627,35.01,3.272,3.272,0,0,0-1.281.211Zm-9.26-24.963a11.4,11.4,0,1,1,11.408,11.343A11.382,11.382,0,0,1,17883.592,1932.036Zm27.742-10.432a5.211,5.211,0,1,1,.027,0Z" transform="translate(-17870.002 -1906.999)" fill="#383838"/>
</svg>
