<svg xmlns="http://www.w3.org/2000/svg" width="54" height="50" viewBox="0 0 54 50">
  <path id="xmarine" d="M950.266,853.013q-5.513,0-11.026,0a4.466,4.466,0,0,1-4.18-2.515q-5.469-9.893-10.98-19.762a5.143,5.143,0,0,1,.018-5.462q5.511-9.808,10.928-19.673a4.584,4.584,0,0,1,4.349-2.576q10.926.028,21.853,0a4.653,4.653,0,0,1,4.412,2.65q5.4,9.815,10.872,19.587a5.216,5.216,0,0,1-.016,5.554Q971,840.578,965.62,850.4a4.632,4.632,0,0,1-4.428,2.621C957.55,852.989,953.908,853.014,950.266,853.013Zm.02-24.808c.259.445.434.727.592,1.02,1.938,3.586,3.887,7.166,5.8,10.768a1.477,1.477,0,0,0,1.561.984c.863-.069,1.736-.009,2.6-.018,1.187-.012,1.339-.272.766-1.338-1.914-3.561-3.814-7.129-5.768-10.667a1.7,1.7,0,0,1,.013-1.884c1.967-3.569,3.887-7.166,5.814-10.758.467-.871.287-1.2-.661-1.222s-1.873.041-2.805-.019a1.422,1.422,0,0,0-1.5.916c-1.353,2.579-2.753,5.132-4.136,7.694-.725,1.342-1.452,2.682-2.24,4.139-.251-.434-.425-.717-.583-1.009-1.875-3.464-3.781-6.912-5.6-10.406-.5-.967-1.063-1.483-2.168-1.337a18.319,18.319,0,0,1-2.2.019c-1.163.011-1.321.292-.754,1.347,1.914,3.561,3.808,7.133,5.764,10.668a1.68,1.68,0,0,1-.023,1.879c-1.953,3.537-3.855,7.105-5.77,10.665-.526.978-.347,1.3.73,1.313a16.582,16.582,0,0,1,2.1.02c1.223.178,1.833-.393,2.393-1.475C946.144,835.762,948.19,832.08,950.285,828.205Z" transform="translate(-923.302 -803.024)" fill="#383838"/>
</svg>
