<svg id="dynamo_db" data-name="dynamo db" xmlns="http://www.w3.org/2000/svg" width="36" height="40" viewBox="0 0 36 40">
  <rect id="Rectangle_7715" data-name="Rectangle 7715" width="12" height="40" transform="translate(12)" fill="#383838" opacity="0.7"/>
  <path id="Path_23872" data-name="Path 23872" d="M8.2,4.016.219,0V40L8.2,36Z" transform="translate(23.573)" fill="#383838" opacity="0.6"/>
  <path id="Path_23871" data-name="Path 23871" d="M.219,4.016,8.2,0V40L.219,36Z" transform="translate(4)" fill="#383838" opacity="0.8"/>
  <path id="Path_23861" data-name="Path 23861" d="M36,43.715l-.272-.059L31.843,43.3l-.058.028-8.059-.317H12.274l-8.06.317V37.28l-.008,0,.008-.018,8.06-1.838H23.726l8.059,1.838,2.963,1.55v-1L36,37.685l-.13-.249-3.965-2.789-.121.039-8.059-2.457H12.274l-8.06,2.457V28.61L0,33.469v4.243l.033-.023,1.219.131v1.017L0,39.5v4.222l.033,0,1.219.018V45.5L.2,45.52,0,45.5v4.224l1.252.663v1.029l-1.2.13L0,51.508v4.243L4.215,60.61V54.535l8.06,2.457H23.726l8.083-2.465.107.046,3.912-2.748L36,51.552l-1.252-.136V50.408l-.164-.064-2.678,1.42-.1.2-8.083,1.827v0H12.274v0l-8.06-1.835v-6.07l8.06.316v.008H23.726l8.059-.324.184.083,3.766-.319L36,45.522,34.748,45.5V43.732L36,43.715" transform="translate(0 -24.61)" fill="#383838"/>
  <path id="Path_23862" data-name="Path 23862" d="M226.027,54.535V60.61l4.225-4.859V51.536l-4.2,2.992-.024.007m0-2.566.024-.006,4.2-2.218V45.5l-4.225.381v6.083m.024-14.7-.024-.006v6.061l4.225.388V39.476l-4.2-2.2m0-2.563,4.2,2.976V33.47l-4.225-4.86v6.075l.024.008v.015" transform="translate(-194.253 -24.61)" fill="#383838" opacity="0.5"/>
</svg>
