<svg xmlns="http://www.w3.org/2000/svg" xmlns:xlink="http://www.w3.org/1999/xlink" width="86" height="51" viewBox="0 0 156 121">
  <defs>
    <filter id="Path_22727">
      <feOffset input="SourceAlpha"/>
      <feGaussianBlur stdDeviation="17.5" result="blur"/>
      <feFlood flood-opacity="0.059" result="color"/>
      <feComposite operator="out" in="SourceGraphic" in2="blur"/>
      <feComposite operator="in" in="color"/>
      <feComposite operator="in" in2="SourceGraphic"/>
    </filter>
    <filter id="Path_22730">
      <feOffset dx="1" dy="-9" input="SourceAlpha"/>
      <feGaussianBlur stdDeviation="3.5" result="blur-2"/>
      <feFlood flood-opacity="0.09" result="color-2"/>
      <feComposite operator="out" in="SourceGraphic" in2="blur-2"/>
      <feComposite operator="in" in="color-2"/>
      <feComposite operator="in" in2="SourceGraphic"/>
    </filter>
  </defs>
  <g id="FireBase" transform="translate(-1349.001 -800.748)">
    <path id="Union_422" data-name="Union 422" d="M-12814.4,7759.816a10.631,10.631,0,0,1-5.7-8.6,11.926,11.926,0,0,1,1.951-8.395,10.014,10.014,0,0,1,9.955-4.484c5.3.528,8.648,4.588,9.079,9.648.053.624.093,1.246.109,1.872.012.437-.152.561-.585.558-2.681-.018-5.359-.009-8.039-.009-2.638,0-5.275.012-7.913-.011-.479,0-.59.122-.559.6a6.906,6.906,0,0,0,7.509,6.368,5.7,5.7,0,0,0,5.057-3.242c.156-.315.307-.369.629-.229.919.4,1.846.783,2.786,1.129.38.14.353.308.2.592a9.6,9.6,0,0,1-8.091,5.333c-.453.038-.9.059-1.35.059A10.321,10.321,0,0,1-12814.4,7759.816Zm-1.325-13.305c-.147.433-.1.574.4.568,1.923-.024,3.846-.01,5.769-.01v-.021c1.882,0,3.764-.021,5.644.014.539.01.6-.2.493-.617a5.43,5.43,0,0,0-2.936-3.851,7.692,7.692,0,0,0-3.2-.716A6.356,6.356,0,0,0-12815.722,7746.511Zm-63.759,13.245a7.554,7.554,0,0,1-2.255-1.96,1.206,1.206,0,0,0-.546-.5c0,.886-.022,1.673.01,2.457.017.42-.128.53-.531.518-.9-.027-1.8-.053-2.7.007-.6.041-.67-.2-.669-.711.018-5.381.011-10.763.011-16.145,0-4.568.012-9.137-.016-13.7,0-.6.189-.737.742-.712.919.04,1.844.036,2.763,0,.48-.019.6.143.594.6-.075,3.981.144,7.967-.19,11.945a1.44,1.44,0,0,0,.017.242c.275.067.318-.171.424-.3a8.78,8.78,0,0,1,8.253-3.218c4.767.484,8.592,5.029,9.02,9.76a12.244,12.244,0,0,1-2.137,8.65,10.057,10.057,0,0,1-8.123,4.288A9.611,9.611,0,0,1-12879.48,7759.756Zm-1.094-15.472c-2.159,2.542-2.3,7.264-.368,10.083a6.662,6.662,0,0,0,10.462.744,7.862,7.862,0,0,0,1.957-5.015,9.73,9.73,0,0,0-.451-3.506,6.629,6.629,0,0,0-5.467-4.646,7.45,7.45,0,0,0-1.158-.094A6.349,6.349,0,0,0-12880.574,7744.284Zm43.741,14.936a9.7,9.7,0,0,1-3.343-3.9c-.2-.393-.2-.607.284-.774.847-.294,1.676-.642,2.5-1.006.42-.186.629-.169.852.3a6.145,6.145,0,0,0,7.885,3.077,2.665,2.665,0,0,0,1.9-3.376,2.674,2.674,0,0,0-1.611-1.643,24.223,24.223,0,0,0-4.525-1.217,11.035,11.035,0,0,1-5.159-2.4,5.208,5.208,0,0,1-.067-7.621c1.93-1.788,4.275-2.533,7.875-2.516a8.792,8.792,0,0,1,5.9,2.627,7.618,7.618,0,0,1,1.331,1.957c.158.309.064.428-.226.541-.933.366-1.858.75-2.784,1.13-.21.086-.361.123-.494-.146-1.039-2.1-2.929-2.577-5.041-2.562a5.963,5.963,0,0,0-2.818.757,2.16,2.16,0,0,0-.269,3.718,6.392,6.392,0,0,0,2.394.872c1.7.418,3.438.711,5.1,1.261,3.029,1,4.822,3.392,4.637,6.223a6.021,6.021,0,0,1-3.744,5.3,11.729,11.729,0,0,1-4.891,1.14A10.432,10.432,0,0,1-12836.833,7759.22Zm-96.118,1.122c.021-3.355.011-6.71.011-10.066,0-3.376.01-6.752-.011-10.128,0-.484.117-.652.623-.631.961.041,1.925.035,2.886,0,.452-.016.553.141.552.567q-.019,10.159,0,20.319c0,.4-.1.541-.521.528-.983-.029-1.967-.036-2.949,0h-.072C-12932.849,7760.937-12932.954,7760.782-12932.951,7760.342Zm73.579-.956a6.892,6.892,0,0,1,.8-11.646,12.9,12.9,0,0,1,7.473-1.336,10.614,10.614,0,0,1,4.188,1.194,5.108,5.108,0,0,0-4.978-5.743,6.348,6.348,0,0,0-4.424,1.246,2.873,2.873,0,0,0-.981,1.12c-.263.642-.584.691-1.171.391a22.627,22.627,0,0,0-2.419-1.026c-.445-.166-.447-.367-.245-.729a8.36,8.36,0,0,1,4.5-3.988,11.305,11.305,0,0,1,9.071.466,7.76,7.76,0,0,1,4.561,7.219c.1,4.4.029,8.8.043,13.2,0,.357-.059.524-.474.512-.982-.03-1.968-.029-2.95,0-.417.012-.482-.162-.474-.518.021-.784.006-1.569.006-2.353-.628.465-1.025,1.053-1.559,1.518a7.852,7.852,0,0,1-4.214,1.914,12.11,12.11,0,0,1-1.591.109A8.992,8.992,0,0,1-12859.372,7759.386Zm4.063-9.122a3.775,3.775,0,0,0-2.633,3.534,2.822,2.822,0,0,0,1.355,2.585,5.644,5.644,0,0,0,5.441.461,6.418,6.418,0,0,0,4.214-4.667c.24-1.031.162-1.276-.819-1.7a10.184,10.184,0,0,0-4.047-.862A10.082,10.082,0,0,0-12855.309,7750.265Zm-68.735,9.943c.024-5.463.015-10.928.015-16.392,0-1.272.013-2.544-.007-3.816-.006-.38.114-.508.5-.5q1.444.034,2.889,0c.368-.008.465.13.459.474-.017.991-.006,1.982-.006,2.974l.156.034a.833.833,0,0,0,.146-.187c1.084-2.777,5.271-4.637,8.852-3.381.327.115.3.25.2.485-.415,1-.832,2-1.233,3-.115.288-.247.334-.562.261a5.757,5.757,0,0,0-7.331,5.689c-.052,3.794-.029,7.59,0,11.386,0,.572-.167.7-.7.675-.877-.044-1.759-.044-2.636,0-.043,0-.084,0-.123,0C-12923.894,7760.918-12924.047,7760.754-12924.044,7760.208Zm17.576-1.6a10.817,10.817,0,0,1-4.076-8.006,11.952,11.952,0,0,1,1.927-7.795,9.909,9.909,0,0,1,9.773-4.607,9.612,9.612,0,0,1,8.613,6.449,13.386,13.386,0,0,1,.8,5.217c-.009.46-.263.424-.567.424q-4.02-.005-8.039,0-3.986,0-7.975,0c-.324,0-.542-.005-.51.452a6.813,6.813,0,0,0,5.521,6.376c2.815.528,5.654-.21,7.06-3.1.176-.363.359-.355.683-.215.863.372,1.731.733,2.615,1.049.472.169.483.375.266.77a9.388,9.388,0,0,1-6.542,5.006,14.79,14.79,0,0,1-2.853.293A10.419,10.419,0,0,1-12906.468,7758.6Zm5.921-16.8a6.359,6.359,0,0,0-5.666,5.095.787.787,0,0,0,.179.041c3.973,0,7.945-.015,11.917-.009.382,0,.392-.139.332-.448a5.823,5.823,0,0,0-2.089-3.457,6.018,6.018,0,0,0-4.035-1.236C-12900.121,7741.793-12900.333,7741.8-12900.547,7741.808Zm-50.967,19.094c-.939-.045-1.884-.042-2.824,0-.517.022-.665-.127-.663-.653.021-4.985.012-9.97.012-14.955s.009-9.97-.011-14.955c0-.532.107-.713.682-.711q8.572.034,17.144,0c.473,0,.665.093.638.611a25.9,25.9,0,0,0,0,2.627c.023.5-.137.62-.626.618-4.333-.019-8.665,0-13-.026-.6,0-.771.137-.764.75.034,2.961.028,5.923,0,8.885,0,.51.116.668.65.666,3.894-.024,7.787,0,11.681-.025.521,0,.686.13.658.655-.045.853-.038,1.711,0,2.564.019.452-.139.55-.566.548q-2.394-.01-4.786-.006c-2.3,0-4.6,0-6.894-.019-.631-.005-.746.188-.742.77.024,4,.006,8.009.022,12.014,0,.445-.081.641-.528.641Zm20.584-25.62a2.855,2.855,0,0,1-2.869-2.859,2.818,2.818,0,0,1,2.916-2.8,2.862,2.862,0,0,1,2.814,2.916,2.858,2.858,0,0,1-2.83,2.739Z" transform="translate(14304.002 -6839.252)" fill="#383838"/>
    <g id="Group_21293" data-name="Group 21293" transform="translate(-61.998 -3038.252)">
      <g data-type="innerShadowGroup">
        <path id="Path_22727-2" data-name="Path 22727" d="M1.253,60.3l.334-.661L22.409,20.1,13.069,2.211a1.547,1.547,0,0,0-2.952.545Z" transform="translate(1460.747 3837.698)" fill="#383838"/>
        <g transform="matrix(1, 0, 0, 1, 1411, 3839)" filter="url(#Path_22727)">
          <path id="Path_22727-3" data-name="Path 22727" d="M1.253,60.3l.334-.661L22.409,20.1,13.069,2.211a1.547,1.547,0,0,0-2.952.545Z" transform="translate(49.75 -1.3)" fill="#fff"/>
        </g>
      </g>
      <g data-type="innerShadowGroup">
        <path id="Path_22730-2" data-name="Path 22730" d="M109.2,71.5l6.537-7L109.2,51.492a1.48,1.48,0,0,0-2.743-.126l-3.612,7.274-.108.372Z" transform="translate(1380.261 3799.501)" fill="#737373"/>
        <g transform="matrix(1, 0, 0, 1, 1411, 3839)" filter="url(#Path_22730)">
          <path id="Path_22730-3" data-name="Path 22730" d="M109.2,71.5l6.537-7L109.2,51.492a1.48,1.48,0,0,0-2.743-.126l-3.612,7.274-.108.372Z" transform="translate(-30.74 -39.5)" fill="#fff"/>
        </g>
      </g>
      <path id="Path_22731" data-name="Path 22731" d="M0,129.1l.207-.208.753-.3,27.688-27.444L29,100.2,22.093,87.1Z" transform="translate(1462 3768.895)" fill="#737373"/>
      <path id="Path_22733" data-name="Path 22733" d="M54.29,117.153l-6.9-43.219a1.458,1.458,0,0,0-2.535-.942L1.29,117.246l23.946,13.61a4.942,4.942,0,0,0,4.887,0L54.29,117.153Z" transform="translate(1460.71 3780.497)" fill="#383838"/>
    </g>
  </g>
</svg>
