<svg xmlns="http://www.w3.org/2000/svg" width="96.001" height="49.504" viewBox="0 0 96.001 49.504">
  <g id="mysql" transform="translate(-1490 -225.497)">
    <path id="Union_461" data-name="Union 461" d="M-12930.478,7748c-.5,0-.439.059-.445-.423,0-.449.01-.9,0-1.353,0-.185.046-.276.254-.257a2.108,2.108,0,0,0,.289,0h9.067a3.677,3.677,0,0,0,1.378-.237,1.076,1.076,0,0,0,.768-1.147c0-.237-.01-.478-.007-.715,0-.13-.052-.2-.194-.192-.095,0-.192,0-.29,0h-5.962a9.407,9.407,0,0,1-2.854-.39,4.723,4.723,0,0,1-1.661-.868,2.232,2.232,0,0,1-.861-1.814c.025-2.087.02-4.171.016-6.255,0-.345.036-.312.313-.312.829,0,1.658,0,2.487,0,.334,0,.338,0,.338.325v6.1a1.16,1.16,0,0,0,1.092,1.3,4.1,4.1,0,0,0,.823.084h6.417c.357,0,.357,0,.357-.351,0-2.351,0-4.7,0-7.048,0-.481-.068-.448.465-.448.757,0,1.518,0,2.278,0,.407,0,.407,0,.407.383q0,2.629,0,5.257h0c0,1.662-.014,3.319,0,4.981a2.716,2.716,0,0,1-1.538,2.542,6.93,6.93,0,0,1-2.344.741,9.984,9.984,0,0,1-1.528.094Q-12925.94,7748-12930.478,7748Zm-13.957-4.087a2.25,2.25,0,0,1-1.558-1.115,7.186,7.186,0,0,1-.357-.738q-2.19-5.047-4.379-10.1a.872.872,0,0,0-.237-.4v11.74c0,.094-.007.192,0,.289.017.186-.075.231-.237.231-.849-.006-1.7-.01-2.549,0-.2,0-.267-.071-.244-.263.007-.068,0-.14,0-.208v-11.795a3.7,3.7,0,0,1,.085-.943,1.537,1.537,0,0,1,.78-1.047,4.59,4.59,0,0,1,3.247-.432,2.674,2.674,0,0,1,1.831,1.642c.394.92.773,1.847,1.157,2.77q1.575,3.774,3.146,7.549c.046.11.1.218.153.335.149-.1.169-.257.228-.39,1.431-3.323,2.887-6.629,4.281-9.968a3.058,3.058,0,0,1,3.557-2.012,6.68,6.68,0,0,1,1.311.332,1.76,1.76,0,0,1,1.2,1.677c.01.208.016.413.016.621v11.668c0,.471.033.465-.3.461h-1.076c-.462,0-.923,0-1.385,0-.2,0-.3-.055-.276-.28a2.191,2.191,0,0,0,0-.289v-11.626c-.025,0-.055-.01-.081-.013-.113.257-.23.517-.342.777l-4.213,9.724c-.071.166-.146.325-.225.485a2.277,2.277,0,0,1-1.876,1.355,6.318,6.318,0,0,1-.737.045A4.714,4.714,0,0,1-12944.435,7743.911Z" transform="translate(14444 -7473)" fill="#383838"/>
    <path id="Union_460" data-name="Union 460" d="M-12926.586,7744.818c-.631-.582-1.274-1.151-1.9-1.74a.782.782,0,0,0-.673-.234,47.259,47.259,0,0,1-5.167.143,6.977,6.977,0,0,1-2.652-.543,4.129,4.129,0,0,1-.924-.527,2.873,2.873,0,0,1-1.1-2.4c-.006-.621,0-1.245,0-1.866,0-1.71,0-3.42,0-5.13a4.043,4.043,0,0,1,.094-.946,2.747,2.747,0,0,1,1.35-1.778,6.152,6.152,0,0,1,2.123-.706,6.978,6.978,0,0,1,1.22-.091c1.843,0,3.687,0,5.526,0a7.133,7.133,0,0,1,2.511.468,3.827,3.827,0,0,1,1.066.6,2.62,2.62,0,0,1,1.021,1.9c.017.2.026.4.026.6q0,3.379,0,6.759c0,.25-.01.5-.033.754a2.412,2.412,0,0,1-1.287,2.013c-.127.071-.254.136-.445.24l2.828,2.575c-.048.133-.14.091-.208.091-.975,0-1.95,0-2.923.007A.625.625,0,0,1-12926.586,7744.818Zm-7.631-13.74a1.616,1.616,0,0,0-1.551,1.792c.043,1.509.01,3.018.01,4.529,0,.595-.006,1.19,0,1.785a1.618,1.618,0,0,0,1.3,1.668,3.334,3.334,0,0,0,.823.1h2.522c.059,0,.134.026.179-.084-.761-.693-1.528-1.392-2.314-2.11a.374.374,0,0,1,.3-.065q.507-.005,1.018,0c.592,0,1.187,0,1.782-.006a.737.737,0,0,1,.559.228c.566.533,1.148,1.05,1.727,1.57.212.192.244.188.465.01a1.457,1.457,0,0,0,.533-1.184c-.006-2.2,0-4.4,0-6.594a1.464,1.464,0,0,0-1.177-1.567,3.853,3.853,0,0,0-1.09-.137q-2.131,0-4.262,0A4.378,4.378,0,0,0-12934.217,7731.078Zm28.218,9.419a3.438,3.438,0,0,1,3.463-3.5,3.465,3.465,0,0,1,3.537,3.5,3.473,3.473,0,0,1-3.479,3.5h-.019A3.442,3.442,0,0,1-12906,7740.5Zm1.061-1.248a2.842,2.842,0,0,0,1.008,3.622,2.742,2.742,0,0,0,2.939-.068,6.6,6.6,0,0,0,.556-.514,2.8,2.8,0,0,0-1.135-4.389,2.656,2.656,0,0,0-.94-.172A2.693,2.693,0,0,0-12904.938,7739.249Zm-49.653,3.752c-.068,0-.141,0-.209,0-.133.006-.2-.049-.2-.186,0-.543,0-1.089,0-1.635,0-.133.059-.192.2-.188.107,0,.218,0,.328,0q3.9,0,7.794,0a5.308,5.308,0,0,0,1.3-.136,1.736,1.736,0,0,0,.807-.456.966.966,0,0,0,.3-.715c0-.465,0-.934,0-1.4a1.145,1.145,0,0,0-.843-1.177,4.788,4.788,0,0,0-1.573-.231c-.7-.006-1.385-.006-2.077-.006h-1.245a8.1,8.1,0,0,1-2.807-.5,4.355,4.355,0,0,1-1.307-.735,2.082,2.082,0,0,1-.836-1.7c.017-.611.007-1.222.014-1.833a2.55,2.55,0,0,1,1.443-2.338,5.822,5.822,0,0,1,2.617-.722c.988-.039,1.977-.036,2.9-.029.539,0,1.06,0,1.541,0h4.951c.1,0,.192,0,.29,0,.13,0,.2.045.2.186,0,.543-.006,1.089,0,1.635,0,.156-.074.211-.228.2-.094,0-.191,0-.286,0h-8.164a5.317,5.317,0,0,0-1.343.143.918.918,0,0,0-.806.962c-.017.5-.017,1.011,0,1.515a1.287,1.287,0,0,0,1.076,1.281,3.954,3.954,0,0,0,.937.1c1.313,0,2.623-.006,3.937,0a7.435,7.435,0,0,1,2.8.553,4.5,4.5,0,0,1,1.187.7,1.924,1.924,0,0,1,.764,1.6q-.034.956,0,1.912a2.374,2.374,0,0,1-1.135,2.133,5.814,5.814,0,0,1-2.168.907,7.661,7.661,0,0,1-1.587.166Q-12950.306,7743-12954.592,7743Zm38.261-.007a10.289,10.289,0,0,1-3.222-.478,5.819,5.819,0,0,1-.684-.279,2.916,2.916,0,0,1-1.762-2.8q0-3.79,0-7.576c0-.849,0-1.7,0-2.549,0-.3.007-.309.321-.309q1.244,0,2.487,0c.339,0,.345,0,.345.325v9.926c-.013.985.31,1.473,1.531,1.655a7.816,7.816,0,0,0,1.239.075q3.754,0,7.5,0c.084,0,.166,0,.25,0,.313.007.315.007.319.312q0,.7,0,1.4c0,.3-.01.306-.329.306h-4.269l-2.134,0Q-12915.532,7743-12916.331,7742.994Zm14.731-.995-.878-1.187h-1.011V7742h-.511v-3h1.567c.79,0,1.307.351,1.307.894a.923.923,0,0,1-.826.858l.95,1.245Zm-1.889-1.515h1.011c.526,0,.822-.208.822-.579s-.318-.572-.845-.572h-.988Z" transform="translate(14485 -7472)" fill="#383838"/>
    <path id="Union_459" data-name="Union 459" d="M-12920.365,7762.8a12.188,12.188,0,0,0-3.365-2.185,12.358,12.358,0,0,1-2.92-1.766,5.439,5.439,0,0,1-1.636-2.188.237.237,0,0,1,.039-.26.74.74,0,0,1,.339-.218,11.764,11.764,0,0,1,4.672-.833,1.123,1.123,0,0,0,.452-.026c.016-.172-.107-.273-.215-.364a4.016,4.016,0,0,0-.546-.422,24.168,24.168,0,0,1-2.059-1.392,10.8,10.8,0,0,0-3.258-1.554c-.4-.13-.8-.263-1.2-.39a1.8,1.8,0,0,1-1.023-.819,14.975,14.975,0,0,1-.751-1.346q-1.113-2.365-2.221-4.73c-.062-.137-.127-.27-.176-.41a16.046,16.046,0,0,0-2.829-4.844,19.979,19.979,0,0,0-7.022-5.635,7.02,7.02,0,0,0-3.18-.787,4.319,4.319,0,0,1-.582-.049,3.656,3.656,0,0,0-.6-.045.827.827,0,0,1-.533-.276,9.873,9.873,0,0,0-2.955-1.694,3.382,3.382,0,0,0-1.1-.305.714.714,0,0,0-.816.969,3.937,3.937,0,0,0,.765,1.372c.3.387.6.771.9,1.154a8.949,8.949,0,0,1,1.541,3.014c.205.67.429,1.336.657,2a8.764,8.764,0,0,0,.857,1.743,3.938,3.938,0,0,0,.7.839,1.321,1.321,0,0,1,.409,1.466c-.117.387-.24.771-.39,1.148a9.149,9.149,0,0,0-.576,4.015,8.727,8.727,0,0,0,.8,3.284,3.76,3.76,0,0,0,.335.6,1.375,1.375,0,0,0,.521.446c.264.126.335.094.37-.192.085-.615.156-1.229.238-1.847a4.466,4.466,0,0,1,1.124-2.552c.085-.088.15-.2.231-.283s.094-.231.228-.2c.11.026.143.159.176.26a24.1,24.1,0,0,0,2.425,4.978,21.766,21.766,0,0,0,2.064,2.913c-.071.007-.14.01-.208.017a23.4,23.4,0,0,1-1.862-1.577,8.766,8.766,0,0,1-1.983-2.7,5.84,5.84,0,0,0-.582-1.073,12.666,12.666,0,0,0-.3,1.629,5.217,5.217,0,0,1-.172.953,1.382,1.382,0,0,1-2.172.8,3.051,3.051,0,0,1-.784-.757,7.481,7.481,0,0,1-1.372-3.385,10.968,10.968,0,0,1,.325-5.046c.1-.322.163-.653.237-.982a1.868,1.868,0,0,1,.2-.572.432.432,0,0,0-.074-.585,9.391,9.391,0,0,1-1.987-3.541,20.933,20.933,0,0,1-.8-2.38,3.672,3.672,0,0,0-.641-1.212c-.4-.562-.816-1.112-1.255-1.648a5.59,5.59,0,0,1-.888-1.4,2.149,2.149,0,0,1-.078-1.655,1.942,1.942,0,0,1,2.146-1.255,5.372,5.372,0,0,1,1.428.329,9.28,9.28,0,0,1,2.933,1.645,1.3,1.3,0,0,0,.888.345,10.009,10.009,0,0,1,2.106.234,10.48,10.48,0,0,1,2.976,1.19,24.06,24.06,0,0,1,8.446,8.239,10.65,10.65,0,0,1,.807,1.632c.592,1.525,1.294,3,2.019,4.467q.458.927.914,1.854a6.553,6.553,0,0,0,.4.705.936.936,0,0,0,.5.4,20.175,20.175,0,0,1,6.116,3.589,10.713,10.713,0,0,1,1.921,1.974c.183.253.163.328-.146.419a9.332,9.332,0,0,1-2.113.436,16.905,16.905,0,0,0-2.435.51c-.092.02-.183.039-.29.065a1.029,1.029,0,0,0,.332.546,4.758,4.758,0,0,0,1.037.78,14.742,14.742,0,0,1,2.194,1.476,11.573,11.573,0,0,1,1.482,1.509,4.041,4.041,0,0,0,.56.588A2.42,2.42,0,0,1-12920,7763,.553.553,0,0,1-12920.365,7762.8Zm-19.862-6.571.205-.016c.383.351.731.741,1.121,1.089A3.267,3.267,0,0,1-12940.228,7756.226Zm-7.774-21.094a1.464,1.464,0,0,1,1.775.384c.387.523.286,1.03-.348,1.486A5.369,5.369,0,0,0-12948,7735.132Z" transform="translate(14503 -7503)" fill="#383838" stroke="rgba(0,0,0,0)" stroke-miterlimit="10" stroke-width="1"/>
  </g>
</svg>
