<svg xmlns="http://www.w3.org/2000/svg" width="108" height="22.001" viewBox="0 0 168 22.001">
  <path id="oracle" d="M-12915.9,7750.992a19.836,19.836,0,0,0-2.516,0c-.539.026-.759-.09-.757-.7q.029-10.227,0-20.453c0-.5.144-.649.637-.648q3.189.009,6.378,0c3.864-.008,7.729-.015,11.591.038a7.185,7.185,0,0,1,6.785,7.381,7.3,7.3,0,0,1-6.955,7.333c-.623.017-1.247,0-2.134,0l8.27,7.041c-2.084,0-3.921,0-5.76,0a.881.881,0,0,1-.608-.284q-5.854-5.163-11.707-10.325a1.524,1.524,0,0,1-.181-.293h4.146q3.59,0,7.184,0a3.539,3.539,0,0,0,3.681-3.5,3.506,3.506,0,0,0-3.662-3.509q-2.224-.005-4.443,0c-2.744,0-5.488,0-8.232-.021-.726-.007-.838.245-.835.9.023,5.384,0,10.768.031,16.151,0,.668-.159.912-.718.912C-12915.766,7751-12915.832,7751-12915.9,7750.992Zm99.781-.011q-9.155.006-18.312,0a1.985,1.985,0,0,1-2.052-1.733l.048-.059.053-.019-.058-.07c-.021-.025-.045-.051-.068-.077-.019-.26-.054-.521-.054-.781q0-8.9,0-17.79c0-.291.032-.581.049-.871.124-.056.169-.115.006-.18.059-.264.231-.234.391-.205a.925.925,0,0,0,.149.018c.425-.008.85-.005,1.276,0,.57,0,1.143.006,1.713-.015.6-.022.69.234.525.726-.314.244-.187.592-.188.9q-.012,7.531,0,15.062c0,.3-.127.652.19.894.119.433.424.4.715.371a1.941,1.941,0,0,1,.22-.016q8.681.014,17.357.006h1.072c-.841,1.311-1.607,2.515-2.388,3.711a.358.358,0,0,1-.333.158C-12815.912,7751-12816.021,7750.981-12816.12,7750.981Zm-73.353.017c-1.3-.046-2.608-.014-3.906-.014-.167-.3.08-.45.188-.622q6.261-9.814,12.54-19.616a3.088,3.088,0,0,1,5.345-.06q6.35,9.86,12.651,19.751c.087.137.241.263.146.546-1.44,0-2.907-.01-4.374.007-.371,0-.487-.232-.639-.483-.551-.918-1.134-1.818-1.654-2.754a1.019,1.019,0,0,0-1.039-.577c-1.528.01-3.056.01-4.584.01-1.721,0-3.441,0-5.163.014a1.171,1.171,0,0,1-1.184-.634c-.613-1.042-1.3-2.042-2.023-3.168h11.056c-1.98-3.2-3.869-6.244-5.826-9.4-1.2,1.9-2.324,3.674-3.445,5.454-2.283,3.626-4.575,7.247-6.834,10.887a1.218,1.218,0,0,1-1.162.665Zm35.381-.038a10.838,10.838,0,0,1-10.274-10.167,10.928,10.928,0,0,1,8.78-11.431,9.079,9.079,0,0,1,1.553-.176q7.359-.023,14.718-.012c.164,0,.328.021.654.043-.812,1.274-1.558,2.443-2.3,3.613-.175.273-.427.249-.668.224a2.036,2.036,0,0,0-.207-.014q-2.791.006-5.58,0-2.87,0-5.742,0a7,7,0,0,0-7.062,6.4,7.024,7.024,0,0,0,5.894,7.593,8.338,8.338,0,0,0,1.389.077q5,.006,10.01,0h4.625c-.815,1.3-1.533,2.423-2.233,3.561-.19.312-.46.3-.753.3q-2.013,0-4.024.01-1.854.007-3.709.009C-12850.715,7751-12852.4,7750.991-12854.092,7750.961Zm-85.855.011c-1.382-.015-2.764-.03-4.146-.027a11.828,11.828,0,0,1-1.9-.143,10.845,10.845,0,0,1-8.977-11.719,10.8,10.8,0,0,1,10.481-9.894c2.174-.026,4.347,0,6.521,0s4.348-.024,6.52,0a10.8,10.8,0,0,1,10.532,10.587c.184,5.682-4.178,10.8-9.789,11.1-1.8.1-3.607.123-5.413.123C-12937.4,7751-12938.671,7750.986-12939.947,7750.972Zm1.924-3.877c2,0,4,.01,6,0a6.973,6.973,0,0,0,7-6.98,6.959,6.959,0,0,0-7-7.062q-5.956-.017-11.909,0a6.993,6.993,0,0,0-6.969,7.021,7,7,0,0,0,6.976,7.019c1.337.008,2.673.006,4.012,0h1.9Zm148.1,3.713a1.638,1.638,0,0,0-.2-.016c-4.157.006-8.314.027-12.47,0a10.833,10.833,0,0,1-10.455-9.886,10.925,10.925,0,0,1,8.651-11.7,10.857,10.857,0,0,1,1.991-.2q7.194.007,14.388,0c.166,0,.332.018.638.036-.8,1.264-1.548,2.436-2.287,3.611-.176.278-.427.253-.669.229a1.852,1.852,0,0,0-.2-.014q-2.071.005-4.143,0c-2.456-.005-4.912-.011-7.368.023a6.748,6.748,0,0,0-6.218,3.953,2.1,2.1,0,0,0-.338,1.146h20.095c-.835,1.311-1.575,2.486-2.33,3.652-.219.337-.583.2-.886.2q-8.023.01-16.045,0c-1.009,0-1.03.012-.588.926a6.748,6.748,0,0,0,6.35,4.159c4.94.048,9.881.013,15.012.013-.834,1.313-1.595,2.532-2.385,3.731a.363.363,0,0,1-.332.152A1.771,1.771,0,0,1-12789.923,7750.808Z" transform="translate(12955 -7729)" fill="#383838"/>
</svg>
