<svg xmlns="http://www.w3.org/2000/svg" width="56" height="58" viewBox="0 0 76 78">
  <g id="PostGreSQL" transform="translate(-1415 -2062)">
    <path id="Path_22397" data-name="Path 22397" d="M673.7-494a7.861,7.861,0,0,1-5.357-2.372,8.389,8.389,0,0,1-1.556-2.374,20.851,20.851,0,0,1-1.807-6.954c-.206-2.365-.279-4.735-.357-7.132-.377.134-.742.278-1.114.4a13.6,13.6,0,0,1-6.789.275,9.689,9.689,0,0,1-3.322-1.223,5.274,5.274,0,0,1-1.2-.981c-.128-.145-.2-.149-.351-.029a6.81,6.81,0,0,1-3.055,1.436,6.232,6.232,0,0,1-4.3-.772,10.912,10.912,0,0,1-3.4-3.2,30.555,30.555,0,0,1-3.422-6.343,85.089,85.089,0,0,1-3.723-11.385c-.812-3.09-1.471-6.214-2.033-9.359a28.869,28.869,0,0,1-.184-9.283,16.547,16.547,0,0,1,3.492-8.411,13.957,13.957,0,0,1,7-4.5,22.066,22.066,0,0,1,7.574-.745,39.083,39.083,0,0,1,9.847,1.96.506.506,0,0,0,.449-.049,16.782,16.782,0,0,1,7.447-2.126,31.044,31.044,0,0,1,6.757.405,1.127,1.127,0,0,0,.5-.031,31.545,31.545,0,0,1,6.723-1.151c.062,0,.145.034.18-.06h3.183c.027.081.1.053.15.056a23.836,23.836,0,0,1,3.067.356,21.156,21.156,0,0,1,12.677,7.14,8.54,8.54,0,0,1,1.745,2.931,14.793,14.793,0,0,1,.624,4.925,38.3,38.3,0,0,1-1.365,8.955,70.219,70.219,0,0,1-7.451,17.832c-.057.1-.163.181-.133.331a21.352,21.352,0,0,0,2.8-.328,10.785,10.785,0,0,1,3.03-.326,3.752,3.752,0,0,1,2.992,1.786c.189.3.264.652.425.965v1.735c-.063.012-.065.068-.078.113a5.584,5.584,0,0,1-1.523,2.393,14.116,14.116,0,0,1-4.42,2.922,19.289,19.289,0,0,1-8.656,1.371c-.193-.01-.271.017-.281.221-.02.387-.083.772-.1,1.159a53.992,53.992,0,0,1-.505,6.161,23.333,23.333,0,0,1-1.619,6.061,10.784,10.784,0,0,1-4.328,5.124,16.817,16.817,0,0,1-7.2,2.117Z" transform="translate(785.56 2632)" fill="#fff"/>
    <path id="Path_22225" data-name="Path 22225" d="M1171.664,161.583l-.04.028c0-.023,0-.046,0-.069A.541.541,0,0,1,1171.664,161.583Z" transform="translate(281.379 1939.458)" fill="#336791"/>
    <path id="Path_22215" data-name="Path 22215" d="M676.052-490a8.071,8.071,0,0,1-7.3-5,21.952,21.952,0,0,1-1.907-7.33c-.217-2.493-.294-4.991-.377-7.517-.4.142-.783.293-1.176.417a14.377,14.377,0,0,1-7.166.29,10.238,10.238,0,0,1-3.506-1.29,5.565,5.565,0,0,1-1.269-1.034c-.135-.153-.214-.156-.371-.031a7.194,7.194,0,0,1-3.225,1.514,6.587,6.587,0,0,1-4.541-.813,11.512,11.512,0,0,1-3.59-3.368,32.2,32.2,0,0,1-3.612-6.686,89.6,89.6,0,0,1-3.93-12c-.858-3.257-1.553-6.549-2.146-9.865a30.387,30.387,0,0,1-.194-9.785,17.429,17.429,0,0,1,3.685-8.866,14.735,14.735,0,0,1,7.384-4.739,23.325,23.325,0,0,1,7.994-.786,41.306,41.306,0,0,1,10.394,2.066.534.534,0,0,0,.474-.051,17.732,17.732,0,0,1,7.861-2.241,32.812,32.812,0,0,1,7.132.427,1.191,1.191,0,0,0,.53-.032,33.341,33.341,0,0,1,7.1-1.213c.065,0,.153.036.189-.063h3.36c.028.085.1.056.159.059a25.209,25.209,0,0,1,3.237.375,22.339,22.339,0,0,1,13.381,7.526,9,9,0,0,1,1.841,3.089,15.571,15.571,0,0,1,.659,5.192,40.315,40.315,0,0,1-1.441,9.439,73.958,73.958,0,0,1-7.865,18.8c-.06.1-.172.191-.14.349a22.566,22.566,0,0,0,2.955-.346,11.4,11.4,0,0,1,3.2-.343,3.961,3.961,0,0,1,3.158,1.883c.2.32.278.688.449,1.017v1.828c-.067.013-.068.072-.082.119a5.884,5.884,0,0,1-1.607,2.523,14.9,14.9,0,0,1-4.666,3.079,20.386,20.386,0,0,1-9.137,1.445c-.2-.01-.286.018-.3.233-.021.408-.087.814-.1,1.221a56.82,56.82,0,0,1-.534,6.494,24.565,24.565,0,0,1-1.709,6.389,11.371,11.371,0,0,1-4.568,5.4,17.77,17.77,0,0,1-7.6,2.232Zm14.022-24.584a10.275,10.275,0,0,0,1.644.3,19.83,19.83,0,0,0,4.642-.194,14.305,14.305,0,0,0,6.956-2.949A6.025,6.025,0,0,0,705-519.278a1.633,1.633,0,0,0-1.34-2.513,6.215,6.215,0,0,0-1.917.159,22.006,22.006,0,0,1-4.933.523,6.021,6.021,0,0,1-2.524-.507c-.212-.1-.257-.189-.11-.413a65.7,65.7,0,0,0,3.655-6.285,65.2,65.2,0,0,0,6.715-19.872,22.127,22.127,0,0,0,.159-6.529,6.756,6.756,0,0,0-1.25-3.32,20.386,20.386,0,0,0-14.552-7.757,27.875,27.875,0,0,0-5.411-.006,29.413,29.413,0,0,0-6.619,1.338.687.687,0,0,1-.4.016,23.9,23.9,0,0,0-6.979-.6,15.362,15.362,0,0,0-7.558,2.42.4.4,0,0,1-.4.052,40.629,40.629,0,0,0-9.275-2.169,23.6,23.6,0,0,0-7.659.277,12.673,12.673,0,0,0-9.728,8.162,19.722,19.722,0,0,0-1.2,5.579,26.828,26.828,0,0,0,.109,5.817c.3,2.173.714,4.326,1.184,6.468a106.162,106.162,0,0,0,4.247,14.73A36.055,36.055,0,0,0,643.027-516a10.642,10.642,0,0,0,2.871,2.988,4.529,4.529,0,0,0,5.353-.076,9.155,9.155,0,0,0,1.738-1.647q2.791-3.329,5.763-6.5a.29.29,0,0,1,.418-.081,9.643,9.643,0,0,0,3.911,1.041c.068,0,.16-.039.2.05s-.037.136-.082.191q-.576.712-1.154,1.422a3.164,3.164,0,0,1-1.407.981,24.187,24.187,0,0,1-2.966.764,6.429,6.429,0,0,0-2.535,1,1.806,1.806,0,0,0-.3,2.733,4.116,4.116,0,0,0,1.254.944,10.456,10.456,0,0,0,4.083,1.021,10.38,10.38,0,0,0,7.615-2.191c.126-.1.251-.2.414-.335,0,.14,0,.222,0,.3-.01,4.077.048,8.151.432,12.216a12.226,12.226,0,0,0,1.752,5.553,7.323,7.323,0,0,0,6.431,3.591,14.6,14.6,0,0,0,4.505-.757,10.191,10.191,0,0,0,4.123-2.246,9.2,9.2,0,0,0,2.473-4.389,34.682,34.682,0,0,0,.785-4.3c.343-2.347.639-4.7.924-7.056C689.776-512.037,689.922-513.3,690.074-514.584Z" transform="translate(783.56 2630)" fill="#383838"/>
    <path id="Union_419" data-name="Union 419" d="M-12914.714,7797a5.125,5.125,0,0,1-4.486-2.767,9.5,9.5,0,0,1-1.205-3.881,115.639,115.639,0,0,1-.437-12.928c.006-1.058.073-2.118.058-3.175a4.425,4.425,0,0,0-1.921-3.719,3.639,3.639,0,0,0-2.748-.662.474.474,0,0,0-.042-.039,25.03,25.03,0,0,1,1.192-3.429c.54-1.356,1.223-2.652,1.672-4.044a19.131,19.131,0,0,0,.814-7.148,35.178,35.178,0,0,0-.841-5.722,5.517,5.517,0,0,0-2.193-3.467,5.783,5.783,0,0,0-3.193-1.006,13.053,13.053,0,0,0-5.686,1.216c-.5.216-.99.458-1.516.7a14.415,14.415,0,0,1,.152-1.535,26.461,26.461,0,0,1,1.874-7,15.112,15.112,0,0,1,3.915-5.534,11.994,11.994,0,0,1,6.605-2.882,20.622,20.622,0,0,1,12.008,2.134,21.86,21.86,0,0,1,7.786,6.8,23.771,23.771,0,0,1,2.908,5.218c.039.105.073.213.122.315.1.21.064.29-.2.268a17.24,17.24,0,0,0-2.027-.073,9.36,9.36,0,0,0-3.707.736,5.1,5.1,0,0,0-3.094,4.4,12.915,12.915,0,0,0,.846,5.464,43.743,43.743,0,0,0,3.339,7.18c.651,1.178,1.338,2.34,1.9,3.566a14.858,14.858,0,0,0,2.151,3.2c.151.181.292.373.456.583-.215.076-.405.143-.6.216a3.879,3.879,0,0,0-2.534,3.241c-.15.885-.063,1.783-.172,2.668-.212,1.723-.386,3.452-.6,5.171q-.375,2.995-.791,5.983c-.187,1.331-.382,2.662-.681,3.974a6.654,6.654,0,0,1-4.906,5.264,13.88,13.88,0,0,1-3.94.712C-12914.523,7797-12914.619,7797-12914.714,7797Zm-18.653-19.181a3.047,3.047,0,0,1-.907-.459,9.139,9.139,0,0,1,1.869-.525,16.677,16.677,0,0,0,3.021-.866,5.185,5.185,0,0,0,1.973-1.484c.48-.582.962-1.168,1.442-1.751.094-.111.192-.217.295-.322.578-.6.991-.685,1.832-.063a2.2,2.2,0,0,1,.874,1.873,1.218,1.218,0,0,1-.243.723,7.792,7.792,0,0,1-6.125,3.394c-.211.013-.423.018-.633.018A11.144,11.144,0,0,1-12933.367,7777.814Zm-10.719-.834a10.037,10.037,0,0,1-2.357-2.748,38.116,38.116,0,0,1-3.476-7.467,105.362,105.362,0,0,1-4.063-14.742c-.372-1.793-.705-3.588-.92-5.407a20.179,20.179,0,0,1-.1-2.417,19.925,19.925,0,0,1,.952-6.629,10.5,10.5,0,0,1,3.481-5.075,11.794,11.794,0,0,1,5.295-2.22,24.063,24.063,0,0,1,7.955.1,38.869,38.869,0,0,1,5.7,1.359c.179.058.266.086.09.264a19.19,19.19,0,0,0-4.519,7.8,31.265,31.265,0,0,0-1.484,9.518c-.007,1.375.131,2.748.163,4.124a57.144,57.144,0,0,1-.391,6.5,10.848,10.848,0,0,0,3.594,9.32c.161.149.164.219.017.376-2,2.114-3.908,4.3-5.787,6.518a4.362,4.362,0,0,1-1.735,1.334,2.107,2.107,0,0,1-.766.148A2.777,2.777,0,0,1-12944.086,7776.98Zm44.764-1.688a5.919,5.919,0,0,1-1.648-.3.368.368,0,0,1-.291-.408,5.006,5.006,0,0,1,.2-1.532,1.6,1.6,0,0,1,1.038-1.076c.048-.016.1-.032.147-.051a1.489,1.489,0,0,1,1.523.092,7.074,7.074,0,0,0,3.7.809,24.437,24.437,0,0,0,5.141-.548c.051-.01.1-.016.234-.038a9.877,9.877,0,0,1-1.481,1.114,12.309,12.309,0,0,1-5.413,1.818,19.2,19.2,0,0,1-2.264.15C-12898.734,7775.322-12899.027,7775.313-12899.322,7775.292Zm-28.6-5.83a7.73,7.73,0,0,1-6.105-3.483,8.848,8.848,0,0,1-1.529-6.483,43.321,43.321,0,0,0,.292-8.327c-.029-.442-.036-.888-.081-1.331a.521.521,0,0,1,.27-.535,14.047,14.047,0,0,1,3.829-1.78,9.012,9.012,0,0,1,3.318-.439,3.156,3.156,0,0,1,3.075,2.532,29.929,29.929,0,0,1,.907,7.381,16.373,16.373,0,0,1-1.809,7.358,32.332,32.332,0,0,0-1.814,4.875c-.057.193-.143.234-.294.234Zm-1.264-21.054a.744.744,0,0,0-.446,1.14,2.454,2.454,0,0,0,1.091,1.069,2.086,2.086,0,0,0,2.559-.566.759.759,0,0,0-.156-1.223,2.356,2.356,0,0,0-.459-.254,3.87,3.87,0,0,0-1.61-.309c-.044,0-.09,0-.135,0A2.422,2.422,0,0,0-12929.186,7748.408Zm30.232,19.028a11.777,11.777,0,0,0,1.448-5.018,24.008,24.008,0,0,0-.291-5.009,21.98,21.98,0,0,1,.118-7.158,22.631,22.631,0,0,0,.355-4.35,6.184,6.184,0,0,0-.583-2.271,25.619,25.619,0,0,0-11.384-13.2c-.521-.293-1.074-.542-1.657-.837a21.288,21.288,0,0,1,2.168-.36,26.693,26.693,0,0,1,4.832-.194,18.83,18.83,0,0,1,11.232,4.079,17.03,17.03,0,0,1,2.754,2.824,4.859,4.859,0,0,1,.822,2.375,19.263,19.263,0,0,1-.157,5.591,64.424,64.424,0,0,1-8.6,22.9c-.285.487-.594.965-.9,1.449C-12899.207,7767.889-12899.207,7767.892-12898.953,7767.437Zm-1.751-1.993c-.812-1.828-1.886-3.519-2.806-5.289a35.288,35.288,0,0,1-2.784-6.553,10.921,10.921,0,0,1-.481-3.083,3.361,3.361,0,0,1,3.118-3.652,14,14,0,0,1,3.86-.042c.224.022.291.089.282.318a25.015,25.015,0,0,1-.353,2.92,22.4,22.4,0,0,0-.119,7.04,25.657,25.657,0,0,1,.334,4.7,9.6,9.6,0,0,1-.9,3.817A.239.239,0,0,1-12900.7,7765.443Zm-2.217-17.717a3.647,3.647,0,0,0-1.9.516.59.59,0,0,0-.152.994,1.988,1.988,0,0,0,3.379-.554.532.532,0,0,0-.347-.79,2.471,2.471,0,0,0-.922-.167Z" transform="translate(14374.998 -5662.001)" fill="#383838"/>
  </g>
</svg>
