<svg xmlns="http://www.w3.org/2000/svg" width="115" height="33.996" viewBox="0 0 115 33.996">
  <g id="redis" transform="translate(-1157 -5698)">
    <path id="Union_424" data-name="Union 424" d="M-14366.2,2258.71a8.188,8.188,0,0,1,5.433-8.828,7.516,7.516,0,0,1,6.437.661c.459.26.459.264.459-.249,0-1.846,0-3.691,0-5.537a1.74,1.74,0,0,1,1.108-1.716,1.707,1.707,0,0,1,1.929.347,1.971,1.971,0,0,1,.571,1.575q-.006,4.719,0,9.442,0,4.746,0,9.492a1.783,1.783,0,0,1-1.954,1.969,1.61,1.61,0,0,1-1.427-.993c-.134-.3-.217-.354-.517-.173a8.035,8.035,0,0,1-4.149,1.186A8.069,8.069,0,0,1-14366.2,2258.71Zm3.7-2.369a4.675,4.675,0,0,0,3.254,5.848,4.459,4.459,0,0,0,5.367-4.5,4.608,4.608,0,0,0-2.994-4.407,4.29,4.29,0,0,0-1.379-.229A4.443,4.443,0,0,0-14362.5,2256.341Zm19.812,7.282a1.61,1.61,0,0,1-.17-2.3,1.741,1.741,0,0,1,2.413-.307,8.363,8.363,0,0,0,2.261,1.214,4.586,4.586,0,0,0,3.41-.18,1.747,1.747,0,0,0,.7-.531.764.764,0,0,0-.228-1.264,9.038,9.038,0,0,0-3.2-1.033,9.633,9.633,0,0,1-3.258-1.181c-2.962-1.846-2.565-5.281-.051-6.949a7.218,7.218,0,0,1,6.7-.69,9.563,9.563,0,0,1,2.431,1.329,1.69,1.69,0,0,1,.444,2.323,1.8,1.8,0,0,1-2.395.462,12.723,12.723,0,0,0-1.748-.936,3.692,3.692,0,0,0-3.186.184c-.351.191-.716.426-.712.863s.434.578.766.74a10.607,10.607,0,0,0,2.5.679,11.989,11.989,0,0,1,3.243,1.1,4.2,4.2,0,0,1,.285,7.553,8,8,0,0,1-4.428,1.192A9.46,9.46,0,0,1-14342.689,2263.623Zm-5.57.426q0-3.088,0-6.173c0-2.091-.014-4.179.008-6.27a2,2,0,0,1,3.037-1.459,1.741,1.741,0,0,1,.95,1.69q0,5.087,0,10.175c0,.676.007,1.351,0,2.026a1.836,1.836,0,0,1-1.994,1.846A1.83,1.83,0,0,1-14348.26,2264.049Zm-29.661,1.289a7.546,7.546,0,0,1-5.295-6.711,7.919,7.919,0,0,1,6.573-8.6,7.868,7.868,0,0,1,9.254,6.177,7.432,7.432,0,0,1,.119.95c.072,1.232-.53,1.849-1.823,1.856-.933,0-1.86,0-2.789,0-.7,0-1.395,0-2.088,0-1.661,0-3.319,0-4.977,0-.589,0-.6.011-.4.56a4.465,4.465,0,0,0,3.983,2.955,5.076,5.076,0,0,0,3.8-.928,1.833,1.833,0,0,1,1.933-.155,1.4,1.4,0,0,1,.77,1.358,1.2,1.2,0,0,1-.474.968,8.612,8.612,0,0,1-5.544,2.116A9.175,9.175,0,0,1-14377.921,2265.338Zm-1.625-9.5c-.119.336-.123.473.321.466,1.408-.025,2.82-.007,4.229-.007h4.129c.585,0,.6-.018.328-.545a5.291,5.291,0,0,0-2.977-2.478,4.794,4.794,0,0,0-1.732-.329A4.634,4.634,0,0,0-14379.546,2255.842Zm-12.032,9.691a1.544,1.544,0,0,1-.683-1.275q0-6.393,0-12.786a1.62,1.62,0,0,1,1.492-1.579,1.753,1.753,0,0,1,1.942,1.253c.04.155.069.314.105.5a6.919,6.919,0,0,1,4.638-1.763,1.67,1.67,0,0,1,1.81,1.517,1.649,1.649,0,0,1-1.611,1.817,4.334,4.334,0,0,0-3.543,2.156,6.387,6.387,0,0,0-1.348,4.172c.094,1.506.025,3.02.019,4.533a1.67,1.67,0,0,1-1.022,1.622,1.875,1.875,0,0,1-.787.184A1.694,1.694,0,0,1-14391.578,2265.533Zm43.322-20.169a4.915,4.915,0,0,1,0-.509,1.837,1.837,0,0,1,2.132-1.969,2.4,2.4,0,0,1,.483.079c1.029.278,1.448.964,1.373,2.221a1.81,1.81,0,0,1-1.564,1.654,2.234,2.234,0,0,1-.428.041A1.921,1.921,0,0,1-14348.256,2245.364Z" transform="translate(15602.264 3459.117)" fill="#383838"/>
    <g id="Group_21672" data-name="Group 21672">
      <path id="Path_23124" data-name="Path 23124" d="M-280.137,217.9a.856.856,0,0,1,.446-.948,9.013,9.013,0,0,1,1.912-.874c5.467-2.127,10.916-4.3,16.419-6.331a11.5,11.5,0,0,1,3.26-.858,9.066,9.066,0,0,1,3.832.923q7.888,3.046,15.763,6.122a4.186,4.186,0,0,1,.953.5.739.739,0,0,1,.371.789,3.551,3.551,0,0,1-1.414,1.1c-2.076,1.076-4.25,1.94-6.39,2.875-3.756,1.642-7.565,3.163-11.245,4.975a5.234,5.234,0,0,1-4.619.3c-2.418-1.073-4.865-2.077-7.308-3.091-2.744-1.138-5.491-2.271-8.225-3.434A10.829,10.829,0,0,1-280.137,217.9Z" transform="translate(1437.162 5489.116)" fill="#737373"/>
      <path id="Path_23127" data-name="Path 23127" d="M-237.254,441.006q.007,1.985.015,3.971a1.168,1.168,0,0,1-.612.947,13.1,13.1,0,0,1-2.595,1.37q-6.982,3.047-13.966,6.091c-.867.379-1.7.827-2.576,1.2a5.005,5.005,0,0,1-4.144-.057c-5.278-2.359-10.674-4.439-15.979-6.736a16.427,16.427,0,0,1-2.421-1.175,1.339,1.339,0,0,1-.706-1.287c.049-1.24.026-2.483.033-3.725a3.19,3.19,0,0,0,.858.784,19.052,19.052,0,0,0,2.479,1.17c2.9,1.222,5.816,2.423,8.721,3.641,2.062.865,4.158,1.664,6.166,2.641a6.3,6.3,0,0,0,6.132-.078c.89-.48,1.822-.887,2.749-1.3,2.121-.935,4.252-1.85,6.378-2.773,2.171-.943,4.352-1.865,6.511-2.836A7.478,7.478,0,0,0-237.254,441.006Z" transform="translate(1437.24 5276.994)" fill="#383838"/>
      <path id="Path_23132" data-name="Path 23132" d="M-237.133,427.465a7.486,7.486,0,0,1-2.957,1.838c-2.159.966-4.34,1.883-6.512,2.82-2.127.918-4.258,1.828-6.38,2.758-.927.406-1.859.812-2.749,1.289a6.337,6.337,0,0,1-6.133.078c-2.009-.972-4.1-1.766-6.167-2.626-2.906-1.212-5.818-2.406-8.723-3.622a19.108,19.108,0,0,1-2.479-1.163,3.185,3.185,0,0,1-.859-.78.784.784,0,0,1,.421-.855,6.908,6.908,0,0,1,1.214-.623c1.234.514,2.466,1.031,3.7,1.541q5.879,2.432,11.759,4.861a25.023,25.023,0,0,0,2.842,1.191,5.472,5.472,0,0,0,3.971-.52c3.458-1.7,7.038-3.128,10.568-4.667,2.184-.952,4.394-1.845,6.539-2.885a2.692,2.692,0,0,1,.274-.1c.414.208.838.4,1.24.629A.741.741,0,0,1-237.133,427.465Z" transform="translate(1437.114 5291)" fill="#737373"/>
      <path id="Path_23136" data-name="Path 23136" d="M-199.507,279.543a11.429,11.429,0,0,1-4.262-.72,3.23,3.23,0,0,1-.855-.5.907.907,0,0,1,0-1.551,4.82,4.82,0,0,1,2.2-.921,13.363,13.363,0,0,1,6.562.219,3.532,3.532,0,0,1,1.443.765.876.876,0,0,1,0,1.42,3.5,3.5,0,0,1-1.444.762c-.482.142-.974.262-1.47.356A14.739,14.739,0,0,1-199.507,279.543Z" transform="translate(1369.06 5427.457)" fill="#fff"/>
      <path id="Path_23137" data-name="Path 23137" d="M-123.166,319.937l9.953-1.385c.109.139,0,.2-.047.263-.882,1.178-1.772,2.352-2.649,3.533a.367.367,0,0,1-.516.157c-2.121-.812-4.25-1.607-6.376-2.408C-122.877,320.068-122.948,320.033-123.166,319.937Z" transform="translate(1295.166 5389.448)" fill="#fff"/>
      <path id="Path_23138" data-name="Path 23138" d="M-104,232.947a24.993,24.993,0,0,1,2.611.874,1,1,0,0,0,.666.013c.8-.249,1.606-.478,2.48-.736a5.643,5.643,0,0,1-.542,1.275c-.153.3-.116.434.254.544a17.31,17.31,0,0,1,2.305.861c-.8.075-1.609.206-2.414.21-.853,0-1.418.229-1.6,1.04a5.111,5.111,0,0,1-.417.91,15.645,15.645,0,0,1-.984-1.474,1.218,1.218,0,0,0-1.177-.635c-1.131-.066-2.259-.176-3.41-.341.842-.277,1.674-.581,2.53-.819.48-.133.551-.278.283-.661a2.757,2.757,0,0,1-.58-1.071Z" transform="translate(1280.222 5467.061)" fill="#fff"/>
      <g id="Group_21671" data-name="Group 21671" transform="translate(-0.043 0.987)">
        <path id="Path_23139" data-name="Path 23139" d="M-19.011,274.971c-.415.293-1.546.042-2-.168-1.553-.722-2.387-1.367-4-2.079a5.787,5.787,0,0,1,1.2-.583q2.2-.969,4.41-1.925a2.948,2.948,0,0,1,.391-.111C-19.011,271.668-19.012,273.407-19.011,274.971Z" transform="translate(1206.053 5431.909)" fill="#fff"/>
        <path id="Path_23144" data-name="Path 23144" d="M14142.47-2027l6,2.688-6,2.312Z" transform="translate(-12955.426 7729.013)" fill="#383838"/>
      </g>
      <path id="Path_23143" data-name="Path 23143" d="M-237.254,441.006q.007,1.985.015,3.971a1.168,1.168,0,0,1-.612.947,13.1,13.1,0,0,1-2.595,1.37q-6.982,3.047-13.966,6.091c-.867.379-1.7.827-2.576,1.2a5.005,5.005,0,0,1-4.144-.057c-5.278-2.359-10.674-4.439-15.979-6.736a16.427,16.427,0,0,1-2.421-1.175,1.339,1.339,0,0,1-.706-1.287c.049-1.24.026-2.483.033-3.725a3.19,3.19,0,0,0,.858.784,19.052,19.052,0,0,0,2.479,1.17c2.9,1.222,5.816,2.423,8.721,3.641,2.062.865,4.158,1.664,6.166,2.641a6.3,6.3,0,0,0,6.132-.078c.89-.48,1.822-.887,2.749-1.3,2.121-.935,4.252-1.85,6.378-2.773,2.171-.943,4.352-1.865,6.511-2.836A7.478,7.478,0,0,0-237.254,441.006Z" transform="translate(1437.24 5270.994)" fill="#383838"/>
      <path id="Path_23142" data-name="Path 23142" d="M-237.133,427.465a7.486,7.486,0,0,1-2.957,1.838c-2.159.966-4.34,1.883-6.512,2.82-2.127.918-4.258,1.828-6.38,2.758-.927.406-1.859.812-2.749,1.289a6.337,6.337,0,0,1-6.133.078c-2.009-.972-4.1-1.766-6.167-2.626-2.906-1.212-5.818-2.406-8.723-3.622a19.108,19.108,0,0,1-2.479-1.163,3.185,3.185,0,0,1-.859-.78.784.784,0,0,1,.421-.855,6.908,6.908,0,0,1,1.214-.623c1.234.514,2.466,1.031,3.7,1.541q5.879,2.432,11.759,4.861a25.023,25.023,0,0,0,2.842,1.191,5.472,5.472,0,0,0,3.971-.52c3.458-1.7,7.038-3.128,10.568-4.667,2.184-.952,4.394-1.845,6.539-2.885a2.692,2.692,0,0,1,.274-.1c.414.208.838.4,1.24.629A.741.741,0,0,1-237.133,427.465Z" transform="translate(1437.114 5285)" fill="#737373"/>
      <path id="Path_23125" data-name="Path 23125" d="M-280.229,294.718a10.824,10.824,0,0,0,3.756,2.048c2.733,1.164,5.479,2.3,8.223,3.435,2.443,1.014,4.889,2.019,7.306,3.092a5.23,5.23,0,0,0,4.618-.3c3.679-1.813,7.488-3.334,11.243-4.977,2.139-.936,4.313-1.8,6.388-2.877a3.55,3.55,0,0,0,1.414-1.1c0,1.317.005,2.635.018,3.952a1.121,1.121,0,0,1-.474.863,17.532,17.532,0,0,1-1.509.963,3.013,3.013,0,0,0-.418.131c-2.578,1.229-5.226,2.3-7.844,3.44-3.021,1.314-6.062,2.583-9.028,4.021a5,5,0,0,1-4.479.182q-1.2-.555-2.421-1.062-6.212-2.59-12.432-5.161a15.664,15.664,0,0,0-2.4-.969,10.7,10.7,0,0,0-1.251-.721,1.405,1.405,0,0,1-.743-1.358C-280.2,297.121-280.235,295.919-280.229,294.718Z" transform="translate(1437.264 5411.962)" fill="#383838"/>
    </g>
  </g>
</svg>
