<svg id="html_5" data-name="html 5" xmlns="http://www.w3.org/2000/svg" width="59.001" height="63" viewBox="0 0 59.001 83">
  <path id="Path_8375" data-name="Path 8375" d="M150.655,303.5c-1.622-.572-3.3-.958-4.952-1.417q-9.213-2.56-18.435-5.084a.665.665,0,0,1-.584-.7q-.805-9.31-1.656-18.615-.835-9.307-1.67-18.614-.774-8.63-1.549-17.259c-.133-1.473-.264-2.945-.424-4.415-.042-.383.074-.509.439-.463a2.392,2.392,0,0,0,.3,0h57.521c.792,0,.776,0,.7.788-.337,3.75-.661,7.5-1,11.252-.378,4.2-.769,8.4-1.147,12.6-.337,3.75-.659,7.5-1,11.252q-.566,6.3-1.146,12.6c-.327,3.613-.661,7.225-.959,10.84-.038.465-.208.614-.63.73q-11.571,3.169-23.132,6.371a3.337,3.337,0,0,0-.326.127Z" transform="translate(-121.377 -220.498)" fill="#383838"/>
  <path id="Path_8376" data-name="Path 8376" d="M323.528,133.75c0,3.6,0,7.2.011,10.8,0,.348-.056.486-.447.472-.934-.032-1.87-.036-2.8,0-.447.018-.509-.152-.5-.543.021-1.6.009-3.208-.107-4.865l-2.52,3.867-2.5-3.856c-.193.121-.105.3-.106.432-.008,1.472-.017,2.943,0,4.415.005.392-.065.566-.511.549-.913-.035-1.829-.022-2.744,0-.314.006-.451-.043-.449-.41.019-3.619.019-7.238.024-10.858h3.939l2.375,3.98,2.4-3.98Z" transform="translate(-280.781 -133.75)" fill="#383838"/>
  <path id="Path_8377" data-name="Path 8377" d="M166.732,133.75q.005,5.428.016,10.856c0,.29-.049.42-.384.413-.994-.023-1.988-.021-2.982,0-.32.006-.4-.1-.4-.406.018-.974-.006-1.949.013-2.923.007-.331-.081-.451-.429-.441-.874.023-1.75.02-2.624,0-.306-.007-.41.075-.4.394.021.934-.014,1.87.017,2.8.014.424-.069.6-.544.577-.913-.041-1.83-.035-2.743,0-.43.016-.52-.128-.518-.534.016-3.36.009-6.721.008-10.081,0-.219-.008-.437-.012-.656h3.82c-.007,1.093,0,2.186-.033,3.277-.014.4.132.454.475.444.834-.023,1.67-.033,2.5,0,.421.018.485-.145.482-.511-.008-1.071.02-2.142.033-3.214Z" transform="translate(-150.279 -133.75)" fill="#383838"/>
  <path id="Path_8378" data-name="Path 8378" d="M245.542,133.75c0,1.092-.019,2.185.007,3.277.009.375-.1.469-.463.456-.794-.028-1.589.011-2.383-.017-.387-.014-.5.1-.5.494.02,2.125-.018,4.251.026,6.375.012.6-.17.72-.721.688-.851-.049-1.708-.034-2.561,0-.394.014-.493-.108-.49-.494.018-2.165,0-4.33.019-6.495,0-.436-.093-.591-.554-.568-.792.04-1.589,0-2.383.018-.311.008-.406-.078-.4-.4.022-1.112.014-2.224.017-3.336Z" transform="translate(-217.082 -133.75)" fill="#383838"/>
  <path id="Path_8379" data-name="Path 8379" d="M406.074,133.75c.01,2.306.037,4.613.019,6.92,0,.487.1.642.61.629,1.392-.036,2.785,0,4.177-.021.39-.006.567.06.549.509-.036.914-.025,1.83,0,2.745.008.344-.057.491-.449.488q-4.118-.025-8.236,0c-.323,0-.392-.106-.391-.407q.022-5.431.024-10.861Z" transform="translate(-357.764 -133.75)" fill="#383838"/>
  <path id="Path_8382" data-name="Path 8382" d="M307.176,268.538c-.007-.5.183-.588.643-.587q11.915.016,23.829.006c.344,0,.568-.064.521.484-.192,2.244-.412,4.485-.636,6.727-.2,2.025-.332,4.058-.509,6.086-.2,2.243-.41,4.486-.617,6.728q-.308,3.334-.617,6.669t-.617,6.669q-.311,3.364-.62,6.728c-.2,2.2-.4,4.407-.617,6.609-.149,1.533-.331,3.062-.472,4.6-.028.3-.164.38-.436.452-3.336.89-6.667,1.8-10,2.694-3.1.833-6.2,1.652-9.29,2.5-.432.118-.562.07-.558-.394C307.2,322.115,307.205,270.806,307.176,268.538Z" transform="translate(-278.176 -246.951)" fill="#fdfdfd"/>
  <path id="Path_8383" data-name="Path 8383" d="M208.581,337.939c-1.339-.009-2.678-.025-4.017-.026q-5.656-.005-11.312.007c-.441,0-.657-.038-.7-.61-.267-3.539-.587-8.074-.89-11.61-.306-3.576-.6-7.153-.933-10.726-.054-.574.142-.589.571-.588q8.326.018,16.652.007c.21,0,.42-.015.63-.023l-.01.047c0,2.464,0,5.928,0,8.391l.011.051q-3.673-.013-7.346-.026c-.8,0-1.607,0-2.411,0-.221,0-.354.023-.327.325.2,2.263.4,4.527.578,6.793.035.449.214.548.613.533.86-.032,1.722-.006,2.583-.01q3.156-.015,6.311-.035a.251.251,0,0,1-.01.063q0,3.693-.007,7.385Z" transform="translate(-179.588 -286.451)" fill="#fdfdfd"/>
  <path id="Path_8384" data-name="Path 8384" d="M221.316,494.238l-12.953-3.649c-.482-.136-.958-.3-1.444-.409a.453.453,0,0,1-.4-.481q-.406-4.843-.826-9.686c-.007-.078-.008-.157-.014-.235-.095-1.2-.095-1.2,1.111-1.2,1.772,0,3.545.03,5.316-.017.572-.015.71.193.745.711.1,1.528.256,3.053.369,4.581.028.371.108.589.52.7,2.437.645,4.865,1.328,7.3,2a1.9,1.9,0,0,0,.28.035l-.01.051q0,3.776.01,7.551Z" transform="translate(-192.322 -423.238)" fill="#fdfdfd"/>
  <path id="Path_8386" data-name="Path 8386" d="M307.205,428.114c2.5-.688,4.991-1.39,7.5-2.053a.829.829,0,0,0,.732-.861c.227-2.818.483-5.634.747-8.449.04-.421-.071-.54-.493-.536-2.613.019-5.226.01-7.839.008-.215,0-.431-.017-.646-.027q0-3.69.007-7.38c1.121-.009,2.241-.026,3.362-.026,4.348,0,8.7.007,13.045-.012.491,0,.626.1.577.624-.367,3.891-.7,7.784-1.046,11.677q-.448,5.034-.9,10.069c-.023.264-.034.472-.377.567q-7.215,2.007-14.421,4.045a1.174,1.174,0,0,1-.234.018Q307.21,431.945,307.205,428.114Z" transform="translate(-278.201 -364.777)" fill="#383838"/>
  <path id="Path_8387" data-name="Path 8387" d="M307.211,322.822c0-2.645,0-5.684,0-8.329.849-.008,1.7-.022,2.548-.023,4.964,0,9.928.005,14.892-.012.449,0,.6.1.552.63-.211,2.321-.393,5.014-.571,7.339-.023.3-.113.425-.383.4a3.806,3.806,0,0,0-.405,0C318.515,322.822,307.423,322.831,307.211,322.822Z" transform="translate(-278.215 -286.459)" fill="#383838"/>
</svg>
