<svg xmlns="http://www.w3.org/2000/svg" width="50" height="48" viewBox="0 0 50 48">
  <path id="react_js" data-name="react js" d="M15571.089,1954.658a16.565,16.565,0,0,1-5.721-3.38,18.537,18.537,0,0,1-1.969-1.857c-.258-.294-.387-.212-.611.016a23.067,23.067,0,0,1-5.3,4.135,9.832,9.832,0,0,1-4.385,1.388,4.485,4.485,0,0,1-4.617-3.155,11.933,11.933,0,0,1-.773-3.592,25.809,25.809,0,0,1,.686-7.629c.072-.327.033-.465-.309-.576a20.894,20.894,0,0,1-7.076-3.739,9.963,9.963,0,0,1-2.078-2.331,5.266,5.266,0,0,1,.238-6.307,12.971,12.971,0,0,1,4.234-3.531,23.761,23.761,0,0,1,4.715-2c.334-.1.373-.233.295-.576a27.742,27.742,0,0,1-.752-6.707,11.8,11.8,0,0,1,1.084-5.2,4.359,4.359,0,0,1,4.955-2.486,13.119,13.119,0,0,1,5.658,2.608,26.178,26.178,0,0,1,3.408,2.955c.207.208.318.2.529-.016a23.608,23.608,0,0,1,5.711-4.458,8.914,8.914,0,0,1,4.141-1.217,4.291,4.291,0,0,1,4.072,2.674,12.133,12.133,0,0,1,1.076,5.253c0,.2,0,.392,0,.588a28.053,28.053,0,0,1-.656,5.923c-.117.571-.121.563.383.731a21.8,21.8,0,0,1,6.912,3.547,10.051,10.051,0,0,1,2,2.111,5.192,5.192,0,0,1-.008,6.3,12.789,12.789,0,0,1-4.053,3.572,24.214,24.214,0,0,1-4.893,2.2c-.221.069-.377.122-.3.448a27.683,27.683,0,0,1,.7,5.617,15.083,15.083,0,0,1-.713,5.376,4.6,4.6,0,0,1-4.551,3.664A6.841,6.841,0,0,1,15571.089,1954.658Zm4.2-14.006a42.219,42.219,0,0,1-6.121,1.033.82.82,0,0,0-.65.433,49.665,49.665,0,0,1-3.668,5.029c-.189.224-.213.347.006.571a21.828,21.828,0,0,0,4.938,3.882,6.811,6.811,0,0,0,3.543,1.041,2.052,2.052,0,0,0,1.754-1,5.348,5.348,0,0,0,.541-1.07,13.941,13.941,0,0,0,.631-4.388c-.045-.612-.084-1.441-.166-2.261a28.1,28.1,0,0,0-.494-3.021c-.037-.152-.076-.265-.219-.265A.386.386,0,0,0,15575.288,1940.652Zm-24.779.355a28.091,28.091,0,0,0-.7,5.9,10.145,10.145,0,0,0,.1,1.6,8.1,8.1,0,0,0,.674,2.62,2.327,2.327,0,0,0,2.291,1.5,6.21,6.21,0,0,0,2.168-.465,19.325,19.325,0,0,0,6.381-4.528c.139-.143.113-.233-.008-.375a55.161,55.161,0,0,1-3.951-5.266.5.5,0,0,0-.4-.269,43.858,43.858,0,0,1-6.168-.951.742.742,0,0,0-.16-.024C15550.612,1940.751,15550.552,1940.813,15550.509,1941.008Zm9.752,1c-.084.147.076.253.15.351.768,1.081,1.592,2.115,2.422,3.143.211.261.332.212.508-.025.609-.8,1.234-1.6,1.836-2.4a6.386,6.386,0,0,0,.762-1.151c-.205.016-.371.033-.541.036-1.6.037-3.2.037-4.8,0-.064,0-.133-.016-.2-.016A.148.148,0,0,0,15560.261,1942.012Zm6.82-2.478c.23-.017.465,0,.621-.261a73.741,73.741,0,0,0,4.277-8.033.552.552,0,0,0,.008-.515,73.965,73.965,0,0,0-4.307-8.013.4.4,0,0,0-.35-.216c-.816-.045-1.633-.123-2.453-.143a54.914,54.914,0,0,0-6.131.139.544.544,0,0,0-.469.29,70.348,70.348,0,0,0-4.23,7.911.649.649,0,0,0-.01.6,69.023,69.023,0,0,0,4.283,7.976.525.525,0,0,0,.482.277c1.367.069,2.73.119,4.182.106C15564.294,1939.665,15565.688,1939.615,15567.081,1939.534Zm-15.844-1.327c-.055.184-.01.29.184.323.334.057.66.143,1,.2a31.064,31.064,0,0,0,3.295.5c-1.08-1.817-2.025-3.6-2.949-5.478C15552.173,1935.268,15551.677,1936.725,15551.237,1938.207Zm19.09,1a41.341,41.341,0,0,0,4.395-.788c.246-.057.176-.22.123-.38-.336-.971-.66-1.951-1-2.923-.166-.466-.355-.919-.566-1.457C15572.345,1935.578,15571.384,1937.362,15570.327,1939.207Zm-21.6-14.892a26.335,26.335,0,0,0-3.5,1.417,12.824,12.824,0,0,0-4.053,2.947,3.816,3.816,0,0,0-1.035,2.294,3.432,3.432,0,0,0,.318,1.172,7.022,7.022,0,0,0,1.85,2.249,19.514,19.514,0,0,0,6.488,3.417c.27.094.313-.07.367-.265a59.841,59.841,0,0,1,2.23-6.242.706.706,0,0,0,.006-.6,54.384,54.384,0,0,1-2.191-6.119c-.064-.221-.146-.312-.285-.312A.652.652,0,0,0,15548.728,1924.316Zm28.09.306a51.293,51.293,0,0,1-2.154,5.951.884.884,0,0,0,.012.784,51.991,51.991,0,0,1,2.246,6.054c.088.314.2.347.457.257a23.4,23.4,0,0,0,4.518-2.061,11.064,11.064,0,0,0,3.023-2.5,3.545,3.545,0,0,0,.922-2.086,2.916,2.916,0,0,0-.424-1.469,6.651,6.651,0,0,0-1.51-1.744,19.861,19.861,0,0,0-6.635-3.462.6.6,0,0,0-.187-.038C15576.94,1924.31,15576.88,1924.413,15576.817,1924.622Zm-6.461-1.759c1.027,1.776,1.975,3.527,2.893,5.4.59-1.453,1.064-2.862,1.5-4.286.076-.257-.012-.331-.246-.387-.922-.225-1.859-.4-2.8-.56a6.684,6.684,0,0,0-1.186-.169C15570.47,1922.857,15570.415,1922.859,15570.356,1922.862Zm-14.852-.016a36.224,36.224,0,0,0-4.111.747c-.156.037-.187.127-.146.269.443,1.461.928,2.911,1.518,4.392.9-1.865,1.85-3.629,2.857-5.364a.628.628,0,0,0-.109-.045Zm17.764-13.512a5.7,5.7,0,0,0-2.336.522,20.466,20.466,0,0,0-6.2,4.544c-.168.163-.143.277,0,.445a52.869,52.869,0,0,1,3.881,5.225.441.441,0,0,0,.338.245,44.554,44.554,0,0,1,6.166,1.033c.27.065.326-.017.377-.273a24.979,24.979,0,0,0,.6-7.14,8.205,8.205,0,0,0-.822-3.265,2.159,2.159,0,0,0-1.885-1.339C15573.347,1909.331,15573.308,1909.332,15573.269,1909.334Zm-22.906,2.054a12.25,12.25,0,0,0-.551,3.919,29.416,29.416,0,0,0,.691,5.637c.08.376.217.437.537.359a42.844,42.844,0,0,1,5.969-.988.483.483,0,0,0,.389-.228,48.515,48.515,0,0,1,3.869-5.176c.193-.22.193-.355-.021-.567a25.512,25.512,0,0,0-2.758-2.417,12.242,12.242,0,0,0-4.838-2.457,4.531,4.531,0,0,0-.891-.1C15551.593,1909.371,15550.847,1909.977,15550.362,1911.388Zm12.445,5.156c-.635.722-1.221,1.49-1.807,2.261-.287.388-.57.784-.926,1.278a52.171,52.171,0,0,1,5.76,0c-.01-.1,0-.139-.014-.155-.814-1.2-1.705-2.331-2.621-3.441-.068-.085-.127-.117-.176-.117C15562.944,1916.365,15562.878,1916.458,15562.808,1916.543Zm.182,18.631a3.9,3.9,0,1,1,.117,0Z" transform="translate(-15537.999 -1906.999)" fill="#383838"/>
</svg>
