<svg xmlns="http://www.w3.org/2000/svg" width="55" height="48" viewBox="0 0 55 48">
  <path id="vue_js" data-name="vue js" d="M27.066,47.425Q18.834,33.089,10.6,18.752,5.454,9.783.3.817C-.155.028-.15.009.736.008q4.85,0,9.7,0a5.2,5.2,0,0,1,.621.074,2.208,2.208,0,0,0,.31.727Q17.626,11.7,23.874,22.6c1.072,1.868,2.13,3.743,3.209,5.607.2.347.387.873.819.107,1.715-3.03,3.467-6.04,5.2-9.06,2.49-4.334,4.991-8.662,7.46-13.008C41.731,4.194,43.007,2.2,44.028.062Q47.881.035,51.734.008c.319,0,.64,0,.96,0,.555,0,1.109.008,1.664-.008.634-.019.828.1.453.748C52.7,4.387,50.616,8.042,48.522,11.69q-8.673,15.1-17.348,30.19c-1.061,1.847-2.115,3.7-3.178,5.543-.221.384-.344.577-.467.577S27.285,47.808,27.066,47.425Zm.236-21.59q-4.484-7.811-8.968-15.62Q15.53,5.33,12.72.445C12.474.016,12.477,0,12.959,0q2.642,0,5.284,0a2.982,2.982,0,0,1,.339.041,1.2,1.2,0,0,0,.168.4q3.412,5.934,6.814,11.869c.584,1.018,1.16,2.039,1.748,3.055.109.19.211.475.446.059.934-1.651,1.888-3.291,2.834-4.936C31.948,8.129,33.31,5.772,34.655,3.4c.637-1.12,1.332-2.206,1.887-3.371q2.1-.015,4.2-.029c.176,0,.352,0,.527,0,.3,0,.6,0,.9,0,.346-.01.451.055.247.408-1.151,1.981-2.284,3.973-3.425,5.96q-4.724,8.223-9.45,16.446-.866,1.509-1.73,3.02c-.121.209-.188.314-.254.314S27.422,26.044,27.3,25.835Z" transform="translate(-0.001 0)" fill="#383838"/>
</svg>
