<svg xmlns="http://www.w3.org/2000/svg" width="55.001" height="18.334" viewBox="0 0 55.001 18.334">
  <path id="wpf" d="M26.718-15.444,19.2,2.89H14.131L13.372-9.15,8.547,2.89H3.478L2.156-15.444H6.637L6.907-2.1l5.265-13.345H16.8l.735,13.267,4.677-13.267Zm15.158,5.9A6.939,6.939,0,0,1,40.725-6.63,6.635,6.635,0,0,1,38.264-4.5a7.825,7.825,0,0,1-3.661.81h-2.6l-1.1,6.581H26.718l3.037-18.334h6.783A5.8,5.8,0,0,1,40.6-14.177a4.446,4.446,0,0,1,1.371,3.434A6.848,6.848,0,0,1,41.876-9.542Zm-7.028,2.35a2.546,2.546,0,0,0,2.767-2.35,5.878,5.878,0,0,0,.049-.6,1.659,1.659,0,0,0-.5-1.293,2.213,2.213,0,0,0-1.531-.457H33.354l-.759,4.7Zm22.309-8.253-.588,3.526h-7l-.637,3.944h5.241l-.588,3.4h-5.24L47.117,2.89H42.929l3.037-18.334Z" transform="translate(-2.156 15.444)" fill="#383838"/>
</svg>
