<svg xmlns="http://www.w3.org/2000/svg" width="375" height="312.028" viewBox="0 0 375 312.028">
  <g id="Group_274" data-name="Group 274" transform="translate(-772 -2298.972)">
    <path id="Path_3102" data-name="Path 3102" d="M376.481,78.351l-14.247-.066a3.533,3.533,0,0,0-3.474,3.59l-.012,2.577a3.532,3.532,0,0,1-3.474,3.59l-27.769-.128a3.537,3.537,0,0,1-3.444-3.622l.012-2.577a3.537,3.537,0,0,0-3.444-3.622l-5.011-.023-12.469-.058a11.2,11.2,0,0,0-11.262,11.132l-.76,179.3a11.194,11.194,0,0,0,11.158,11.226l73.331.338a11.193,11.193,0,0,0,11.26-11.131l.76-179.3A11.192,11.192,0,0,0,376.481,78.351Z" transform="translate(629.941 2230.864)" fill="#fafafa"/>
    <path id="Path_3103" data-name="Path 3103" d="M376.361,78.265s.128,0,.383.014a8.361,8.361,0,0,1,1.134.093,10.563,10.563,0,0,1,4.192,1.462,10.764,10.764,0,0,1,2.547,2.073,11.156,11.156,0,0,1,2.123,3.343,11.518,11.518,0,0,1,.824,4.542q-.008,2.478-.016,5.274c-.053,14.907-.129,36.475-.224,63.124s-.229,58.385-.367,93.621q-.026,6.607-.054,13.375-.006,1.692-.014,3.393a11.246,11.246,0,0,1-4.343,9.059,11.015,11.015,0,0,1-3.05,1.7,12.56,12.56,0,0,1-1.689.493,12.407,12.407,0,0,1-1.752.2c-2.341.045-4.674-.005-7.029,0l-14.249-.064-29.242-.133-14.956-.068-7.554-.035a11.867,11.867,0,0,1-7.272-2.024,11.444,11.444,0,0,1-4.423-6.119,12.3,12.3,0,0,1-.458-3.781q.008-1.889.016-3.772.032-7.532.064-14.961.064-14.855.126-29.25c.084-19.177.165-37.674.242-55.295s.154-34.365.225-50.036q.054-11.753.1-22.676.006-1.364.013-2.714c.028-.452.032-.908.089-1.355A10.986,10.986,0,0,1,292,86.418a11.142,11.142,0,0,1,2.432-4.691,11.634,11.634,0,0,1,4.191-3.034c.407-.139.8-.308,1.216-.418A10.689,10.689,0,0,1,301.086,78a8.936,8.936,0,0,1,1.262-.137c.423-.024.843-.037,1.258-.028l9.753.05,4.691.024,2.3.012a3.525,3.525,0,0,1,2.179.672,3.694,3.694,0,0,1,1.317,1.827,6.61,6.61,0,0,1,.189,2.21q0,.547-.005,1.089a6.349,6.349,0,0,0,.043,1.065,3.554,3.554,0,0,0,.877,1.861,3.371,3.371,0,0,0,1.739,1.028,4.668,4.668,0,0,0,1.016.082l1.031.005,4.038.021,14.753.079,6.5.036c.514-.007,1.034.029,1.524-.018a3.312,3.312,0,0,0,1.371-.487,3.547,3.547,0,0,0,1.567-2.263,6.542,6.542,0,0,0,.086-1.361q0-.678.008-1.338a7.137,7.137,0,0,1,.069-1.3,3.778,3.778,0,0,1,.438-1.191,3.515,3.515,0,0,1,1.8-1.551,5.823,5.823,0,0,1,2.222-.217l7.257.047,4.462.034c1.006.009,1.521.021,1.521.021s-.515.007-1.521.007l-4.463-.007-7.257-.02a5.745,5.745,0,0,0-2.19.217,3.419,3.419,0,0,0-1.754,1.516,3.678,3.678,0,0,0-.424,1.16,7.059,7.059,0,0,0-.064,1.286q0,.659,0,1.338a6.625,6.625,0,0,1-.086,1.383,3.657,3.657,0,0,1-1.611,2.337,3.423,3.423,0,0,1-1.419.507c-.515.05-1.019.014-1.538.022l-6.5-.024-14.753-.056-4.038-.015-1.031,0a4.829,4.829,0,0,1-1.051-.084,3.531,3.531,0,0,1-1.827-1.076,3.722,3.722,0,0,1-.921-1.946,6.486,6.486,0,0,1-.046-1.091q0-.543,0-1.089a6.465,6.465,0,0,0-.183-2.154,3.514,3.514,0,0,0-1.256-1.739,3.34,3.34,0,0,0-2.075-.636l-2.3-.01-4.692-.02-9.753-.04c-.418-.009-.833,0-1.246.029a8.7,8.7,0,0,0-1.24.136,10.392,10.392,0,0,0-1.225.274c-.405.109-.794.276-1.194.412a11.438,11.438,0,0,0-4.113,2.983,10.939,10.939,0,0,0-2.384,4.606,22.4,22.4,0,0,0-.339,5.348q-.042,10.91-.088,22.675c-.062,15.671-.129,32.415-.2,50.036s-.148,36.118-.226,55.295q-.06,14.383-.122,29.25-.031,7.428-.063,14.961-.008,1.883-.016,3.772a12.032,12.032,0,0,0,.446,3.7,11.169,11.169,0,0,0,4.315,5.969,11.581,11.581,0,0,0,7.116,1.975l7.554.035,14.956.069,29.242.137,14.249.067c2.349,0,4.7.05,7.016.005a12.143,12.143,0,0,0,1.711-.194,12.277,12.277,0,0,0,1.649-.48,10.732,10.732,0,0,0,2.979-1.661,10.9,10.9,0,0,0,3.776-5.522c.677-2.167.418-4.473.484-6.722q.03-6.766.059-13.375c.161-35.236.305-66.969.427-93.621s.238-48.216.312-63.124q.015-2.8.029-5.274a11.451,11.451,0,0,0-.8-4.511,11.116,11.116,0,0,0-2.1-3.327,10.749,10.749,0,0,0-2.525-2.071,10.624,10.624,0,0,0-4.167-1.481,8.967,8.967,0,0,0-1.13-.107C376.489,78.277,376.361,78.265,376.361,78.265Z" transform="translate(630.061 2230.95)" stroke="#000" stroke-width="0.4"/>
    <g id="Group_194" data-name="Group 194" transform="translate(932.145 2480.566)">
      <g id="Group_193" data-name="Group 193" transform="translate(0 0)">
        <path id="Path_3104" data-name="Path 3104" d="M373.7,420.343s.144-.017.426-.036l.525-.034.718-.117a9.133,9.133,0,0,0,4.291-2.039,9.194,9.194,0,0,0,3.272-6.6,12.451,12.451,0,0,0-.477-4.681,9.379,9.379,0,0,0-1.156-2.295,9.651,9.651,0,0,0-1.852-1.971,9.065,9.065,0,0,0-2.465-1.4,8.468,8.468,0,0,0-2.9-.588c-2.036-.036-4.171-.005-6.373-.012l-14.072.013-32.244.011a9.216,9.216,0,0,0-8.978,7.2c-.08.328-.11.666-.168,1-.029.335-.037.671-.057,1.006,0,.681-.006,1.359.04,2.019a9.224,9.224,0,0,0,7.152,8.174,16.607,16.607,0,0,0,3.718.229l26.334.029,17.754.044,4.827.026,1.256.014c.283,0,.428.014.428.014s-.145.01-.428.014l-1.256.014-4.827.026-17.754.044-26.334.029a16.768,16.768,0,0,1-3.774-.23,9.484,9.484,0,0,1-7.366-8.4c-.049-.687-.045-1.363-.043-2.042.02-.344.028-.69.058-1.035.059-.341.089-.689.172-1.026a9.49,9.49,0,0,1,9.245-7.416l32.244.011,14.072.013c2.205.011,4.328-.015,6.382.028a8.647,8.647,0,0,1,2.962.609,9.252,9.252,0,0,1,2.514,1.435,9.812,9.812,0,0,1,1.884,2.018,9.544,9.544,0,0,1,1.17,2.344,12.571,12.571,0,0,1,.465,4.746,9.293,9.293,0,0,1-3.357,6.679,10.209,10.209,0,0,1-2.385,1.448,10.1,10.1,0,0,1-1.966.564l-.723.1-.527.02C373.846,420.345,373.7,420.343,373.7,420.343Z" transform="translate(-311.92 -400.316)" stroke="#000" stroke-width="0.4"/>
      </g>
    </g>
    <g id="Group_196" data-name="Group 196" transform="translate(948.021 2401.949)">
      <g id="Group_195" data-name="Group 195">
        <path id="Path_3105" data-name="Path 3105" d="M398.236,314.95s0-.1-.007-.3,0-.486-.007-.863c0-.764-.008-1.886-.014-3.348-.007-2.93-.018-7.214-.032-12.657-.015-10.878-.036-26.382-.062-44.914l.122.122-56.367.017h-.005l.139-.139c-.007,22.847-.014,44.181-.021,62.079l-.118-.118,40.867.061,11.442.03,3.019.014c.685,0,1.044.013,1.044.013s-.343.009-1.019.013l-3,.014-11.416.03-40.941.061h-.118v-.118c-.006-17.9-.013-39.231-.021-62.079v-.138h.144l56.367.017h.122v.121c-.025,18.565-.046,34.1-.061,44.993-.014,5.431-.024,9.706-.032,12.63-.006,1.452-.011,2.566-.014,3.325,0,.371-.005.653-.007.85S398.236,314.95,398.236,314.95Z" transform="translate(-341.725 -252.733)" stroke="#000" stroke-width="0.4"/>
      </g>
    </g>
    <g id="Group_198" data-name="Group 198" transform="translate(954.891 2338.35)">
      <g id="Group_197" data-name="Group 197">
        <path id="Path_3106" data-name="Path 3106" d="M385.916,133.48c0,.077-7.007.139-15.648.139s-15.651-.062-15.651-.139,7.005-.139,15.651-.139S385.916,133.4,385.916,133.48Z" transform="translate(-354.617 -133.342)" stroke="#000" stroke-width="0.4"/>
      </g>
    </g>
    <g id="Group_202" data-name="Group 202" transform="translate(1004.848 2334.438)">
      <g id="Group_199" data-name="Group 199">
        <path id="Path_3107" data-name="Path 3107" d="M450.248,126.921a.924.924,0,1,1-.924-.924A.924.924,0,0,1,450.248,126.921Z" transform="translate(-448.4 -125.997)"/>
      </g>
      <g id="Group_200" data-name="Group 200" transform="translate(0 2.855)">
        <path id="Path_3108" data-name="Path 3108" d="M450.248,132.281a.924.924,0,1,1-.924-.924A.924.924,0,0,1,450.248,132.281Z" transform="translate(-448.4 -131.357)"/>
      </g>
      <g id="Group_201" data-name="Group 201" transform="translate(0 5.71)">
        <path id="Path_3109" data-name="Path 3109" d="M450.248,137.641a.924.924,0,1,1-.924-.924A.924.924,0,0,1,450.248,137.641Z" transform="translate(-448.4 -136.717)"/>
      </g>
    </g>
    <g id="Group_204" data-name="Group 204" transform="translate(932.031 2357.764)">
      <g id="Group_203" data-name="Group 203">
        <path id="Path_3110" data-name="Path 3110" d="M347.875,205.953s0-.061-.007-.174,0-.286-.007-.5c0-.449-.008-1.1-.014-1.941-.007-1.7-.018-4.181-.031-7.333-.015-6.3-.036-15.3-.061-26.079l.12.12-36.024.019h0l.139-.138c-.007,13.192-.013,25.554-.019,36.027l-.12-.12,26.08.061,7.333.031,1.94.014.5.007c.113,0,.174.007.174.007s-.052,0-.161.006l-.488.007-1.917.014-7.305.031-26.157.061h-.12v-.12c-.005-10.473-.012-22.835-.019-36.027v-.139h.142l36.024.019H348v.12c-.026,10.815-.046,19.832-.061,26.156-.013,3.141-.024,5.61-.031,7.306-.006.833-.011,1.474-.014,1.917,0,.209-.005.37-.007.488S347.875,205.953,347.875,205.953Z" transform="translate(-311.709 -169.787)" stroke="#000" stroke-width="0.4"/>
      </g>
    </g>
    <g id="Group_206" data-name="Group 206" transform="translate(932.281 2358.072)">
      <g id="Group_205" data-name="Group 205">
        <path id="Path_3111" data-name="Path 3111" d="M347.975,170.365a.491.491,0,0,1-.079.1l-.251.288-.987,1.088c-.86.942-2.119,2.292-3.685,3.949-3.132,3.315-7.516,7.841-12.459,12.739s-9.516,9.238-12.86,12.338c-1.672,1.551-3.034,2.8-3.983,3.647l-1.1.976-.29.249a.466.466,0,0,1-.105.078s.026-.037.086-.1l.272-.268,1.062-1.014,3.922-3.71c3.31-3.136,7.855-7.5,12.8-12.393s9.345-9.4,12.512-12.678l3.748-3.887,1.024-1.052.272-.268C347.938,170.39,347.971,170.362,347.975,170.365Z" transform="translate(-312.178 -170.365)" stroke="#000" stroke-width="0.4"/>
      </g>
    </g>
    <g id="Group_208" data-name="Group 208" transform="translate(932.172 2357.903)">
      <g id="Group_207" data-name="Group 207">
        <path id="Path_3112" data-name="Path 3112" d="M348,206.074c-.054.054-8.164-7.968-18.111-17.915s-17.97-18.058-17.917-18.113,8.162,7.966,18.113,17.917S348.05,206.02,348,206.074Z" transform="translate(-311.968 -170.046)" stroke="#000" stroke-width="0.4"/>
      </g>
    </g>
    <g id="Group_210" data-name="Group 210" transform="translate(973.354 2358.579)">
      <g id="Group_209" data-name="Group 209">
        <path id="Path_3113" data-name="Path 3113" d="M419.7,178.531a.866.866,0,0,1-.008-.128l-.009-.363q-.006-.5-.019-1.391c-.011-1.221-.026-2.977-.045-5.194l.081.081-30.27.058h0c.277-.277.077-.076.139-.137v3.588q0,1.771,0,3.485l-.136-.136,21.558.061,6.379.039,1.725.018.451.009a1.231,1.231,0,0,1,.159.009.7.7,0,0,1-.142.009l-.434.009-1.7.018-6.347.039-21.654.061h-.136v-.137q0-1.712,0-3.485v-3.588c.062-.063-.139.137.138-.141h0l30.27.058h.082v.08c-.019,2.237-.034,4.01-.045,5.241q-.013.882-.02,1.374c0,.143-.006.258-.009.348A.538.538,0,0,1,419.7,178.531Z" transform="translate(-389.279 -171.317)" stroke="#000" stroke-width="0.4"/>
      </g>
    </g>
    <g id="Group_223" data-name="Group 223" transform="translate(974.465 2373.918)">
      <g id="Group_212" data-name="Group 212">
        <g id="Group_211" data-name="Group 211">
          <path id="Path_3114" data-name="Path 3114" d="M425.222,200.249c0,.077-7.58.139-16.928.139s-16.929-.062-16.929-.139,7.578-.139,16.929-.139S425.222,200.173,425.222,200.249Z" transform="translate(-391.365 -200.111)" fill="#263238"/>
        </g>
      </g>
      <g id="Group_214" data-name="Group 214" transform="translate(0 3.72)">
        <g id="Group_213" data-name="Group 213">
          <path id="Path_3115" data-name="Path 3115" d="M425.222,207.233c0,.077-7.58.139-16.928.139s-16.929-.062-16.929-.139,7.578-.138,16.929-.138S425.222,207.157,425.222,207.233Z" transform="translate(-391.365 -207.095)" fill="#263238"/>
        </g>
      </g>
      <g id="Group_216" data-name="Group 216" transform="translate(0 7.441)">
        <g id="Group_215" data-name="Group 215">
          <path id="Path_3116" data-name="Path 3116" d="M425.222,214.219c0,.077-7.58.138-16.928.138s-16.929-.062-16.929-.138,7.578-.139,16.929-.139S425.222,214.142,425.222,214.219Z" transform="translate(-391.365 -214.08)" fill="#263238"/>
        </g>
      </g>
      <g id="Group_218" data-name="Group 218" transform="translate(0 11.162)">
        <g id="Group_217" data-name="Group 217">
          <path id="Path_3117" data-name="Path 3117" d="M425.222,221.2c0,.077-7.58.139-16.928.139s-16.929-.062-16.929-.139,7.578-.139,16.929-.139S425.222,221.126,425.222,221.2Z" transform="translate(-391.365 -221.064)" fill="#263238"/>
        </g>
      </g>
      <g id="Group_220" data-name="Group 220" transform="translate(0 14.882)">
        <g id="Group_219" data-name="Group 219">
          <path id="Path_3118" data-name="Path 3118" d="M425.222,228.188c0,.077-7.58.138-16.928.138s-16.929-.062-16.929-.138,7.578-.139,16.929-.139S425.222,228.111,425.222,228.188Z" transform="translate(-391.365 -228.049)" fill="#263238"/>
        </g>
      </g>
      <g id="Group_222" data-name="Group 222" transform="translate(0 18.603)">
        <g id="Group_221" data-name="Group 221">
          <path id="Path_3119" data-name="Path 3119" d="M425.222,235.171c0,.077-7.58.139-16.928.139s-16.929-.062-16.929-.139,7.578-.139,16.929-.139S425.222,235.1,425.222,235.171Z" transform="translate(-391.365 -235.033)" fill="#263238"/>
        </g>
      </g>
    </g>
    <path id="Path_3120" data-name="Path 3120" d="M514,153.757a1.428,1.428,0,1,1-1.428-1.428A1.428,1.428,0,0,1,514,153.757Z" transform="translate(527.129 2196.135)"/>
    <path id="Path_3121" data-name="Path 3121" d="M494.357,143.99h-4.8a7.911,7.911,0,0,1-7.9-7.9c0-2.852-.191-4.7-2.741-4.7h-6.752v-.533h6.752c3.274,0,3.274,2.76,3.274,5.2a7.385,7.385,0,0,0,7.369,7.4h4.8Z" transform="translate(545.342 2206.17)"/>
    <rect id="Rectangle_253" data-name="Rectangle 253" width="29.759" height="29.759" rx="4" transform="translate(869 2328.888)" fill="#f9865f"/>
    <path id="Path_3122" data-name="Path 3122" d="M212.624,145.113h3.146a.335.335,0,0,0,.335-.335V141.46a.335.335,0,0,1,.335-.335h2.245a.335.335,0,0,1,.335.335v3.392a.335.335,0,0,0,.335.335h3.129a.335.335,0,0,0,.336-.335v-6.061a.335.335,0,0,0-.1-.241l-4.942-4.755a.335.335,0,0,0-.462,0l-4.935,4.631a.336.336,0,0,0-.106.246l.017,6.111A.335.335,0,0,0,212.624,145.113Z" transform="translate(666.791 2204.841)" fill="#fff"/>
    <rect id="Rectangle_254" data-name="Rectangle 254" width="26.538" height="26.538" rx="4" transform="translate(1046.023 2335.178)" fill="#91ba83"/>
    <rect id="Rectangle_255" data-name="Rectangle 255" width="9.297" height="1.065" transform="translate(1054.953 2345.75)" fill="#fff"/>
    <rect id="Rectangle_256" data-name="Rectangle 256" width="9.297" height="1.065" transform="translate(1054.953 2348.105)" fill="#fff"/>
    <rect id="Rectangle_257" data-name="Rectangle 257" width="9.297" height="1.065" transform="translate(1054.953 2350.461)" fill="#fff"/>
    <path id="Path_3123" data-name="Path 3123" d="M223.234,105.933a1.428,1.428,0,1,1-1.428-1.428A1.427,1.427,0,0,1,223.234,105.933Z" transform="translate(663.002 2218.484)"/>
    <path id="Path_3124" data-name="Path 3124" d="M381.844,78.1a1.428,1.428,0,1,1-1.428-1.428A1.428,1.428,0,0,1,381.844,78.1Z" transform="translate(588.883 2231.49)"/>
    <path id="Path_3125" data-name="Path 3125" d="M223.092,84.286h-.533V67.266a7.855,7.855,0,0,1,7.846-7.846h69.381a7.855,7.855,0,0,1,7.846,7.846v2.772H307.1V67.266a7.321,7.321,0,0,0-7.313-7.313H230.405a7.321,7.321,0,0,0-7.313,7.313Z" transform="translate(661.984 2239.552)"/>
    <path id="Path_3126" data-name="Path 3126" d="M305.219,202.454a1.428,1.428,0,1,1-1.428-1.428A1.428,1.428,0,0,1,305.219,202.454Z" transform="translate(624.689 2173.379)"/>
    <path id="Path_3127" data-name="Path 3127" d="M289.407,175.693H275.514a4.243,4.243,0,0,1-4.239-4.239v-24.2a4.243,4.243,0,0,1,4.239-4.239h7v.533h-7a3.71,3.71,0,0,0-3.706,3.706v24.2a3.71,3.71,0,0,0,3.706,3.706h13.893Z" transform="translate(639.219 2200.49)"/>
    <path id="Path_2913" data-name="Path 2913" d="M519.887,293.876c-.464-.607-.871-1.25-1.278-1.9-7.847-12.339-42.136-6.491-42.136-6.491-3.877,29.747-10.625,26.241-11.875,24.371s-3.506-20.243-5-22.743c-4.313-.378-13.124-.314-13.124-.314-8.5.2-16.5,7.683-24.371,19.872s-21.743,22.493-21.743,22.493,4.12.378,5.62,9.376c.921.286,3.684-.935,5.7-1.921a10.9,10.9,0,0,1,5.791-1.064,19.327,19.327,0,0,1,11.632,4.863,13.907,13.907,0,0,0,1.457,1.185c.471-.264.736-.443.736-.443,7.683-3.185,12.182-14.245,12.182-14.245a12.47,12.47,0,0,1-1.071-4.406,24.184,24.184,0,0,1,.064-4.549c.164-1.478.278-2.942.321-4.413a23.751,23.751,0,0,0-.193-4.441,12.378,12.378,0,0,1,1.028,4.42,25.383,25.383,0,0,1-.093,4.541c-.164,1.471-.257,2.935-.293,4.413a25.029,25.029,0,0,0,.236,4.434,46.609,46.609,0,0,0,2.778,11.532,31.149,31.149,0,0,0,6.248,1.378,19.3,19.3,0,0,0,3.149.1,31.934,31.934,0,0,0,3.213-.343,9.267,9.267,0,0,1-3.12,1.171,11.728,11.728,0,0,1-1.671.2,16.529,16.529,0,0,1-1.685-.064,13.058,13.058,0,0,1-3.256-.785,10.044,10.044,0,0,1-2.878-1.657,21.867,21.867,0,0,0,2.378,4.684,42.206,42.206,0,0,1,15.3,3.835c1.221.564,2.342,1.321,3.47,1.878A19.288,19.288,0,0,0,471,350.207a31.048,31.048,0,0,0,7.655,1.085c1.314.043,2.563-.028,3.92-.071a33.665,33.665,0,0,1,3.992.193c2.628.271,5.248.571,7.847,1.028.993.171,1.978.357,2.963.55a11.335,11.335,0,0,1-1.171-1.985,14.914,14.914,0,0,1-1.121-3.306,20.245,20.245,0,0,1-.45-3.47,18.911,18.911,0,0,1,.136-3.527l.007-.036.014-.05a17.027,17.027,0,0,0,.721-3.9,28.176,28.176,0,0,0,.043-4.034,38.01,38.01,0,0,0-.493-4.013c-.257-1.307-.6-2.671-.786-4.049a39.792,39.792,0,0,1-.257-8.29c.071-1.378.214-2.756.421-4.113a40.522,40.522,0,0,1,.778-4.049,73.162,73.162,0,0,0-.557,8.183,46.519,46.519,0,0,0,.593,8.112c.093.671.257,1.328.393,1.985l.443,2.028a32.279,32.279,0,0,1,.521,4.149,22.058,22.058,0,0,1-.95,8.269,21.259,21.259,0,0,0-.271,3.32,19.881,19.881,0,0,0,.264,3.377,17.646,17.646,0,0,0,.857,3.285,12.383,12.383,0,0,0,1.035,2.149c1.549.314,3.085.671,4.606,1.093a30.2,30.2,0,0,1,7.312,2.978,32.981,32.981,0,0,0-7.44-2.471q-1.982-.461-3.992-.8a.025.025,0,0,0-.014-.007c-1.235-.214-2.478-.4-3.727-.564-2.6-.336-5.205-.628-7.812-.835a35.5,35.5,0,0,0-3.884-.15c-1.264.043-2.649.136-3.963.093a31.286,31.286,0,0,1-7.912-1.185,20.886,20.886,0,0,1-3.742-1.5c-.6-.293-1.185-.685-1.735-1.007s-1.1-.685-1.678-.971a36.641,36.641,0,0,0-7.255-2.87,53.724,53.724,0,0,0-7.676-1.7l-5.905.564a2.465,2.465,0,0,1,.393.835c1.521,4.92-.671,24.192-.671,24.192,8.433,6.184,55.111,15.745,55.111,15.745,30.09,5.063,30.369-21.657,30.369-21.657C533.311,314.862,522.729,297.559,519.887,293.876Zm-37.652,48.877a11.725,11.725,0,0,1-1.671.2,16.566,16.566,0,0,1-1.685-.064,13.074,13.074,0,0,1-3.256-.786,10.042,10.042,0,0,1-2.878-1.657,31.133,31.133,0,0,0,6.248,1.378,19.276,19.276,0,0,0,3.149.1,31.931,31.931,0,0,0,3.213-.343,9.266,9.266,0,0,1-3.12,1.17Z" transform="translate(595.102 2225.894)" fill="#383838"/>
    <path id="Path_2914" data-name="Path 2914" d="M475.527,273.264a7.39,7.39,0,0,0-.684-.88,6,6,0,0,0-.817-.74,4.892,4.892,0,0,0-.941-.545,3.339,3.339,0,0,0-1.01-.273l.111-.022a9.449,9.449,0,0,1-2.254.753,6.75,6.75,0,0,1-2.41.079,4.737,4.737,0,0,1-2.273-.993,9.191,9.191,0,0,1-1.574-1.836,32.531,32.531,0,0,1-2.294-4.09c-.67-1.407-1.273-2.829-1.835-4.291l.577.381a3.958,3.958,0,0,1-1.952-.3,2.06,2.06,0,0,1-.871-.772,2.431,2.431,0,0,1-.337-1.066,5.007,5.007,0,0,1,.27-1.9,8.934,8.934,0,0,1,.733-1.677,4.381,4.381,0,0,0,.751-2.817,3.991,3.991,0,0,0-.394-1.4l-.389-.729c-.135-.258-.265-.521-.387-.79a9.447,9.447,0,0,1-.6-1.673,16.029,16.029,0,0,1-.391-1.7c-.124-.57-.163-1.154-.234-1.732-.023-.583-.058-1.165-.027-1.747a15.662,15.662,0,0,1,1.677-6.733.419.419,0,0,1,.756.029l.007.016a27.116,27.116,0,0,0,3.312,5.656,21.226,21.226,0,0,0,4.71,4.579,15.238,15.238,0,0,0,6,2.556,15.693,15.693,0,0,0,6.512-.174l.015,0a.271.271,0,0,1,.274.1,10.362,10.362,0,0,1,1.761,3.976,19.52,19.52,0,0,1,.484,4.271,28,28,0,0,1-.3,4.274,17.683,17.683,0,0,0-.282,4.076,8.915,8.915,0,0,0,1.045,3.772,6.28,6.28,0,0,0,2.724,2.592,7.414,7.414,0,0,0,3.76.669,11.583,11.583,0,0,0,3.826-.985.722.722,0,0,1,1,.748v.009a107.347,107.347,0,0,1-2.441,13.511,43.273,43.273,0,0,1-2.243,6.564,17.628,17.628,0,0,1-1.736,3.089,9.432,9.432,0,0,1-1.206,1.383,5.172,5.172,0,0,1-1.6,1.07,3.5,3.5,0,0,1-2.031.224,3.58,3.58,0,0,1-1.793-.956,2.69,2.69,0,0,1-.617-.882,7.672,7.672,0,0,1-.293-.881c-.16-.571-.281-1.133-.4-1.7-.471-2.248-.8-4.5-1.155-6.748L477,279.873c-.181-1.121-.371-2.241-.59-3.353a15.892,15.892,0,0,0-.883-3.256l0-.01a.071.071,0,0,1,.127-.063,14.69,14.69,0,0,1,1.115,3.249c.283,1.106.537,2.217.782,3.33.495,2.225.912,4.462,1.359,6.692s.894,4.46,1.4,6.656c.131.545.264,1.093.425,1.613a6.652,6.652,0,0,0,.261.731,1.5,1.5,0,0,0,.37.492,2.217,2.217,0,0,0,2.492.412,5.758,5.758,0,0,0,2.19-2.059,18,18,0,0,0,1.539-2.883,41.845,41.845,0,0,0,2.088-6.36,127.465,127.465,0,0,0,2.479-13.316l1,.757a12.989,12.989,0,0,1-4.316,1.042,8.768,8.768,0,0,1-4.432-.863,7.452,7.452,0,0,1-3.239-3.178,10.116,10.116,0,0,1-1.1-4.311,18.244,18.244,0,0,1,.4-4.308,27.05,27.05,0,0,0,.45-4.115,18.177,18.177,0,0,0-.316-4.105,9.863,9.863,0,0,0-1.488-3.735l.289.094a17.3,17.3,0,0,1-6.732.057,14.782,14.782,0,0,1-3.219-1.021,17.539,17.539,0,0,1-2.949-1.636,23.532,23.532,0,0,1-4.911-4.588,27.749,27.749,0,0,1-3.642-5.689l.763.045a14.791,14.791,0,0,0-1.3,6.33,16.2,16.2,0,0,0,.34,3.237,14.783,14.783,0,0,0,.4,1.58,9.5,9.5,0,0,0,.555,1.5c.112.244.233.485.36.725s.257.457.409.76a5.27,5.27,0,0,1,.526,1.835,5.62,5.62,0,0,1-.956,3.588,5.765,5.765,0,0,0-.86,2.826.96.96,0,0,0,.528.873,2.856,2.856,0,0,0,1.352.208h.008a.578.578,0,0,1,.569.382c.511,1.426,1.088,2.852,1.7,4.245a31.639,31.639,0,0,0,2.071,4.047,8.444,8.444,0,0,0,1.356,1.719,4,4,0,0,0,1.881.9,7.878,7.878,0,0,0,4.344-.541l.029-.012a.163.163,0,0,1,.082-.01,3.676,3.676,0,0,1,1.144.375,5.238,5.238,0,0,1,.975.644,5.942,5.942,0,0,1,.8.838,7.577,7.577,0,0,1,.631.955.071.071,0,0,1-.026.1A.074.074,0,0,1,475.527,273.264Z" transform="translate(579.109 2239.777)"/>
    <path id="Path_2915" data-name="Path 2915" d="M459.059,269.876c-.146,1.136-.3,2.262-.417,3.391s-.22,2.255-.255,3.38a18.493,18.493,0,0,0,.139,3.352,6.1,6.1,0,0,0,.439,1.6,3.155,3.155,0,0,0,.988,1.331,2.975,2.975,0,0,1-1.241-1.2,6.316,6.316,0,0,1-.623-1.64,13.26,13.26,0,0,1-.28-3.459,23.356,23.356,0,0,1,.394-3.424A22.9,22.9,0,0,1,459.059,269.876Z" transform="translate(578.678 2229.962)"/>
    <path id="Path_2916" data-name="Path 2916" d="M458.97,230.582a2.175,2.175,0,0,1-.2-1.708l.118-.425.184-.394c.064-.13.122-.266.193-.393l.242-.357a9.416,9.416,0,0,1,1.091-1.333c.409-.4.844-.763,1.271-1.143a34.908,34.908,0,0,1,5.759-3.535c1.013-.481,2.036-.94,3.06-1.4,1.035-.425,2.076-.835,3.12-1.238,1.046-.383,2.108-.714,3.165-1.064.534-.161,1.05-.343,1.621-.5a16.289,16.289,0,0,1,1.681-.358,16.72,16.72,0,0,1,6.762.275,14.11,14.11,0,0,1,5.936,3.145,18.617,18.617,0,0,1,4.07,5.391,28.987,28.987,0,0,1,2.325,6.36l.01.059a33.079,33.079,0,0,0,2.883,8.713,29.465,29.465,0,0,0,2.326,3.95,25.475,25.475,0,0,0,2.91,3.517l1.7,1.573a18.071,18.071,0,0,1,1.719,1.721,15.948,15.948,0,0,1,2.671,4.052,14.051,14.051,0,0,1,1,9.395.071.071,0,0,1-.139-.028v-.008a13.72,13.72,0,0,0-.183-4.62,14.45,14.45,0,0,0-1.568-4.29,18.115,18.115,0,0,0-1.223-1.92,17.526,17.526,0,0,0-1.49-1.721,16.754,16.754,0,0,0-1.67-1.548l-1.814-1.571a26.151,26.151,0,0,1-5.579-7.857,33.993,33.993,0,0,1-1.71-4.5,28.558,28.558,0,0,1-1.046-4.712l.01.059a33.24,33.24,0,0,0-1.9-6.259,16.557,16.557,0,0,0-3.625-5.4A13.076,13.076,0,0,0,490,218.6a11.777,11.777,0,0,0-3.069-1.116,14.794,14.794,0,0,0-6.471.154,15.332,15.332,0,0,0-1.553.446c-.49.172-1.01.4-1.528.594l-3.118,1.167c-1.024.412-2.05.818-3.083,1.209l-3.036,1.3a42.822,42.822,0,0,0-5.766,3.138c-.429.327-.874.644-1.291.988a10.309,10.309,0,0,0-1.14,1.136l-.261.307c-.076.108-.139.224-.211.336l-.208.341-.144.366a2.056,2.056,0,0,0-.033,1.526l.007.015a.07.07,0,0,1-.123.067Z" transform="translate(578.424 2245.221)"/>
    <path id="Path_2917" data-name="Path 2917" d="M461.559,254.585a13.738,13.738,0,0,1,3.205-1.712,12.119,12.119,0,0,1,1.75-.525,4.574,4.574,0,0,1,1.835-.085,11.039,11.039,0,0,0-1.712.518l-1.668.631C463.853,253.831,462.739,254.263,461.559,254.585Z" transform="translate(577.602 2235.014)"/>
    <path id="Path_2918" data-name="Path 2918" d="M465.6,260.432a.867.867,0,1,0-.837-.867A.867.867,0,0,0,465.6,260.432Z" transform="translate(576.686 2233.158)"/>
    <path id="Path_2919" data-name="Path 2919" d="M463.976,275.5a11.079,11.079,0,0,0,1.3-.036c.423-.039.839-.09,1.253-.168s.825-.173,1.238-.286.83-.235,1.271-.345a4.361,4.361,0,0,1-1.112.767,5.226,5.226,0,0,1-1.292.432A3.935,3.935,0,0,1,463.976,275.5Z" transform="translate(576.91 2228.593)"/>
    <path id="Path_2920" data-name="Path 2920" d="M437.983,386.472a42.408,42.408,0,0,0-6.6-1.841,19.978,19.978,0,0,0-6.718-.214l-.823.139-.8.218a13.951,13.951,0,0,0-1.569.54,18.326,18.326,0,0,0-2.931,1.592c-.944.619-1.84,1.328-2.895,1.94a12.516,12.516,0,0,1-3.373,1.3,13.654,13.654,0,0,1-3.582.361,7.882,7.882,0,0,1-3.627-.88,3.275,3.275,0,0,1-.816-.707c-.207-.254-.335-.44-.516-.648a5.5,5.5,0,0,0-1.169-1.014,16.509,16.509,0,0,0-3.019-1.37,15.05,15.05,0,0,1-3.235-1.468,5.526,5.526,0,0,1-1.339-1.279c-.182-.235-.346-.46-.521-.667-.086-.108-.177-.2-.269-.3s-.217-.238-.3-.359a29.785,29.785,0,0,1-1.875-2.95c-.574-1-1.145-2-1.693-3.016l.167.123-1.47-.321a7.883,7.883,0,0,1-1.488-.407,6.2,6.2,0,0,1-2.464-1.864,3.165,3.165,0,0,1-.71-1.437,2.015,2.015,0,0,1,.443-1.584,4.061,4.061,0,0,1,2.785-1.422,7.893,7.893,0,0,1,1.549.064l1.5.108q1.5.095,3,.141c2,.061,4,.047,5.982-.077a33.824,33.824,0,0,0,5.855-.82,12.149,12.149,0,0,0,2.684-.983,5.367,5.367,0,0,0,1.107-.768,7.011,7.011,0,0,0,.914-1.018,1.653,1.653,0,0,0,.4-.916c-.012-.073-.024-.1-.118-.183a1.645,1.645,0,0,0-.454-.2,7.316,7.316,0,0,0-2.709-.037,8.922,8.922,0,0,0-1.355.3,2.562,2.562,0,0,0-.52.219l-.154.1c-.067.047-.135.084-.2.123a3.775,3.775,0,0,1-.41.2,6.739,6.739,0,0,1-1.63.424c-.269.038-.536.065-.8.083a3.683,3.683,0,0,1-.924-.034,3.254,3.254,0,0,1-1.716-.867,3.711,3.711,0,0,1-.945-1.62,4.783,4.783,0,0,1,.442-3.48,3.356,3.356,0,0,1,1.314-1.419,1.85,1.85,0,0,1,.607-.2,1.531,1.531,0,0,1,.374,0,1.4,1.4,0,0,1,.192.035l.081.021h.009a1.353,1.353,0,0,0,.436-.028,14.342,14.342,0,0,0,2.674-.9q.677-.288,1.35-.6l.671-.318q.361-.173.734-.325a11.47,11.47,0,0,1,3.108-.765,12.728,12.728,0,0,1,3.162.109,24.221,24.221,0,0,1,3.03.614,19.245,19.245,0,0,1,5.647,2.514,16.864,16.864,0,0,1,2.406,1.956,18.931,18.931,0,0,0,2.286,1.8,19.533,19.533,0,0,0,11.389,2.6h.006a.071.071,0,0,1,.014.142,19.017,19.017,0,0,1-11.84-2.02,19.67,19.67,0,0,1-2.522-1.81,17.416,17.416,0,0,0-7.7-3.96,22.957,22.957,0,0,0-2.881-.5,11.3,11.3,0,0,0-2.841-.025,10.2,10.2,0,0,0-2.71.706c-.215.091-.427.188-.638.292l-.685.335q-.688.331-1.391.642a14.413,14.413,0,0,1-3.016,1.029,2.584,2.584,0,0,1-1.058,0l-.083-.019c-.027-.007-.005,0-.01,0h.007s0,0,0,0a.351.351,0,0,0-.1.039,1.958,1.958,0,0,0-.672.784,3.285,3.285,0,0,0-.322,2.349,2.3,2.3,0,0,0,.536.963,1.767,1.767,0,0,0,.924.482,2.139,2.139,0,0,0,.575.025c.235-.013.467-.032.7-.061a5.352,5.352,0,0,0,1.281-.306,2.312,2.312,0,0,0,.269-.124,1.257,1.257,0,0,0,.12-.07l.163-.1a3.779,3.779,0,0,1,.863-.365,10.245,10.245,0,0,1,1.586-.326,8.5,8.5,0,0,1,3.271.124,2.867,2.867,0,0,1,.9.442,1.586,1.586,0,0,1,.607,1.085,2.022,2.022,0,0,1-.207,1.062,3.807,3.807,0,0,1-.463.76,7.716,7.716,0,0,1-1.121,1.192,6.6,6.6,0,0,1-1.382.909,13.3,13.3,0,0,1-2.981,1.008,31.152,31.152,0,0,1-6.078.64c-2.025.043-4.043-.026-6.054-.154q-1.508-.1-3.011-.248l-1.5-.161a7.457,7.457,0,0,0-1.452-.083,3.575,3.575,0,0,0-2.457,1.205,1.543,1.543,0,0,0-.365,1.221,2.738,2.738,0,0,0,.6,1.233,5.53,5.53,0,0,0,2.29,1.718,7.432,7.432,0,0,0,1.414.371l1.478.288a.242.242,0,0,1,.163.115l0,.008a49.542,49.542,0,0,0,3.717,5.731c.086.111.178.192.266.29.1.106.218.215.317.328.205.223.391.456.57.667a4.671,4.671,0,0,0,1.187,1.043,14.264,14.264,0,0,0,3.089,1.234,16.362,16.362,0,0,1,3.3,1.355,6.721,6.721,0,0,1,1.455,1.2c.2.22.412.5.574.686a2.158,2.158,0,0,0,.493.4,6.734,6.734,0,0,0,3.019.684,13.192,13.192,0,0,0,3.262-.3,11.276,11.276,0,0,0,3.053-1.133c.939-.534,1.88-1.219,2.869-1.842a19.381,19.381,0,0,1,3.159-1.619,14.981,14.981,0,0,1,1.71-.513l.869-.2.882-.113a19.968,19.968,0,0,1,6.975.521,37.1,37.1,0,0,1,6.527,2.319.071.071,0,0,1-.051.133Z" transform="translate(599.688 2205.584)"/>
    <path id="Path_2921" data-name="Path 2921" d="M393.007,383.85c1.39-.119,2.781-.175,4.171-.221s2.781-.06,4.172-.068l2.086.015a7.8,7.8,0,0,1,2.12.293,31.241,31.241,0,0,1,3.855,1.668c-.671-.192-1.329-.419-1.994-.628a15.4,15.4,0,0,0-1.967-.609,8.746,8.746,0,0,0-2.014-.177l-2.086.015c-1.391-.007-2.781-.015-4.172-.067S394.4,383.97,393.007,383.85Z" transform="translate(597.203 2197.454)"/>
    <path id="Path_2922" data-name="Path 2922" d="M394,385.708c.935.721,1.828,1.49,2.716,2.266.459.373.867.813,1.314,1.124a4.653,4.653,0,0,0,1.492.712c.517.155,1.114.179,1.7.288a17.238,17.238,0,0,1,1.742.381,7.005,7.005,0,0,1,3.169,1.579,5.613,5.613,0,0,0-1.58-.727,13.013,13.013,0,0,0-1.689-.418c-.573-.1-1.145-.2-1.724-.273a15.68,15.68,0,0,1-1.776-.273,5.041,5.041,0,0,1-1.66-.829,14.357,14.357,0,0,1-1.3-1.245C395.584,387.452,394.77,386.6,394,385.708Z" transform="translate(596.922 2196.84)"/>
    <path id="Path_2923" data-name="Path 2923" d="M373.487,354.834a14.071,14.071,0,0,0-1.678-2.622l.11.071a5.667,5.667,0,0,1-2.936-1.409,2.61,2.61,0,0,1-.744-1.605,3.4,3.4,0,0,1,.04-.9,7.9,7.9,0,0,1,.265-.835,4.71,4.71,0,0,1,2.468-2.353,4.315,4.315,0,0,1,1.739-.416,3.11,3.11,0,0,1,1.812.569l-.939.3a4.512,4.512,0,0,1,.584-1.092,4.915,4.915,0,0,1,.807-.89,5.149,5.149,0,0,1,2.129-1.089,6.354,6.354,0,0,1,2.317-.12l.552.071a3.374,3.374,0,0,1,.632.156,5.359,5.359,0,0,1,1.09.514,8.278,8.278,0,0,1,2.988,3.41,16.779,16.779,0,0,1,1.4,4.158l-1.347.082a7.932,7.932,0,0,1,.815-2.628,5.632,5.632,0,0,1,1.826-2.114,5.066,5.066,0,0,1,2.665-.826,4.855,4.855,0,0,1,.679.02l.337.021a1.663,1.663,0,0,1,.39.064,4.313,4.313,0,0,1,1.274.621,8.773,8.773,0,0,1,2.949,4.267,20.772,20.772,0,0,1,1.082,4.942,25.112,25.112,0,0,0-1.587-4.728,8.59,8.59,0,0,0-2.963-3.686,3.673,3.673,0,0,0-1-.425.793.793,0,0,0-.23-.021l-.291,0a4.215,4.215,0,0,0-2.615.747,5.507,5.507,0,0,0-1.972,3.862v0a.684.684,0,0,1-1.347.078,15.546,15.546,0,0,0-1.315-3.785A7.352,7.352,0,0,0,381,344.385a3.977,3.977,0,0,0-.8-.392,1.969,1.969,0,0,0-.386-.1l-.491-.069a5.337,5.337,0,0,0-1.865.06,3.824,3.824,0,0,0-1.607.757,3.749,3.749,0,0,0-1.062,1.388l-.029.068a.591.591,0,0,1-.775.312.615.615,0,0,1-.136-.081,2.372,2.372,0,0,0-2.409-.152,3.864,3.864,0,0,0-2.08,1.747,2.2,2.2,0,0,0,.126,2.513,5.194,5.194,0,0,0,2.511,1.5l.024.007a.156.156,0,0,1,.087.064,11.564,11.564,0,0,1,1.385,2.833Z" transform="translate(604.289 2209.227)"/>
    <path id="Path_2924" data-name="Path 2924" d="M366.167,358.206a3.313,3.313,0,0,0-1.89-1.681,3.505,3.505,0,0,0-2.424.182,2.129,2.129,0,0,0-1.46,1.614,3.739,3.739,0,0,0,.612,2.22,10.953,10.953,0,0,0,1.543,2.006c.143.158.294.3.443.448l.484.423c.346.3.679.6,1.01.91,1.325,1.226,2.562,2.513,3.8,3.819a.67.67,0,0,1,.175.354l.007.046a4.826,4.826,0,0,0,.4,1.2,6.546,6.546,0,0,0,1.633,2.132c.348.315.7.526,1.162.884a8.657,8.657,0,0,1,2.122,2.429,10.546,10.546,0,0,1,1.215,2.96l-.033-.1a4.4,4.4,0,0,0,1.74,2.193,5.7,5.7,0,0,0,2.826.776,12.486,12.486,0,0,0,3.1-.321,19.787,19.787,0,0,0,3.047-.926,15.987,15.987,0,0,1-2.93,1.344,12.122,12.122,0,0,1-3.21.657,6.409,6.409,0,0,1-3.334-.664A5.262,5.262,0,0,1,374.821,380a6.454,6.454,0,0,1-.947-1.487l-.013-.033-.02-.069a9.8,9.8,0,0,0-1.159-2.53,8.056,8.056,0,0,0-1.858-2.021c-.328-.251-.837-.567-1.235-.921a7.878,7.878,0,0,1-1.138-1.179,7.215,7.215,0,0,1-.873-1.4,5.97,5.97,0,0,1-.513-1.65l.183.4c-1.2-1.3-2.43-2.582-3.667-3.835-.312-.31-.626-.617-.945-.913l-.506-.475c-.164-.171-.329-.342-.479-.519a11.734,11.734,0,0,1-1.581-2.317,4.427,4.427,0,0,1-.541-2.891,2.44,2.44,0,0,1,.292-.743,4.261,4.261,0,0,1,.5-.607l.62-.427.666-.274a3.882,3.882,0,0,1,2.8.081,3.352,3.352,0,0,1,1.759,2.024Z" transform="translate(606.791 2205.37)"/>
    <path id="Path_2925" data-name="Path 2925" d="M371.024,372.113a4.253,4.253,0,0,1,.044-2.409,2.794,2.794,0,0,1,.613-1.1,1.517,1.517,0,0,1,1.124-.523,2.271,2.271,0,0,0-.766.8,4.407,4.407,0,0,0-.42,1C371.389,370.586,371.25,371.333,371.024,372.113Z" transform="translate(603.533 2201.88)"/>
    <path id="Path_2926" data-name="Path 2926" d="M373.448,355.814c.491-.121.892-.2,1.317-.288a7.456,7.456,0,0,1,1.354-.176,2.034,2.034,0,0,1-1.244.743,1.769,1.769,0,0,1-1.427-.279Z" transform="translate(602.797 2205.521)"/>
    <path id="Path_2927" data-name="Path 2927" d="M376.813,347.055a6.415,6.415,0,0,0,.242,1.835,3.2,3.2,0,0,0,.915,1.556,2.276,2.276,0,0,0,1.726.521,5.844,5.844,0,0,0,.95-.157l.919-.332-.89.416a6,6,0,0,1-.96.25,2.547,2.547,0,0,1-1.962-.417,3.633,3.633,0,0,1-1.2-1.664,7,7,0,0,1-.45-2,.358.358,0,0,1,.713-.055c0,.011,0,.022,0,.032Z" transform="translate(602.039 2208.001)"/>
    <path id="Path_2928" data-name="Path 2928" d="M381.128,352.856a17.92,17.92,0,0,1,1.31,2.367,8.818,8.818,0,0,1,.854,2.63,1.085,1.085,0,0,0,.66.759,4.021,4.021,0,0,0,1.187.38,3.724,3.724,0,0,0,1.278.011,1.7,1.7,0,0,0,1.132-.57,1.686,1.686,0,0,1-1.065.845,4,4,0,0,1-1.392.156,3.745,3.745,0,0,1-1.388-.334,1.6,1.6,0,0,1-.989-1.209,12.782,12.782,0,0,0-.687-2.5Z" transform="translate(600.602 2206.234)"/>
    <path id="Path_2929" data-name="Path 2929" d="M392.766,353.879a9.541,9.541,0,0,0,1.046,3.185,5.286,5.286,0,0,0,.454.677,5.333,5.333,0,0,1,.567.826,4.67,4.67,0,0,1,.391.934c.1.342.144.626.212.908a2.763,2.763,0,0,0,.2.731,2.118,2.118,0,0,0,.52.542,1.934,1.934,0,0,0,1.438.4,2.4,2.4,0,0,0,1.364-.823,6.723,6.723,0,0,0,.99-1.436l-.015.046a18.248,18.248,0,0,0,.355-2.55,8.29,8.29,0,0,0-.17-2.571,8.382,8.382,0,0,1,.359,2.576,18.517,18.517,0,0,1-.173,2.614.134.134,0,0,1-.011.038l0,.008a7.174,7.174,0,0,1-.949,1.61,2.961,2.961,0,0,1-1.617,1.114,2.64,2.64,0,0,1-2-.384,2.907,2.907,0,0,1-.777-.707,1.491,1.491,0,0,1-.251-.521l-.134-.446a5.116,5.116,0,0,0-.621-1.551,4.241,4.241,0,0,0-.506-.63,6.4,6.4,0,0,1-.615-.783,10.758,10.758,0,0,1-1.466-3.571.715.715,0,1,1,1.394-.32c0,.017.007.034.01.051Z" transform="translate(597.68 2206.125)"/>
    <path id="Path_2930" data-name="Path 2930" d="M391.492,371.66c.029,0,.05.007.078.007l.064.043Z" transform="translate(597.637 2200.857)"/>
    <path id="Path_2931" data-name="Path 2931" d="M398.932,367.007a118.685,118.685,0,0,1-26.7-7.855,4.6,4.6,0,0,0-1.571-.378c-2.613-.136-3.513.714-3.756,1.592a2.035,2.035,0,0,0,.921,2.249l12.76,8.026.007-.007a11.119,11.119,0,0,1,2.214-2.028,9.465,9.465,0,0,1-1.107,1.785,6.752,6.752,0,0,1,3.627.014c14.774,1.4,18.487-1.685,18.487-1.685C402.231,367.243,398.932,367.007,398.932,367.007Zm-10.775-1.221,3,2.185-6.876-1.028-6.191-4.148Zm3.856,3.706c-2.556-.236-5.105-.528-7.655-.814a.479.479,0,0,1-.143-.05c-2.356-1.421-4.706-2.856-7.033-4.327l-3.492-2.221c-1.142-.764-2.306-1.5-3.442-2.285,1.221.643,2.421,1.321,3.627,1.978l3.592,2.049c2.371,1.349,4.713,2.749,7.055,4.156,2.513.307,5.041.621,7.555.978,2.535.357,5.077.728,7.6,1.171C397.118,369.97,394.562,369.734,392.012,369.492Z" transform="translate(604.686 2204.546)" fill="#ff6d66"/>
    <path id="Path_2932" data-name="Path 2932" d="M391.635,371.709l-.143-.05c.029,0,.05.007.078.007Z" transform="translate(597.637 2200.857)" fill="#fff"/>
    <path id="Path_2933" data-name="Path 2933" d="M253.035,221.963a2.79,2.79,0,0,0-3.545.856s-3.056-4.342-16.013-.582c0,0,1.711,3.271,2.934,3.271s-2.322,5.623-5.623,5.378c0,0-5.623,8.19-1.345,16.135,4.217,7.831,7.246,10.318,11.428,5.239a3.171,3.171,0,0,1,.427-.433c1.2-.992,6.528-5.116,8.415-2.041a3,3,0,0,1,.32,2.266c-.861,3.608-4.89,16.9-16.557,11.593,0,0-13.6-5.1-10.39-17.178a15.085,15.085,0,0,1,1.48-3.512,9.437,9.437,0,0,0,.7-7.44,7.457,7.457,0,0,0-3.12-4.232c-1.473-.919-3.414-1.329-4.885,1.24a7.1,7.1,0,0,0-.931,3.507c0,1.126.207,2.506,1.134,3.169l-1.134,2.2a15.043,15.043,0,0,0-2.343-3.455,10.275,10.275,0,0,1-2.874-5.866c-.415-3.515.085-8.764,4.273-14.881,0,0,5.623-11.246,16.135-11S251.08,209.251,253.035,221.963Z" transform="translate(649.25 2248.172)"/>
    <path id="Path_2934" data-name="Path 2934" d="M245.221,248.623a19.667,19.667,0,0,1,5.572-.459,14.015,14.015,0,0,1,2.79.423,5.64,5.64,0,0,1,2.517,1.258,8.549,8.549,0,0,0-2.627-.74c-.9-.129-1.805-.223-2.72-.264C248.925,248.728,247.088,248.719,245.221,248.623Z" transform="translate(639.463 2236.18)"/>
    <path id="Path_2935" data-name="Path 2935" d="M268.541,248.577a5.01,5.01,0,0,0-1.816,1,2.312,2.312,0,0,0-.839,1.69,5.306,5.306,0,0,0,.515,1.919l.8,1.965a11.877,11.877,0,0,1,1.022,4.213,3.185,3.185,0,0,1-.208,1.122,2.227,2.227,0,0,1-.694.922,3.344,3.344,0,0,1-2.1.5,3.49,3.49,0,0,0,1.887-.755,2.219,2.219,0,0,0,.584-1.783,8.138,8.138,0,0,0-.411-2c-.205-.662-.451-1.317-.713-1.971s-.523-1.313-.767-1.986c-.117-.34-.236-.68-.328-1.038a2.9,2.9,0,0,1-.114-1.147,2.625,2.625,0,0,1,1.16-1.91,4.569,4.569,0,0,1,2.022-.741Z" transform="translate(633.744 2236.052)"/>
    <path id="Path_2936" data-name="Path 2936" d="M268.961,228.279q.343,2.055.511,4.132.191,2.074.236,4.16c.022,1.391,0,2.784-.108,4.178a11.929,11.929,0,0,1-.937,4.129.192.192,0,0,1-.031.045,16.791,16.791,0,0,0-1.206,1.455,5.924,5.924,0,0,0-.494.8,1.42,1.42,0,0,0-.181.9,1.383,1.383,0,0,1,.05-.958,6.1,6.1,0,0,1,.409-.886,10.957,10.957,0,0,1,1.1-1.6l-.03.044a8.03,8.03,0,0,0,.47-1.942c.106-.67.149-1.355.2-2.037.081-1.369.095-2.747.1-4.125C269.053,233.819,268.992,231.055,268.961,228.279Z" transform="translate(633.324 2241.856)"/>
    <path id="Path_2937" data-name="Path 2937" d="M259.315,261.831a4.81,4.81,0,0,0-.311.826,1.773,1.773,0,0,0-.051.811,1.36,1.36,0,0,0,.337.72,4.492,4.492,0,0,0,.637.605,4.134,4.134,0,0,1-.436-.156,2.368,2.368,0,0,1-.389-.268,1.468,1.468,0,0,1-.483-.844,1.765,1.765,0,0,1,.14-.955,2.017,2.017,0,0,1,.556-.74Z" transform="translate(635.637 2232.262)"/>
    <path id="Path_2938" data-name="Path 2938" d="M220.057,252.416a6.52,6.52,0,0,1,1,1.76,4.818,4.818,0,0,1,.277,1.006,2.748,2.748,0,0,1,.036.546l0,.141.008.076a.266.266,0,0,0,.031.143.983.983,0,0,0,.519.493,4.145,4.145,0,0,0,.853.323,8.17,8.17,0,0,0,1.924.279,4.045,4.045,0,0,1-2.021.242,3.6,3.6,0,0,1-1.036-.266,1.579,1.579,0,0,1-.876-.84.853.853,0,0,1-.063-.339l0-.172.005-.107a3.022,3.022,0,0,0-.01-.443,6.753,6.753,0,0,0-.146-.93C220.413,253.7,220.231,253.068,220.057,252.416Z" transform="translate(646.658 2234.954)"/>
    <path id="Path_2939" data-name="Path 2939" d="M215.2,255.5a13.492,13.492,0,0,1-1.146,2.845,14.079,14.079,0,0,1-1.723,2.563,9.8,9.8,0,0,1-2.343,2.049,6,6,0,0,1-2.947.9,8.527,8.527,0,0,0,2.651-1.336,13.175,13.175,0,0,0,2.122-2.049,23.6,23.6,0,0,0,1.787-2.393C214.15,257.233,214.694,256.383,215.2,255.5Z" transform="translate(650.379 2234.073)"/>
    <path id="Path_2940" data-name="Path 2940" d="M231.013,292.888a10.87,10.87,0,0,0,2.176-1.274,18.589,18.589,0,0,0,1.9-1.627c.614-.567,1.164-1.2,1.736-1.821l.832-.961c.271-.328.541-.658.839-.975-.17.4-.368.779-.566,1.165-.224.368-.443.741-.689,1.1a13.489,13.489,0,0,1-1.683,1.983,10.677,10.677,0,0,1-2.082,1.581A5.944,5.944,0,0,1,231.013,292.888Z" transform="translate(643.525 2225.285)"/>
    <path id="Path_2941" data-name="Path 2941" d="M211.717,261.5a9.916,9.916,0,0,0-2.227-2.354,1.4,1.4,0,0,0-1.343-.285,2.013,2.013,0,0,0-.818,1.164,8.737,8.737,0,0,0-.359,1.555c-.036.263-.069.536-.092.789,0,.241.022.523.047.786a18.466,18.466,0,0,0,.6,3.187A23.194,23.194,0,0,0,210,272.389a27.693,27.693,0,0,0,4,5.2c.77.779,1.571,1.529,2.383,2.26.844.7,1.65,1.444,2.528,2.083.424.342.891.62,1.333.933.468.269.918.575,1.406.8a12.937,12.937,0,0,0,2.985,1.17,8.757,8.757,0,0,0,6.2-.651,12.3,12.3,0,0,0,4.688-4.41.034.034,0,0,1,.046-.015.037.037,0,0,1,.015.046,11.55,11.55,0,0,1-4.5,4.848,8.875,8.875,0,0,1-3.218,1.079,9.449,9.449,0,0,1-3.4-.216,12.337,12.337,0,0,1-3.152-1.225c-.505-.251-.964-.576-1.443-.866-.45-.332-.926-.63-1.352-.989-.895-.672-1.678-1.457-2.505-2.194-.422-.359-.78-.788-1.167-1.183s-.778-.789-1.124-1.222a42.436,42.436,0,0,1-3.931-5.334,26.351,26.351,0,0,1-2.822-6.013,15.683,15.683,0,0,1-.65-3.29c-.019-.286-.036-.553-.029-.863.032-.294.072-.568.117-.849a9.247,9.247,0,0,1,.423-1.649,2.319,2.319,0,0,1,1.128-1.393,1.375,1.375,0,0,1,.952-.019,2.6,2.6,0,0,1,.777.425,8.727,8.727,0,0,1,2.079,2.609.034.034,0,0,1-.013.046.036.036,0,0,1-.045-.011Z" transform="translate(650.594 2233.256)"/>
    <path id="Path_2942" data-name="Path 2942" d="M189.651,258.085a9.392,9.392,0,0,0-3.577-1.3,5.266,5.266,0,0,0-3.632.651,4.425,4.425,0,0,0-1.271,1.36l-1.109,1.593a23.819,23.819,0,0,1-2.457,3.05.211.211,0,0,1-.16.061h-.016c-4.568-.271-9.152-.379-13.723-.348-2.286.019-4.57.111-6.841.289a29,29,0,0,0-6.648,1.154l-.038.01-.052.011a11.563,11.563,0,0,0-3.378,1.47,15.617,15.617,0,0,0-1.559,1.079l-.754.58c-.243.2-.472.426-.709.638a32.434,32.434,0,0,0-5,5.786,64.166,64.166,0,0,0-6.994,13.71c-.438,1.213-.918,2.41-1.322,3.635l-1.157,3.7c-.392,1.217-.742,2.507-1.2,3.739s-.962,2.448-1.459,3.643l-1.529,3.59-.8,1.789a20.025,20.025,0,0,1-.906,1.812,2.294,2.294,0,0,1-.229.311c.048,0,.053-.109.055-.065a.69.69,0,0,0,.009.209,2.676,2.676,0,0,0,.259.724,4.8,4.8,0,0,0,1.052,1.351,5.777,5.777,0,0,0,3.138,1.435l-.459,1.114a20.45,20.45,0,0,1-2.041-1.827,6.041,6.041,0,0,1-.909-1.174,2.131,2.131,0,0,1-.181-.438,2.094,2.094,0,0,1-.047-.305,1.184,1.184,0,0,1,.068-.4.938.938,0,0,1,.24-.358,1.784,1.784,0,0,1,.156-.13c.047-.027.093-.049.141-.072a1.666,1.666,0,0,1,.508-.142,5.311,5.311,0,0,1,1.5.106c.46.083.9.195,1.339.31l1.308.416,1.265.507c3.3,1.491,6.234,3.47,9.285,5.212a87.483,87.483,0,0,0,9.386,4.749,98.538,98.538,0,0,0,9.9,3.6h0a.424.424,0,0,1,.3.439,93.9,93.9,0,0,0-.353,9.875,34.358,34.358,0,0,0,.419,4.893,8.96,8.96,0,0,0,.675,2.29,2.3,2.3,0,0,0,.663.841c.073.032.143.066.214.1s.153.022.229.039c.171.02.4.008.6.014l19.865.054c6.621.033,13.243,0,19.864-.011l19.864-.067-.229.1a32.133,32.133,0,0,1,4.422-3.876,24.271,24.271,0,0,1,5.131-2.9,14.919,14.919,0,0,1,5.816-1.168,12.036,12.036,0,0,1,3,.435l2.752.922c.92.3,1.842.589,2.766.859a12.521,12.521,0,0,0,2.742.592,7.733,7.733,0,0,1,2.945.956,4.845,4.845,0,0,1,1.276.985,2.241,2.241,0,0,1,.6,1.645,9.143,9.143,0,0,1-.052,1.534,2.8,2.8,0,0,1-.713,1.587,2.566,2.566,0,0,1-1.6.731,5.809,5.809,0,0,1-1.593-.05,11.2,11.2,0,0,1-1.484-.338l-1.389-.42a10.861,10.861,0,0,0-1.352-.3,2.716,2.716,0,0,0-1.145.011l.137-.945a12.148,12.148,0,0,0,6.234,2.175,15.366,15.366,0,0,0,3.384-.194c1.154-.158,2.3-.351,3.461-.545.586-.093,1.167-.195,1.811-.236a3.752,3.752,0,0,1,1.055.062,1.979,1.979,0,0,1,1.078.636,2.986,2.986,0,0,1,.547.975,5.163,5.163,0,0,1,.146,2.979,4.857,4.857,0,0,1-2.456,3.069,10.018,10.018,0,0,1-3.61,1.059l.55-.414a10.316,10.316,0,0,1-1.088,1.9,9.248,9.248,0,0,1-1.48,1.627,6.611,6.611,0,0,1-1.966,1.137,5.847,5.847,0,0,1-2.291.291l.587-.241c-1.193,1.39-2.364,2.755-3.708,4.069-.172.163-.353.328-.555.491a6.185,6.185,0,0,1-.651.433,10.2,10.2,0,0,1-1.319.624,15.526,15.526,0,0,1-2.734.783,20.342,20.342,0,0,1-5.607.258c-.467-.033-.928-.108-1.392-.161L232.1,364.3l-1.289-.211-1.312-.137a64.072,64.072,0,0,0-10.7.346c-3.577.363-7.143.9-10.692,1.531-1.761.313-3.5.727-5.281,1.118s-3.544.776-5.324,1.135c-3.561.711-7.138,1.359-10.736,1.874a159.321,159.321,0,0,1-21.727,1.718c-.909,0-1.818.037-2.727.016l-2.727-.061c-1.818-.013-3.633-.142-5.448-.25-1.817-.077-3.625-.288-5.434-.464-.909-.1-1.8-.156-2.726-.3a23.618,23.618,0,0,1-2.721-.587,20.5,20.5,0,0,1-9.479-5.625,17.355,17.355,0,0,1-4.668-9.937c-.8-7.23-1.116-14.47-1.3-21.713q-.237-10.865-.059-21.727a.071.071,0,1,1,.143,0q.046,10.858.5,21.707c.32,7.225.715,14.462,1.613,21.616a16.361,16.361,0,0,0,4.535,9.322,19.458,19.458,0,0,0,9.018,5.241,22.424,22.424,0,0,0,2.588.535c.864.128,1.783.18,2.674.27,1.795.16,3.586.353,5.389.414,1.8.091,3.6.2,5.4.2l2.7.038c.9.013,1.8-.028,2.7-.039l2.7-.055,2.7-.139c1.8-.071,3.6-.229,5.393-.374,1.8-.117,3.587-.357,5.38-.531,1.788-.223,3.578-.444,5.361-.711,3.569-.518,7.117-1.167,10.654-1.88,1.768-.361,3.531-.744,5.295-1.139s3.537-.816,5.34-1.14c3.578-.641,7.175-1.192,10.8-1.566a62.026,62.026,0,0,1,10.978-.323l1.388.151,1.389.234,1.3.234c.435.051.868.125,1.3.157a18.91,18.91,0,0,0,5.207-.213,14.153,14.153,0,0,0,2.482-.7,8.831,8.831,0,0,0,1.136-.529,4.876,4.876,0,0,0,.481-.314c.151-.121.306-.259.463-.407,1.252-1.211,2.452-2.589,3.621-3.94a.7.7,0,0,1,.553-.243h.035a4.475,4.475,0,0,0,1.721-.21,5.252,5.252,0,0,0,1.542-.886,7.916,7.916,0,0,0,1.258-1.374,9.123,9.123,0,0,0,.942-1.618l0,0a.7.7,0,0,1,.548-.41,8.74,8.74,0,0,0,3.105-.881,3.532,3.532,0,0,0,1.837-2.238,3.651,3.651,0,0,0,.079-1.49,2.8,2.8,0,0,0-.468-1.282.671.671,0,0,0-.409-.243,2.587,2.587,0,0,0-.7-.038c-.528.027-1.106.118-1.679.2-1.153.18-2.325.365-3.5.513a16.607,16.607,0,0,1-3.63.165,13.219,13.219,0,0,1-6.852-2.5l-.011-.008a.535.535,0,0,1,.148-.937,3.506,3.506,0,0,1,1.735-.07,11.924,11.924,0,0,1,1.486.34l1.392.437a10.153,10.153,0,0,0,1.347.323,2.716,2.716,0,0,0,2.3-.357,3.375,3.375,0,0,0,.5-2.392,2.083,2.083,0,0,0-.013-.326.566.566,0,0,0-.051-.229,1.408,1.408,0,0,0-.283-.464,3.914,3.914,0,0,0-1.012-.789,6.871,6.871,0,0,0-2.541-.864,13.344,13.344,0,0,1-2.928-.657c-.936-.283-1.861-.586-2.783-.9l-2.757-.956a11.328,11.328,0,0,0-2.739-.418,14.184,14.184,0,0,0-5.52,1.052,27.911,27.911,0,0,0-9.373,6.5l-.01.01a.307.307,0,0,1-.219.092l-19.862-.067c-6.621-.008-13.242-.044-19.862-.011l-19.862.054c-.214,0-.4.013-.637-.006a2.578,2.578,0,0,1-.381-.063l-.348-.161a2.847,2.847,0,0,1-.887-1.063,9.528,9.528,0,0,1-.764-2.447,34.963,34.963,0,0,1-.5-4.987,94.57,94.57,0,0,1,.219-9.97l.3.441a98.928,98.928,0,0,1-10.04-3.5,88.533,88.533,0,0,1-9.56-4.678c-3.1-1.705-6.058-3.686-9.206-5.084l-1.194-.473-1.216-.381c-.415-.107-.831-.21-1.24-.282a4.327,4.327,0,0,0-1.131-.091c-.051.013-.139.024-.127.031l-.008,0a.064.064,0,0,0,.033-.02c.006-.019.048-.048.055-.09.022-.169,0-.011.094.119a5,5,0,0,0,.719.9,19.317,19.317,0,0,0,1.909,1.693l.006,0a.624.624,0,0,1-.465,1.11,7.039,7.039,0,0,1-3.837-1.74,6.055,6.055,0,0,1-1.331-1.7,3.882,3.882,0,0,1-.388-1.1,1.785,1.785,0,0,1,.019-.755,1.215,1.215,0,0,1,.269-.5c.014-.04,0,0,.051-.087.28-.484.565-1.1.833-1.669l.8-1.763,1.541-3.565c.506-1.2,1.021-2.377,1.455-3.576.451-1.2.787-2.417,1.2-3.669l1.189-3.728c.415-1.237.908-2.448,1.358-3.673a65.257,65.257,0,0,1,7.2-13.916,38.878,38.878,0,0,1,2.414-3.119,31.488,31.488,0,0,1,2.8-2.8c.249-.217.49-.444.747-.653l.8-.6a16.51,16.51,0,0,1,1.654-1.113,12.185,12.185,0,0,1,3.754-1.55l-.09.022a29.694,29.694,0,0,1,6.885-1.115c2.3-.151,4.6-.214,6.9-.2,4.6.01,9.184.243,13.763.608l-.177.059a23.684,23.684,0,0,0,2.456-2.925l1.138-1.562a4.764,4.764,0,0,1,1.389-1.417,4.239,4.239,0,0,1,1.872-.655,7.147,7.147,0,0,1,1.964.039,9.572,9.572,0,0,1,3.625,1.4.071.071,0,0,1-.076.121Z" transform="translate(674.723 2233.794)"/>
    <path id="Path_2943" data-name="Path 2943" d="M169.818,275.7a5.258,5.258,0,0,1,2.342,1.4,7.224,7.224,0,0,1,1.563,2.286,7.471,7.471,0,0,1,.612,2.69,7.612,7.612,0,0,1-.07,1.365,7.469,7.469,0,0,1-.354,1.316c-.158-.442-.23-.868-.346-1.285s-.2-.826-.339-1.22a18.983,18.983,0,0,0-.813-2.3,16.5,16.5,0,0,0-1.123-2.15A20.689,20.689,0,0,0,169.818,275.7Z" transform="translate(661.023 2228.297)"/>
    <path id="Path_2944" data-name="Path 2944" d="M173.844,299.663c.275,3.17.409,6.339.494,9.507s.1,6.337.1,9.5c-.033,3.168-.084,6.335-.218,9.5s-.3,6.334-.618,9.5c-.277-3.17-.412-6.339-.5-9.507s-.1-6.337-.1-9.5c.035-3.168.085-6.335.22-9.5S173.528,302.829,173.844,299.663Z" transform="translate(660.113 2221.444)"/>
    <path id="Path_2945" data-name="Path 2945" d="M265.684,270.332q3.923,2.454,7.7,5.113,1.891,1.327,3.752,2.7l1.846,1.41a8,8,0,0,1,.912.8l.439.458.369.468a34.788,34.788,0,0,1,2.612,3.881q1.183,2,2.3,4.019,2.213,4.063,4.558,8.036,1.173,1.988,2.39,3.95l1.214,1.961a10.276,10.276,0,0,0,1.276,1.791c.517.507,1.133,1.01,1.669,1.642a3.91,3.91,0,0,1,1.08,2.439,3.642,3.642,0,0,1-1.14,2.465,12.147,12.147,0,0,1-.92.839c-.287.232-.567.475-.84.726-.55.5-1.055,1.035-1.569,1.605s-1.065,1.14-1.615,1.694a37.407,37.407,0,0,1-3.53,3.107,20.152,20.152,0,0,1-4.1,2.459,9.559,9.559,0,0,1-2.394.662,5.577,5.577,0,0,1-2.577-.224.558.558,0,0,1-.316-.246l0-.008c-.536-.888-1.123-1.773-1.716-2.64s-1.214-1.72-1.863-2.549a28.6,28.6,0,0,0-2.086-2.354,7.144,7.144,0,0,0-2.549-1.763l-.005,0a.071.071,0,0,1,.038-.137,6.914,6.914,0,0,1,2.855,1.517,21.278,21.278,0,0,1,2.353,2.219,43.843,43.843,0,0,1,4.016,5.049l-.321-.253a5.962,5.962,0,0,0,4-.581,18.748,18.748,0,0,0,3.743-2.364,40.792,40.792,0,0,0,3.413-2.967c.547-.523,1.089-1.055,1.613-1.6s1.1-1.128,1.7-1.648c.3-.261.609-.516.927-.758.288-.241.562-.446.8-.691a2.547,2.547,0,0,0,.86-1.573,2.784,2.784,0,0,0-.717-1.707c-.437-.563-.99-1.073-1.526-1.685a5.7,5.7,0,0,1-.4-.5l-.31-.524-.557-1.022-1.089-2.039q-1.078-2.043-2.2-4.057c-1.5-2.684-3.086-5.323-4.8-7.875-1.7-2.549-3.426-5.13-5.268-7.485l-.348-.435-.363-.371a6.787,6.787,0,0,0-.808-.735l-1.8-1.426-3.625-2.846q-3.633-2.843-7.172-5.822a.072.072,0,0,1,.084-.116Z" transform="translate(633.643 2229.834)"/>
    <path id="Path_2946" data-name="Path 2946" d="M271.544,302.63c-1.25,4.7-2.43,9.406-3.416,14.134a55.255,55.255,0,0,0-1.06,7.106c-.068,1.149-.074,2.417-.175,3.647a21.17,21.17,0,0,1-.627,3.713,19.8,19.8,0,0,1-3.543,6.6c-.735.98-1.513,1.927-2.242,2.879-.35.473-.706.942-1.021,1.447-.338.488-.643,1-.947,1.516a60.122,60.122,0,0,0-3.2,6.468c-.988,2.209-1.84,4.48-2.673,6.764a59.419,59.419,0,0,1,4.9-13.773,24.742,24.742,0,0,1,1.941-3.174c.72-1,1.458-1.945,2.153-2.928a18.8,18.8,0,0,0,3.257-6.18,19.765,19.765,0,0,0,.613-3.453c.114-1.19.11-2.352.219-3.624a48.225,48.225,0,0,1,1.322-7.25,112.991,112.991,0,0,1,4.5-13.89Z" transform="translate(637.342 2220.596)"/>
    <path id="Path_2947" data-name="Path 2947" d="M308.377,327.395c1.571,1.22,3.06,2.52,4.572,3.731.382.294.763.584,1.137.839l.623.371q.343.217.654.456a16.015,16.015,0,0,1,2.2,2.155,17.6,17.6,0,0,1,3.061,5.251,11.182,11.182,0,0,1,.606,5.966,16.3,16.3,0,0,0-1.626-5.536,23.239,23.239,0,0,0-3.132-4.761,15.877,15.877,0,0,0-1.968-2.017c-.173-.153-.351-.295-.53-.426l-.619-.43a11.676,11.676,0,0,1-1.154-1.023A32.3,32.3,0,0,1,308.377,327.395Z" transform="translate(621.402 2213.514)"/>
    <path id="Path_2948" data-name="Path 2948" d="M286.3,342.643a15.563,15.563,0,0,1,2.807,6.368c.05.294.092.591.132.889s.031.629.067.877a5.889,5.889,0,0,0,.358,1.474,14.544,14.544,0,0,0,1.522,2.875,25.2,25.2,0,0,0,2,2.661c.35.434.737.837,1.109,1.254.4.384.771.811,1.187,1.183a16.492,16.492,0,0,0,5.574,3.72,9.619,9.619,0,0,1-3.347-.975,17.532,17.532,0,0,1-2.955-1.9,22.3,22.3,0,0,1-4.762-5.161,14.824,14.824,0,0,1-1.6-3.218,7.092,7.092,0,0,1-.33-1.875c-.019-.322-.01-.554-.01-.837l-.041-.818A23.724,23.724,0,0,0,286.3,342.643Z" transform="translate(627.717 2209.154)"/>
    <path id="Path_2949" data-name="Path 2949" d="M308.377,365.233a7.231,7.231,0,0,1,.939-2.6,11.049,11.049,0,0,1,1.694-2.218,12.165,12.165,0,0,1,2.2-1.712,12.447,12.447,0,0,1,1.222-.654c.428-.176.856-.347,1.292-.49-.758.526-1.5,1.031-2.214,1.581a21.686,21.686,0,0,0-2.015,1.754,17.924,17.924,0,0,0-1.73,2.024A13.664,13.664,0,0,0,308.377,365.233Z" transform="translate(621.402 2204.889)"/>
    <path id="Path_2950" data-name="Path 2950" d="M311.982,363.847a74.446,74.446,0,0,1,5.2-7.3q1.41-1.749,2.931-3.418a40.639,40.639,0,0,1,3.272-3.138,15.655,15.655,0,0,1,3.908-2.514,5.945,5.945,0,0,1,2.428-.465,5.04,5.04,0,0,1,2.424.693,7.572,7.572,0,0,1,2.991,3.713,10.493,10.493,0,0,1,.641,2.26,5.679,5.679,0,0,1-.047,2.424l-.229-.5c1.606.819,3.153,1.707,4.687,2.631s3.042,1.883,4.5,2.926a26.012,26.012,0,0,1,4.113,3.478,9.988,9.988,0,0,1,1.59,2.24,3.809,3.809,0,0,1,.308,2.836l.008-.026a4.036,4.036,0,0,1-1.247,2.028,2.911,2.911,0,0,1-2.391.583,6.071,6.071,0,0,1-2.165-.9,13.758,13.758,0,0,1-1.78-1.385l.957-.413a7.849,7.849,0,0,1-.618,2.847,7.085,7.085,0,0,1-1.643,2.417,7.683,7.683,0,0,1-2.454,1.562,11.067,11.067,0,0,0-1.124.565,4.337,4.337,0,0,0-.481.319,1.335,1.335,0,0,0-.161.146c-.038.033-.028.072.006-.055l-.242-.683a4.671,4.671,0,0,1,1.084,1.376,3.682,3.682,0,0,1,0,3.5,5.158,5.158,0,0,1-1.026,1.369,5.486,5.486,0,0,1-3.033,1.443,10.858,10.858,0,0,1-1.591.074,5.489,5.489,0,0,1-1.685-.268l.505,0a26.884,26.884,0,0,1-5.1,1.051,24.26,24.26,0,0,1-5.193-.028,9.841,9.841,0,0,1-2.621-.619,3.485,3.485,0,0,1-2.027-2.081,3.933,3.933,0,0,1,.319-2.816,4.822,4.822,0,0,1,.777-1.152,2.112,2.112,0,0,1,1.341-.769l-.059.007a5.809,5.809,0,0,1,.752-.063,6.309,6.309,0,0,1,.741.027,4.2,4.2,0,0,1,1.453.388l-.368.43a5.728,5.728,0,0,1-.528-1.277,4.394,4.394,0,0,1-.169-1.365,2.822,2.822,0,0,1,.383-1.322,2.987,2.987,0,0,1,.948-.96.072.072,0,0,1,.1.02.074.074,0,0,1-.016.1,2.778,2.778,0,0,0-.791.973,2.567,2.567,0,0,0-.242,1.2,3.968,3.968,0,0,0,.251,1.213,5.233,5.233,0,0,0,.56,1.1.293.293,0,0,1-.345.439l-.023-.009a4,4,0,0,0-1.259-.241,5.665,5.665,0,0,0-.657.015,5.166,5.166,0,0,0-.638.09l-.029,0-.031,0a1.508,1.508,0,0,0-.741.558,3.954,3.954,0,0,0-.575.973,2.959,2.959,0,0,0-.145,2.1,2.4,2.4,0,0,0,1.467,1.351,8.77,8.77,0,0,0,2.3.445,22.938,22.938,0,0,0,4.9-.15,25.634,25.634,0,0,0,4.768-1.059.787.787,0,0,1,.488,0l.018.006a7.3,7.3,0,0,0,2.555.1,3.965,3.965,0,0,0,2.2-1.031,3.073,3.073,0,0,0,1.042-2.03,2.333,2.333,0,0,0-.256-1.081,3.358,3.358,0,0,0-.7-.94l-.051-.047a.652.652,0,0,1-.192-.637,1.312,1.312,0,0,1,.349-.624,2.713,2.713,0,0,1,.341-.3,5.683,5.683,0,0,1,.645-.412,12.4,12.4,0,0,1,1.288-.616,6.337,6.337,0,0,0,2.082-1.257,6.166,6.166,0,0,0,1.413-1.958,6.766,6.766,0,0,0,.609-2.354l0-.042a.564.564,0,0,1,.954-.371,13.4,13.4,0,0,0,1.586,1.332,5.118,5.118,0,0,0,1.759.859,2.015,2.015,0,0,0,1.7-.309,3.237,3.237,0,0,0,1.06-1.559l.008-.026a3.15,3.15,0,0,0-.171-2.355,8.026,8.026,0,0,0-1.427-2.145,24.386,24.386,0,0,0-3.983-3.467,54.376,54.376,0,0,0-9.292-5.141.415.415,0,0,1-.236-.471l.007-.03a4.923,4.923,0,0,0-.093-2.011,9.466,9.466,0,0,0-.689-2,6.8,6.8,0,0,0-2.619-3.058,4.249,4.249,0,0,0-3.759-.145,14.839,14.839,0,0,0-3.609,2.262,39.994,39.994,0,0,0-3.267,2.952c-1.053,1.034-2.073,2.11-3.062,3.214-1.968,2.219-3.883,4.5-5.719,6.846a.071.071,0,0,1-.1.014.073.073,0,0,1-.017-.1Z" transform="translate(620.375 2207.906)"/>
    <path id="Path_2951" data-name="Path 2951" d="M331.983,355.355a16.327,16.327,0,0,0,.5,3.919,5.675,5.675,0,0,0,.794,1.7,2.363,2.363,0,0,0,1.423.96,3.709,3.709,0,0,0,1.811-.02,5.051,5.051,0,0,0,1.718-.756,10.766,10.766,0,0,0,2.758-2.784,8.123,8.123,0,0,1-2.434,3.238,4.8,4.8,0,0,1-4.026,1.016,3.018,3.018,0,0,1-1.8-1.258,5.634,5.634,0,0,1-.786-1.959A10.748,10.748,0,0,1,331.983,355.355Z" transform="translate(614.715 2205.519)"/>
    <path id="Path_2952" data-name="Path 2952" d="M346.79,373.043a7.7,7.7,0,0,1,3.827,1.18,8.768,8.768,0,0,1,1.6,1.241,7.825,7.825,0,0,1,1.255,1.572c-.508-.44-1-.877-1.516-1.273a15.818,15.818,0,0,0-1.6-1.1,15.268,15.268,0,0,0-1.721-.908,15.553,15.553,0,0,0-1.842-.707Z" transform="translate(610.418 2200.461)"/>
    <path id="Path_2953" data-name="Path 2953" d="M325.848,390.989a4.3,4.3,0,0,0,1.076.791c.386.224.779.435,1.176.64.794.408,1.6.8,2.41,1.183,1.615.784,3.25,1.533,4.829,2.458a24.632,24.632,0,0,1-5.139-1.815,19.21,19.21,0,0,1-2.384-1.349A5.739,5.739,0,0,1,325.848,390.989Z" transform="translate(616.406 2195.33)"/>
    <path id="Path_2954" data-name="Path 2954" d="M342.239,377.38a2.268,2.268,0,0,1,.717.616,1.19,1.19,0,0,1,.252.98,1.6,1.6,0,0,1-.6.844,3.858,3.858,0,0,1-.851.5,3.213,3.213,0,0,0-.4.205,2.961,2.961,0,0,0-.354.2l-.308.27a2.807,2.807,0,0,0-.255.322,3.048,3.048,0,0,0-.564,1.544,2.819,2.819,0,0,0,1.327,2.824,1.259,1.259,0,0,0,.383.174c.135.044.266.1.406.141a6.226,6.226,0,0,0,.875.106,7.309,7.309,0,0,0,.907-.032c.3-.053.605-.1.917-.138-.287.114-.581.222-.879.323a7.584,7.584,0,0,1-.931.2,6.1,6.1,0,0,1-.972,0,4.332,4.332,0,0,1-.484-.112,1.642,1.642,0,0,1-.473-.167,2.967,2.967,0,0,1-1.444-1.407,3.755,3.755,0,0,1,.392-3.861,3.429,3.429,0,0,1,.343-.383l.407-.319a5.128,5.128,0,0,1,.9-.409,2.167,2.167,0,0,0,1.329-.924.918.918,0,0,0-.077-.781A2.816,2.816,0,0,0,342.239,377.38Z" transform="translate(612.607 2199.221)"/>
    <path id="Path_2955" data-name="Path 2955" d="M335.37,358.208a6.857,6.857,0,0,0,.343,1.1,1.894,1.894,0,0,0,.616.857,1.2,1.2,0,0,0,.985.186,3.917,3.917,0,0,0,.543-.139c.179-.068.354-.148.545-.21-.149.128-.313.239-.473.361a3.87,3.87,0,0,1-.556.244,1.409,1.409,0,0,1-1.241-.165,1.968,1.968,0,0,1-.664-1.047,3.1,3.1,0,0,1-.1-1.185Z" transform="translate(613.691 2204.703)"/>
    <path id="Path_2956" data-name="Path 2956" d="M336.291,357.495a4.184,4.184,0,0,1,1.178-.158,3.972,3.972,0,0,1,1.195.19,2.031,2.031,0,0,1,1,.728,1.645,1.645,0,0,1,.208,1.184,2.13,2.13,0,0,0-.417-1.028,1.967,1.967,0,0,0-.908-.565A8.273,8.273,0,0,0,336.291,357.495Z" transform="translate(613.422 2204.953)"/>
    <path id="Path_2957" data-name="Path 2957" d="M343.937,387.272a1.829,1.829,0,0,1,.624-.717,1.291,1.291,0,0,1,.989-.2,1.663,1.663,0,0,1,.816.577c.085.138.174.271.247.411.054.15.118.294.16.444-.209-.238-.394-.475-.6-.682a1.625,1.625,0,0,0-.7-.42,1.119,1.119,0,0,0-.783.1A3.563,3.563,0,0,0,343.937,387.272Z" transform="translate(611.234 2196.664)"/>
    <path id="Path_2958" data-name="Path 2958" d="M326.381,388.981a3.781,3.781,0,0,1,.418-1.6,1.139,1.139,0,0,1,.684-.589,1.059,1.059,0,0,1,.888.236,2.358,2.358,0,0,1,.589.649,1.251,1.251,0,0,1,.149.884A1.952,1.952,0,0,1,328,389.783a2.219,2.219,0,0,0,.854-1.27,1.113,1.113,0,0,0-.158-.682,2.074,2.074,0,0,0-.523-.532.747.747,0,0,0-.618-.21.988.988,0,0,0-.534.427,5.678,5.678,0,0,0-.638,1.466Z" transform="translate(616.254 2196.536)"/>
    <path id="Path_2959" data-name="Path 2959" d="M313.073,383.735a3.781,3.781,0,0,1-.459,1.593,1.139,1.139,0,0,1-.7.571,1.059,1.059,0,0,1-.882-.259,2.354,2.354,0,0,1-.572-.664,1.25,1.25,0,0,1-.126-.888,1.952,1.952,0,0,1,1.143-1.2,2.218,2.218,0,0,0-.887,1.247,1.112,1.112,0,0,0,.14.686,2.073,2.073,0,0,0,.509.546.747.747,0,0,0,.613.226.988.988,0,0,0,.545-.413,5.688,5.688,0,0,0,.676-1.449Z" transform="translate(620.852 2197.645)"/>
    <path id="Path_2960" data-name="Path 2960" d="M321.341,396.342a3.968,3.968,0,0,1,.608-1.068,2.051,2.051,0,0,1,.466-.442.78.78,0,0,1,.721-.112.982.982,0,0,1,.449.55,2.3,2.3,0,0,1,.144.62,3.73,3.73,0,0,1-.054,1.228,10.047,10.047,0,0,0-.2-1.181,3.847,3.847,0,0,0-.171-.545c-.081-.156-.179-.324-.3-.361-.232-.127-.593.16-.857.419a11.9,11.9,0,0,0-.8.893Z" transform="translate(617.695 2194.275)"/>
    <path id="Path_2961" data-name="Path 2961" d="M306.175,370.649l-2.885,3.178s.021,4.063-2.035,4.234c0,0-1.043.943-.3,1.135.664.164,3.056-.428,4.092-.307,0,0,4.906-.971,5.741-.443a2.093,2.093,0,0,1,.907,1.507l.4-.043,15.474.921,6.712-10.183Zm19.936,7.126-21.714-.364,2.835-4.563h21.757Z" transform="translate(623.602 2201.146)" fill="#0fd7ad"/>
    <path id="Path_2962" data-name="Path 2962" d="M283.452,380.389a8.075,8.075,0,0,1,2.788-1.306,9.526,9.526,0,0,1,3.128-.27.358.358,0,0,1-.054.713l-.044-.006a9,9,0,0,0-2.96-.087,7.9,7.9,0,0,0-2.858.956Z" transform="translate(628.531 2198.82)"/>
    <path id="Path_2963" data-name="Path 2963" d="M291.669,391.28c2.009.037,4.018.107,6.027.3.5.044,1.017.126,1.5.181a8.3,8.3,0,0,0,1.461.029,8.633,8.633,0,0,0,2.8-.672l.023-.01a.357.357,0,0,1,.288.654l-.02.008a9.192,9.192,0,0,1-3.07.555,8.8,8.8,0,0,1-1.544-.122c-.513-.091-.981-.194-1.481-.269C295.674,391.625,293.67,391.436,291.669,391.28Z" transform="translate(626.18 2195.305)"/>
    <path id="Path_2964" data-name="Path 2964" d="M293.837,398.635q1.022-.368,2.065-.686a16.863,16.863,0,0,1,2.147-.526.358.358,0,0,1,.114.708.372.372,0,0,1-.057,0H298.1a16.382,16.382,0,0,0-2.123.163C295.263,398.391,294.549,398.5,293.837,398.635Z" transform="translate(625.563 2193.491)"/>
    <path id="Path_2965" data-name="Path 2965" d="M297.6,373.854a4.472,4.472,0,0,0,1.269.92,7.053,7.053,0,0,0,1.5.5,2.377,2.377,0,0,1-.835.043,2.861,2.861,0,0,1-.816-.236,2.69,2.69,0,0,1-.686-.506A1.775,1.775,0,0,1,297.6,373.854Z" transform="translate(624.484 2200.229)"/>
    <path id="Path_2966" data-name="Path 2966" d="M312.58,390.931a.714.714,0,0,1-.007-1.428l9.045-.085a.7.7,0,0,1,.721.707.714.714,0,0,1-.707.721l-9.045.085Z" transform="translate(620.406 2195.779)"/>
    <path id="Path_2967" data-name="Path 2967" d="M347.39,390.628a.714.714,0,1,1,0-1.428l24.933-.033h0a.714.714,0,1,1,0,1.428l-24.933.033Z" transform="translate(610.453 2195.851)"/>
    <path id="Path_2968" data-name="Path 2968" d="M579.2,390.322a.714.714,0,0,1,0-1.428l22.918-.028h0a.714.714,0,0,1,0,1.428l-22.917.028Z" transform="translate(544.166 2195.937)"/>
    <path id="Path_2969" data-name="Path 2969" d="M395.944,390.253h-1.7a.172.172,0,0,1-.173-.169.167.167,0,0,1,.167-.169h1.7a.169.169,0,0,1,0,.339Z" transform="translate(596.898 2195.637)"/>
    <path id="Path_2970" data-name="Path 2970" d="M88.129,392.941a.714.714,0,1,1-.007-1.428l31.438-.292a.734.734,0,0,1,.721.707.714.714,0,0,1-.707.721l-31.438.292Z" transform="translate(684.588 2195.263)"/>
    <path id="Path_2971" data-name="Path 2971" d="M254.071,254.4a1.019,1.019,0,1,0-.984-1.019,1.019,1.019,0,0,0,.984,1.019Z" transform="translate(637.215 2234.971)"/>
    <path id="Path_2972" data-name="Path 2972" d="M313.393,227.273l-8.339.311c-2.736.083-5.441.149-8.131.2s-5.363.08-8.028.05-5.334-.139-8.028-.214l.4-.4c-.043,1.539-.113,3.078-.133,4.617-.038,1.539-.039,3.078-.048,4.617,0,3.078.063,6.155.149,9.233l-.364-.364,6.655-.185a.511.511,0,0,1,.369.142l.02.019,2.541,2.444h-.874l2.458-2.528a.643.643,0,0,1,.456-.2h.017c3.489-.029,6.979-.1,10.468-.094q2.617-.013,5.234.021l5.234.066-.674.674c.048-3,.134-6,.259-9.061Zm.1-.1.365,9.112c.124,3.094.211,6.249.259,9.405a.664.664,0,0,1-.654.674h-.02l-5.234.066q-2.617.031-5.234.021c-3.489.006-6.979-.065-10.468-.094l.472-.2-2.528,2.457-.015.014a.606.606,0,0,1-.857-.012l0,0-2.444-2.541.388.161-6.655-.185h-.02a.354.354,0,0,1-.344-.364h0c.087-3.078.152-6.155.149-9.233-.009-1.539-.011-3.078-.048-4.617-.021-1.539-.091-3.078-.133-4.617a.385.385,0,0,1,.375-.4h.022c2.736-.074,5.5-.194,8.261-.214s5.516.013,8.26.05,5.464.116,8.157.2Z" transform="translate(530.365 2221.33)" fill="#073570"/>
    <path id="Path_2973" data-name="Path 2973" d="M421.836,179.449l-12.273.212-12.169.153-24.17.17-12.024-.042-12.018-.152c-8.019-.123-16.08-.182-24.136-.162l.23-.23.043,9.233.106,9.233-.379-.379c7.1-.1,14.2-.188,21.3-.237l21.3-.117c7.1-.055,14.2.008,21.3.007s14.2.085,21.3.141h.01a.575.575,0,0,1,.4.172l2.471,2.515h-.784l2.521-2.465.009-.009a.5.5,0,0,1,.355-.142l6.655.1-.418.418c.049-3.03.088-6.061.172-9.131Zm.1-.1.2,9.182c.084,3.085.124,6.21.172,9.335a.412.412,0,0,1-.405.418h-.013l-6.655.1.364-.151-2.465,2.521a.548.548,0,0,1-.775.009h0l-.008-.008-2.515-2.471.414.172c-7.1.057-14.2.15-21.3.141s-14.2.062-21.3.007l-21.3-.117c-7.1-.049-14.2-.141-21.3-.237h-.01a.374.374,0,0,1-.37-.379l.106-9.233.043-9.233a.231.231,0,0,1,.23-.23c8.084.02,16.164-.038,24.285-.161l12.192-.152,12.186-.043,24.25.17,12.041.153Z" transform="translate(716.781 2238.698)" fill="#7595ec"/>
    <path id="Path_2974" data-name="Path 2974" d="M341.915,124.252c-5.232.148-10.375.251-15.489.34-5.124.106-10.187.153-15.248.192s-10.085.008-15.122-.1c-5.039-.086-10.1-.226-15.181-.251l.228-.227c0,1.53-.024,3.061-.007,4.591l.028,4.592c0,3.061.079,6.122.124,9.183l-.373-.372,6.649-.124a.476.476,0,0,1,.339.132l.013.013,2.531,2.44h-.783l2.459-2.51a.58.58,0,0,1,.409-.174h.014l12.365-.107c4.122-.033,8.243-.063,12.365-.056,8.243,0,16.486.116,24.729.225l-.536.534.219-9.052Zm.1-.1.267,9.1.219,9.314a.522.522,0,0,1-.511.533h-.025c-8.243.109-16.486.229-24.729.225-4.122.007-8.243-.024-12.365-.056l-12.365-.107.423-.174-2.522,2.448-.011.011a.547.547,0,0,1-.771-.01h0l-2.451-2.519.352.145-6.649-.124h-.012a.366.366,0,0,1-.361-.372c.045-3.061.12-6.122.124-9.183l.028-4.592c.017-1.53,0-3.061-.007-4.591a.228.228,0,0,1,.229-.228c5.1-.025,10.222-.165,15.364-.251,5.145-.112,10.3-.144,15.423-.1s10.239.086,15.3.192c5.068.089,10.108.192,15.057.341Z" transform="translate(491.498 2269.397)" fill="#17a9fe"/>
    <path id="Union_74" data-name="Union 74" d="M17884.76,1940.949c-.043-1.158-.02-2.319-.023-3.479v-.445h-1.482v.389c0,1.148.027,2.3-.016,3.444a2.186,2.186,0,0,1-2.984,1.988,2.311,2.311,0,0,1-1.416-2.28c0-1.113,0-2.226.006-3.339a.337.337,0,0,0-.279-.392,3.61,3.61,0,0,1-2.641-3.5c-.041-1.663-.016-3.327-.016-4.991v-6.819c0-.791.232-1.027,1.008-1.027h14.172c.758,0,.994.239.994,1.005,0,3.843-.023,7.686.01,11.529a3.8,3.8,0,0,1-2.711,3.817c-.209.057-.234.17-.232.352.006,1.125.008,2.25,0,3.374a2.263,2.263,0,0,1-1.961,2.4,2.044,2.044,0,0,1-.266.017A2.186,2.186,0,0,1,17884.76,1940.949Zm9.875-8.78a2.135,2.135,0,0,1-1.053-1.717c-.008-.081-.016-.164-.016-.245v-3.726c0-1.207-.01-2.414,0-3.621a2.206,2.206,0,1,1,4.4-.024c.029,2.449.039,4.9,0,7.347a2.177,2.177,0,0,1-3.334,1.986Zm-24.615-1.977c-.035-2.46-.021-4.922,0-7.383a2.169,2.169,0,0,1,1.338-2.112,2.065,2.065,0,0,1,2.318.375,1.98,1.98,0,0,1,.73,1.5c.021,1.312.008,2.625.008,3.937h.014c0,1.219.01,2.438,0,3.656a2.222,2.222,0,0,1-1.859,2.3,2.64,2.64,0,0,1-.338.022A2.181,2.181,0,0,1,17870.02,1930.192Zm6.789-11.186c-.641,0-.92-.3-.891-.962a8.148,8.148,0,0,1,3.885-6.841c.1-.068.211-.135.338-.217-.389-.922-.771-1.833-1.152-2.744-.262-.625-.143-.95.453-1.243h.346a4.5,4.5,0,0,1,.592.776c.395.853.74,1.73,1.119,2.629a8.129,8.129,0,0,1,5,0c.377-.9.748-1.765,1.1-2.636a1.415,1.415,0,0,1,.605-.768h.346c.594.293.715.62.455,1.242-.381.911-.764,1.822-1.119,2.664.66.556,1.336,1.032,1.9,1.617a7.974,7.974,0,0,1,2.287,5.555c.014.632-.266.929-.893.929q-3.595,0-7.189,0T17876.809,1919.006Zm4.225-4.49a.723.723,0,0,0-.7.745.742.742,0,0,0,.723.736.765.765,0,0,0,.73-.736.743.743,0,0,0-.734-.745Zm5.176.718a.759.759,0,0,0,.738.762.74.74,0,0,0,.713-.743.723.723,0,0,0-.713-.737h-.006A.742.742,0,0,0,17886.209,1915.234Z" transform="matrix(0.966, -0.259, 0.259, 0.966, -16972.66, 5089.313)" fill="#0fd7ad"/>
    <path id="Union_75" data-name="Union 75" d="M17877.523,1943.879a15.358,15.358,0,0,1-3.426-3.87,23.654,23.654,0,0,1-3.857-9.643,15.762,15.762,0,0,1,.482-7.55,10.728,10.728,0,0,1,6.895-6.6,8.777,8.777,0,0,1,5.33.255c.857.283,1.709.586,2.574.83a6.537,6.537,0,0,0,4.238-.334,14.513,14.513,0,0,1,3.611-1,8.752,8.752,0,0,1,6.119,1.6,15.889,15.889,0,0,1,1.588,1.309,10.548,10.548,0,0,1,.789.869c-3.041,1.81-4.59,4.437-4.3,7.92a8.268,8.268,0,0,0,5.43,7.25c-.336.693-.645,1.394-1.006,2.067a25.632,25.632,0,0,1-4.244,6.006,7.007,7.007,0,0,1-2.475,1.719,4.9,4.9,0,0,1-3.939-.275,10.01,10.01,0,0,0-3.182-.984,9.036,9.036,0,0,0-4.795.851,6.74,6.74,0,0,1-2.406.7c-.107.007-.211.01-.318.01A5.1,5.1,0,0,1,17877.523,1943.879Zm8.445-27.751a5.326,5.326,0,0,1,.115-2.574,8.955,8.955,0,0,1,6.854-6.444c.17-.042.338-.075.5-.112h.3a8.139,8.139,0,0,1-2.291,6.625,7.267,7.267,0,0,1-5.236,2.5h-.25Z" transform="translate(-16761 548.002)" fill="#ff6d66"/>
  </g>
</svg>
