<svg xmlns="http://www.w3.org/2000/svg" width="375.002" height="312" viewBox="0 0 375.002 312">
  <g id="Group_275" data-name="Group 275" transform="translate(-307 -2299)">
    <path id="Path_2841" data-name="Path 2841" d="M277.7,367.254a.31.31,0,0,1-.311-.311V337.5a.311.311,0,0,1,.622,0v29.445a.31.31,0,0,1-.311.311Z" transform="translate(145.277 2179.296)"/>
    <path id="Path_2842" data-name="Path 2842" d="M307.642,312.738a18.673,18.673,0,0,1-2.352,3.174c-.858,1-1.8,1.921-2.723,2.86-1.906,1.813-3.864,3.578-5.923,5.219a104.067,104.067,0,0,1-13.018,8.935,78.463,78.463,0,0,1-14.369,6.607,54.269,54.269,0,0,1-7.685,2c-1.32.158-2.636.417-3.962.49-1.327.038-2.655.1-3.983.116a74.149,74.149,0,0,1-15.682-2.221,130.241,130.241,0,0,1-15.1-4.641c-4.94-1.816-9.791-3.857-14.618-5.919-1.207-.509-2.417-1.028-3.633-1.472-.6-.209-1.236-.427-1.873-.69-.295-.172-.6-.323-.885-.515a8.461,8.461,0,0,1-.791-.647,8.656,8.656,0,0,1-2.1-3.419,13.439,13.439,0,0,1-.705-3.935l0,.039a509.15,509.15,0,0,0-12.166-51.414c-2.405-8.473-5.092-16.863-7.852-25.224s-5.714-16.655-8.844-24.887c-1.58-4.108-3.162-8.216-4.821-12.291-.8-2.044-1.744-4.031-2.439-6.195a30.627,30.627,0,0,1-1.342-6.6,23.92,23.92,0,0,1-.1-3.421,5.939,5.939,0,0,1,4.584-5.187,20.674,20.674,0,0,1,3.348-.552,16.839,16.839,0,0,1,6.728.922l6.281,2.061,25.123,8.244a21.207,21.207,0,0,1,3.138,1.175,11.091,11.091,0,0,1,2.755,1.967,10.328,10.328,0,0,1,3.048,5.922l1.864,13.092a.062.062,0,0,1-.123.019l-2.195-13.036a10.049,10.049,0,0,0-3.009-5.567,10.467,10.467,0,0,0-2.628-1.823,20.63,20.63,0,0,0-3.061-1.1l-25.233-7.9-6.308-1.976a15.641,15.641,0,0,0-6.289-.782,21.786,21.786,0,0,0-3.163.547,4.684,4.684,0,0,0-3.6,4.1,23.48,23.48,0,0,0,.1,3.179,29.35,29.35,0,0,0,1.3,6.325c.655,2.035,1.606,4.043,2.42,6.1q2.506,6.127,4.827,12.325,9.285,24.789,16.268,50.349c2.325,8.507,4.495,17.057,6.418,25.663,2.031,8.581,3.7,17.241,5.392,25.893l0,.022v.017a10.316,10.316,0,0,0,2.707,7,7.959,7.959,0,0,0,.735.593c.26.177.549.306.822.463.579.226,1.186.424,1.833.637,1.257.435,2.471.932,3.691,1.422,4.866,1.98,9.734,3.93,14.682,5.658a151.172,151.172,0,0,0,15.05,4.434,78.467,78.467,0,0,0,15.459,2.163c1.3-.009,2.593-.061,3.891-.088,1.294-.063,2.568-.308,3.854-.452a53.27,53.27,0,0,0,7.553-1.915,83.677,83.677,0,0,0,14.274-6.381,106.92,106.92,0,0,0,13.082-8.655c2.092-1.577,4.085-3.279,6.031-5.032.943-.907,1.905-1.8,2.784-2.769a18.541,18.541,0,0,0,2.413-3.077l0-.006a.062.062,0,0,1,.107.063Z" transform="translate(146.344 2180.787)"/>
    <path id="Path_2843" data-name="Path 2843" d="M165.826,189.243l9.53,3.345L184.862,196l9.494,3.439,9.478,3.484a.52.52,0,0,1,.327.367l0,.009q2.843,12.162,5.464,24.374c1.763,8.138,3.454,16.292,5.286,24.415,3.608,16.257,7.549,32.439,11.356,48.651a32.445,32.445,0,0,0,4.89,11.176,27.77,27.77,0,0,0,8.88,8.237,24.172,24.172,0,0,0,11.607,3.159,59.364,59.364,0,0,0,6.155-.36c2.058-.221,4.115-.452,6.153-.79a66.56,66.56,0,0,0,11.993-2.992,83.2,83.2,0,0,0,11.294-5.121c3.663-1.948,7.24-4.074,10.784-6.253,3.561-2.152,7.089-4.364,10.62-6.57a.062.062,0,1,1,.068.1c-6.9,4.654-13.775,9.373-21.052,13.485a79.682,79.682,0,0,1-11.343,5.374,64.828,64.828,0,0,1-12.162,3.206c-2.069.351-4.149.59-6.229.821a60.5,60.5,0,0,1-6.3.387,24.892,24.892,0,0,1-12.231-3.325,30.827,30.827,0,0,1-14.147-20.306c-3.561-16.268-6.989-32.566-10.75-48.789-1.852-8.118-3.846-16.2-5.767-24.305s-3.792-16.216-5.589-24.346l.329.375-9.445-3.57-9.429-3.615-9.417-3.647-9.394-3.71a.062.062,0,0,1,.044-.117Z" transform="translate(146.297 2180.734)"/>
    <path id="Path_2844" data-name="Path 2844" d="M276.684,140.575c-2.61-1.585-3.269-6.361-1.256-9.557,2.538-4.031,5.375,3.284,5.375,3.284,4.628,6.868,14.034-11.5,14.034-11.5s-7.465-9.405-24.484-3.135-5.375,27.619-5.375,27.619-17.766,8.36-11.794,30.605c0,0,15.876-3.694,14.929-30.19,0,0,6.644-2.617,8.571-7.131" transform="translate(145.51 2181.483)"/>
    <path id="Path_2845" data-name="Path 2845" d="M278.762,141.257a3.767,3.767,0,0,1-2.8-.4.314.314,0,0,1,.326-.536.373.373,0,0,1,.062.05A3.46,3.46,0,0,0,278.762,141.257Z" transform="translate(145.291 2181.275)"/>
    <path id="Path_2846" data-name="Path 2846" d="M294.611,123.825a21.532,21.532,0,0,1,2.358,5.2,14.974,14.974,0,0,1,.656,5.752l-.119-.353c.568.6,1.121,1.207,1.668,1.824l1.638,1.884a1.752,1.752,0,0,1-.424,2.511,6.85,6.85,0,0,1-1.075.675,1.542,1.542,0,0,1-1.321.15l.216-.131a42.025,42.025,0,0,1-.843,8,9.443,9.443,0,0,1-1.706,3.789A3.3,3.3,0,0,1,293.7,154.3a3.776,3.776,0,0,1-1.167-.047l-.958-.165a10.662,10.662,0,0,0-3.772,0,6.947,6.947,0,0,0-3.284,1.682,19.171,19.171,0,0,0-4.079,6.633.05.05,0,0,1-.064.028.051.051,0,0,1-.03-.059,21.5,21.5,0,0,1,1.324-3.8,11.73,11.73,0,0,1,2.262-3.414,7.4,7.4,0,0,1,3.647-2.071,10.539,10.539,0,0,1,4.163-.04l1,.2a2.786,2.786,0,0,0,.817.064,2.343,2.343,0,0,0,1.4-.809,9.34,9.34,0,0,0,1.682-3.372,29.945,29.945,0,0,0,1.267-7.8.151.151,0,0,1,.157-.145.164.164,0,0,1,.06.015,1.275,1.275,0,0,0,1.043-.171,5.6,5.6,0,0,0,.984-.684,1.265,1.265,0,0,0,.206-1.851L298.6,136.8c-.589-.577-1.17-1.16-1.738-1.757a.441.441,0,0,1-.121-.336v-.017a15.382,15.382,0,0,0-.007-2.736,22.635,22.635,0,0,0-.455-2.738,33.249,33.249,0,0,0-1.759-5.339.05.05,0,0,1,.023-.066.052.052,0,0,1,.063.018Z" transform="translate(145.25 2181.426)"/>
    <path id="Path_2847" data-name="Path 2847" d="M292.029,131.209a3.222,3.222,0,0,1,2.11-.948,3.735,3.735,0,0,1,2.257.5c-.785.06-1.492.055-2.2.119a17.331,17.331,0,0,0-2.164.329Z" transform="translate(145.145 2181.367)"/>
    <path id="Path_2848" data-name="Path 2848" d="M293.943,135.081a.934.934,0,1,0-.9-.933.934.934,0,0,0,.9.933Z" transform="translate(145.133 2181.34)"/>
    <path id="Path_2849" data-name="Path 2849" d="M281.746,145.908c.87,1.058,1.662,2.127,2.509,3.153a22.672,22.672,0,0,0,2.754,2.893,7.906,7.906,0,0,1-3.235-2.5,11.879,11.879,0,0,1-2.028-3.547Z" transform="translate(145.238 2181.224)"/>
    <path id="Path_2850" data-name="Path 2850" d="M217.284,212.052c.618-2.87,1.368-5.657,2.179-8.455s1.677-5.57,2.669-8.306a127.148,127.148,0,0,1,6.9-16.061,79.193,79.193,0,0,1,4.5-7.542,49.946,49.946,0,0,1,5.5-6.909,30.225,30.225,0,0,1,6.968-5.566,19.754,19.754,0,0,1,8.63-2.607h.008a.839.839,0,0,1,.155.007c2.94.429,5.853.935,8.761,1.508s5.808,1.181,8.691,1.893a47.763,47.763,0,0,1,8.523,2.756c1.362.676,2.6,1.39,3.939,2.029l4,1.913a34.228,34.228,0,0,1,3.91,2.173A11.462,11.462,0,0,1,295.891,172c1.721,2.352,3.742,4.539,5.675,6.758q5.868,6.63,11.963,13.061a.466.466,0,0,1,.067.55l0,.007c-1.507,2.654-3.133,5.211-4.841,7.729s-3.527,4.959-5.476,7.309a56.563,56.563,0,0,1-6.408,6.59,23.151,23.151,0,0,1-8.075,4.757l.4-.236c-2.16,2.2-4.368,4.3-6.7,6.325-1.167,1.006-2.361,1.988-3.638,2.9a19.821,19.821,0,0,1-2.022,1.292,5.438,5.438,0,0,1-2.685.823l1.046-1.216c.495,2.172,1.009,4.348,1.549,6.508l.833,3.226c.141.535.289,1.066.444,1.585a13.051,13.051,0,0,0,.488,1.418l.023.05a1.037,1.037,0,0,1-.524,1.369,1.063,1.063,0,0,1-.326.085c-6.936.651-13.86,1.1-20.814,1.338a164.113,164.113,0,0,1-20.888-.479c-1.741-.181-3.481-.4-5.214-.734a24.9,24.9,0,0,1-5.142-1.462,9.49,9.49,0,0,1-2.408-1.43,4.666,4.666,0,0,1-.973-1.156c-.248-.439-.385-.822-.583-1.235a33.911,33.911,0,0,1-1.71-5,74.749,74.749,0,0,1-1.875-10.282C217.67,218.992,217.4,215.549,217.284,212.052Zm.2.019a107.627,107.627,0,0,0,3.512,20.367,32.742,32.742,0,0,0,1.8,4.771c.187.362.367.791.557,1.1a3.366,3.366,0,0,0,.722.8,8.2,8.2,0,0,0,2.088,1.139,38.457,38.457,0,0,0,9.965,1.865,182.65,182.65,0,0,0,20.666.126c6.9-.27,13.811-.743,20.673-1.417l-.827,1.5a13.571,13.571,0,0,1-.626-1.746c-.167-.552-.322-1.1-.468-1.645-.3-1.092-.561-2.186-.824-3.279-.52-2.188-1.012-4.373-1.487-6.57a1,1,0,0,1,.77-1.2,1.056,1.056,0,0,1,.276-.021,4.028,4.028,0,0,0,1.613-.565,17.955,17.955,0,0,0,1.835-1.146c1.208-.845,2.379-1.784,3.528-2.753,2.291-1.944,4.514-4.018,6.646-6.139l.007-.007a.923.923,0,0,1,.392-.23,21.948,21.948,0,0,0,7.511-4.282,56.254,56.254,0,0,0,6.353-6.28c1.979-2.249,3.843-4.611,5.608-7.046s3.45-4.944,4.994-7.512l.063.556c-3.923-4.421-7.861-8.825-11.754-13.273-1.932-2.244-3.876-4.448-5.7-6.825-1.655-2.374-4.381-3.71-7-4.982-2.652-1.241-5.4-2.459-8.021-3.758a47.013,47.013,0,0,0-8.394-2.415c-5.745-1.242-11.594-2.078-17.408-2.936l.162.007a18.039,18.039,0,0,0-7.86,2.467,31.485,31.485,0,0,0-6.6,5.224,48.3,48.3,0,0,0-5.4,6.626,77.645,77.645,0,0,0-4.5,7.345,133.042,133.042,0,0,0-7.268,15.706c-2.114,5.376-4,10.883-5.6,16.425Z" transform="translate(145.826 2181.126)"/>
    <path id="Path_2851" data-name="Path 2851" d="M289.123,218.28c-.707-1.61-1.372-3.234-2.044-4.853s-1.31-3.251-2.01-4.856c-.65-1.626-1.347-3.231-2.071-4.821q-.526-1.2-1.146-2.353a10.5,10.5,0,0,0-.649-1.132,6.158,6.158,0,0,0-.37-.537l-.444-.482a13.5,13.5,0,0,1,3.039,4.3c.821,1.561,1.517,3.178,2.215,4.792.655,1.632,1.3,3.266,1.881,4.925S288.659,216.584,289.123,218.28Z" transform="translate(145.25 2180.672)"/>
    <path id="Path_2852" data-name="Path 2852" d="M279.229,249.668a.312.312,0,0,1-.282-.179l-3.078-6.533a.311.311,0,0,1,.563-.265l3.078,6.533a.312.312,0,0,1-.282.444Z" transform="translate(145.291 2180.247)"/>
    <path id="Path_2853" data-name="Path 2853" d="M222.878,239.7l3.757,13.828C224.669,246.593,223.276,241.237,222.878,239.7Z" transform="translate(145.775 2180.272)"/>
    <path id="Path_2854" data-name="Path 2854" d="M355.591,326.648c-2.1,3.7-1.13,11.3-1.566,13.882a25.212,25.212,0,0,1-4.073,10.2c-.565-4.35-1.229-8.69-1.912-13.03s-1.457-8.65-2.17-12.98c-.8-4.31-1.556-8.64-2.4-12.941l-1.278-6.46c-.466-2.15-.892-4.3-1.387-6.441.277,2.18.6,4.35.912,6.53l1,6.5c.684,4.34,1.447,8.66,2.17,12.98.8,4.32,1.556,8.64,2.4,12.951s1.694,8.611,2.665,12.891c-4.7,6.887-12.6,11.236-21.422,14.556a125.172,125.172,0,0,1-20.342,5.707c-5.073-44.569,2.844-75.92,2.844-75.92s-.9-1.12-4.033-1.12-11.871,5.152-11.871,5.152c-33.145,20.154-43.449,8.957-51.287.446-5.143-5.588-12.624-29.864-17.142-45.837,30.459,11.2,47.373-4.33,50.544-4.33,1,0,5.906-.515,12.742-1.169a8.365,8.365,0,0,1,2.378,6.252c2.834,4.023,6.272-2.7,4.776-5.083a7.132,7.132,0,0,1-.773-1.754c1.357-.119,2.764-.248,4.2-.367,2.388,3.27,5.152,8.105,7.62,10.483,4.33,4.181,5.083-2.537,5.083-2.537,5.37,3.884,5.37-2.982,5.37-2.982,4.776,2.834,3.131-4.013,3.131-4.013a2.345,2.345,0,0,0,.733-2.348,143.652,143.652,0,0,1,18.3.258c18.589,1.883,36.285,56.112,36.285,56.112C377.767,311.865,363.2,313.212,355.591,326.648Z" transform="translate(145.74 2180.154)" fill="#383838"/>
    <path id="Path_2855" data-name="Path 2855" d="M249.468,342.73c.693,4.323,1.12,8.666,1.571,13.007.419,4.344.618,8.7.889,13.06l.827,13.065.765,13.07a.062.062,0,1,1-.124.01l-1.261-13.031-1.2-13.036c-.4-4.345-.88-8.684-1.137-13.041-.225-4.359-.473-8.716-.455-13.094a.062.062,0,0,1,.124-.01Z" transform="translate(145.533 2179.193)"/>
    <path id="Path_2856" data-name="Path 2856" d="M263.2,342.381c.437,4.373.608,8.75.8,13.127.162,4.378.1,8.76.118,13.14l.056,13.141-.006,13.142a.062.062,0,0,1-.124,0l-.491-13.133-.429-13.134c-.148-4.378-.368-8.755-.367-13.136.032-4.381.041-8.762.317-13.148a.062.062,0,0,1,.124,0Z" transform="translate(145.41 2179.196)"/>
    <ellipse id="Ellipse_45" data-name="Ellipse 45" cx="30.68" cy="12.429" rx="30.68" ry="12.429" transform="translate(373.418 2559.754)" fill="#fad8b0"/>
    <path id="Path_2857" data-name="Path 2857" d="M274.7,229.53a4.821,4.821,0,0,1-2.2.854,3.492,3.492,0,0,1-1.222-.045,1.1,1.1,0,0,1-.912-.809,1.292,1.292,0,0,0,.979.328,9.093,9.093,0,0,0,1.076-.091,21.737,21.737,0,0,1,2.274-.237Z" transform="translate(145.34 2180.377)"/>
    <path id="Path_2858" data-name="Path 2858" d="M288.4,219.121c3.275,2.123,6.54,4.262,9.843,6.318.828.508,1.659,1.015,2.5,1.483.418.245.847.452,1.264.673.2.083.434.205.6.258a1.857,1.857,0,0,1,.221.066c.166.031.334.07.5.116a20.466,20.466,0,0,1,2.693,1.377q1.276.745,2.513,1.54a71.527,71.527,0,0,1,9.422,7.055,22.778,22.778,0,0,1,3.961,4.453l.378.673.3.66a10.689,10.689,0,0,1,.581,1.4,3.173,3.173,0,0,1,.065,1.606,2.617,2.617,0,0,1-.851,1.371l.082-.265a13.13,13.13,0,0,1,.236,1.919,5.138,5.138,0,0,1-.233,1.955,1.474,1.474,0,0,1-.244.465l-.162.217-.228.165a1.1,1.1,0,0,1-.508.2,1.262,1.262,0,0,1-.526.016,3.545,3.545,0,0,1-.971-.255l-.862-.448.294-.168a8.779,8.779,0,0,1-.336,2.154,3.349,3.349,0,0,1-1.211,1.859,2.534,2.534,0,0,1-2.225.19,9.572,9.572,0,0,1-1.012-.446l-.923-.582.369-.164a6.983,6.983,0,0,1-1.137,3.286,2.17,2.17,0,0,1-1.649.9l-.491-.038c-.153-.038-.3-.1-.447-.147a3.586,3.586,0,0,1-.81-.418,12.588,12.588,0,0,1-2.513-2.387c-.73-.875-1.412-1.779-2.063-2.7-1.3-1.84-2.528-3.725-3.829-5.528a25.13,25.13,0,0,0-2.048-2.564,5.228,5.228,0,0,0-1.151-.958,1.035,1.035,0,0,0-.509-.167.5.5,0,0,0-.341.143l.189-.352a8.1,8.1,0,0,0,.405,3.535,6.383,6.383,0,0,0,.36.809c.069.13.143.257.221.38.09.175.183.378.267.57a4.824,4.824,0,0,1,.127,2.255,6.676,6.676,0,0,1-2,3.788,2.654,2.654,0,0,1-2.387.652,3.587,3.587,0,0,1-1.863-1.455.519.519,0,0,1-.12-.356l0-.076a8.091,8.091,0,0,0-1-4.255,7.367,7.367,0,0,0-.62-.91c-.238-.3-.464-.514-.778-.86A8.493,8.493,0,0,1,288.316,246a14.161,14.161,0,0,1-1.2-4.84,28.385,28.385,0,0,1,.042-4.889l.028.18a6.042,6.042,0,0,0-2.139-2.311,10.875,10.875,0,0,0-3.027-1.386,18.483,18.483,0,0,0-3.319-.686c-.566-.043-1.134-.1-1.7-.133l-1.713-.042a.063.063,0,0,1-.065-.06.066.066,0,0,1,.059-.064l1.723-.082c.575,0,1.151.023,1.728.033a18.937,18.937,0,0,1,3.438.505,11.327,11.327,0,0,1,3.257,1.326,8.106,8.106,0,0,1,1.423,1.094,5.162,5.162,0,0,1,1.127,1.5.3.3,0,0,1,.029.138v.043a32.167,32.167,0,0,0,.114,4.736,13.125,13.125,0,0,0,1.21,4.438,7.325,7.325,0,0,0,1.292,1.809c.228.246.594.58.86.9a7.608,7.608,0,0,1,.756,1.064,9.3,9.3,0,0,1,1.222,4.992l-.117-.431c.351.414.732.862,1.13.92a1.338,1.338,0,0,0,1.191-.379,5.426,5.426,0,0,0,1.553-3,3.762,3.762,0,0,0-.053-1.6l-.138-.317q-.14-.229-.262-.467a7.676,7.676,0,0,1-.418-.977,9.266,9.266,0,0,1-.407-4.155.551.551,0,0,1,.173-.338l.016-.015a1.726,1.726,0,0,1,1.185-.453,2.2,2.2,0,0,1,1.076.333,6.3,6.3,0,0,1,1.417,1.2,26.124,26.124,0,0,1,2.112,2.721c1.279,1.87,2.45,3.782,3.695,5.635.624.924,1.248,1.846,1.926,2.719A11.922,11.922,0,0,0,309.795,258a2.856,2.856,0,0,0,.664.377c.115.042.23.1.345.131l.347.037a1.554,1.554,0,0,0,1.2-.629,6.524,6.524,0,0,0,1.125-2.974.241.241,0,0,1,.276-.2.256.256,0,0,1,.093.036l.87.566a9.4,9.4,0,0,0,.927.423,2.109,2.109,0,0,0,1.859-.117,2.965,2.965,0,0,0,1.07-1.629,7.056,7.056,0,0,0,.316-2.04.2.2,0,0,1,.283-.174l.012.006.819.409a3.164,3.164,0,0,0,.848.209,1.083,1.083,0,0,0,1.212-.806,4.716,4.716,0,0,0,.173-1.77,10.018,10.018,0,0,0-.281-1.816.271.271,0,0,1,.082-.265,2.157,2.157,0,0,0,.513-2.381,10.089,10.089,0,0,0-.595-1.273l-.336-.655-.365-.587a22.074,22.074,0,0,0-3.969-4.1,102.154,102.154,0,0,0-9.317-6.941,38.026,38.026,0,0,0-4.937-2.89,1.122,1.122,0,0,1-.209-.072c-.138-.03-.329-.068-.488-.114-.293-.1-.489-.216-.738-.325-.443-.238-.878-.483-1.294-.745-.844-.512-1.659-1.054-2.473-1.6-3.25-2.18-6.4-4.487-9.5-6.866a.062.062,0,0,1,.072-.1Z" transform="translate(145.297 2180.469)"/>
    <path id="Path_2859" data-name="Path 2859" d="M302.614,241.584a80.946,80.946,0,0,1,6.159,6.388A76.5,76.5,0,0,1,314.221,255a.311.311,0,1,1-.513.352l-.008-.012a76.019,76.019,0,0,0-5.166-7.169,80.787,80.787,0,0,0-5.92-6.587Z" transform="translate(145.047 2180.254)"/>
    <path id="Path_2860" data-name="Path 2860" d="M308.942,240.228a157.721,157.721,0,0,1,10.7,11.753.311.311,0,1,1-.483.393l-.009-.012A157.436,157.436,0,0,0,308.942,240.228Z" transform="translate(144.988 2180.268)"/>
    <path id="Path_2861" data-name="Path 2861" d="M313.462,239.249q2.4,2.1,4.756,4.246l2.338,2.172c.769.741,1.536,1.469,2.256,2.3a.311.311,0,0,1-.469.409l-.009-.011-.008-.011c-.637-.808-1.374-1.585-2.1-2.353L318,243.72Q315.757,241.463,313.462,239.249Z" transform="translate(144.947 2180.278)"/>
    <path id="Path_2863" data-name="Path 2863" d="M388.346,216.107a33.944,33.944,0,0,1,6.381-1.381,16.017,16.017,0,0,1,3.295-.06,6.362,6.362,0,0,1,3.206,1.047.311.311,0,0,1-.368.5l-.016-.012a5.854,5.854,0,0,0-2.878-1.074,15.644,15.644,0,0,0-3.213-.093A33.791,33.791,0,0,0,388.346,216.107Z" transform="translate(144.262 2180.524)"/>
    <path id="Path_2864" data-name="Path 2864" d="M391.208,219.8a34.277,34.277,0,0,1,5.922-.754,15.987,15.987,0,0,1,3.011.184,4.665,4.665,0,0,1,2.807,1.353.311.311,0,0,1-.466.413l-.012-.014-.011-.014a4.168,4.168,0,0,0-2.413-1.282,15.609,15.609,0,0,0-2.916-.33,34.12,34.12,0,0,0-5.922.443Z" transform="translate(144.236 2180.48)"/>
    <path id="Path_2865" data-name="Path 2865" d="M392.263,223.8a23.588,23.588,0,0,1,6.127-.3,10.916,10.916,0,0,1,3.036.665,5.761,5.761,0,0,1,2.588,1.846.311.311,0,0,1-.5.373l-.008-.012,0-.007a5.228,5.228,0,0,0-2.255-1.769,10.527,10.527,0,0,0-2.895-.787,23.439,23.439,0,0,0-6.09-.01Z" transform="translate(144.227 2180.437)"/>
    <path id="Union_49" data-name="Union 49" d="M-8756.162,11.378c-.607-.012-1.213-.085-1.8-.136l-.059-.007a.278.278,0,0,1-.156-.065q-.75.026-1.5.05a.254.254,0,0,1-.273-.238l0-.017c-.08-1.97-.045-3.957.008-5.91s.139-3.884.242-5.728v0l5.193-.214c1.775-.039,3.574-.119,5.377-.112a.368.368,0,0,1,.377.349q.032,2.9-.02,5.808c-.021,1.936-.078,3.872-.152,5.808v.012a.177.177,0,0,1-.062.126.2.2,0,0,1-.143.049c-.852-.026-1.7-.048-2.555-.063q-1.333.181-2.678.252c-.477.019-.957.041-1.441.041C-8755.926,11.382-8756.045,11.381-8756.162,11.378Zm1.461-.789c.887.049,1.807.14,2.807.254l.736-.013-.264-1.687a3.407,3.407,0,0,0-.455-1.507,3.371,3.371,0,0,0-2.654-1.521,3.359,3.359,0,0,0-2.865,1.429,2.6,2.6,0,0,0-.408,1.635,14.513,14.513,0,0,0,.1,1.484c.465-.047.918-.1,1.371-.113.1,0,.2,0,.3,0C-8755.592,10.547-8755.148,10.57-8754.7,10.59Zm3.68-3.338a3.335,3.335,0,0,1,.234,1.965c-.062.582-.162,1.13-.25,1.611.566-.012,1.131-.027,1.7-.045-.074-1.875-.125-3.75-.143-5.626-.041-1.82-.045-3.639-.029-5.459-1.584,0-3.18-.073-4.787-.109l-5.352-.216c.1,2.028.193,3.974.238,5.888.051,1.834.084,3.636.018,5.456l1.162.041a14.722,14.722,0,0,0,.113-1.578,4.287,4.287,0,0,1,.279-1.837,3.522,3.522,0,0,1,1.723-1.786.383.383,0,0,1-.043-.024,1.916,1.916,0,0,1-.865-1.6,2.238,2.238,0,0,1,.754-1.693,2.2,2.2,0,0,1,1.824-.517,3.077,3.077,0,0,1,1.582.721,2.385,2.385,0,0,1,.869,1.49,1.67,1.67,0,0,1-.752,1.589.06.06,0,0,1-.012.007A3.537,3.537,0,0,1-8751.021,7.251Zm-3.426-5a1.969,1.969,0,0,0-1.1.6,1.746,1.746,0,0,0-.361,1.072,2.512,2.512,0,0,0,.25,1.165,1.263,1.263,0,0,0,.146.227,3.923,3.923,0,0,1,1.049-.157,3.919,3.919,0,0,1,1.105.141,1.3,1.3,0,0,0,.129-.2,4.18,4.18,0,0,0,.365-1.174,1.523,1.523,0,0,0-.246-1.276,1.418,1.418,0,0,0-1.029-.434A1.418,1.418,0,0,0-8754.447,2.256Z" transform="matrix(1, 0.017, -0.017, 1, 9280.746, 2481.797)" fill="#7595ec"/>
    <path id="Path_2870" data-name="Path 2870" d="M320.8,203c4.557-2.9,9.166-5.72,13.791-8.51a.272.272,0,0,1,.18-.034c4.279.658,8.543,1.412,12.8,2.177s8.535,1.461,12.816,2.1l12.843,1.937c4.276.676,8.558,1.318,12.827,2.035a.323.323,0,0,1,.266.371.326.326,0,0,1-.125.206q-4.755,3.571-9.578,7.051l-4.805,3.5-4.836,3.462a.031.031,0,0,1-.037-.05l4.686-3.663,4.717-3.622q4.709-3.632,9.467-7.2l.142.576c-4.277-.668-8.543-1.41-12.814-2.119l-12.8-2.217c-4.266-.741-8.538-1.441-12.825-2.05s-8.569-1.25-12.837-1.977l.179-.034c-4.65,2.748-9.315,5.471-14.032,8.105A.031.031,0,1,1,320.8,203Z" transform="translate(144.879 2180.719)" fill="#ff6d66"/>
    <path id="Path_2871" data-name="Path 2871" d="M326.376,208.851c2.62.67,5.221,1.406,7.818,2.152l7.77,2.31,7.727,2.448c2.568.841,5.133,1.691,7.678,2.608-2.621-.67-5.221-1.405-7.818-2.151l-7.769-2.311-7.727-2.449C331.486,210.618,328.921,209.767,326.376,208.851Z" transform="translate(144.828 2180.579)" fill="#ff6d66"/>
    <path id="Path_2872" data-name="Path 2872" d="M415.289,197.583a22.428,22.428,0,0,1,4.742-.138,11.945,11.945,0,0,1,4.678,1.2,5.421,5.421,0,0,1,1.92,1.672,4.608,4.608,0,0,1,.792,2.478,7.585,7.585,0,0,1-.377,2.5,6.32,6.32,0,0,1-1.182,2.274,6.753,6.753,0,0,1-1.969,1.646,13.941,13.941,0,0,1-2.225,1.035,14.916,14.916,0,0,1-4.787.932,16.089,16.089,0,0,1-4.776-.622,8.646,8.646,0,0,0-4.588-.14,5.1,5.1,0,0,1,2.3-.617,12.086,12.086,0,0,1,2.406.084,18.076,18.076,0,0,0,4.6.233,15.847,15.847,0,0,0,4.415-1.008,15.206,15.206,0,0,0,2.042-.971,5.521,5.521,0,0,0,1.653-1.335,5.67,5.67,0,0,0,1.038-1.857,6.512,6.512,0,0,0,.391-2.13,3.689,3.689,0,0,0-.531-1.982,4.608,4.608,0,0,0-1.54-1.469,12.341,12.341,0,0,0-4.319-1.446,27.647,27.647,0,0,0-4.683-.343Z" transform="translate(144.088 2180.692)"/>
    <path id="Path_2873" data-name="Path 2873" d="M408.8,214.755s-.267,8.74-4.914,13.99a3.154,3.154,0,0,0-.068-2.681c.746-1.791-1.045-5.375-1.045-5.375,1.045-2.389-1.642-4.777-1.642-4.777s1.642-3.434-2.687-4.628C398.441,211.284,410.272,205.76,408.8,214.755Z" transform="translate(144.172 2180.569)" fill="#7595ec"/>
    <path id="Path_2866" data-name="Path 2866" d="M359.82,123.274v60.015l83.306,7.39V123.274Zm74.124,58.448-65.615-5.375V131.336l65.615-.672Z" transform="translate(144.523 2181.431)" fill="#c6cbcb" stroke="#000" stroke-width="0.5"/>
    <path id="Path_2874" data-name="Path 2874" d="M433.421,279.859a.389.389,0,0,1-.124-.019l-80.073-26.477a.4.4,0,1,1,.249-.753l79.9,26.422,102.884-58.844v-4.72l-190.81-34.8L314.2,192.719a.4.4,0,0,1-.285-.739l31.352-12.092a.435.435,0,0,1,.214-.02l191.245,34.878a.4.4,0,0,1,.325.39v5.281a.394.394,0,0,1-.2.344L433.619,279.806a.4.4,0,0,1-.2.053Z" transform="translate(144.945 2180.846)"/>
    <path id="Path_2868" data-name="Path 2868" d="M373.389,135.365c.152,3.568.255,7.042.346,10.488s.152,6.849.191,10.241-.013,6.742-.124,10.112c-.093,3.37-.23,3.772-.24,7.184l-.223-.225c2.005.028,54.634,3.868,56.639,3.825l-.39.393c-.111-3.423-.192-7.843-.244-11.266l-.115-10.268q-.038-5.134.027-10.268l.188-10.268.534.538Zm-.1-.1,56.689-.487a.517.517,0,0,1,.534.5v.038l.188,10.268q.06,5.134.027,10.268l-.115,10.268c-.056,3.422-.137,7.843-.244,11.266v.021a.383.383,0,0,1-.39.372c-2.005-.043-54.634-4.189-56.639-4.161a.221.221,0,0,1-.223-.219v-.006c-.01-3.433-.147-3.887-.24-7.362-.11-3.475-.163-6.968-.124-10.423s.086-6.9.191-10.294.194-6.769.346-10.047Z" transform="translate(143.262 2181.225)" fill="#7595ec"/>
    <path id="Path_2869" data-name="Path 2869" d="M407.316,193.937v-5.873l-9.181-.814v5.766c-5.576.15-9.73,1.68-9.949,3.936-.275,2.831,5.747,5.732,13.451,6.48s14.171-.942,14.445-3.773C416.3,197.436,412.631,195.17,407.316,193.937Z" transform="translate(144.266 2180.792)" fill="#c6cbcb"/>
    <path id="Path_2875" data-name="Path 2875" d="M433.512,275.169a.311.311,0,0,1-.094-.015l-85.1-26.923a.311.311,0,1,1,.188-.592l84.967,26.881,103.342-59.332a.311.311,0,1,1,.31.54l-103.46,59.4a.313.313,0,0,1-.156.041Z" transform="translate(144.631 2180.502)"/>
    <path id="Path_2876" data-name="Path 2876" d="M434.521,280.644a.31.31,0,0,1-.31-.3l-.224-4.926a.311.311,0,0,1,.3-.325.322.322,0,0,1,.325.3l.224,4.926a.311.311,0,0,1-.3.325Z" transform="translate(143.846 2179.925)"/>
    <path id="Path_2877" data-name="Path 2877" d="M434.539,278.919l.622,38.04.467,38.04c.168,12.68.515,25.36.311,38.04-.112,6.34-.224,12.68-.471,19.02l-.374,9.51c-.187,3.17-.315,6.34-.554,9.51a.156.156,0,0,1-.311,0c-.239-3.17-.367-6.34-.554-9.51l-.374-9.51c-.247-6.34-.359-12.68-.471-19.02-.2-12.68.143-25.36.311-38.04l.467-38.04.622-38.04a.155.155,0,1,1,.311,0Z" transform="translate(143.857 2179.777)"/>
    <path id="Path_2878" data-name="Path 2878" d="M530.72,226.215l.622,38.04.466,38.04c.168,12.68.515,25.36.311,38.04-.112,6.34-.224,12.68-.471,19.02l-.374,9.51c-.187,3.17-.315,6.34-.554,9.51a.156.156,0,0,1-.311,0c-.239-3.17-.367-6.34-.554-9.51l-.374-9.51c-.247-6.34-.359-12.68-.471-19.02-.2-12.68.143-25.36.311-38.04l.467-38.04.622-38.04a.155.155,0,1,1,.311,0Z" transform="translate(142.977 2180.335)"/>
    <path id="Path_2879" data-name="Path 2879" d="M370.782,331.685s7.114.593,31.554,17.373a19.749,19.749,0,0,0,13.734,3.42,13.819,13.819,0,0,0,3.755-.963s18.587,4.8,2.015,7.939c0,0-23.738.672-41.429-12.317l.224,7.166h-8.958S367.646,335.716,370.782,331.685Z" transform="translate(144.434 2179.352)" fill="#f9865f"/>
    <path id="Path_2880" data-name="Path 2880" d="M378.466,304.135c1.374,2.314,2.678,4.666,4.019,7l3.9,7.058c1.317,2.343,2.554,4.735,3.83,7.093a36.965,36.965,0,0,0,4.5,6.52,38.1,38.1,0,0,0,2.7,2.9c.948.913,1.973,1.778,2.987,2.66,2.024,1.761,4.1,3.458,6.155,5.182,2.067,1.708,4.169,3.373,6.345,4.933,1.078.794,2.182,1.551,3.327,2.241l.868.5.9.442a6.605,6.605,0,0,0,1.9.6,9.623,9.623,0,0,1-3.829-1.255c-1.2-.616-2.371-1.3-3.511-2.026-2.265-1.471-4.446-3.061-6.6-4.687s-4.225-3.347-6.295-5.07c-1.025-.868-2.069-1.722-3.071-2.66a35.43,35.43,0,0,1-7.382-9.75c-1.234-2.4-2.49-4.767-3.676-7.182l-3.6-7.219C380.789,308.987,379.593,306.579,378.466,304.135Z" transform="translate(144.354 2179.615)"/>
    <path id="Path_2881" data-name="Path 2881" d="M361.874,320.736a35.235,35.235,0,0,1,4.9,5.032,34.839,34.839,0,0,1,3.936,5.817,34.827,34.827,0,0,1-4.9-5.032A35.242,35.242,0,0,1,361.874,320.736Z" transform="translate(144.504 2179.471)"/>
    <path id="Path_2882" data-name="Path 2882" d="M319.233,386.683s7.13-.36,33.586,13.017a19.75,19.75,0,0,0,14.068,1.561,13.82,13.82,0,0,0,3.593-1.455s19.061,2.287,3.055,7.6c0,0-23.437,3.826-42.7-6.691l1.176,7.072-8.878,1.193S316.662,391.1,319.233,386.683Z" transform="translate(144.9 2178.791)" fill="#f9865f"/>
    <path id="Path_2883" data-name="Path 2883" d="M334.387,364.37c.588,2.19,1.1,4.395,1.648,6.592l.762,3.309a14.148,14.148,0,0,0,1,3.139,12.476,12.476,0,0,0,1.741,2.734c.716.833,1.5,1.646,2.3,2.416a37.924,37.924,0,0,0,5.175,4.208c3.748,2.484,7.57,4.917,11.422,7.255,1.929,1.168,3.884,2.295,5.889,3.316a32.433,32.433,0,0,0,3.049,1.443,9.03,9.03,0,0,0,3.249.821,8.19,8.19,0,0,1-3.359-.51,32.838,32.838,0,0,1-3.2-1.2c-2.082-.921-4.1-1.962-6.1-3.037-4-2.164-7.835-4.565-11.646-7.057a37.588,37.588,0,0,1-5.3-4.4c-.809-.821-1.577-1.66-2.313-2.563a11.885,11.885,0,0,1-1.775-3.046,15.04,15.04,0,0,1-.9-3.362l-.589-3.344C335.091,368.845,334.7,366.615,334.387,364.37Z" transform="translate(144.756 2178.995)"/>
    <path id="Path_2884" data-name="Path 2884" d="M318.626,369.889a49.7,49.7,0,0,1,.923,8.3,49.137,49.137,0,0,1-.319,8.343,49.132,49.132,0,0,1-.923-8.3,49.7,49.7,0,0,1,.319-8.343Z" transform="translate(144.902 2178.944)"/>
    <path id="Path_2885" data-name="Path 2885" d="M297.785,146.366a7.128,7.128,0,0,1-3.7-.632,4.035,4.035,0,0,1-1.539-1.194,2.507,2.507,0,0,1-.514-1.834,3.821,3.821,0,0,0,2.322,2.467A23.377,23.377,0,0,0,297.785,146.366Z" transform="translate(145.145 2181.253)"/>
    <path id="Path_2888" data-name="Path 2888" d="M419.651,157.58a1.5,1.5,0,1,0-1.5-1.5,1.526,1.526,0,0,0,1.5,1.5Z" transform="translate(100.848 2164.42)" fill="#7595ec"/>
    <path id="Path_3092" data-name="Path 3092" d="M419.651,157.58a1.5,1.5,0,1,0-1.5-1.5,1.526,1.526,0,0,0,1.5,1.5Z" transform="translate(105.848 2164.42)" fill="#7595ec"/>
    <path id="Path_3093" data-name="Path 3093" d="M419.651,157.58a1.5,1.5,0,1,0-1.5-1.5,1.526,1.526,0,0,0,1.5,1.5Z" transform="translate(110.848 2164.42)" fill="#7595ec"/>
    <rect id="Rectangle_247" data-name="Rectangle 247" width="0.99" height="0.991" transform="translate(479.846 2380.409) rotate(-80.045)" fill="#ff6d66"/>
    <path id="Path_2910" data-name="Path 2910" d="M371.072,206.021l-1.943-.34.17-.975,1.943.34Zm-3.887-.679-1.943-.34.17-.975,1.943.34Zm-3.886-.679-1.943-.34.17-.975,1.943.34Zm-3.887-.679-1.943-.341.171-.975,1.943.341Zm-3.886-.68-1.943-.34.17-.975,1.943.34Zm-3.886-.679-1.943-.34.17-.975,1.943.34Zm-3.887-.679-1.943-.34.17-.975,1.943.34Zm-3.886-.68-1.943-.34.17-.975,1.943.34Zm-3.886-.679-1.943-.34.17-.975,1.943.34Z" transform="translate(144.723 2180.675)" fill="#ff6d66"/>
    <rect id="Rectangle_248" data-name="Rectangle 248" width="0.99" height="0.991" transform="translate(517.74 2387.03) rotate(-80.045)" fill="#ff6d66"/>
    <rect id="Rectangle_249" data-name="Rectangle 249" width="0.991" height="0.991" transform="matrix(0.209, -0.978, 0.978, 0.209, 476.613, 2383.803)" fill="#ff6d66"/>
    <path id="Path_2911" data-name="Path 2911" d="M366.816,210.608l-1.888-.4.207-.97,1.888.4Zm-3.775-.8-1.888-.4.206-.97,1.888.4ZM359.265,209l-1.888-.4.206-.97,1.888.4Zm-3.777-.8-1.888-.4.207-.97,1.888.4Zm-3.776-.805-1.888-.4.206-.97,1.888.4Zm-3.776-.8-1.888-.4.206-.97,1.888.4Zm-3.777-.8-1.888-.4.207-.97,1.888.4Zm-3.776-.805-1.888-.4.207-.97,1.888.4Zm-3.776-.8-1.888-.4.207-.97,1.888.4Z" transform="translate(144.754 2180.639)" fill="#ff6d66"/>
    <rect id="Rectangle_250" data-name="Rectangle 250" width="0.991" height="0.991" transform="matrix(0.209, -0.978, 0.978, 0.209, 513.457, 2391.646)" fill="#ff6d66"/>
    <path id="Path_2912" data-name="Path 2912" d="M335.125,207.95a23.083,23.083,0,0,1,5,.843,22.825,22.825,0,0,1,4.741,1.8,22.831,22.831,0,0,1-5-.843,23.089,23.089,0,0,1-4.741-1.8Z" transform="translate(144.75 2180.59)" fill="#ff6d66"/>
    <path id="Path_3094" data-name="Path 3094" d="M430.288,135.263l-56.922-.487c-2.506,1.3,55.892,1.674,56.921.488Z" transform="translate(143.711 2189.224)" fill="#7595ec"/>
    <path id="Path_3095" data-name="Path 3095" d="M433.288,135.181l-29.825-.405c-2.789,1.078,28.679,1.392,29.824.406Z" transform="translate(134.711 2193.224)" fill="#7595ec"/>
    <path id="Path_3098" data-name="Path 3098" d="M433.288,135.181l-29.825-.405c-2.789,1.078,28.679,1.392,29.824.406Z" transform="translate(134.711 2201.224)" fill="#7595ec"/>
    <path id="Path_3096" data-name="Path 3096" d="M433.288,135.181l-29.825-.405c-2.789,1.078,28.679,1.392,29.824.406Z" transform="translate(134.711 2197.224)" fill="#7595ec"/>
    <path id="Path_3097" data-name="Path 3097" d="M433.288,135.181l-29.825-.405c-2.789,1.078,28.679,1.392,29.824.406Z" transform="translate(134.711 2205.224)" fill="#7595ec"/>
    <path id="Path_3099" data-name="Path 3099" d="M433.288,135.181l-45.825-.405c-2.789,1.078,44.679,1.392,45.824.406Z" transform="matrix(1, 0.017, -0.017, 1, 137.137, 2202.084)" fill="#7595ec"/>
    <path id="Path_3100" data-name="Path 3100" d="M433.288,135.181l-45.825-.405c-2.789,1.078,44.679,1.392,45.824.406Z" transform="matrix(0.999, 0.035, -0.035, 0.999, 139.684, 2198.987)" fill="#7595ec"/>
    <path id="Path_3101" data-name="Path 3101" d="M433.288,135.181l-45.825-.405c-2.789,1.078,44.679,1.392,45.824.406Z" transform="translate(142.355 2196.336) rotate(3)" fill="#7595ec"/>
    <path id="Path_2862" data-name="Path 2862" d="M294.828,215.442a20.847,20.847,0,0,0,2.664,2.75q1.431,1.3,2.9,2.554l5.93,4.97c3.962,3.3,8.012,6.51,12.015,9.759l.056.05.013.013a28.253,28.253,0,0,0,5.893,4.7,23.906,23.906,0,0,0,6.97,2.712,25.16,25.16,0,0,0,14.759-1.243c2.294-.937,4.611-2.277,6.974-3.347,2.347-1.135,4.752-2.151,7.167-3.133,2.43-.949,4.89-1.819,7.387-2.576A40.914,40.914,0,0,1,375.234,231a.237.237,0,0,1,.093.01l.011,0A23.46,23.46,0,0,0,382.4,232.2a15.032,15.032,0,0,0,6.89-1.515,25.793,25.793,0,0,0,3.052-1.926,6.422,6.422,0,0,1,3.824-.559,20.754,20.754,0,0,1,3.659.726,4.731,4.731,0,0,0,.8.2,1.922,1.922,0,0,0,.7-.044,1.969,1.969,0,0,0,1.076-.763l.249-.233a.516.516,0,0,0-.128.089.574.574,0,0,0-.18.327.6.6,0,0,0,.16.525l-.088-.729a1.743,1.743,0,0,0,.175-.992,3.216,3.216,0,0,0-.109-.564,3.285,3.285,0,0,0-.2-.527.64.64,0,0,1-.033-.5l.014-.04a4.247,4.247,0,0,0-.149-2.329,14.62,14.62,0,0,0-.964-2.461.756.756,0,0,1-.033-.588l.017-.047a2.449,2.449,0,0,0,.159-.973,3.361,3.361,0,0,0-.273-1.03,5.18,5.18,0,0,0-.6-1,6.4,6.4,0,0,0-.783-.87.816.816,0,0,1-.212-.91l.019-.047a2.6,2.6,0,0,0,.037-1.914,2.65,2.65,0,0,0-1.493-1.263,10.143,10.143,0,0,0-4.811-.309,56.514,56.514,0,0,0-10.16,2.389l-.008,0a1,1,0,0,1-.343.046c-3.084-.129-6.2,1.234-9.421,2.239-1.626.506-3.162,1.075-4.953,1.452-1.718.359-3.4.541-5.1.736-6.764.63-13.5.848-20.247.927l-2.529.024-1.264.007-.632,0c-.22,0-.477-.007-.713-.028a6.481,6.481,0,0,1-3.871-1.765c-.355-.351-.6-.624-.9-.94l-6.9-7.376q-6.89-7.382-13.679-14.862a.1.1,0,0,1,.142-.138q7.263,7.021,14.407,14.157l7.148,7.133c.286.284.615.63.866.864a4.849,4.849,0,0,0,2.921,1.249c.335.025.747,0,1.178-.01l1.259-.038,2.518-.085c6.709-.278,13.435-.54,20.07-1.234,1.648-.187,3.313-.367,4.892-.7,1.507-.306,3.146-.89,4.73-1.385,1.6-.512,3.191-1.046,4.861-1.51a16.455,16.455,0,0,1,5.294-.7l-.35.049c1.74-.542,3.462-1,5.223-1.407a45.005,45.005,0,0,1,5.361-.927,19.9,19.9,0,0,1,2.793-.1,8.278,8.278,0,0,1,2.9.628,4.339,4.339,0,0,1,2.36,2.216,3.788,3.788,0,0,1,.265,1.671,4.515,4.515,0,0,1-.391,1.6l-.193-.957a7.834,7.834,0,0,1,.99,1.145,6.735,6.735,0,0,1,.747,1.323,4.877,4.877,0,0,1,.365,1.566,3.948,3.948,0,0,1-.314,1.65l-.016-.634a14.914,14.914,0,0,1,.985,2.779,7.9,7.9,0,0,1,.233,1.509,3.806,3.806,0,0,1-.24,1.672l-.019-.542a4.585,4.585,0,0,1,.393,1.588,2.96,2.96,0,0,1-.39,1.691l-.088-.729a.617.617,0,0,1,.165.536.6.6,0,0,1-.187.338.614.614,0,0,1-.15.1l.249-.232a2.355,2.355,0,0,1-.831.815,3.668,3.668,0,0,1-1.019.444,3.044,3.044,0,0,1-1.11.032,5.853,5.853,0,0,1-.96-.265,19.763,19.763,0,0,0-3.454-.8,5.64,5.64,0,0,0-3.285.331,27.417,27.417,0,0,1-3.162,1.862,15.732,15.732,0,0,1-7.221,1.507,26.077,26.077,0,0,1-7.242-1.266l.1.014a36.26,36.26,0,0,0-7.49,1.734c-2.457.792-4.857,1.757-7.224,2.789-2.354,1.065-4.692,2.164-6.976,3.375-2.325,1.158-4.462,2.521-6.932,3.648a25.269,25.269,0,0,1-15.754,1.528,25.642,25.642,0,0,1-7.448-2.98,28.571,28.571,0,0,1-6.155-5.08l.068.063c-3.974-3.312-7.851-6.729-11.719-10.162q-2.906-2.568-5.7-5.263-1.4-1.339-2.766-2.727c-.444-.475-.9-.931-1.322-1.43l-.63-.745c-.2-.264-.373-.549-.558-.82a.1.1,0,1,1,.162-.112Z" transform="translate(145.119 2180.711)"/>
    <g id="Group_265" data-name="Group 265" transform="translate(10 48)">
      <ellipse id="Ellipse_51" data-name="Ellipse 51" cx="23" cy="12" rx="23" ry="12" transform="translate(313 2283)" fill="#7595ec"/>
      <path id="Union_72" data-name="Union 72" d="M17872.355,1923c-.736-.027-1.479-.023-2.213-.032-.051-.045-.094-.091-.143-.141q.967-5.106,1.926-10.212c.115-.6.254-1.2.338-1.808.053-.376.219-.5.566-.5.59,0,1.193,0,1.787-.009,1.168-.009,2.34-.023,3.5.059,2.672.172,3.865,1.822,3.447,4.546a5.41,5.41,0,0,1-5.451,4.818c-.693,0-1.385.027-2.072-.009-.471-.027-.686.113-.746.625-.094.73-.289,1.446-.391,2.176-.047.358-.18.486-.5.486Zm2.707-5.647a5.146,5.146,0,0,0,1.639-.15,3.076,3.076,0,0,0,1.877-3.359c-.131-.843-.818-1.2-2.318-1.2-.049,0-.1,0-.146,0-.311,0-.617.009-.93,0-.293-.014-.416.113-.459.417-.2,1.314-.414,2.624-.637,3.934-.043.258.014.372.273.358.1,0,.2-.005.295-.005C17874.789,1917.348,17874.924,1917.351,17875.063,1917.353Zm15.41,5.6a.1.1,0,0,1,.1-.014.1.1,0,0,0-.1.009c-.2-.077-.119-.231-.1-.367q.835-4.317,1.672-8.63c.021-.086.047-.168.074-.254.068-.408.139-.816.209-1.228.023-.082.049-.168.07-.249.027-.163.049-.326.07-.49,0,0,0-.008,0-.012a.465.465,0,0,1,.09-.368c.018-.122.035-.24.055-.358a.463.463,0,0,1,.09-.385l.01-.063a.2.2,0,0,1,.17-.2c1.865-.036,3.719-.073,5.584.018l.441.041c2.408.308,3.479,2.035,2.961,4.786a5.367,5.367,0,0,1-5.307,4.537c-.76,0-1.521.023-2.279-.009-.395-.018-.541.141-.605.517-.154.87-.334,1.731-.5,2.6l-.133.136c-.814,0-1.625,0-2.437,0l-.07.009Zm.115,0-.012-.006Zm4.781-5.6a4.43,4.43,0,0,0,2.105-.3,3.277,3.277,0,0,0,1.438-3.272c-.148-.784-.818-1.129-2.215-1.133h-.209c-.311,0-.617.009-.93,0-.24-.009-.422.054-.467.331-.209,1.333-.414,2.665-.627,3.993-.033.227,0,.395.273.385.09,0,.178-.005.268-.005C17895.127,1917.348,17895.248,1917.351,17895.369,1917.353Zm-3.039-4.881c.027-.082.049-.168.07-.249C17892.379,1912.3,17892.354,1912.39,17892.33,1912.472Zm6.363-1.988a.262.262,0,0,1-.17-.069A.262.262,0,0,0,17898.693,1910.484Zm.09-.016.035-.013Zm-5.738,12.5.133-.136c0,.088-.029.137-.111.137Zm-23.045-.141c.049.05.092.1.143.141h-.016C17870.039,1922.969,17869.994,1922.931,17870,1922.828Zm17.555-3.232c-.2-.267.092-.925.18-1.41.264-1.45.535-2.9.8-4.351.158-.852-.057-1.151-.891-1.183-.256-.014-.508-.009-.758,0-.32,0-.645.009-.961-.014-.482-.032-.654.163-.742.639-.354,1.958-.766,3.907-1.113,5.87-.084.471-.258.616-.7.589a11.709,11.709,0,0,0-1.643,0c-.533.041-.654-.141-.549-.671.408-2.021.789-4.052,1.18-6.078.346-1.813.719-3.617,1.039-5.434.078-.44.246-.567.654-.544a16.6,16.6,0,0,0,1.713,0c.488-.032.641.122.512.625-.152.621-.23,1.26-.371,1.881-.127.567-.043.852.627.816a11.618,11.618,0,0,1,2.57.059,2.725,2.725,0,0,1,2.328,1.482,2.311,2.311,0,0,1,.127,1.373c-.32,1.84-.666,3.68-.908,5.534-.1.775-.35,1.092-1.105.952a4.312,4.312,0,0,0-.648,0,1.942,1.942,0,0,0-.5.023,3.148,3.148,0,0,1-.377.032A.528.528,0,0,1,17887.555,1919.6Z" transform="translate(-17550 378.998)" fill="#fff"/>
    </g>
    <path id="Union_73" data-name="Union 73" d="M17880.164,1941.792c-.527-1.647-1.068-3.294-1.605-4.937-.25-.763-.5-1.521-.768-2.351-.059.153-.1.248-.131.347-.764,2.288-1.52,4.571-2.283,6.854-.041.122-.023.289-.23.289s-.207-.158-.244-.28q-1.312-4.021-2.619-8.037a9.655,9.655,0,0,0-.4-.993,1.611,1.611,0,0,0-1.537-.975c-.115,0-.223-.009-.35-.018v-.433h5.268v.424c-.248.022-.484.031-.709.072-.648.113-.889.447-.742,1.088.1.451.246.889.387,1.327.428,1.313.863,2.626,1.295,3.939.027.081.059.162.1.3.059-.153.1-.257.135-.361q1.1-3.276,2.2-6.552c.055-.162.107-.266.316-.257a.274.274,0,0,1,.293.221c.41,1.273.83,2.541,1.256,3.813.311.952.621,1.9.939,2.852.021.072.053.14.094.257.045-.095.082-.149.1-.208q.806-2.4,1.615-4.8a4.231,4.231,0,0,0,.162-.686.708.708,0,0,0-.617-.911c-.27-.054-.551-.068-.844-.1v-.42h4.436v.424c-.238.022-.488.041-.736.072a1.412,1.412,0,0,0-1.182.839c-.293.654-.551,1.331-.779,2.013-.8,2.383-1.6,4.765-2.395,7.148-.027.086-.076.2-.145.226a.247.247,0,0,1-.09.019C17880.268,1942,17880.207,1941.922,17880.164,1941.792Zm59.74.081v-3.222c.4-.077.4-.077.486.293a2.573,2.573,0,0,0,2.387,2.157,2.09,2.09,0,0,0,.971-.135,1.029,1.029,0,0,0,.4-1.706,4.191,4.191,0,0,0-1.029-.74c-.586-.325-1.217-.564-1.8-.9a3.631,3.631,0,0,1-.988-.83,2.051,2.051,0,0,1,1.088-3.281,3.039,3.039,0,0,1,2.727.356c.041.027.086.05.162.1.068-.122.141-.225.189-.338.145-.338.141-.338.527-.271v2.744h-.424a10.1,10.1,0,0,0-.414-1.06,1.859,1.859,0,0,0-2.234-.88.991.991,0,0,0-.75.758.925.925,0,0,0,.465.979,10.181,10.181,0,0,0,1.02.578c.535.275,1.084.519,1.613.8a2.515,2.515,0,0,1,1.381,1.557,2.335,2.335,0,0,1-1.256,2.671,3.247,3.247,0,0,1-3.461-.226c-.09-.054-.176-.117-.293-.2a2.681,2.681,0,0,0-.277.533c-.053.2-.145.3-.307.3A.619.619,0,0,1,17939.9,1941.873Zm7.225,0v-3.235h.426c.059.217.1.447.18.668a2.581,2.581,0,0,0,2.92,1.778,1.149,1.149,0,0,0,.984-.821,1.053,1.053,0,0,0-.42-1.182,7.773,7.773,0,0,0-1.078-.672c-.535-.284-1.094-.505-1.617-.8a2.425,2.425,0,0,1-1.408-2.031,2.137,2.137,0,0,1,1.738-2.125,3.065,3.065,0,0,1,2.545.42c.037.027.078.045.113.068,0,0,.014,0,.059,0a3.309,3.309,0,0,0,.176-.325c.139-.316.135-.316.516-.271v2.744c-.439.072-.439.072-.539-.325a1.957,1.957,0,0,0-2.066-1.688,1.846,1.846,0,0,0-.779.244.851.851,0,0,0-.158,1.4,3.408,3.408,0,0,0,.789.542c.6.316,1.219.6,1.828.9a4.909,4.909,0,0,1,.563.32,2.265,2.265,0,0,1-.207,4,3.226,3.226,0,0,1-3.506-.221c-.076-.05-.154-.1-.275-.185a2.309,2.309,0,0,0-.275.532c-.045.219-.148.293-.3.293A.852.852,0,0,1,17947.129,1941.873Zm-62.41-2.383a3.886,3.886,0,0,1,.895-4.905,5.144,5.144,0,0,1,6.914.158,3.957,3.957,0,0,1-.262,5.97,5.244,5.244,0,0,1-3.426,1.187A4.713,4.713,0,0,1,17884.719,1939.491Zm1.838-4.043a4.365,4.365,0,0,0,0,4.323,2.855,2.855,0,0,0,4.961-.144,4.46,4.46,0,0,0,.066-3.912,2.592,2.592,0,0,0-2.441-1.661h-.02A2.627,2.627,0,0,0,17886.557,1935.447Zm41.662,5.947c-.768-.975-1.549-1.931-2.311-2.906a.5.5,0,0,0-.615-.2,8.953,8.953,0,0,0,.131,2.188c.135.483.529.614.967.659.145.014.293.014.451.018v.42h-4.713v-.406c.223-.023.443-.041.664-.072a.86.86,0,0,0,.781-.785,5.175,5.175,0,0,0,.086-.885c0-1.376-.014-2.753-.027-4.129v-.077c-.059-.785-.357-1.083-1.146-1.142-.107-.009-.221,0-.357,0v-.415a1.069,1.069,0,0,1,.15-.023c1.5,0,3,0,4.5.023a3.448,3.448,0,0,1,1.646.451,2.042,2.042,0,0,1,.121,3.569,9.3,9.3,0,0,1-1.227.564.976.976,0,0,0,.117.144c.609.636,1.205,1.286,1.834,1.9a3.1,3.1,0,0,0,1.578.821,1.042,1.042,0,0,0,1.344-.907,3.538,3.538,0,0,0,.059-.623c.006-1.327.006-2.649,0-3.975a3.386,3.386,0,0,0-.072-.672.872.872,0,0,0-.867-.821c-.189-.027-.383-.036-.6-.059v-.4c.109,0,.213-.014.313-.014,2.125,0,4.252,0,6.377-.009.252,0,.348.054.352.325.018.618.086,1.236.131,1.85-.3.1-.352.081-.428-.194-.023-.081-.045-.167-.062-.248a1.12,1.12,0,0,0-1.066-.957c-.8-.059-1.6-.072-2.41-.108-.014.117-.027.185-.027.253,0,.749.006,1.5-.008,2.247,0,.185.059.253.242.235.33-.027.664-.023.99-.072.553-.081.725-.275.793-.83.018-.153.018-.311.027-.46.389-.1.424-.077.424.293v2.847c0,.388-.014.4-.416.325-.018-.2-.031-.411-.062-.614a.688.688,0,0,0-.645-.677c-.43-.063-.867-.077-1.309-.108a1.035,1.035,0,0,0-.037.208c.027.695.023,1.394.1,2.085a.777.777,0,0,0,.844.79,19.02,19.02,0,0,0,2.029-.05,1.053,1.053,0,0,0,.99-.862c.027-.1.059-.2.084-.3.072-.257.072-.257.408-.23-.045.727-.092,1.448-.137,2.216h-.289q-4.635,0-9.279,0A.468.468,0,0,1,17928.219,1941.395Zm-2.473-7.067c-.145,0-.295.009-.439.009v3.195h.939a1.466,1.466,0,0,0,1.605-1.534,1.5,1.5,0,0,0-.941-1.561,2.38,2.38,0,0,0-.811-.116C17925.982,1934.32,17925.863,1934.324,17925.746,1934.328Zm-25.441,7.062c-.768-.97-1.551-1.931-2.311-2.906a.5.5,0,0,0-.615-.194,8.522,8.522,0,0,0,.135,2.188c.135.483.529.609.967.654.145.014.293.014.445.018v.42h-4.717v-.42l.377-.014a1.021,1.021,0,0,0,1.119-1.078c.031-.339.049-.677.049-1.015,0-1.245,0-2.5-.039-3.736-.037-.934-.354-1.2-1.289-1.236l-.225-.014v-.384a.761.761,0,0,1,.17-.036c1.52,0,3.035,0,4.551.027a3.236,3.236,0,0,1,1.793.578,2.034,2.034,0,0,1,.152,3.276,3.054,3.054,0,0,1-1.309.623c-.059.013-.113.036-.2.063.189.208.348.4.523.573.6.6,1.168,1.227,1.814,1.764a2.478,2.478,0,0,0,2.182.546.845.845,0,0,0,.721-.695,5.9,5.9,0,0,0,.1-.961q.012-1.841,0-3.682a5.01,5.01,0,0,0-.086-.857.851.851,0,0,0-.844-.781c-.2-.031-.4-.041-.609-.063v-.388a1.963,1.963,0,0,1,.238-.023c1.518,0,3.035,0,4.551.023a5.127,5.127,0,0,1,2.566.686,3.572,3.572,0,0,1,1.779,3.633,3.722,3.722,0,0,1-3.33,3.448,9.742,9.742,0,0,1-1.736.153c-1.271.009-2.539.009-3.8.009q-1.354,0-2.707,0A.463.463,0,0,1,17900.3,1941.39Zm6.029-6.791q-.009,2.5,0,5.013a5.539,5.539,0,0,0,.035.6c.045.4.2.6.6.623a5.709,5.709,0,0,0,1.146-.022,2.38,2.38,0,0,0,2.117-1.751,4.853,4.853,0,0,0,.01-2.9,2.282,2.282,0,0,0-1.871-1.719c-.656-.108-1.334-.1-2.023-.149C17906.338,1934.446,17906.334,1934.522,17906.334,1934.6Zm-8.945,2.933h.969a1.493,1.493,0,0,0,1.57-1.769,1.425,1.425,0,0,0-.906-1.318,2.889,2.889,0,0,0-1.16-.117c-.158,0-.316.009-.473,0Zm15.4,4.043v-.429c.158-.014.32-.027.479-.045.885-.1,1.229-.438,1.318-1.327.045-.424.066-.848.072-1.277,0-1.638-.006-3.272-.018-4.91a4.122,4.122,0,0,0-.1-.776,1.183,1.183,0,0,0-1.271-1.1c-.154-.009-.312,0-.484,0v-.451c.059,0,.117-.018.178-.018,1.705,0,3.416-.009,5.121.014a3.969,3.969,0,0,1,2.221.654,2.608,2.608,0,0,1,1.215,2.522,2.652,2.652,0,0,1-1.584,2.234,5.222,5.222,0,0,1-2.338.465c-.408,0-.812,0-1.3,0,.049.961.045,1.877.154,2.78.1.835.428,1.088,1.268,1.187.162.018.326.027.5.045v.429Zm3.574-5.316c.543,0,1.057.031,1.566,0a1.757,1.757,0,0,0,1.705-1.521,2.648,2.648,0,0,0-.086-1.417,1.681,1.681,0,0,0-1.113-1.124,4.229,4.229,0,0,0-1.4-.117c-.221,0-.445.013-.668,0Zm-15.629-18.506a10.765,10.765,0,1,1,10.768,10.771A10.77,10.77,0,0,1,17900.732,1917.754Zm10.75-10.131a10.144,10.144,0,1,0,.025,0Zm-2.51,18.74c.891-2.586,1.771-5.144,2.65-7.7h.063c.916,2.509,1.832,5.022,2.764,7.567a9.108,9.108,0,0,1-2.941.5A9.27,9.27,0,0,1,17908.973,1926.364Zm-5.668-12.2c1.422,3.894,2.826,7.743,4.242,11.624A8.923,8.923,0,0,1,17903.3,1914.162Zm12.826,11.042,2.818-8.109a7.766,7.766,0,0,0,.449-3.479,8.881,8.881,0,0,1-3.344,11.845C17916.086,1925.362,17916.1,1925.281,17916.131,1925.2Zm-10.117-11.629c.328-.031.631-.058.928-.09.281-.031.436-.18.426-.4-.014-.239-.18-.365-.484-.352-.834.031-1.668.068-2.5.1-.1,0-.2,0-.32,0a8.89,8.89,0,0,1,13.412-1.719,1.533,1.533,0,0,0-1.182.582,1.637,1.637,0,0,0-.262,1.629,6.757,6.757,0,0,0,.561,1.146,6.56,6.56,0,0,1,.869,1.967,4.975,4.975,0,0,1-.176,2.5c-.4,1.367-.838,2.721-1.258,4.084a.427.427,0,0,1-.064.09c-1.068-3.186-2.135-6.349-3.209-9.544.326-.031.629-.058.93-.09.275-.031.436-.18.426-.4s-.182-.356-.484-.352c-1.213.018-2.432.041-3.654.054-.324,0-.66-.045-.988-.054a.355.355,0,0,0-.424.352c-.014.23.111.366.379.4a1.408,1.408,0,0,0,.359.041c.412-.045.588.135.719.523.352,1.056.754,2.094,1.129,3.141a.576.576,0,0,1,.021.348c-.609,1.855-1.232,3.709-1.855,5.568a.719.719,0,0,1-.049.131C17908.17,1919.992,17907.1,1916.8,17906.014,1913.575Z" transform="translate(-17271 428)" fill="#91ba83"/>
    <path id="logomark.min" d="M33.981,7.466A.494.494,0,0,1,34,7.6v7.083a.512.512,0,0,1-.275.448l-6.306,3.423v6.784a.513.513,0,0,1-.274.448L13.982,32.931a.609.609,0,0,1-.1.037c-.012,0-.024.011-.037.014a.584.584,0,0,1-.281,0c-.015,0-.029-.012-.043-.017a.59.59,0,0,1-.09-.035L.275,25.787A.513.513,0,0,1,0,25.339V4.089a.5.5,0,0,1,.019-.136c0-.015.014-.028.019-.043a.493.493,0,0,1,.035-.08.488.488,0,0,1,.038-.046.531.531,0,0,1,.049-.06.533.533,0,0,1,.054-.039.444.444,0,0,1,.06-.045h0L6.855.069a.578.578,0,0,1,.548,0l6.58,3.572h0a.668.668,0,0,1,.06.044.645.645,0,0,1,.053.039.61.61,0,0,1,.049.061.48.48,0,0,1,.037.046.523.523,0,0,1,.036.08c.005.015.015.028.019.044a.494.494,0,0,1,.019.135V17.362l5.483-2.977V7.6a.494.494,0,0,1,.019-.134c0-.015.014-.029.019-.044a.564.564,0,0,1,.036-.08c.01-.017.025-.03.037-.046a.536.536,0,0,1,.049-.06.524.524,0,0,1,.053-.039.55.55,0,0,1,.06-.045h0L26.6,3.58a.577.577,0,0,1,.548,0l6.58,3.572a.6.6,0,0,1,.062.044c.017.013.037.025.053.039a.609.609,0,0,1,.049.061.394.394,0,0,1,.037.046.5.5,0,0,1,.036.08.359.359,0,0,1,.019.044ZM32.9,14.385V8.495l-2.3,1.25-3.181,1.727v5.89L32.9,14.385ZM26.323,25.04V19.146l-3.129,1.685-8.936,4.808v5.95L26.323,25.04ZM1.1,4.983V25.04l12.064,6.548V25.64l-6.3-3.363h0a25.69,25.69,0,0,0-.111-.08v0a.5.5,0,0,1-.045-.054.557.557,0,0,1-.041-.05v0a.4.4,0,0,1-.029-.065.37.37,0,0,1-.026-.058h0a.468.468,0,0,1-.011-.076.424.424,0,0,1-.008-.058h0V7.96L3.4,6.233,1.1,4.984Zm6.033-3.87L1.647,4.089,7.128,7.065,12.61,4.089,7.128,1.114Zm2.851,18.57,3.181-1.726V4.983l-2.3,1.25L7.677,7.96V20.934l2.3-1.25ZM26.871,4.625,21.389,7.6l5.482,2.976L32.353,7.6,26.871,4.625Zm-.548,6.846L23.141,9.745l-2.3-1.25v5.89l3.181,1.726,2.3,1.25v-5.89ZM13.708,24.745l8.041-4.328,4.019-2.163-5.478-2.974L13.984,18.7l-5.748,3.12,5.473,2.921Z" transform="translate(461 2304)" fill="#ff6d66" fill-rule="evenodd"/>
  </g>
</svg>
