<svg xmlns="http://www.w3.org/2000/svg" width="365.611" height="312" viewBox="0 0 365.611 312">
  <g id="Group_273" data-name="Group 273" transform="translate(-1236.688 -2299)">
    <g id="Group_255" data-name="Group 255">
      <path id="Path_2975" data-name="Path 2975" d="M411.065,261.981l21.907,9.163c-1.135.311-2.253.664-3.379.992l-3.337,1.076c-2.228.715-4.439,1.5-6.641,2.278-2.2.8-4.4,1.6-6.582,2.463-2.144.841-4.3,1.7-6.406,2.631-1.177-7.549-2.942-15.611-5.254-17.485Z" transform="translate(1067.857 2182.058)" fill="#383838"/>
      <path id="Path_2976" data-name="Path 2976" d="M433.968,272.881V288.45c-4.052,1.883-13.131,4.859-24.589,8.272,0,0-.6-6.944-1.757-14.383,2.228-.622,4.438-1.32,6.624-2.043,2.228-.715,4.439-1.5,6.641-2.278,2.2-.8,4.405-1.6,6.582-2.463l3.262-1.295C431.808,273.8,432.9,273.369,433.968,272.881Z" transform="translate(1066.863 2180.321)" fill="#383838"/>
      <path id="Path_2977" data-name="Path 2977" d="M251.551,282.508c.832-.252,1.648-.53,2.455-.857l-1.118,4.439a36.362,36.362,0,0,0-3.455-3C250.138,282.912,250.853,282.727,251.551,282.508Z" transform="translate(1091.955 2178.923)" fill="#383838"/>
      <path id="Path_2978" data-name="Path 2978" d="M321.142,280.327c-11.693-1.883-43.679-12.29-49.438-16.67-4.237-3.228-9.087-8.516-9.718-21.125q-1.387,8.612-2.849,17.225l-.034.2a8.469,8.469,0,0,1,2.286-.883,8.144,8.144,0,0,1,2.758-.219,8.025,8.025,0,0,1-2.564,1.034,8.272,8.272,0,0,1-2.505.235l-2.295,13.324c2.093,1.421,4.17,2.85,6.221,4.321l3.228,2.3,3.2,2.345c2.135,1.564,4.279,3.11,6.38,4.724s4.228,3.169,6.313,4.808l.009.008a.31.31,0,0,1,.092.16c1.614-.462,3.245-.891,4.867-1.337l5.187-1.328c3.464-.874,6.935-1.681,10.4-2.522,3.489-.782,6.961-1.6,10.449-2.337s6.977-1.48,10.491-2.118c-3.43.975-6.893,1.866-10.348,2.74s-6.935,1.681-10.4,2.53c-3.48.773-6.952,1.589-10.441,2.337l-5.237,1.1c-1.656.319-3.3.656-4.96.958,0,.008.017.017.017.025.3,3.388.588,6.776.79,10.172-.53-3.312-.975-6.633-1.4-9.962-2.127-1.5-4.2-3.068-6.3-4.6-2.144-1.547-4.245-3.161-6.355-4.75l-3.169-2.4-3.127-2.438c-1.992-1.538-3.959-3.119-5.909-4.716L256.1,277.4a.364.364,0,0,1-.42.294.156.156,0,0,1-.059-.017l-9.112-3.169a.406.406,0,0,1-.252-.471l1.782-7.011a37.492,37.492,0,0,1-4.472-2.875c-1.118.807-2.219,1.622-3.346,2.421-1.227.849-2.438,1.723-3.682,2.564,1.144-.967,2.3-1.908,3.464-2.858,1.076-.883,2.169-1.74,3.262-2.606a.491.491,0,0,1,.059-.177c-.647-2.488-1.219-4.993-1.816-7.5-.63-2.589-1.211-5.2-1.774-7.8-.589-2.606-1.152-5.212-1.673-7.835-.546-2.614-1.051-5.229-1.522-7.86.723,2.572,1.412,5.153,2.051,7.742.673,2.581,1.295,5.178,1.9,7.776.622,2.6,1.227,5.2,1.782,7.8.546,2.471,1.1,4.943,1.605,7.423.9-.21,1.8-.4,2.707-.563.874-.151,1.749-.269,2.64-.345l.983-3.859,4-15.56.009-.025v-.008a28.081,28.081,0,0,0,1.185-4.178,8.873,8.873,0,0,0-.025-4.2,3.84,3.84,0,0,0-1.109-1.7,7.524,7.524,0,0,0-.857-.622l-.471-.311-.244-.2c-.034-.008-.059-.034-.151-.067a27.841,27.841,0,0,0-4.287-.63c-5.851-.53-11.727-.841-17.594-1.16,2.934.042,5.876.126,8.818.235s5.876.227,8.818.454c.731.059,1.471.126,2.2.21a12.106,12.106,0,0,1,2.236.387,1.09,1.09,0,0,1,.337.177l.185.151.454.286a7.506,7.506,0,0,1,.933.656,4.415,4.415,0,0,1,1.311,1.933,9.585,9.585,0,0,1,.126,4.523,26.7,26.7,0,0,1-1.177,4.287l-3.917,15.56-3.883,15.216,8.356,2.959,3.2-17.174q1.627-8.6,3.32-17.191a79.471,79.471,0,0,1,1.16-16.476l-15.392-1.614a7.527,7.527,0,0,1-4.2-1.774,35.093,35.093,0,0,1-3.741-.757c-.319-.076-.639-.16-.958-.261-.16-.05-.319-.1-.487-.16a.217.217,0,0,0-.059-.017h-.025a.974.974,0,0,0-.168.034,9.748,9.748,0,0,0-1.715.723c-1.16.563-2.3,1.185-3.463,1.774-1.152.614-2.329,1.194-3.523,1.749a37.73,37.73,0,0,1,6.616-4.279,10.568,10.568,0,0,1,1.917-.748,1.79,1.79,0,0,1,.328-.034,1.265,1.265,0,0,1,.387.084c.135.067.286.118.429.177l.916.336c1.169.412,2.337.849,3.5,1.328-1.219-1.16-2.093-3.035-1.58-6.095l.782-20.755-3.152-.647s-2.32.521,2.261-12.71l7.322-21.058s-28.758,3.547-29.8,4.59,6.044,71.286,15.846,104.844c0,0,44.6,31.894,47.311,32.936,1.32.5,26.043-5.431,53.052-12.551C335.542,291.12,332.827,282.21,321.142,280.327Zm-94.269-98.665c-.681-4.136-1.336-8.272-1.908-12.425.908,4.094,1.732,8.2,2.539,12.315s1.547,8.238,2.32,12.357c.706,4.128,1.454,8.255,2.127,12.391l1,6.2c.3,2.076.63,4.144.908,6.221-.462-2.043-.874-4.094-1.32-6.145l-1.227-6.17c-.807-4.111-1.538-8.238-2.312-12.357C228.294,189.925,227.546,185.806,226.873,181.661Z" transform="translate(1096.77 2198.103)" fill="#383838"/>
      <path id="Path_2979" data-name="Path 2979" d="M317.551,125.4c-1.53,0-3.48.832-5.422,1.253s-6.389-.42-6.809-1.664-3.043-11.576-3.472-11.088-1.252,1.353-1.252,1.353-.143,12.576.134,13.929,5.422,8.171,13.064,7.473,8.76-9.726,8.76-9.726S319.072,125.4,317.551,125.4Zm1.261,3.732a3.118,3.118,0,0,1-1.875.454,4.156,4.156,0,0,1-1.807-.572,4.057,4.057,0,0,1-1.337-1.253,9.517,9.517,0,0,0,3.195.992,3.713,3.713,0,0,0,1.538-.21,8.193,8.193,0,0,0,1.522-.782,3.185,3.185,0,0,1-1.236,1.37Z" transform="translate(1083.857 2205.66)"/>
      <path id="Path_2980" data-name="Path 2980" d="M299.863,111.361s6.948-6.531,6.392-14.591c0,0,1.806-1.668,4.725,1.112,0,0,2.5.695,5.419-2.362s4.447,1.39,4.447,1.39,1.529,4.725,1.945,3.474a7.385,7.385,0,0,0-5.141-9.171,42.438,42.438,0,0,0-15.008-1.668c-1.668.278-5.141,3.057-5.141,6.948s-1.668,8.754-1.529,10.283S299.863,111.361,299.863,111.361Z" transform="translate(1084.588 2209.554)"/>
      <path id="Path_2981" data-name="Path 2981" d="M308.04,113.413a9.544,9.544,0,0,1,4.232-.593,8.427,8.427,0,0,1,2.118.462,5.827,5.827,0,0,1,1.848,1.1,12.847,12.847,0,0,0-1.981-.672,14.575,14.575,0,0,0-2.035-.317A29.022,29.022,0,0,0,308.04,113.413Z" transform="translate(1082.666 2205.835)"/>
      <path id="Path_2982" data-name="Path 2982" d="M322.091,113.565a5.567,5.567,0,0,1,2.009-1.4,3.907,3.907,0,0,1,2.438-.3,23.122,23.122,0,0,0-2.214.833C323.6,113,322.885,113.319,322.091,113.565Z" transform="translate(1080.434 2205.993)"/>
      <path id="Path_2983" data-name="Path 2983" d="M314.163,116.716a.869.869,0,1,0-.839-.868.869.869,0,0,0,.839.868Z" transform="translate(1081.824 2205.485)"/>
      <path id="Path_2984" data-name="Path 2984" d="M324.742,116.055a.869.869,0,1,0-.839-.868A.869.869,0,0,0,324.742,116.055Z" transform="translate(1080.145 2205.59)"/>
      <path id="Path_2985" data-name="Path 2985" d="M295.637,110.061a2.2,2.2,0,0,0-1.266,1.417,3.509,3.509,0,0,0,0,1.909,35.2,35.2,0,0,0,1.428,3.75,25.582,25.582,0,0,1,1.153,3.931,2.989,2.989,0,0,0,.887,1.644,2.325,2.325,0,0,0,1.825.551,2.345,2.345,0,0,1-2-.33,3.312,3.312,0,0,1-1.146-1.782,32.245,32.245,0,0,0-1.257-3.809c-.231-.631-.468-1.262-.72-1.887a8.887,8.887,0,0,1-.6-1.983,3.818,3.818,0,0,1,.168-2.09,2.226,2.226,0,0,1,1.531-1.319Z" transform="translate(1084.918 2206.269)"/>
      <path id="Path_2986" data-name="Path 2986" d="M322.457,121.3a3.752,3.752,0,0,1-.029,2.723,2.047,2.047,0,0,1-1.007,1.064,1.921,1.921,0,0,1-1.4.012,3.051,3.051,0,0,0,1.181-.409,2.109,2.109,0,0,0,.692-.9A10.171,10.171,0,0,0,322.457,121.3Z" transform="translate(1080.762 2204.478)"/>
      <path id="Path_2987" data-name="Path 2987" d="M327.693,102.457a47.957,47.957,0,0,0-.012,5.73,26.167,26.167,0,0,0,.327,2.824c.169.917.436,1.856.6,2.814a16.322,16.322,0,0,1-.062,5.807,25.639,25.639,0,0,1-1.823,5.476,38.561,38.561,0,0,0,1.384-5.551,16.956,16.956,0,0,0-.069-5.636c-.139-.936-.383-1.85-.545-2.821a18.857,18.857,0,0,1-.251-2.894,29.51,29.51,0,0,1,.454-5.749Z" transform="translate(1079.699 2207.48)"/>
      <path id="Path_2988" data-name="Path 2988" d="M300,132.083a6.184,6.184,0,0,1-1.2,3.067,4.86,4.86,0,0,1-1.236,1.156,3.151,3.151,0,0,1-1.6.471,5.929,5.929,0,0,0,1.338-.836,7.846,7.846,0,0,0,1.039-1.139,13.434,13.434,0,0,0,.866-1.31C299.47,133.032,299.743,132.569,300,132.083Z" transform="translate(1084.582 2202.759)"/>
      <path id="Path_2989" data-name="Path 2989" d="M290.92,133.827a68.4,68.4,0,0,0-12.342,3.748,23.723,23.723,0,0,1-6.421,1.365,57.04,57.04,0,0,0-6.358.731,4.645,4.645,0,0,0-1.35.525,9.357,9.357,0,0,1-1.519.76,8.176,8.176,0,0,0-2.61,1.576,19.177,19.177,0,0,0-3.546,5.168c-.505.94-.908,1.936-1.352,2.912-.4,1-.8,1.992-1.181,3-.355,1.016-.732,2.025-1.07,3.048l-.965,3.087,0,.007,0,.012q-3.015,7.543-5.479,15.3c-.814,2.582-1.583,5.178-2.239,7.8-.324,1.309-.629,2.622-.858,3.937a17.685,17.685,0,0,0-.239,1.962,6.154,6.154,0,0,0,.015.935,1.208,1.208,0,0,0,.189.613l-.239-.122c4.775.939,9.553,1.874,14.338,2.758l7.171,1.338,3.589.606a35.418,35.418,0,0,0,3.518.431l.349,0c0-.019-.008,0,.013-.011a.4.4,0,0,1,.079-.062,2.634,2.634,0,0,0,.395-.613,10.74,10.74,0,0,0,.6-1.615,32.251,32.251,0,0,0,.773-3.5c.4-2.377.621-4.791.788-7.208q.228-3.628.148-7.273c-.035-2.428-.18-4.856-.452-7.275a.058.058,0,0,1,.115-.016c.407,2.4.688,4.832.86,7.269q.224,3.658.133,7.331a63.911,63.911,0,0,1-.6,7.327,33.187,33.187,0,0,1-.716,3.643,11.748,11.748,0,0,1-.635,1.815,3.637,3.637,0,0,1-.584.92c-.086.079-.179.156-.272.229a1.676,1.676,0,0,1-.4.176c-.2.019-.374.019-.563.025a34.155,34.155,0,0,1-3.729-.426l-3.616-.592c-2.4-.425-4.8-.85-7.193-1.322q-7.169-1.431-14.314-2.963l-.04-.009a.378.378,0,0,1-.2-.114,1.969,1.969,0,0,1-.489-1.26,7.129,7.129,0,0,1,.006-1.1,18.6,18.6,0,0,1,.3-2.065c.264-1.35.606-2.672.986-3.98.756-2.616,1.619-5.191,2.508-7.755.9-2.559,1.815-5.113,2.751-7.658l2.837-7.625-.006.019a84.08,84.08,0,0,1,4.207-12.3,18.053,18.053,0,0,1,3.64-5.526,9.217,9.217,0,0,1,2.88-1.794,10.427,10.427,0,0,0,1.379-.677,5.6,5.6,0,0,1,1.659-.632,56.67,56.67,0,0,1,6.511-.662c1.067-.094,2.129-.208,3.173-.4a17.584,17.584,0,0,0,3.074-.762,56.387,56.387,0,0,1,12.583-3.159.058.058,0,0,1,.065.049.06.06,0,0,1-.047.065Z" transform="translate(1093.076 2202.5)"/>
      <path id="Path_2990" data-name="Path 2990" d="M311.223,146.111a5.544,5.544,0,0,0-.071,1.534c.031.518.064,1.036.114,1.554l.317,3.1c.228,2.067.5,4.129.752,6.194l.4,3.094a4.436,4.436,0,0,1-.466,3.2,2.233,2.233,0,0,1-3.142.366,2.143,2.143,0,0,1-.814-1.5l-.168-1.551c-.233-2.066-.48-4.132-.8-6.186a29.409,29.409,0,0,0-.613-3.047,3.863,3.863,0,0,0-.26-.71.357.357,0,0,0-.242-.205l-.357-.155c-.477-.206-.96-.4-1.445-.587-1.938-.755-3.889-1.477-5.859-2.139a4.939,4.939,0,0,0-2.93-.441,2.388,2.388,0,0,0-1.345,2.352.206.206,0,0,1-.209.2.209.209,0,0,1-.176-.1,22.653,22.653,0,0,0-1.837-2.717,12.27,12.27,0,0,0-2.279-2.3,4.772,4.772,0,0,0-1.387-.723,7.726,7.726,0,0,1-1.57-.7,7.148,7.148,0,0,1-2.49-2.378.182.182,0,0,1-.02-.044l-.005-.018a2.3,2.3,0,0,1,.211-1.719,4.7,4.7,0,0,1,1.039-1.277,12.817,12.817,0,0,1,2.637-1.743,32.1,32.1,0,0,1,5.808-2.267.262.262,0,0,1,.3.39l-.008.012a4.655,4.655,0,0,0-.611,1.767,7.171,7.171,0,0,0-.077.959c.028.321.025.646.083.965a9.416,9.416,0,0,0,1.423,3.625,18.815,18.815,0,0,0,1.144,1.615c.447.488.867,1,1.334,1.474.482.456.94.94,1.444,1.375l1.533,1.283a.029.029,0,0,1,.006.04.031.031,0,0,1-.041.006l-1.592-1.219c-.525-.414-1.007-.881-1.514-1.32s-.93-.968-1.4-1.452a19.089,19.089,0,0,1-1.206-1.621,9.8,9.8,0,0,1-1.563-3.739c-.068-.336-.075-.683-.111-1.025a7.616,7.616,0,0,1,.059-1.035,5.081,5.081,0,0,1,.654-2l.288.4a36.766,36.766,0,0,0-5.677,2.288,12.248,12.248,0,0,0-2.505,1.666,2.516,2.516,0,0,0-1.074,2.38l-.025-.061a6.617,6.617,0,0,0,2.248,2.175,7.171,7.171,0,0,0,1.45.661,5.338,5.338,0,0,1,1.535.817,11.89,11.89,0,0,1,2.343,2.435,23.05,23.05,0,0,1,1.814,2.818l-.385.1a3.733,3.733,0,0,1,.4-1.591,2.105,2.105,0,0,1,1.246-1.086,5.24,5.24,0,0,1,3.128.5c1.966.695,3.907,1.448,5.836,2.234l1.446.592.361.151a.561.561,0,0,1,.335.282,4.012,4.012,0,0,1,.286.749c.289,1.01.47,2.037.663,3.062.377,2.05.686,4.111.977,6.174l.212,1.548a1.678,1.678,0,0,0,.646,1.165,1.731,1.731,0,0,0,2.424-.287,3.068,3.068,0,0,0,.449-1.34,5.383,5.383,0,0,0-.053-1.494l-.368-3.1c-.245-2.068-.44-4.142-.616-6.218-.089-1.038-.162-2.077-.2-3.119-.025-.52-.035-1.042-.042-1.564a5.469,5.469,0,0,1,.151-1.565.028.028,0,0,1,.054.017Z" transform="translate(1086.447 2202.262)"/>
      <path id="Path_2991" data-name="Path 2991" d="M318.4,140.2a12.9,12.9,0,0,1,1.075,1.82c.154.319.265.66.4.991a6.433,6.433,0,0,1,.244,1.053,4.366,4.366,0,0,1-.175,2.186,3.246,3.246,0,0,1-1.467,1.689.227.227,0,0,1-.307-.092.223.223,0,0,1-.026-.082v-.008a12.616,12.616,0,0,0-.64-2.96,3.643,3.643,0,0,0-.769-1.273,1.126,1.126,0,0,0-.613-.314.858.858,0,0,0-.578.333,8.156,8.156,0,0,0-1.228,2.742c-.293.973-.539,1.968-.753,2.958l0-.095.262,1.8a.3.3,0,0,1-.595.107v-.007a16.419,16.419,0,0,1-.277-2.574c-.046-.857-.025-1.712.015-2.563a41.623,41.623,0,0,1,.529-5.078.029.029,0,0,1,.033-.024.03.03,0,0,1,.024.03q-.083,2.547-.083,5.081a30.143,30.143,0,0,0,.35,5.007l-.6.1-.21-1.812v-.009a.247.247,0,0,1,.005-.086,26.217,26.217,0,0,1,.9-2.972,9.182,9.182,0,0,1,1.468-2.753,1.043,1.043,0,0,1,.734-.381,1.323,1.323,0,0,1,.729.376,3.826,3.826,0,0,1,.858,1.314,13.271,13.271,0,0,1,.9,2.988l-.334-.182a2.975,2.975,0,0,0,1.19-1.45,3.9,3.9,0,0,0,.21-1.946c-.017-.335-.122-.664-.173-1-.105-.325-.186-.66-.312-.981s-.246-.647-.392-.962l-.448-.946a.029.029,0,0,1,.012-.039.03.03,0,0,1,.038.009Z" transform="translate(1081.891 2201.468)"/>
      <path id="Path_2992" data-name="Path 2992" d="M314.287,156.306a.869.869,0,1,0-.839-.868.869.869,0,0,0,.839.868Z" transform="translate(1081.805 2199.176)"/>
      <path id="Path_2993" data-name="Path 2993" d="M315.031,162.009a.869.869,0,1,0-.839-.868A.869.869,0,0,0,315.031,162.009Z" transform="translate(1081.688 2198.267)"/>
      <path id="Path_2994" data-name="Path 2994" d="M315.651,167.464a.869.869,0,1,0-.839-.868.869.869,0,0,0,.839.868Z" transform="translate(1081.59 2197.397)"/>
      <path id="Path_2995" data-name="Path 2995" d="M322.4,138.263c3.472.086,6.939.317,10.4.672,1.731.168,3.454.41,5.172.7a20.78,20.78,0,0,1,5.09,1.385,3.014,3.014,0,0,1,.6.39,5.8,5.8,0,0,1,.477.485c.287.31.6.607.91.914a13.239,13.239,0,0,1,1.73,2.005,16.039,16.039,0,0,1,2.137,4.808,53.486,53.486,0,0,1,1.615,10.3,68.077,68.077,0,0,0-2.041-10.172,16.834,16.834,0,0,0-2.142-4.634,12.7,12.7,0,0,0-1.684-1.911c-.31-.3-.63-.6-.936-.921a2.823,2.823,0,0,0-.93-.752,20.458,20.458,0,0,0-4.914-1.38c-1.7-.315-3.415-.544-5.131-.78C329.307,138.93,325.855,138.587,322.4,138.263Z" transform="translate(1080.391 2201.774)"/>
      <path id="Path_2996" data-name="Path 2996" d="M265.723,146.97a7.514,7.514,0,0,1,4.748.549,9.273,9.273,0,0,1,3.674,3.173,14.038,14.038,0,0,1,1.2,2.122,22.666,22.666,0,0,1,.837,2.274c.174.787.39,1.564.527,2.353.091.8.2,1.592.272,2.387-.2-.777-.366-1.555-.55-2.328s-.453-1.52-.674-2.278c-.3-.73-.558-1.475-.889-2.185a13.708,13.708,0,0,0-1.194-2.013,9.279,9.279,0,0,0-3.4-3.107A8.456,8.456,0,0,0,265.723,146.97Z" transform="translate(1089.387 2200.413)"/>
      <path id="Path_2997" data-name="Path 2997" d="M290.188,190.563c.4,1.063.82,2.114,1.309,3.135.463,1.032.97,2.042,1.508,3.034a43.669,43.669,0,0,0,3.64,5.686,32.562,32.562,0,0,0,4.544,4.97l1.285,1.1c.44.351.915.655,1.371.987l.686.5c.237.152.486.287.729.431l1.464.866a23.844,23.844,0,0,1-5.823-3.542,30.105,30.105,0,0,1-4.716-4.96,38.973,38.973,0,0,1-3.573-5.832,33.9,33.9,0,0,1-2.423-6.372Z" transform="translate(1085.502 2193.44)"/>
      <path id="Path_2998" data-name="Path 2998" d="M246.907,202.241c-.025,3.463-.1,6.924-.158,10.386s-.164,6.922-.243,10.383l0,.029,0,.032a7.559,7.559,0,0,0,.51,4.086,5.313,5.313,0,0,0,2.9,2.715c.329.107.651.23.983.327l1.031.2c.714.105,1.451.182,2.179.262q2.192.233,4.393.415c5.867.493,11.752.746,17.634.878a157.349,157.349,0,0,0,17.621-.583c5.821-.562,11.733-1.454,17.022-3.987a.234.234,0,0,1,.3.087,4.471,4.471,0,0,0,1.676,1.541,5.335,5.335,0,0,0,2.251.611,8.359,8.359,0,0,0,2.367-.25c.384-.113.768-.23,1.15-.357l1.116-.463-1.092.525c-.376.148-.757.288-1.139.423a8.019,8.019,0,0,1-2.412.366,5.208,5.208,0,0,1-4.305-2.178l.3.087a33.9,33.9,0,0,1-8.366,3.041,77.562,77.562,0,0,1-8.768,1.491,150.3,150.3,0,0,1-17.734.758c-5.917-.038-11.822-.413-17.711-.939q-2.209-.2-4.414-.454c-.737-.087-1.467-.169-2.211-.285l-1.139-.231c-.374-.111-.742-.253-1.112-.38a6.175,6.175,0,0,1-3.325-3.265,8.348,8.348,0,0,1-.459-4.594l-.007.061c.183-3.457.329-6.915.544-10.371S246.67,205.7,246.907,202.241Z" transform="translate(1092.566 2191.579)"/>
      <path id="Path_2999" data-name="Path 2999" d="M272.627,207.078c.1,1.9.151,3.807.217,5.71l-.131-.2a68.392,68.392,0,0,0,20.837,3.976,48.828,48.828,0,0,0,10.545-.826l2.587-.56c.855-.217,1.683-.524,2.527-.781l1.265-.4c.412-.156.812-.343,1.22-.513l2.439-1.045-.207.313a3.83,3.83,0,0,1,.663-1.6,4.826,4.826,0,0,1,1.165-1.192,7.11,7.11,0,0,1,2.985-1.219,15.219,15.219,0,0,1,1.578-.191c.528,0,1.054-.046,1.578-.007s1.049.043,1.566.123l1.55.23-1.561-.087c-.519-.026-1.039,0-1.556-.006s-1.031.078-1.544.112a14.8,14.8,0,0,0-1.508.288,7.275,7.275,0,0,0-2.695,1.268,3.78,3.78,0,0,0-1.45,2.346l0,.026a.382.382,0,0,1-.2.287,38.618,38.618,0,0,1-10.18,3.689,45.767,45.767,0,0,1-10.795.877A58.3,58.3,0,0,1,282.8,216.3c-1.754-.411-3.493-.874-5.206-1.424a43.282,43.282,0,0,1-5.054-1.893l-.01,0a.206.206,0,0,1-.121-.194C272.476,210.884,272.531,208.981,272.627,207.078Z" transform="translate(1088.332 2190.808)"/>
      <path id="Path_3000" data-name="Path 3000" d="M252.664,218.1a11.151,11.151,0,0,1,3.4-3.078,15.632,15.632,0,0,1,4.288-1.743,18.974,18.974,0,0,1,2.3-.321,14.2,14.2,0,0,1,2.312-.037c.77.017,1.529.172,2.29.254.75.161,1.5.344,2.231.539-.764-.067-1.513-.193-2.268-.258-.758-.024-1.51-.128-2.264-.091a20.283,20.283,0,0,0-4.469.476,16.891,16.891,0,0,0-4.2,1.564,14.192,14.192,0,0,0-3.619,2.693Z" transform="translate(1091.441 2189.881)"/>
      <path id="Path_3001" data-name="Path 3001" d="M322.256,213.871a9.791,9.791,0,0,0,.817,1.445,4.125,4.125,0,0,0,1.118,1.137,2.28,2.28,0,0,0,.343.167,1.159,1.159,0,0,1,.428.28,1.058,1.058,0,0,1,.16.992,4.21,4.21,0,0,1-.9,1.523l0,0-.017.016a3.634,3.634,0,0,0-.949,1.478,1.876,1.876,0,0,0,.2,1.6c.281.457.9.9,1.133,1.6a1.34,1.34,0,0,1-.058,1.128,1.7,1.7,0,0,1-.849.7l.078-.053a4.688,4.688,0,0,0-1.022,1.68,2.141,2.141,0,0,0-.095.972,2.02,2.02,0,0,0,.45.892,1.883,1.883,0,0,1-.585-.86,2.34,2.34,0,0,1-.017-1.068,3.53,3.53,0,0,1,.376-1,5.516,5.516,0,0,1,.59-.893.148.148,0,0,1,.05-.04l.028-.014a1.277,1.277,0,0,0,.578-.539.89.89,0,0,0,0-.728c-.188-.541-.7-.877-1.12-1.479a2.4,2.4,0,0,1-.39-1,2.46,2.46,0,0,1,.114-1.068,4.149,4.149,0,0,1,1.142-1.7l-.02.019a4.13,4.13,0,0,0,.835-1.3.632.632,0,0,0-.027-.6.774.774,0,0,0-.255-.188,2.689,2.689,0,0,1-.392-.225,3.788,3.788,0,0,1-1.1-1.324,7.552,7.552,0,0,1-.638-1.556Z" transform="translate(1080.406 2189.725)"/>
      <path id="Path_3002" data-name="Path 3002" d="M333.7,214.566c-.017.353-.035.7-.052,1.048-.7-.006-1.407-.035-2.108-.11a14.46,14.46,0,0,1-2.443-.411,14.458,14.458,0,0,1,2.443-.411C332.257,214.607,332.98,214.578,333.7,214.566Z" transform="translate(1079.32 2189.615)"/>
      <path id="Path_3003" data-name="Path 3003" d="M333.514,219.2c-.023.353-.035.7-.052,1.042-.643-.012-1.28-.041-1.922-.11a14.456,14.456,0,0,1-2.443-.411,14.472,14.472,0,0,1,2.443-.411C332.2,219.242,332.854,219.213,333.514,219.2Z" transform="translate(1079.32 2188.875)"/>
      <path id="Path_3004" data-name="Path 3004" d="M333.339,223.665c-.012.353-.029.7-.041,1.042-.585-.017-1.175-.046-1.76-.11a14.459,14.459,0,0,1-2.443-.411,14.471,14.471,0,0,1,2.443-.411C332.142,223.711,332.743,223.682,333.339,223.665Z" transform="translate(1079.32 2188.164)"/>
      <path id="Path_3005" data-name="Path 3005" d="M331.539,229.107c.544-.058,1.089-.087,1.627-.1-.017.353-.029.695-.04,1.025-.527-.012-1.06-.041-1.587-.1a14.441,14.441,0,0,1-2.443-.411A14.471,14.471,0,0,1,331.539,229.107Z" transform="translate(1079.32 2187.314)"/>
      <path id="Path_3006" data-name="Path 3006" d="M307.687,238.263s-10.432-10.31-14.326-3.624-1.217,11.59,1.676,14.9c3.525,4.032,3.7,5.239,4.748,6.433s12.853,15.629,27.57,14.818c8.585-.473,8.438-5.048,6.826-8.778a15.6,15.6,0,0,0-5.439-6.54C324.041,252.187,313.536,244.578,307.687,238.263Z" transform="translate(1085.314 2186.775)" fill="#ff6d66"/>
      <path id="Path_3007" data-name="Path 3007" d="M306.54,235.874c2.243.106,4.48.257,6.718.4l6.708.455c2.234.177,4.47.307,6.706.425,1.117.069,2.236.11,3.354.128.558,0,1.12.04,1.676,0l.838-.04.829-.131a26.441,26.441,0,0,1-6.711.489c-2.248-.027-4.49-.161-6.73-.294-2.238-.175-4.475-.351-6.707-.59S308.759,236.217,306.54,235.874Z" transform="translate(1082.91 2186.219)"/>
      <path id="Path_3008" data-name="Path 3008" d="M333.041,257.137a.29.29,0,0,1-.148-.539c.453-.267,11.145-6.544,15.145-5.239a.289.289,0,1,1-.181.55c-3.751-1.229-14.561,5.123-14.67,5.188A.291.291,0,0,1,333.041,257.137Z" transform="translate(1078.744 2183.78)"/>
      <path id="Path_3009" data-name="Path 3009" d="M392.913,200.529h.006l.021,0,25.219,9.346.022.009a42.014,42.014,0,0,1,7.121,4.23,26.975,26.975,0,0,1,5.878,5.875,13.665,13.665,0,0,1,1.97,3.733,28.753,28.753,0,0,1,1.038,4.038,15.882,15.882,0,0,1-.562,8.349,11.5,11.5,0,0,1-2.26,3.615,12.974,12.974,0,0,1-3.385,2.572,15.881,15.881,0,0,1-3.973,1.46,17.468,17.468,0,0,1-2.085.309l-2.047.223c-5.457.584-10.913,1.177-16.375,1.708-10.924,1.069-21.851,2.117-32.8,2.922-2.737.2-5.476.4-8.219.552-2.748.138-5.475.329-8.268.206a7.037,7.037,0,0,1-3.907-1.589,14.682,14.682,0,0,1-2.845-3.061,31.554,31.554,0,0,1-3.771-7.368.218.218,0,0,1,.223-.293h.007a13.518,13.518,0,0,0,3.532-.011c.551-.106,1.134-.327,1.294-.794a2.208,2.208,0,0,0-.3-1.566,18.694,18.694,0,0,0-2.012-2.933c-.745-.938-1.518-1.858-2.283-2.785s-1.527-1.86-2.264-2.814a11.361,11.361,0,0,0-2.5-2.5,3.644,3.644,0,0,0-3.24-.663,4.716,4.716,0,0,0-2.469,2.295l-.006.011a.2.2,0,0,1-.367-.036,12.019,12.019,0,0,1-.587-3.609,5.746,5.746,0,0,1,.292-1.84,3.192,3.192,0,0,1,1.109-1.547l-.029.025a5.306,5.306,0,0,1,1.609-.967,17.5,17.5,0,0,1,1.715-.612c1.156-.354,2.326-.64,3.5-.9,2.349-.516,4.716-.928,7.086-1.3,4.743-.744,9.5-1.333,14.271-1.868,9.535-1.069,19.088-1.919,28.658-2.623l-.416.4c.6-3.811,1.385-7.49,2.124-11.224l2.3-11.152,4.622-22.3.214.583a5.5,5.5,0,0,0-1.658-.6c-.632-.145-1.281-.264-1.938-.36-1.311-.2-2.643-.334-3.976-.453-2.668-.235-5.352-.373-8.036-.495-5.37-.238-10.751-.349-16.133-.412-10.763-.125-21.534-.03-32.3.119l.389-.171a4.924,4.924,0,0,0-.82,1.5c-.22.58-.405,1.186-.572,1.8-.331,1.23-.589,2.49-.823,3.756-.461,2.535-.812,5.1-1.121,7.666-.612,5.138-1.057,10.3-1.44,15.47s-.7,10.345-.954,15.524c-.286,5.171-.476,10.359-.67,15.536v.005a.253.253,0,0,1-.259.243l-22.068-.573a.058.058,0,0,1,0-.116l22.075.179-.259.248c.132-5.19.281-10.371.515-15.559q.314-7.768.806-15.544c.335-5.179.731-10.357,1.3-15.525.286-2.584.614-5.165,1.057-7.738.225-1.286.475-2.57.806-3.849.167-.639.354-1.277.588-1.912a5.816,5.816,0,0,1,1.039-1.886.508.508,0,0,1,.365-.17h.024c5.39-.139,10.777-.189,16.166-.228s10.778-.028,16.168.018,10.781.157,16.174.387c2.7.121,5.392.28,8.089.526,1.349.126,2.7.269,4.048.479.675.1,1.351.228,2.031.387a6.172,6.172,0,0,1,2.1.818.527.527,0,0,1,.222.546l-.008.037-4.714,22.275L393.615,199.7c-.77,3.7-1.6,7.447-2.214,11.127l0,.024a.447.447,0,0,1-.412.372c-9.559.616-19.117,1.377-28.648,2.358-4.764.5-9.523,1.061-14.257,1.773-2.366.36-4.727.755-7.064,1.253-1.167.251-2.329.528-3.468.868a17.014,17.014,0,0,0-1.673.585,4.953,4.953,0,0,0-1.466.856l-.008.008-.022.018a2.746,2.746,0,0,0-.96,1.331,5.322,5.322,0,0,0-.278,1.7,11.634,11.634,0,0,0,.544,3.474l-.374-.025a5.093,5.093,0,0,1,2.713-2.478,4.013,4.013,0,0,1,3.561.729,12.407,12.407,0,0,1,2.581,2.576c.737.945,1.5,1.871,2.27,2.794s1.546,1.84,2.3,2.78a19.01,19.01,0,0,1,2.072,3,2.559,2.559,0,0,1,.326,1.89,1.434,1.434,0,0,1-.692.762,3.314,3.314,0,0,1-.911.308,13.87,13.87,0,0,1-3.657.034l.231-.292a29.727,29.727,0,0,0,3.767,7.21,14.165,14.165,0,0,0,2.772,2.915,6.441,6.441,0,0,0,3.611,1.425c2.691.086,5.451-.135,8.177-.306,2.734-.188,5.467-.411,8.2-.647q16.389-1.453,32.764-3.141l16.374-1.661c1.355-.165,2.759-.228,4.03-.5a14.932,14.932,0,0,0,3.736-1.353,10.949,10.949,0,0,0,5.243-5.681,15.012,15.012,0,0,0,.551-7.875,29.079,29.079,0,0,0-.971-3.936,12.886,12.886,0,0,0-1.82-3.532,26.252,26.252,0,0,0-5.655-5.775,41.376,41.376,0,0,0-6.961-4.24l.022.009-25.049-9.8.021,0h-.006a.058.058,0,1,1,0-.116Z" transform="translate(1082.871 2197.821)"/>
      <path id="Path_3010" data-name="Path 3010" d="M339.916,163.991c-4.238,4.794-6.253,61.634-6.253,61.634h4.03s-1.685-4.991.753-6.751c4.429-4.563,56.707-7.984,56.707-7.984.116-1,.9-4.985,1.963-10.19,2.7-13.253,7.209-34.415,7.209-34.415C399.738,162.741,339.916,163.991,339.916,163.991Zm29.6,26.055c-5.066,0-9.171-1.216-9.171-2.71s4.105-2.71,9.171-2.71,9.171,1.216,9.171,2.71-4.105,2.71-9.172,2.71Z" transform="translate(1078.625 2197.708)" fill="#c6cbcb"/>
      <path id="Path_3011" data-name="Path 3011" d="M271.324,237.908a76.111,76.111,0,0,0-1.051,12.079A54.382,54.382,0,0,0,271.424,262a23.044,23.044,0,0,0,5.123,10.666,18.6,18.6,0,0,0,4.735,3.556l1.313.731c.44.239.9.442,1.353.664.9.441,1.81.876,2.745,1.259,3.7,1.6,7.5,2.988,11.34,4.261s7.707,2.462,11.592,3.6c7.765,2.3,15.6,4.308,23.466,6.314a15.618,15.618,0,0,1,9.591,7.425,16.377,16.377,0,0,1,1.249,2.836,20.877,20.877,0,0,1,.672,3.007l1,6c1.372,7.989,2.7,15.987,4.126,23.966l8.567,47.878-.4-.347c5.98.086,11.977.007,17.946-.312,2.984-.159,5.965-.383,8.915-.772a43.015,43.015,0,0,0,4.364-.79,16.959,16.959,0,0,0,2.078-.633,5,5,0,0,0,1.7-1l-.147.4c-.426-10.253-.936-20.507-1.467-30.757s-1.2-20.493-1.875-30.735c-.7-10.239-1.508-20.473-2.615-30.673-.555-5.1-1.206-10.189-2.023-15.25-.416-2.529-.877-5.052-1.5-7.537a31.777,31.777,0,0,0-1.119-3.667,11.109,11.109,0,0,0-.818-1.723,2.37,2.37,0,0,0-1.354-1.212h0a.058.058,0,0,1,.022-.113,2.486,2.486,0,0,1,1.471,1.242,11.259,11.259,0,0,1,.871,1.732,32.009,32.009,0,0,1,1.21,3.668c.679,2.483,1.2,5,1.672,7.531.936,5.057,1.609,10.154,2.239,15.252,1.232,10.2,2.162,20.435,2.988,30.674.844,10.238,1.449,20.493,2.03,30.747s1.049,20.516,1.405,30.781v.018a.529.529,0,0,1-.148.385,5.935,5.935,0,0,1-2.134,1.286,18,18,0,0,1-2.223.666,44.075,44.075,0,0,1-4.486.788c-3,.378-6,.588-9.005.732-6.009.256-12.012.263-18.02.108a.419.419,0,0,1-.4-.347l-8.119-47.956c-1.355-7.992-2.808-15.968-4.217-23.951l-1.089-5.982a20.22,20.22,0,0,0-.7-2.911,15.722,15.722,0,0,0-1.239-2.7,14.876,14.876,0,0,0-9.227-6.937c-7.884-1.85-15.751-3.883-23.545-6.14-3.9-1.118-7.77-2.355-11.617-3.657s-7.662-2.715-11.392-4.357c-.94-.391-1.858-.838-2.773-1.291-.456-.229-.922-.436-1.371-.683l-1.339-.755a18.76,18.76,0,0,1-4.9-3.771,23.751,23.751,0,0,1-5.146-11.075,51.208,51.208,0,0,1-.935-12.16,76.36,76.36,0,0,1,1.345-12.095.058.058,0,0,1,.068-.046A.06.06,0,0,1,271.324,237.908Z" transform="translate(1088.77 2185.906)"/>
      <path id="Path_3012" data-name="Path 3012" d="M384.784,420.531s-5-.521-5,1.876.417,19.906,2.5,20.427,63.157,21.573,79.415,4.481c0,0,11.256-6.253-10.005-13.549s-34.6-14.591-34.6-14.591-20.219.625-20.635,2.71,2.71,9.588,2.71,9.588S385.826,434.6,384.784,420.531Z" transform="translate(1071.324 2157.007)" fill="#ff6d66"/>
      <path id="Path_3013" data-name="Path 3013" d="M385.441,419.632a.313.313,0,0,1-.072-.009.29.29,0,0,1-.208-.353,9.4,9.4,0,0,0-1.208-7.1.289.289,0,1,1,.475-.332,9.816,9.816,0,0,1,1.294,7.575A.289.289,0,0,1,385.441,419.632Z" transform="translate(1070.617 2158.196)"/>
      <path id="Path_3014" data-name="Path 3014" d="M418.762,418.089h-.01c-6.3-.21-12.461-6.783-12.72-7.062a.29.29,0,1,1,.424-.394c.062.067,6.257,6.676,12.316,6.879a.289.289,0,1,1-.01.579Z" transform="translate(1067.121 2158.384)"/>
      <path id="Path_3015" data-name="Path 3015" d="M248.279,234.248c-.042-.008-.084-.008-.126-.017l-.05-.05A1.509,1.509,0,0,1,248.279,234.248Z" transform="translate(1092.168 2186.489)" fill="#fff"/>
      <path id="Path_3016" data-name="Path 3016" d="M270.092,257.8v.05c.025-.151.051-.294.076-.446C270.142,257.536,270.117,257.662,270.092,257.8Z" transform="translate(1088.664 2182.788)" fill="#fff"/>
      <path id="Path_3017" data-name="Path 3017" d="M407.6,284.111v.017l-.093.025C407.546,284.136,407.571,284.128,407.6,284.111Z" transform="translate(1066.867 2178.531)" fill="#fff"/>
      <path id="Path_3018" data-name="Path 3018" d="M238.27,291.461l.99,17.409.9,17.412c.308,5.8.716,11.6.816,17.416.045,2.906.089,5.812.058,8.721l-.048,4.363c-.051,1.456-.069,2.91-.149,4.367a.087.087,0,0,1-.174.006c-.187-1.447-.312-2.9-.47-4.344l-.37-4.348c-.245-2.9-.415-5.8-.584-8.7-.328-5.8-.349-11.618-.469-17.428l-.382-17.432-.3-17.435a.087.087,0,0,1,.174-.006Z" transform="translate(1093.762 2177.373)"/>
      <path id="Path_3019" data-name="Path 3019" d="M294.473,330.64l.486,17.729.4,17.73c.14,5.91.38,11.819.313,17.73-.039,2.956-.079,5.912-.194,8.868l-.174,4.435c-.093,1.478-.153,2.957-.275,4.435a.087.087,0,0,1-.174,0c-.145-1.477-.228-2.954-.344-4.431l-.244-4.431c-.161-2.954-.247-5.909-.332-8.864-.16-5.91-.013-11.822.035-17.733l.122-17.734.208-17.734a.087.087,0,1,1,.174,0Z" transform="translate(1084.916 2171.13)"/>
      <ellipse id="Ellipse_46" data-name="Ellipse 46" cx="7.365" cy="1.39" rx="7.365" ry="1.39" transform="translate(1327.152 2535.844)"/>
      <ellipse id="Ellipse_47" data-name="Ellipse 47" cx="7.365" cy="1.39" rx="7.365" ry="1.39" transform="translate(1372.213 2570.202)"/>
      <path id="Path_3020" data-name="Path 3020" d="M353.039,317l.648,8.134.561,8.137c.176,2.713.5,5.42.474,8.14a62.16,62.16,0,0,1-.481,8.175.088.088,0,0,1-.174.006,62.1,62.1,0,0,1-1.082-8.118c-.228-2.711-.1-5.435-.127-8.153l-.04-8.156.047-8.159a.087.087,0,0,1,.174-.006Z" transform="translate(1075.553 2173.303)"/>
      <path id="Path_3021" data-name="Path 3021" d="M429.938,294.842l.485,17.522.4,17.523c.14,5.841.379,11.681.311,17.523-.04,2.921-.079,5.843-.194,8.764l-.175,4.383c-.093,1.461-.153,2.922-.275,4.384a.087.087,0,0,1-.174,0c-.145-1.459-.228-2.919-.344-4.379l-.244-4.38c-.16-2.92-.246-5.84-.332-8.76-.159-5.841-.012-11.684.036-17.526l.123-17.527.21-17.527a.087.087,0,1,1,.174,0Z" transform="translate(1063.43 2176.835)"/>
      <ellipse id="Ellipse_48" data-name="Ellipse 48" cx="7.365" cy="1.39" rx="7.365" ry="1.39" transform="translate(1422.344 2520.212)"/>
      <ellipse id="Ellipse_49" data-name="Ellipse 49" cx="7.365" cy="1.39" rx="7.365" ry="1.39" transform="translate(1486.164 2539.281)"/>
      <path id="Path_3022" data-name="Path 3022" d="M337.635,237.583h-4.028a.29.29,0,0,1,0-.58h4.028a.29.29,0,0,1,0,.58Z" transform="translate(1078.65 2186.039)"/>
    </g>
    <path id="Union_68" data-name="Union 68" d="M17870.545,1919.47c.729-.463,1.471-.926,2.2-1.38l1.057-.67.57-.36a1.421,1.421,0,0,1,.563-.274.213.213,0,0,1,.072,0,.851.851,0,0,1,.412-.448,5.72,5.72,0,0,1,.846-.247l1.137-.283,2.105-.544c5.088-1.3,10.182-2.562,15.262-3.844,2.539-.638,5.07-1.277,7.615-1.906l3.848-.971c1.281-.319,2.559-.692,3.857-.948a.225.225,0,0,1,.234.088,2.4,2.4,0,0,1,.377-.12.943.943,0,0,1,1.164.086c.021.021.043.043.063.066a1.034,1.034,0,0,1,.451.294,1.3,1.3,0,0,1,.135,1.268,2.089,2.089,0,0,1-.4.638l-.035.039a.131.131,0,0,1-.068.154c-.07.032-.141.061-.211.09a.567.567,0,0,1-.209.081c-.078.029-.154.056-.232.082a.1.1,0,0,1-.014.017.921.921,0,0,1-.611.369.132.132,0,0,1-.154-.155c-.166.044-.332.085-.5.128l-1.969.508c-1.187.308-2.367.613-3.551.923a1.077,1.077,0,0,1-.387.246.184.184,0,0,1-.207-.091q-6.943,1.781-13.9,3.561l-7.021,1.812c-1.164.3-2.316.6-3.471.886l-1.781.449c-.309.072-.629.18-.943.229a2.176,2.176,0,0,1-.342-.009,3.167,3.167,0,0,0-.457.04.672.672,0,0,1-.318.1,1.183,1.183,0,0,1-.389.236.2.2,0,0,1-.277-.162l-.2.023-1.375.153-2.811.324h-.025C17870.412,1919.943,17870.367,1919.587,17870.545,1919.47Zm3.592-1.668-1.1.692q-.665.414-1.324.833c.574-.061,1.146-.126,1.719-.19l1.332-.139.715-.09.053-.006a.9.9,0,0,0,.09-.722,1.352,1.352,0,0,0-.369-.566,1.091,1.091,0,0,0-.229-.216l-.125-.084-.041.032a.1.1,0,0,1-.086.12.217.217,0,0,1-.07-.01C17874.516,1917.578,17874.311,1917.684,17874.137,1917.8Zm1.951,1.151a.17.17,0,0,1,.076.162c.15-.068.283-.149.428-.225a1.551,1.551,0,0,1,.414-.144l.988-.265c.652-.175,1.3-.346,1.965-.526,1.295-.337,2.594-.665,3.885-1q7.031-1.807,14.053-3.632,3.149-.8,6.3-1.621a.26.26,0,0,1-.1-.083,2.085,2.085,0,0,1-.207-.611l-.166-.665a.267.267,0,0,1,.135-.321v-.012a.19.19,0,0,1-.137-.267.135.135,0,0,1-.041-.06l-1.365.34-13.895,3.5q-3.513.877-7,1.762c-1.164.288-2.32.571-3.475.859l-1.744.436a2.014,2.014,0,0,0-.729.225l-.094.108.07.027a.145.145,0,0,0,.006.036.1.1,0,0,1,0-.034l.006,0c.023.027.018.009.01-.009a.086.086,0,0,0-.012-.021c.029-.113.2-.174.244-.047.109.22-.037.359-.221.391a2.635,2.635,0,0,1,.248.278,1.525,1.525,0,0,1,.287,1.376A.462.462,0,0,1,17876.088,1918.953Zm28.434-7.469.039-.037a.216.216,0,0,1-.037-.011C17904.523,1911.453,17904.521,1911.469,17904.521,1911.484Zm.873-.16c-.027.031-.057.061-.084.09l.365-.095a.264.264,0,0,1,.021-.144.257.257,0,0,1-.072-.153A2.167,2.167,0,0,1,17905.395,1911.324Zm-.494-.225a.047.047,0,0,1,0,.016.278.278,0,0,0,.025-.023l.006-.015a.247.247,0,0,1-.043-.006A.152.152,0,0,0,17904.9,1911.1Zm.846-.314.035-.014.156-.056a.242.242,0,0,1,0-.294.208.208,0,0,1-.1-.181l-.027.077A.929.929,0,0,1,17905.746,1910.786Zm.27-1.044-.125.348a.231.231,0,0,1,.094-.064l.164-.064a.205.205,0,0,1,.045-.217.176.176,0,0,1-.113-.157l-.061.015A.214.214,0,0,1,17906.016,1909.742Zm-1.395.314c.023-.028.045-.056.07-.083l-.1-.007-.012.011A.3.3,0,0,1,17904.621,1910.056Zm.736-.62c.217-.069.438-.133.658-.2l-.67.173Zm3.674-1,.1-.029v-.008Zm-33.582,8.506c0-.029,0-.032.008-.026a.125.125,0,0,0,0,.027Z" transform="translate(-16625.133 528.929)" fill="#ff6d66" stroke="#ff6d66" stroke-miterlimit="10" stroke-width="0.4"/>
    <path id="Union_62" data-name="Union 62" d="M17871.582,1947.781a.574.574,0,0,1-.34-.479.371.371,0,0,1-.164-.285q-.311-4.153-.494-8.3-.311-7.328-.248-14.692c.027-2.449.1-4.912.207-7.366.055-1.218.107-2.436.18-3.654.041-.629.08-1.245.121-1.865.027-.3.082-.616.082-.917l-.014-.08a.191.191,0,0,1-.217,0c-.135.248-.271.495-.412.742a.15.15,0,0,1-.275-.112c.189-.521.383-1.038.59-1.546a.3.3,0,0,1,.26-.193,3.249,3.249,0,0,1,1.084.013.2.2,0,0,1,.129.124.1.1,0,0,1,.045-.025,4.4,4.4,0,0,1,.682-.159,3.611,3.611,0,0,1,.91-.884,1.32,1.32,0,0,1,1.461-.04.958.958,0,0,1,.156.13l.064-.009c.355-.05,1-.065,1.248.257.391-.026.783-.05,1.174-.074a5.073,5.073,0,0,1,1.41-1.073,1.312,1.312,0,0,1,1.594.193,4,4,0,0,1,.6-.152,2.507,2.507,0,0,1,.711.085c.221.041.234.422,0,.449s-.4.126-.615.166c-.143.028-.289.062-.43.1a.541.541,0,0,1,0,.056q1-.042,2.01-.075a7.11,7.11,0,0,1,1.074-.785,1.552,1.552,0,0,1,1.986.058,1.14,1.14,0,0,1,.164.272,1.785,1.785,0,0,1,1.529.276.142.142,0,0,1,.051.068c.445-.006.893-.011,1.338-.016q.149-.1.311-.191a2.749,2.749,0,0,1,1.852-.4,1.018,1.018,0,0,1,.732.534,1.562,1.562,0,0,1,.186.014c.033,0,.068.009.1.016,1.1-.011,2.2-.026,3.3-.034a2.638,2.638,0,0,1,2.025-.5,1.117,1.117,0,0,1,.588.505c1.01.01,2.018.035,3.025.084a.239.239,0,0,1,.2.344c.029,0,.059.01.09.017a.253.253,0,0,1,.492.075c0,.059,0,.118,0,.177a1.067,1.067,0,0,1,.324,1.042,1.269,1.269,0,0,1,.115.058.235.235,0,0,1-.127.436c-.117.01-.232.017-.348.025-.061,1.313-.062,2.631-.088,3.961-.014,1.353,0,2.724.055,4.094a41.878,41.878,0,0,0,2.656,14.018,30.368,30.368,0,0,0,1.5,3.191c.293.521.59,1.029.9,1.519a4.061,4.061,0,0,1,.867,1.51,1.178,1.178,0,0,1-.742,1.146c-.574.319-1.176.589-1.766.863a28.7,28.7,0,0,1-3.779,1.51.314.314,0,0,1-.268-.043q.281,1.687.623,3.369a.414.414,0,0,1-.4.521,8.913,8.913,0,0,0-3.193.444c-.016.33-.049.66-.1.989a.337.337,0,0,1-.314.234c-2.3-.081-4.6-.135-6.9-.162q-6.1-.081-12.215.148c-2.027.067-4.066.166-6.09.3-.246.008-.533.064-.8.064A1.064,1.064,0,0,1,17871.582,1947.781Zm.408-.558c.023,0,.047,0,.072,0,.242-.014.477-.041.723-.054l1.465-.094c.977-.068,1.947-.126,2.918-.18a201.185,201.185,0,0,1,20.633-.026q.023-.171.035-.344l-.143.056c-.383.153-.615-.467-.273-.656.135-.071.273-.138.412-.2-.01-.139-.025-.278-.045-.416a10.39,10.39,0,0,0-.279-1.208.311.311,0,0,1-.17-.3c-.014-2.508.207-5.029.383-7.519q.472-6.613,1.357-13.173c.521-3.994,1.193-7.955,1.936-11.9a4.315,4.315,0,0,0-.018-.81l-.053,0a2.428,2.428,0,0,0-.307.14,2.394,2.394,0,0,0-1.164,1.465c-.066.247-.395.139-.367-.094a2.788,2.788,0,0,1,.834-1.542l-.807-.026a4.389,4.389,0,0,0-.877,1.635.238.238,0,0,1-.1.149q-.439,3.35-.8,6.7c-.422,4.049-.729,8.117-.93,12.171-.113,2.054-.18,4.094-.234,6.135s-.027,4.108-.135,6.148a.083.083,0,0,1-.166,0c-.068-1.164-.055-2.315-.041-3.479,0-1.137.027-2.274.068-3.411.107-4.094.342-8.171.682-12.251q.51-6.025,1.326-12.011a.251.251,0,0,1-.135-.272,4.24,4.24,0,0,1,.557-1.539l-2.555-.081a10.223,10.223,0,0,0-1.08,2.083c-.125.306-.6.18-.494-.135a13.119,13.119,0,0,1,.818-1.972h-.023l-.586-.019a5.225,5.225,0,0,0-.672,1.538c-.082.319-.535.166-.48-.135a4.946,4.946,0,0,1,.426-1.426l-3.771-.119a9.866,9.866,0,0,0-1.625,1.94.16.16,0,0,1-.275-.162,9.909,9.909,0,0,1,1.117-1.8l-.822-.025a4.083,4.083,0,0,0-.43,1.2c-.059.261-.494.2-.467-.058a4.334,4.334,0,0,1,.252-1.159q-1.761-.052-3.523-.1a3.826,3.826,0,0,0-.576,1.3.194.194,0,0,1-.381-.045,2.9,2.9,0,0,1,.256-1.274l-.857-.024a4.04,4.04,0,0,0-.3,1.1c-.045.274-.4.2-.467,0a1.561,1.561,0,0,1,.012-1.116q-1.389-.038-2.779-.073a3.325,3.325,0,0,0-.518,1.652.268.268,0,0,1-.535,0,3.7,3.7,0,0,1,.314-1.669l-.549-.012-.24-.008c-.152.228-.281.469-.416.718a.227.227,0,0,1-.422-.121,1.645,1.645,0,0,1,.127-.62c-.619-.02-1.236-.041-1.854-.068l-.855-.023a1.974,1.974,0,0,0-.623,1.542c.014.288-.467.36-.508.072a2.513,2.513,0,0,1,.3-1.632l-.131,0a12.8,12.8,0,0,0-.949,1.621c-.111.216-.414.054-.387-.166a4.3,4.3,0,0,1,.635-1.558c-.111-.036-.223-.078-.334-.114a.1.1,0,0,1-.051-.037.227.227,0,0,1-.123.122,1.935,1.935,0,0,1-.674.109l.012.012c.387.4.207,1.231.193,1.712-.025.8-.066,1.587-.094,2.382-.248,5.559-.346,11.119-.26,16.692q.1,8.32.721,16.628A.231.231,0,0,1,17871.99,1947.223Zm26.453-1.946q.012.1.018.194a8.5,8.5,0,0,1,2.7-.451c-.479-2.429-.844-4.88-1.111-7.343a91.7,91.7,0,0,1-.529-12.62q-.343,2.794-.607,5.6-.325,3.263-.531,6.544c-.148,2.145-.191,4.311-.361,6.457A4.516,4.516,0,0,1,17898.443,1945.277Zm2.877-32.1c-.176,1.3-.369,2.616-.518,3.933a90.09,90.09,0,0,0-.494,14.144,88.856,88.856,0,0,0,1.041,10.156.356.356,0,0,1,.082-.053c1.385-.589,2.783-1.092,4.148-1.708.342-.153.684-.319,1.029-.481.221-.094.576-.22.684-.44.135-.288-.193-.656-.342-.876-.18-.288-.355-.557-.521-.845a34.768,34.768,0,0,1-4.449-12.944,49.207,49.207,0,0,1-.535-6.939c-.014-1.177.014-2.355.055-3.533.043-.866.119-1.725.2-2.587q-.144.752-.279,1.5C17901.387,1912.738,17901.35,1912.963,17901.32,1913.179Zm-.473-3.419a2.481,2.481,0,0,1,1.037-.213.75.75,0,0,0-.01-.095.182.182,0,0,1-.182-.135c-.014-.059-.025-.118-.033-.176a.9.9,0,0,0-.555-.071,3.326,3.326,0,0,0-1.291.616l-.043.034Zm-2.041-.074a4.319,4.319,0,0,1,1.242-.97,4.548,4.548,0,0,1,.6-.247c-.562-.013-1.123-.031-1.686-.05a.807.807,0,0,1,.32.31.238.238,0,0,1-.187.342,6,6,0,0,1-.715-.135,2.6,2.6,0,0,0-1.955.6l-.07.062Zm-3.357-.115a3.763,3.763,0,0,1,.7-.7,3.2,3.2,0,0,1,.977-.515l-.592-.019a5.831,5.831,0,0,0-1.166.736,6.093,6.093,0,0,0-.467.481Zm-1.391-.046a5.259,5.259,0,0,1,1.129-1.224c-.764-.017-1.529-.03-2.293-.038a.61.61,0,0,1,.021.606c-.068.175-.373.121-.414-.054s-.221-.2-.414-.19a.173.173,0,0,1-.135.014,1.385,1.385,0,0,0-.215.05,4.179,4.179,0,0,0-1.082.729Q17892.358,1909.47,17894.059,1909.525Zm-4.357-.136a7.525,7.525,0,0,1,1.021-.875c.129-.093.26-.182.393-.262h-.963a4.136,4.136,0,0,0-1.406,1.109Zm-1.723-.051a4.122,4.122,0,0,1,.9-1.081c-.422,0-.842.007-1.264.011-.393.063-.793.025-1.186.1a.5.5,0,0,1-.406.429.2.2,0,0,1-.242-.24,3.7,3.7,0,0,0-.646.352,3.451,3.451,0,0,0-.434.337Zm-4.145-.116a4.16,4.16,0,0,1,.92-.875l.047-.033-.822.018c-.031.023-.059.047-.088.069a5.786,5.786,0,0,0-.869.8Zm-1.676-.045a3.638,3.638,0,0,1,.215-.3,5.289,5.289,0,0,1,.463-.523q-.894.023-1.787.048a.671.671,0,0,1-.322.407.234.234,0,0,1-.314-.319.374.374,0,0,0,.037-.07h-.045a3.863,3.863,0,0,0-.687.509c-.059.056-.115.114-.172.173Zm-3.594-.093.109,0a4.09,4.09,0,0,1,.525-.624l-.451.014c-.229.194-.457.39-.672.594Zm-1.371-.033a5.314,5.314,0,0,1,.4-.456l.076-.082-.971.032a.257.257,0,0,1-.16.364,1,1,0,0,1-.562-.027,1.592,1.592,0,0,0-.385-.015.526.526,0,0,1-.041.152C17876.1,1909.027,17876.646,1909.038,17877.193,1909.051Zm-2.061-.038c-.008-.018-.014-.036-.02-.054-.049.016-.1.033-.145.052Zm-1.439-.023h.035a2.792,2.792,0,0,1,.32-.275,3.135,3.135,0,0,1,.291-.187,1.587,1.587,0,0,0-.689.46Zm5.27-.691.449-.024a4.625,4.625,0,0,1,.656-.457l-.023-.005a.614.614,0,0,0-.127-.013A1.71,1.71,0,0,0,17878.963,1908.3Zm5.348-.219.92-.024a4.46,4.46,0,0,1,.428-.2.516.516,0,0,0-.275-.128.807.807,0,0,0-.166-.017A1.674,1.674,0,0,0,17884.311,1908.08Zm-10.945,37.62c-.111-1.245-.139-2.49-.18-3.726l-.152-3.721c-.162-4.409-.314-8.8-.477-13.213-.086-2.22-.152-4.422-.221-6.643-.043-1.434-.107-2.876-.152-4.32v.005h-.041c0-.464.006-.924,0-1.385q-.012-.469-.018-.938h.055c.152,2.476.207,4.966.314,7.461.166,4.4.342,8.8.521,13.2.08,2.216.166,4.422.26,6.638l.141,3.317c.039,1.11.094,2.216.094,3.326a.074.074,0,0,1-.148,0Zm17.631-1.546c-2.777-.139-5.541-.3-8.322-.454-1.4-.081-2.791-.148-4.189-.229s-2.809-.112-4.193-.288a.16.16,0,0,1,0-.319c1.578-.027,3.164.1,4.729.166,2.777.121,5.541.234,8.324.355,2.777.139,5.6.166,8.381.494.256.04.27.422,0,.422q-.281,0-.562,0C17893.773,1944.307,17892.387,1944.225,17891,1944.154Zm1.254-6.733-2-.085c-2.439-.108-4.875-.216-7.312-.342s-4.871-.22-7.311-.436a.1.1,0,0,1,0-.193c1.4,0,2.795.04,4.188.081q3.662.128,7.313.274l3.727.166a20.506,20.506,0,0,1,3.559.247c.176.04.107.261-.041.288a7.18,7.18,0,0,1-.83.043C17893.109,1937.464,17892.674,1937.438,17892.25,1937.421Zm-.875-2.166q-7.028-.038-14.02-.552c.037.1-.051.253-.18.21l-.727-.288c-.176-.068-.162-.382.053-.369,1.4.094,2.8.175,4.207.247,2.436.108,4.873.189,7.326.243q1.866.047,3.734.045a29.435,29.435,0,0,1,3.672.094c.121.014.193.22.027.247a17.193,17.193,0,0,1-2.387.133C17892.51,1935.267,17891.938,1935.255,17891.375,1935.255Zm-9.066-5.879a5.521,5.521,0,0,1-3.348-2.863,6.287,6.287,0,0,1-.148-4.777c1.074-3.074,4.068-5.856,7.5-5.285a6.47,6.47,0,0,1,5.324,6.189,5.9,5.9,0,0,1-5.793,6.108,5.008,5.008,0,0,1-4.965-6.067,4.526,4.526,0,0,1,6.781-2.692c2.166,1.555,2.27,5.452-.279,6.714a3.852,3.852,0,0,1-3.811-.252,2.991,2.991,0,0,1-.988-3.389,2.746,2.746,0,0,1,2.885-2c1.309.166,2.525,1.492,1.9,2.84-.508,1.011-2.211,1.663-2.867.4-.4-.823.107-2.148,1.16-2.04a.157.157,0,1,1,0,.315c-.59.04-.818.737-.715,1.24.148.674.9.7,1.389.337,1.307-1.052-.314-2.611-1.578-2.274a2.291,2.291,0,0,0,1.012,4.445c2.314-.085,3.24-2.674,2.211-4.548-1.119-2.022-3.941-1.959-5.416-.359-1.641,1.73-.863,4.76,1.074,5.9a4.664,4.664,0,0,0,6.3-1.829,5.272,5.272,0,0,0-.8-6.342,5.06,5.06,0,0,0-6.039-1.115,7.226,7.226,0,0,0-3.686,6.656,4.562,4.562,0,0,0,4.988,4c.422-.045.445.566.086.692a3.452,3.452,0,0,1-1.078.175A3.6,3.6,0,0,1,17882.309,1929.376Z" transform="translate(-16305.906 502.484)" fill="#0fd7ad" stroke="#0fd7ad" stroke-miterlimit="10" stroke-width="0.4"/>
    <path id="Union_71" data-name="Union 71" d="M17880.229,1957.067a11.2,11.2,0,0,1-2.543-.409.078.078,0,0,1,.023-.153c.939.045,1.877.171,2.83.211a24.829,24.829,0,0,0,2.834,0,26.906,26.906,0,0,0,9.758-2.435,24.564,24.564,0,0,0,4.25-2.489,7.2,7.2,0,0,0,1.531-1.474,3.487,3.487,0,0,0,.7-1.842.209.209,0,0,1,.418-.009c.107,1.626-1.352,2.947-2.547,3.805a26.967,26.967,0,0,1-14.623,4.847q-.439.011-.879.012C17881.4,1957.133,17880.813,1957.115,17880.229,1957.067Zm-2.951-.678-.037-.02a.235.235,0,0,1-.254-.039,1.909,1.909,0,0,1-.348-.341.235.235,0,0,1-.035-.066,1.517,1.517,0,0,1-.332-.321,4.277,4.277,0,0,1-.5-.93,18.4,18.4,0,0,1-.629-2.233q-1.172-4.622-2.35-9.241c-.391-1.541-.781-3.082-1.162-4.627l-.59-2.309-.322-1.253c-.074-.307-.227-.618-.008-.879a.859.859,0,0,1-.123-.392,1.5,1.5,0,0,1,.561-1.092,4.007,4.007,0,0,1,2-1.009l-.031-.191c-.139-.88-.283-1.77-.428-2.651l-.426-2.709-.207-1.285-.105-.644-.006,0a.028.028,0,0,1,0-.012l0-.029a.182.182,0,0,1,0-.032.229.229,0,0,1-.119-.179,4.67,4.67,0,0,1,.117-1.285c.068-.431.131-.867.234-1.3a.3.3,0,0,1,.432-.166,3.169,3.169,0,0,1,1.02,1.172,3.7,3.7,0,0,1,.225.654.668.668,0,0,1,.352-.021c.018-.164.3-.3.385-.04a6.638,6.638,0,0,1,.17,1.316c.055.427.1.858.168,1.285.111.876.246,1.748.395,2.606q.2,1.176.436,2.347l.059-.213.189-.75c.125-.485.256-.984.377-1.469.242-.993.48-1.986.7-2.974.154-.721.313-1.443.467-2.162a.228.228,0,0,1-.328-.151c-.207-.777-.342-1.586-.508-2.372-.135-.618-.268-1.245-.4-1.867a.162.162,0,0,1-.02.025,2.356,2.356,0,0,1-.965.494c-.318.118-.631.246-.953.351q.076.294.146.588a.924.924,0,0,1,.752-.4.2.2,0,0,1,.184.139l0,.108a.179.179,0,0,1-.184.135.962.962,0,0,0-.562.31.136.136,0,0,1-.105.052c.055.232.107.464.156.7l.205-.061a.569.569,0,0,1,.311-.04.118.118,0,0,1,.045.18.591.591,0,0,1-.283.117l-.227.054c.025.122.051.245.074.368l.035.187.055-.021.008,0,.023-.027a.16.16,0,0,1,.176.018.179.179,0,0,1,.049.153l-.006.031a.254.254,0,0,1-.029.149l-.1.121a.275.275,0,0,1-.072.074l.23.272a.5.5,0,0,1,.139.292.113.113,0,0,1-.17.1.349.349,0,0,1-.119-.106q.082.5.152,1a6.185,6.185,0,0,1,.828-.429c.152-.063.3-.144.455-.193a1.685,1.685,0,0,1,.5-.126c.1-.018.207.1.113.18a1.884,1.884,0,0,1-.414.31,3.825,3.825,0,0,1-.477.234,4.7,4.7,0,0,1-.953.4c.051.331.092.664.137,1a4.7,4.7,0,0,1,.045,1.146c-.031.2-.289.153-.338.009a7.614,7.614,0,0,1-.232-1.5c-.055-.521-.135-1.051-.217-1.563-.156-1.006-.35-2.008-.566-3.005-.191-.882-.418-1.752-.662-2.616a.14.14,0,0,1-.07-.247c-.291-1.019-.605-2.032-.916-3.051a.133.133,0,0,1,.055-.235c.162-.058.3-.157.449-.216l.041-.014a1.722,1.722,0,0,1,.232-.1l.643-.225,1.4-.494a.218.218,0,0,1,.26.162c.387,1.545.791,3.091,1.141,4.654.172.786.352,1.572.521,2.358.145.684.316,1.378.426,2.074.02-.1.039-.191.061-.286.1-.5.2-1,.295-1.5.051-.247.1-.494.162-.741s.162-.485.225-.732c.018-.081.172-.067.152.031,0,.04-.006.08-.008.121a.13.13,0,0,1,.143.1,1.373,1.373,0,0,1-.035.656l-.117.705c-.08.445-.156.9-.238,1.348-.6,3.261-1.379,6.482-2.277,9.672q.17.771.355,1.535.624-.135,1.244-.279l.643-2.766c.76-3.308,1.521-6.635,2.328-9.935a.673.673,0,0,1-.01-.187,1.336,1.336,0,0,1,.059-.256c.018-.085.039-.17.061-.255l-.852-.454a5.858,5.858,0,0,1-.553-.292.737.737,0,0,1-.08-.051,1.2,1.2,0,0,1-.238.24c-.131.108-.27-.063-.252-.193a1.087,1.087,0,0,1,.139-.386.115.115,0,0,1,.068-.117c.068-.106.145-.208.215-.31.166-.265.35-.512.535-.764a14.627,14.627,0,0,1,1.271-1.437.248.248,0,0,1,.416.175,11.454,11.454,0,0,1,.02,2.313,8.943,8.943,0,0,1-.148,1.031.258.258,0,0,1,.035.213c-.225,1.015-.453,2.039-.687,3.059a10.3,10.3,0,0,0,.5-1.787.18.18,0,0,1,.256-.112,4.106,4.106,0,0,1,1.137.836,4.262,4.262,0,0,1,.434.542c.48.1.635.755.766,1.183.252.809.508,1.613.75,2.426s.494,1.649.746,2.475l.359,1.182a4.841,4.841,0,0,1,.314,1.222.247.247,0,0,1-.012.078l.156-.053a.2.2,0,0,1-.027-.034,2.044,2.044,0,0,1-.211-.818l-.127-.791-.277-1.662c-.641-3.866-1.26-7.731-1.822-11.606a.134.134,0,0,1-.014-.086c0-.036-.01-.072-.016-.108a.572.572,0,0,0-.076.155c-.018.045-.09.022-.08-.031.025-.166-.027-.341-.014-.512a2.915,2.915,0,0,0,.025-.454,5.035,5.035,0,0,1,.135-.961,14.932,14.932,0,0,0,.113-1.981.26.26,0,0,1,.031-.125.182.182,0,0,1,.137-.13.3.3,0,0,1,.381.106l.053.09c.2.135.381.3.549.445a5.465,5.465,0,0,1,.768.872,2.834,2.834,0,0,1,.553,1.413s0,0,0,.006a8.529,8.529,0,0,1,.9,3.091l1.068,6.119.07.4.061-.674c.3-3.192.592-6.373.969-9.55a2.746,2.746,0,0,1-.174-1.735,6.58,6.58,0,0,1,.5-1.729,14.727,14.727,0,0,1,2.086-3.2.237.237,0,0,1,.4.166c-.158,1.581-.279,3.172-.445,4.757a4.763,4.763,0,0,1-.734,2.424c-.113.712-.221,1.425-.33,2.131-.537,3.394-1.092,6.78-1.637,10.173.059-.02.119-.039.178-.058a3.422,3.422,0,0,1,.488-.214.116.116,0,0,1,.146.052c.176-.037.352-.069.525-.1l-.092,0a.106.106,0,0,1-.006-.211c.719-.045,1.434-.13,2.148-.175s1.428-.054,2.143-.067a.249.249,0,0,1,.238.135,1.252,1.252,0,0,1-.1,1.216l.023.028.1.036a.33.33,0,0,1,.139.153,3.7,3.7,0,0,1,.162.539l.318,1.146q.331,1.179.66,2.354c.773,2.79,1.541,5.588,2.264,8.4q.539,2.089,1.061,4.2c.158.665.311,1.339.414,2.017a4.344,4.344,0,0,1-.014,1.954.1.1,0,0,1-.2,0,16.964,16.964,0,0,1-.391-2.278c-.135-.741-.311-1.469-.494-2.2-.687-2.758-1.385-5.526-2.111-8.284-.369-1.375-.746-2.74-1.129-4.115-.18-.678-.367-1.348-.557-2.013l-.3-1.06a3.642,3.642,0,0,1-.148-.508.435.435,0,0,1,.01-.126,3.117,3.117,0,0,1-.66.562,9.8,9.8,0,0,1-1.424.665c-.58.252-1.154.49-1.738.719a86.652,86.652,0,0,1-12.383,3.906.278.278,0,0,1-.473.109l-.281.064q-1.67.371-3.352.669c-.561.108-1.137.207-1.707.287a2.167,2.167,0,0,1-1.086-.058l-.027-.01c.057.176.08.375.125.545l.176.695a1.964,1.964,0,0,1,.656-.147l.021.045c-.035.034-.07.067-.107.1a41.635,41.635,0,0,0,4.82-.577,74.1,74.1,0,0,0,9.322-2.448c1.5-.485,3-.97,4.479-1.5a6.787,6.787,0,0,0,3.328-2.143c.1-.135.324-.022.238.135-.732,1.325-2.309,1.927-3.656,2.4-3.1,1.1-6.227,2.2-9.42,3.032a40.144,40.144,0,0,1-9.6,1.441l.055.217.639,2.5c.777,3.05,1.545,6.092,2.322,9.142.387,1.514.764,3.014,1.15,4.524a16.6,16.6,0,0,0,.553,1.981,3.635,3.635,0,0,0,.4.809,2.929,2.929,0,0,0,.566.692.126.126,0,0,1,.045.073.2.2,0,0,1,.049.2l0,.013.021.027a.079.079,0,0,1-.051.131A.068.068,0,0,1,17877.277,1956.389Zm-6.047-23.1c-.246.373-.143.723.311.8a3.844,3.844,0,0,0,1.357-.13l.639-.115a6.592,6.592,0,0,1-.2-1.066l-.123-.743A3.375,3.375,0,0,0,17871.23,1933.289Zm2.619-.553a6.247,6.247,0,0,1,.146,1.026c.6-.114,1.2-.234,1.8-.36-.41-1.733-.77-3.466-1.033-5.226-.135-.858-.25-1.725-.354-2.583-.045-.454-.1-.912-.145-1.366-.027-.286-.08-.592-.086-.891a1.008,1.008,0,0,1-.256.141.526.526,0,0,1-.084.337.249.249,0,0,1-.424.009.507.507,0,0,1-.064-.156l-1.021.376a.26.26,0,0,1-.043.01l.012.071.121.683.238,1.321.484,2.641c.158.907.324,1.8.48,2.7l.023.13c.047,0,.092,0,.139.005.162.009.207.261.035.3l-.117.022Zm4.4.115q1.793-.429,3.564-.931a.265.265,0,0,1-.027-.074c-.184-.926-.363-1.848-.549-2.769a4.577,4.577,0,0,1-.533.114c-.168.036-.334.08-.5.133a.218.218,0,0,1-.047.025c-.115.043-.232.08-.35.114a4.617,4.617,0,0,0-.881.452Q17878.588,1931.383,17878.246,1932.852Zm2.445-8.148.266.993c.166.66.318,1.307.467,1.972.314,1.339.611,2.682.871,4.039a.313.313,0,0,1,0,.073q1.251-.362,2.49-.76l.7-.229a.234.234,0,0,1-.072-.076,2.3,2.3,0,0,1-.258-.723l-.2-.665-.422-1.424c-.275-.939-.557-1.878-.818-2.817l-.4-1.393c-.076-.243-.131-.481-.215-.723a1.565,1.565,0,0,0-.064-.187.162.162,0,0,1-.174.012.635.635,0,0,1-.219-.224c-.125.037-.252.116-.348.152l-.719.31-.979.4c-.068.129-.143.255-.221.376A2.675,2.675,0,0,1,17880.691,1924.7Zm3.662-5.93q.539,2.958,1.068,5.907c.172,1,.342,1.995.518,2.992l.25,1.46.135.737a1.687,1.687,0,0,1,.041.623q1.093-.377,2.172-.781c-.146-.533-.193-1.1-.289-1.643l-.279-1.667c-.35-2.008-.678-4.016-1.006-6.038-.162-.993-.332-1.99-.494-2.987a9.649,9.649,0,0,0-.562-2.259.259.259,0,0,1-.3.007s0,.01,0,.014a.281.281,0,0,1-.543.144c-.016-.054-.031-.108-.045-.162-.094.043-.186.088-.277.135-.189.09-.365.18-.535.279a2.839,2.839,0,0,1-.449.179C17883.955,1916.731,17884.158,1917.755,17884.354,1918.774Zm-5.375,10.894.016-.01-.014,0A.011.011,0,0,1,17878.979,1929.669Zm9.867-1.456c.078.431.174.865.215,1.3q.735-.28,1.465-.574c.494-.2.979-.4,1.461-.611.4-.171.813-.323,1.189-.53s1.084-.691.982-1.232c-.443.008-.885.015-1.332.014a.077.077,0,0,1-.055.019,19.082,19.082,0,0,0-2.268.081,10.012,10.012,0,0,0-1.117.212c-.2.116-.416.21-.629.315l-.041.255Zm-9.785,1.1a8.375,8.375,0,0,1,.965-.26,5.107,5.107,0,0,1,.58-.215,2.384,2.384,0,0,1,.559-.105q-.1-.5-.207-.991c-.145-.7-.307-1.384-.459-2.071l-.215-.961c-.031-.127-.062-.249-.086-.37Zm9.428-3.184.3-1.784q.782-4.72,1.574-9.451a1.892,1.892,0,0,1-.191.12c-.148.081-.318-.117-.187-.238a2.854,2.854,0,0,0,.5-.6c.035-.214.07-.429.107-.643a1.724,1.724,0,0,0-.6-.095,1.579,1.579,0,0,0-.359.036c-.062.012-.125.023-.187.031a1.948,1.948,0,0,1-.006.238.156.156,0,0,1-.109.135c-.041.676-.088,1.355-.133,2.03-.135,1.743-.291,3.482-.449,5.22q-.114,1.334-.232,2.66l-.113,1.285c-.012.111-.021.223-.035.335Q17888.43,1925.769,17888.488,1926.129Zm-15.994-3.406c-.053.287-.084.578-.146.857l.9-.354c.021-.008.045-.018.066-.027a2.9,2.9,0,0,0-.184-.583,2.633,2.633,0,0,0-.48-.686C17872.594,1922.2,17872.537,1922.461,17872.494,1922.723Zm8.367.148c.191-.086.383-.172.576-.255l.625-.274c.109-.047.225-.107.34-.155a3.333,3.333,0,0,0-.26-.33,4.668,4.668,0,0,0-.762-.673A10.161,10.161,0,0,1,17880.861,1922.871Zm-1.307-4.37.521.252.725.36a7.071,7.071,0,0,0,.119-.872,9.088,9.088,0,0,0,.01-1.678,12.518,12.518,0,0,0-.875,1.036,9.041,9.041,0,0,0-.549.746c-.023.036-.045.072-.066.107C17879.477,1918.465,17879.516,1918.481,17879.555,1918.5Zm-5.283.506c.279-.13.563-.242.854-.354a2.476,2.476,0,0,1,1.078-.31.13.13,0,0,1,.074.026l-.064-.3c-.33-1.488-.65-2.976-1-4.448l-1.193.409-.375.13a.205.205,0,0,1-.125.095,1.956,1.956,0,0,1-.418.135c-.119.017-.238.016-.359.029q.179.409.34.825c.35-.341,1.008-.683,1.453-.382a.127.127,0,0,1-.031.238c-.2.067-.418.049-.633.108a1.281,1.281,0,0,0-.59.359.19.19,0,0,1-.062.039c.074.2.146.4.215.6a.188.188,0,0,1,.092-.06c.295-.1.74-.328,1.064-.193a.115.115,0,0,1,.039.157c-.205.278-.709.305-1.014.368a.2.2,0,0,1-.09,0c.047.136.09.272.135.409s.088.291.131.436a1.821,1.821,0,0,1,.654-.131.115.115,0,0,1,.059.216,1.636,1.636,0,0,1-.621.224c.031.1.059.2.088.3a.177.177,0,0,1,.125,0l.229.139a.129.129,0,0,1,.045.171.144.144,0,0,1-.18.045l-.141-.082C17874.127,1918.467,17874.2,1918.737,17874.271,1919.007Zm9.416-3.594a1.151,1.151,0,0,1,.1-.111,1.072,1.072,0,0,1,.242-.153c.193-.112.387-.216.58-.323.094-.048.189-.095.285-.14a10.926,10.926,0,0,0-.4-1.145,7.887,7.887,0,0,0-.346-.758c-.025.337-.059.673-.1,1.005a4.23,4.23,0,0,1-.2.979c-.078.157-.113.337-.186.494a.6.6,0,0,1-.061.119l.023,0A.079.079,0,0,1,17883.688,1915.413Zm1.742-.961.035-.014a1.476,1.476,0,0,0-.057-.47,2.841,2.841,0,0,0-.418-.8.882.882,0,0,0-.059-.076A11.446,11.446,0,0,1,17885.43,1914.452ZM17890.736,1913.586Zm.1-.332a.265.265,0,0,1,.039.02,7.356,7.356,0,0,0,.248-1.471c.123-1.247.221-2.488.316-3.733a14.041,14.041,0,0,0-1.449,2.34,5.936,5.936,0,0,0-.529,1.64,5.122,5.122,0,0,0-.062.827c0,.105.01.208.02.31a1.3,1.3,0,0,1,.545-.1A2.473,2.473,0,0,1,17890.836,1913.253Zm-12.857,24.146v0Zm-2.3-9.9c-.045-.126-.08-.251-.117-.382a.08.08,0,0,1,0-.043.168.168,0,1,1,.123-.036.077.077,0,0,1,.023.039,3.968,3.968,0,0,1,.094.386.067.067,0,0,1-.064.08A.065.065,0,0,1,17875.674,1927.5Zm.246-1.352a.426.426,0,0,1-.363-.22.171.171,0,0,1,.293-.175l.107.058.063-.009a.311.311,0,0,1,.145-.014.129.129,0,0,1,.094.13c0,.161-.186.229-.324.229Zm-.273-1.1.293-.171a.8.8,0,0,1,.3-.144.135.135,0,0,1,.148.2.791.791,0,0,1-.256.225l-.293.216a.157.157,0,0,1-.094.033C17875.59,1925.411,17875.471,1925.152,17875.646,1925.05Z" transform="translate(-16633.695 434.193)" fill="#7595ec" stroke="#7595ec" stroke-miterlimit="10" stroke-width="0.4"/>
    <path id="Union_67" data-name="Union 67" d="M17905.492,1921.761l-.3-.082-1.057.028a.274.274,0,0,1-.256-.385c-1.986-.543-3.973-1.1-5.953-1.643q-6.718-1.882-13.408-3.813c-4.154-1.2-8.32-2.418-12.463-3.682a.175.175,0,0,1-.145.058.818.818,0,0,1-.453-.241l-.3-.092a.278.278,0,0,1-.117-.417,3.231,3.231,0,0,1-.318-.621,2.756,2.756,0,0,1,1.4-3.368c.369-.171,1.377-.162,1.088.495a.14.14,0,0,1-.2.058.9.9,0,0,0-1.088.193,2.32,2.32,0,0,0-.773,1.209,2.248,2.248,0,0,0,.131,1.412,2.222,2.222,0,0,0,.359.571.9.9,0,0,0,.076.087c.1.027.191.054.289.075.26.072.543.1.809.153a.074.074,0,0,1,.039.127l3.176.93a2.578,2.578,0,0,1-.514-.787,2.03,2.03,0,0,1,.158-1.906,2.2,2.2,0,0,1,1.6-1.052.832.832,0,0,1,.152,0l-.566-.159c-.531-.153-1.074-.306-1.615-.472s-1.078-.292-1.6-.495a.189.189,0,0,1,.1-.364,18.381,18.381,0,0,1,1.875.472c.59.153,1.184.315,1.768.472,1.219.346,2.428.683,3.637,1.016q6.448,1.794,12.91,3.6,6.179,1.714,12.348,3.442l0,0a.123.123,0,0,1,.176-.171c.029.026.057.052.084.078a2.806,2.806,0,0,1,.986.412l1.082.562,2.164,1.133,2.658,1.4a2.444,2.444,0,0,1,.4.207.093.093,0,0,1,.016.011l1.328.7a.27.27,0,0,1-.072.495.214.214,0,0,1-.146.216,4.02,4.02,0,0,1-1.816-.144l-.047-.011-7.285.2a.272.272,0,0,1-.221.111A.347.347,0,0,1,17905.492,1921.761Zm-.084-.656,5.01-.121c0-.009,0-.019,0-.028a.8.8,0,0,1,.48-.794.7.7,0,0,1,.291-.754l-.682-.363-2.193-1.174-1.084-.571c-.055-.029-.111-.058-.168-.087a2.724,2.724,0,0,1,0,2.366,2.937,2.937,0,0,1-1.744,1.5Zm5.8-.2a.285.285,0,0,1-.014-.039.214.214,0,0,1-.088-.212l-.053-.082a.353.353,0,0,0-.145.206A1.2,1.2,0,0,1,17911.205,1920.908Zm2.363-.037c.049.011.1.023.143.036l.283-.007-.279-.148c-.094.033-.186.062-.279.085Zm-34.742-7.239q6.683,1.949,13.4,3.835c3.965,1.113,7.939,2.19,11.91,3.286a.2.2,0,0,1,.1-.035,2.7,2.7,0,0,0,2.4-1.344,2.616,2.616,0,0,0,.051-2.077q-3.636-1.023-7.258-2.042l-12.9-3.62q-3.217-.9-6.428-1.812c-.822-.237-1.646-.467-2.477-.7a.487.487,0,0,1,.25.311.252.252,0,0,1-.3.351.149.149,0,0,1-.111-.219l-.055-.02a.944.944,0,0,0-.283.054,1.735,1.735,0,0,0-.576.288,1.717,1.717,0,0,0-.66,1.016,1.609,1.609,0,0,0,.1.921.176.176,0,0,1,.221-.179c2.172.594,4.33,1.2,6.484,1.816l11.434,3.246c1.893.54,3.795,1.07,5.691,1.623l2.887.827c.953.279,1.9.531,2.832.854a.167.167,0,0,1-.084.324c-1.094-.247-2.164-.58-3.252-.881s-2.152-.6-3.24-.913q-5.7-1.619-11.422-3.255c-3.8-1.079-7.594-2.15-11.379-3.273a.18.18,0,0,1-.1-.027c.021.044.047.088.072.13a1.885,1.885,0,0,0,.438.472c.166.117.342.189.5.319a.17.17,0,0,1,.039.219Zm-1.295-4.042Zm27.832,8.1a31.152,31.152,0,0,1-3.193-.647c-1.043-.229-2.09-.468-3.133-.7-3.773-.872-7.531-1.825-11.277-2.792-3.74-.985-7.48-2.005-11.178-3.161a.193.193,0,0,1,.1-.373c2.1.562,4.189,1.169,6.295,1.731,3.723,1.007,7.441,1.983,11.186,2.909,1.867.468,3.729.913,5.6,1.371.936.22,1.885.441,2.82.67s1.91.382,2.822.688c.15.051.141.307-.016.307Z" transform="translate(-16318.855 634.235)" fill="#f9865f" stroke="#f9865f" stroke-miterlimit="10" stroke-width="0.4"/>
    <path id="Union_70" data-name="Union 70" d="M17876.244,1918.56a25.112,25.112,0,0,1-2.965-.656,5.536,5.536,0,0,1-2.232-1.109,3.682,3.682,0,0,1-.436-4.635,8.5,8.5,0,0,1,4.268-3.108,25.88,25.88,0,0,1,5.754-1.662,23.677,23.677,0,0,1,11.719.777.094.094,0,0,1-.053.18c-.455-.094-.912-.18-1.371-.261a28.014,28.014,0,0,0-11.072-.009,26.122,26.122,0,0,0-5.277,1.7c-1.486.674-3.1,1.608-3.746,3.185a3.437,3.437,0,0,0-.166,2.3,2.9,2.9,0,0,0,1.553,1.666,9.943,9.943,0,0,0,2.408.75c.967.216,1.932.382,2.9.508a31.57,31.57,0,0,0,11.66-.746c1.51-.4,3.369-.84,4.354-2.178.7-.943.719-2.614-.469-3.185a.349.349,0,0,1,.086-.624,15.848,15.848,0,0,0,3.422-1.672,24.221,24.221,0,0,1-4.625-.763.317.317,0,0,1,.166-.611,24.215,24.215,0,0,0,5.4.786.32.32,0,0,1,.156.593,17.474,17.474,0,0,1-3.723,2.08,2.32,2.32,0,0,1,.246.282,3.11,3.11,0,0,1-.549,3.962,6.156,6.156,0,0,1-2.178,1.276,21.983,21.983,0,0,1-2.82.809,32.279,32.279,0,0,1-12.416.364ZM17897.527,1909.828Zm-21.467,6.244a2.234,2.234,0,0,1-1.25-2.655,3.075,3.075,0,0,1,2.4-2.107.135.135,0,0,1,.07.261,2.912,2.912,0,0,0-2.053,2.188,1.872,1.872,0,0,0,.279,1.267,1.786,1.786,0,0,0,1.164.692,3.9,3.9,0,0,0,2.551-.3,1.614,1.614,0,0,0,.754-.755,1.336,1.336,0,0,0-.166-1.244,2.068,2.068,0,0,0-1.127-.822,5.677,5.677,0,0,0-.791-.2,1.819,1.819,0,0,1-.705-.175.23.23,0,0,1,0-.4,1.774,1.774,0,0,1,1.061-.027,3.6,3.6,0,0,1,1.047.319,2.539,2.539,0,0,1,1.316,1.419,1.8,1.8,0,0,1-.189,1.577,2.477,2.477,0,0,1-1.158.894,4.609,4.609,0,0,1-1.736.336A3.81,3.81,0,0,1,17876.061,1916.072Zm6.953-1.244a1.154,1.154,0,0,1-.539-1.5,1.782,1.782,0,0,1,1.711-.943c.207-.009.207.3,0,.319l-.041,0a1.156,1.156,0,0,1,.3.373,1.374,1.374,0,0,1,.08,1.056,1.236,1.236,0,0,1-1.127.77A1.033,1.033,0,0,1,17883.014,1914.827Zm-.1-1.455c-.152.314-.145.853.229,1.02a.68.68,0,0,0,.85-.521.939.939,0,0,0-.152-.611,2.927,2.927,0,0,1-.23-.436A1.25,1.25,0,0,0,17882.91,1913.372Zm4.887,0a.228.228,0,0,1-.166-.22c.01-.323.018-.651.018-.984a.178.178,0,0,1,.355,0c.023.257.041.511.061.763a1.1,1.1,0,0,0,.852-.224c.1-.126.166-.476.008-.57a.231.231,0,0,1,.18-.418.783.783,0,0,1,.393,1.217,1.169,1.169,0,0,1-1.08.491A4.1,4.1,0,0,1,17887.8,1913.377Z" transform="translate(-16589.914 394)" fill="#f9865f" stroke="#f9865f" stroke-miterlimit="10" stroke-width="0.4"/>
    <path id="Union_69" data-name="Union 69" d="M17911.895,1958.084a11.231,11.231,0,0,1-3.437-4.157,2.854,2.854,0,0,0-.643-.918,2.69,2.69,0,0,0-.918-.4c-.711-.18-1.432-.324-2.137-.522a20.19,20.19,0,0,1-4.184-1.565,10.087,10.087,0,0,1-5.494-6.7,36.6,36.6,0,0,0-3.895-2.042,15.985,15.985,0,0,0-3.977-1.183,12.816,12.816,0,0,0-3.932.108c-2.461.4-5.035,1.089-7.441.068-.287-.126-.156-.544.09-.625q4.778-1.65,9.563-3.318a7.248,7.248,0,0,1-.5-.673,10.9,10.9,0,0,1-.494-10.472,17.6,17.6,0,0,1,8.133-7.94,22.975,22.975,0,0,1,11.129-2.528,22.277,22.277,0,0,1,10.859,3.216,23.25,23.25,0,0,1,4.459,3.549,18,18,0,0,1,3.346,4.584.194.194,0,0,1-.191.288,6.032,6.032,0,0,1,.951,4.044,6.4,6.4,0,0,1-1.662,3.849,9.1,9.1,0,0,1,2.553,5.013c.6,4.179-1.861,8.057-5.109,10.459a20.6,20.6,0,0,1-3.109,1.885c-.535.279-1.092.526-1.654.769-.508.22-1.049.391-1.543.661a1.2,1.2,0,0,0-.766,1.048,3.991,3.991,0,0,0,.3,1.116,2.8,2.8,0,0,1,.225,2.245.369.369,0,0,1-.344.2A.3.3,0,0,1,17911.895,1958.084Zm-15.979-14.593a8.052,8.052,0,0,0,2.32,4.292c2.105,2.11,4.98,3.108,7.832,3.761a6.75,6.75,0,0,1,2.016.612,3.478,3.478,0,0,1,1.281,1.714,10.213,10.213,0,0,0,2.48,3.194,2.209,2.209,0,0,0-.078-.491,6.564,6.564,0,0,1-.477-2.15c.09-1,.936-1.475,1.791-1.795a22.3,22.3,0,0,0,6.158-3.338c2.99-2.461,5.164-6.451,4.043-10.387s-5.051-6.428-8.861-7.247a15.752,15.752,0,0,0-11.7,2.123,16.539,16.539,0,0,0-6.855,9.584A.471.471,0,0,1,17895.916,1943.491Zm-7.814-3.432a25.808,25.808,0,0,1,7.2,3.116q.155-.723.359-1.433a15.979,15.979,0,0,1,7.961-9.37,16.433,16.433,0,0,1,12.3-1.039,13.666,13.666,0,0,1,5.219,3.041,7.3,7.3,0,0,0,1.092-1.615,6.82,6.82,0,0,0,.545-1.966,7,7,0,0,0-.748-4.013.058.058,0,0,1,.02-.067c-.244-.369-.5-.733-.752-1.093a23.568,23.568,0,0,0-8.139-7.229,21.633,21.633,0,0,0-10.588-2.528,22.314,22.314,0,0,0-10.531,2.893,16.183,16.183,0,0,0-7.41,8.088,9.712,9.712,0,0,0,1.656,9.892.339.339,0,0,1-.148.553q-4.547,1.593-9.1,3.169a9.286,9.286,0,0,0,3.314.043c1.264-.184,2.516-.472,3.783-.612a12.75,12.75,0,0,1,1.508-.091A11.333,11.333,0,0,1,17888.1,1940.059Zm14.057,2.829a2.5,2.5,0,0,1-1.012-2.884,2.241,2.241,0,0,1,2.193-1.431.286.286,0,0,1,.119-.4,2.247,2.247,0,0,1,3.076,1.5,2.954,2.954,0,0,1-1.164,3.1,3.029,3.029,0,0,1-1.74.553A2.581,2.581,0,0,1,17902.158,1942.888Zm-.639-2.366a1.986,1.986,0,0,0,1.318,2.065,2.27,2.27,0,0,0,2.295-.576,2.16,2.16,0,0,0,.557-2.294,1.755,1.755,0,0,0-1.988-.967l-.029.005a.192.192,0,0,1-.189.229c-.049,0-.1-.006-.145-.006A1.846,1.846,0,0,0,17901.52,1940.522Zm7.379,1.273a1.81,1.81,0,0,1-.32-2.191c.311-.616,1.193-1.359,1.912-.949a.239.239,0,0,1,.066.065l.033,0a1.8,1.8,0,0,1-.365,3.576A1.963,1.963,0,0,1,17908.9,1941.8Zm1.592-2.7a4.1,4.1,0,0,0-.836.436,1.6,1.6,0,0,0-.51.819,1.125,1.125,0,0,0,1.049,1.323,1.145,1.145,0,0,0,1.4-1.1,1.574,1.574,0,0,0-1.057-1.5l-.006,0A.27.27,0,0,1,17910.49,1939.091Zm4.342,2.263a1.267,1.267,0,0,1-.82-1.624,1.393,1.393,0,0,1,1.705-.846.358.358,0,0,1,.252.3,1.321,1.321,0,0,1,.469,1.472,1.172,1.172,0,0,1-1.141.773A1.4,1.4,0,0,1,17914.832,1941.354Zm.17-.535a.657.657,0,0,0,.977-.36.892.892,0,0,0-.217-.9.377.377,0,0,1-.229.018.777.777,0,0,0-.158-.017A.67.67,0,0,0,17915,1940.819Zm-13.172.378c-.027-.049.055-.094.086-.049.016.035-.02.068-.053.068A.039.039,0,0,1,17901.83,1941.2Zm-6.793-.382c-.291-.05-.584-.13-.871-.2a17.687,17.687,0,0,1-1.732-.522,13.064,13.064,0,0,1-3.172-1.588.172.172,0,1,1,.166-.3c1.066.472,2.092.985,3.2,1.372.563.189,1.119.346,1.682.49.252.054.514.108.779.157a1.419,1.419,0,0,1,.729.265.2.2,0,0,1-.045.3.619.619,0,0,1-.318.081A2.3,2.3,0,0,1,17895.037,1940.814Zm-7.336-4.143a10.46,10.46,0,0,1-.863-1.152c-2.178-3.392-1.66-7.746.391-11.062a16.724,16.724,0,0,1,9.348-6.905,19.641,19.641,0,0,1,11.705.18,23.223,23.223,0,0,1,9.613,6.073c2.084,2.2,4.188,5.934,2.416,8.9-.189.315-.629.036-.486-.279a5.28,5.28,0,0,0,.328-1.075,6.492,6.492,0,0,0-.826-4.341,14.774,14.774,0,0,0-3.113-3.833,22.46,22.46,0,0,0-9.492-5.214,18.782,18.782,0,0,0-11.135.535,15.4,15.4,0,0,0-8.479,7.229c-1.705,3.329-1.674,7.715.98,10.563a.286.286,0,0,1-.211.468A.231.231,0,0,1,17887.7,1936.671Zm16.068-8.9a2.955,2.955,0,0,1-1.166-3.095,2.254,2.254,0,0,1,3.078-1.507.287.287,0,0,1,.119.4,2.249,2.249,0,0,1,2.193,1.435,2.5,2.5,0,0,1-1.012,2.884,2.579,2.579,0,0,1-1.467.436A3.039,3.039,0,0,1,17903.77,1927.773Zm-.32-3.059a2.163,2.163,0,0,0,.559,2.294,2.272,2.272,0,0,0,2.295.58,1.992,1.992,0,0,0,1.318-2.069,1.848,1.848,0,0,0-1.963-1.534.2.2,0,0,1-.189-.233l-.031-.005a1.855,1.855,0,0,0-.377-.039A1.743,1.743,0,0,0,17903.449,1924.714Zm-6.4.612a1.775,1.775,0,0,1,1.5-1.606.209.209,0,0,1,.039,0,.26.26,0,0,1,.064-.062c.721-.409,1.6.328,1.912.945a1.823,1.823,0,0,1-.324,2.2,1.965,1.965,0,0,1-1.326.5A1.769,1.769,0,0,1,17897.049,1925.326Zm1.557-1.264a1.583,1.583,0,0,0-1.053,1.507,1.144,1.144,0,0,0,1.395,1.1,1.125,1.125,0,0,0,1.049-1.327,1.6,1.6,0,0,0-.51-.819,4.467,4.467,0,0,0-.836-.436.2.2,0,0,1-.039-.029Zm-5.9,1.6a1.316,1.316,0,0,1,.467-1.476.362.362,0,0,1,.25-.305,1.4,1.4,0,0,1,1.7.846,1.272,1.272,0,0,1-.812,1.628,1.432,1.432,0,0,1-.463.077A1.17,1.17,0,0,1,17892.707,1925.663Zm.455-.2a.659.659,0,0,0,.977.36.678.678,0,0,0-.531-1.237.378.378,0,0,1-.23-.022A.908.908,0,0,0,17893.162,1925.461Z" transform="translate(-16394.383 385.8)" fill="#17a9fe" stroke="#17a9fe" stroke-miterlimit="10" stroke-width="1"/>
  </g>
</svg>
