<svg xmlns="http://www.w3.org/2000/svg" width="904.4" height="728.797" viewBox="0 0 904.4 728.797">
  <g id="Group_134" data-name="Group 134" transform="translate(-397.275 -109.341)">
    <g id="Group_107" data-name="Group 107" transform="translate(817.152 124.924)">
      <g id="Group_106" data-name="Group 106" transform="translate(0 3.433)">
        <g id="Path_2672" data-name="Path 2672" transform="translate(-638.803 -120.418)" fill="#fff" stroke-miterlimit="10">
          <path d="M 783.5177612304688 281.6134033203125 C 749.7590942382812 249.5674743652344 712.65478515625 232.1428833007812 687.301025390625 223.1400299072266 C 672.7206420898438 217.9626922607422 660.3912963867188 214.958740234375 652.6156616210938 213.3504180908203 C 647.6160278320312 212.3162689208984 643.8438110351562 211.7136077880859 641.5521850585938 211.3893127441406 C 643.8563232421875 205.1769104003906 650.398193359375 187.6169738769531 657.2874755859375 169.8363494873047 C 662.2935180664062 156.9162139892578 666.4996948242188 146.4119873046875 669.7892456054688 138.6154327392578 C 671.7342529296875 134.0054321289062 673.372802734375 130.3110504150391 674.659423828125 127.6349105834961 C 676.111083984375 124.6154632568359 676.8433837890625 123.4573516845703 677.1604614257812 123.0276031494141 C 678.34228515625 122.842041015625 681.6124877929688 122.4181365966797 686.8170776367188 122.4181365966797 C 690.8140258789062 122.4181365966797 695.1290893554688 122.6642456054688 699.6425170898438 123.1496353149414 C 705.305419921875 123.7586364746094 711.293212890625 124.7477188110352 717.4396362304688 126.0894393920898 C 733.1361083984375 129.5158538818359 749.93359375 135.2306060791016 767.3655395507812 143.0749359130859 C 782.6934814453125 149.9727172851562 796.3013305664062 157.6858520507812 807.8109130859375 166.0000457763672 C 816.9849243164062 172.6270294189453 824.8488159179688 179.6446685791016 831.1842651367188 186.8580169677734 C 839.7881469726562 196.6541442871094 843.136474609375 204.0410919189453 844.1233520507812 206.5775146484375 L 783.5177612304688 281.6134033203125 Z" stroke="none"/>
          <path d="M 686.8165283203125 124.4181213378906 C 682.7171020507812 124.4181213378906 679.86669921875 124.6866760253906 678.3445434570312 124.8803100585938 C 677.9354858398438 125.5693664550781 677.235595703125 126.8582153320312 676.1273803710938 129.2033996582031 C 674.8211059570312 131.9678955078125 673.1756591796875 135.7120361328125 671.23681640625 140.331787109375 C 667.9476318359375 148.1691131591797 663.77978515625 158.6025695800781 658.8489990234375 171.3423309326172 C 652.79541015625 186.9831695556641 647.0537719726562 202.3311004638672 644.2835083007812 209.7796478271484 C 646.5294189453125 210.1382904052734 649.4734497070312 210.6581268310547 653.0208129882812 211.3918609619141 C 660.8577880859375 213.0128936767578 673.2827758789062 216.0399627685547 687.97021484375 221.2552947998047 C 713.1133422851562 230.183349609375 749.73095703125 247.3356628417969 783.3174438476562 278.6783447265625 L 841.820068359375 206.2461090087891 C 841.40478515625 205.2930603027344 840.7908325195312 204.0011444091797 839.9221801757812 202.4262847900391 C 838.1066284179688 199.1346435546875 834.777099609375 193.9011383056641 829.2252807617188 187.6616821289062 C 822.966064453125 180.6272583007812 815.2206420898438 173.7791137695312 806.2039794921875 167.3074645996094 C 794.8985595703125 159.1930389404297 781.5552368164062 151.6536865234375 766.5447998046875 144.8987884521484 C 749.2391357421875 137.1112670898438 732.5742797851562 131.4402770996094 717.0130615234375 128.0433959960938 C 703.2867431640625 125.0470886230469 693.0159912109375 124.4181213378906 686.8167724609375 124.4181213378906 L 686.8165283203125 124.4181213378906 M 686.8170166015625 120.4180908203125 C 700.8212280273438 120.4181213378906 728.4873657226562 123.3866577148438 768.186279296875 141.2510986328125 C 835.9256591796875 171.7346801757812 846.3831176757812 206.962646484375 846.3831176757812 206.962646484375 L 783.706298828125 284.5629577636719 C 718.045166015625 221.1383972167969 638.8030395507812 213.0549011230469 638.8030395507812 213.0549011230469 C 638.8030395507812 213.0549011230469 672.1876220703125 122.5118103027344 676.2606201171875 121.153564453125 C 676.2606201171875 121.153564453125 679.8463134765625 120.4180908203125 686.8170166015625 120.4180908203125 Z" stroke="none" fill="#a0c6f4"/>
        </g>
        <path id="Path_2673" data-name="Path 2673" d="M645.493,177.728s77.917,7.871,125.927,51.945" transform="translate(-633.858 -78.058)" fill="none" stroke="#2a1e17" stroke-linecap="round" stroke-linejoin="round" stroke-width="1"/>
        <path id="Path_2674" data-name="Path 2674" d="M684.18,199.565l29.068-56.521,29.875,58.943Z" transform="translate(-605.263 -103.695)" fill="#a0c6f4"/>
        <path id="Path_2675" data-name="Path 2675" d="M687.43,199.1,716.5,142.58l29.875,58.943Z" transform="translate(-602.861 -104.038)" fill="none" stroke="#2a1e17" stroke-linecap="round" stroke-linejoin="round" stroke-width="1"/>
      </g>
      <path id="Path_2676" data-name="Path 2676" d="M671.74,118.444s87.364,7.87,141.67,72.409" transform="translate(-614.458 -118.444)" fill="none" stroke="#2a1e17" stroke-linecap="round" stroke-linejoin="round" stroke-width="1"/>
    </g>
    <path id="Path_2677" data-name="Path 2677" d="M700.783,282.91c-4.795-3.527-7.946-5.892-7.946-5.892,1.33-1.774,22.355-24.171,34.527-42.219C727.364,234.8,702.747,284.353,700.783,282.91Z" transform="translate(218.283 92.253)" fill="#2a1e17"/>
    <path id="Path_2678" data-name="Path 2678" d="M526.12,168.592c2.343,3.9,3.383,2.341,10.146,1.821s16.39,4.423,19.771,12.748,2.343,9.624.522,10.666-14.83,2.6-15.35,5.2" transform="translate(95.157 43.442)" fill="none" stroke="#2a1e17" stroke-linecap="round" stroke-linejoin="round" stroke-width="1"/>
    <path id="Path_2679" data-name="Path 2679" d="M557.524,422.006" transform="translate(118.352 230.221)" fill="#eaecec"/>
    <g id="Group_108" data-name="Group 108" transform="translate(619.7 180.156)">
      <path id="Path_2680" data-name="Path 2680" d="M638.606,416.407l-6.06-10.243L611.044,442l5.644,4.341Z" transform="translate(-461.824 38.356)" fill="#f9865f"/>
      <path id="Path_2681" data-name="Path 2681" d="M548.008,372.424s-11.141-18.115-6.362-26.991l35.544,3.8Z" transform="translate(-513.999 -6.331)" fill="#f9865f"/>
      <path id="Path_2682" data-name="Path 2682" d="M546.8,373.676l2.129,4.892-6.565,25.609a8.765,8.765,0,0,0,2.763,8.812h0l32.506-48.052a11.177,11.177,0,0,0-1.65-14.449l-7.264-6.748Z" transform="translate(-512.791 -7.619)"/>
      <path id="Path_2683" data-name="Path 2683" d="M541.857,199.259c10.179-.242,23.078-.887,20.5-8.626S550.1,163.545,528.174,169.35c0,0-7.739,6.449,1.934,18.059S541.857,199.259,541.857,199.259Z" transform="translate(-525.243 -136.84)" fill="#2a1e33"/>
      <path id="Path_2684" data-name="Path 2684" d="M590.405,408.622s-17.376-51.3-2.673-73.826c12.136-18.59,51.779,11.649,57.212,15.722l28.365-51.23s-6.548-9.181-22.625-18.171-82.494-35.908-113.707,13.337c-11.536,18.2-11.711,96.3,10.412,126.232Z" transform="translate(-522.269 -65.201)" fill="#0fd7ad"/>
      <path id="Path_2685" data-name="Path 2685" d="M568.068,381.788s-17.376-51.3-2.673-73.826c12.136-18.59,51.779,11.649,57.212,15.722" transform="translate(-499.931 -38.399)" fill="none" stroke="#2a1e17" stroke-linecap="round" stroke-linejoin="round" stroke-width="1"/>
      <path id="Path_2686" data-name="Path 2686" d="M639.615,285c-12.9,13.581-51.15,79.736-59.752,111.355-11.5,42.294-7.177,77.371,56.056,146.055l30.565-44.52s-21.491-32.635-17.478-63.4c5.8-44.5,37.475-87.654,53.5-115.025Z" transform="translate(-488.573 -51.201)" fill="#0fd7ad"/>
      <path id="Path_2687" data-name="Path 2687" d="M614.883,288.305l50.846,39.9,15.194-23.1Z" transform="translate(-458.986 -48.438)" fill="#2a1e17"/>
      <path id="Path_2688" data-name="Path 2688" d="M782.8,264.18q11.893,2.549,18.124,9.061c4.153,4.343,2.264,6.609.755,7.929s-7.362-.188-12.459-4.718S782.8,264.18,782.8,264.18Z" transform="translate(-334.871 -66.204)" fill="#ff8a66"/>
      <path id="Path_2689" data-name="Path 2689" d="M692.837,277.017c1.33-1.774,22.355-24.171,34.527-42.219,0,0,36.79,41.223,40.779,42.553,1.484.494,10.5.376,21.7.261,18.929-.2,44.091-.386,49.659,2.4,8.864,4.433,14.184,6.649,16.4,12.854S859,303.124,853.692,303.5c-6.205.444-10.195-7.534-10.195-7.534s-5.071,3.063-18.174,7.977c0,0-47.143,18.3-78.656,9.452C738.062,310.981,692.837,277.017,692.837,277.017Z" transform="translate(-401.367 -87.884)" fill="#f9865f"/>
      <path id="Path_2690" data-name="Path 2690" d="M530.67,164.765c-4.047,1.541-6.5,3.381-4.163,7.283s3.383,2.341,10.146,1.821,16.39,4.423,19.771,12.748,2.343,9.624.522,10.666-14.83,2.6-15.35,5.2,5.271,10.28,17.238,9.76l2.861-.52S586.862,236.3,590.5,239.946s30.407,21.776,45.151,25.461c11.207,2.8,33.912-.812,47.555-3.473,6.626-1.292,11.117-2.362,11.117-2.362s-10.24-18.444-12.32-46.8c0,0-24.5,3.936-40.772,7.506,0,0-37.985-21.176-56.454-30.541,0,0-16.129-19.772-23.673-22.374S536.133,162.683,530.67,164.765Z" transform="translate(-524.981 -140.066)" fill="#f9865f"/>
      <path id="Path_2691" data-name="Path 2691" d="M619.43,239.966c6.626-1.292,11.117-2.362,11.117-2.362s-12.386-15.61-14.466-43.967c0,0-5.6,6.035-3.859,22.094C614.411,235.915,619.43,239.966,619.43,239.966Z" transform="translate(-461.201 -118.097)" fill="#2a1e17"/>
      <path id="Path_2692" data-name="Path 2692" d="M633.071,193.934s.343,34.651,9.626,49.106l3.331-1.332s-43.75,51.179-57.9,84.621c-2.316,5.473,90.832,64.972,104.594,64.138,0,0,45.383-69.266,60.9-89.8L770.31,313.6s32.72-33.134,34.478-44.9c0,0-31.6-38.456-57.46-49.717s-48.96-30.548-76.734-30.024C646.553,189.4,633.071,193.934,633.071,193.934Z" transform="translate(-478.792 -121.568)" fill="#383838"/>
      <path id="Path_2693" data-name="Path 2693" d="M699.955,269.189l-16.681-12.928,2.657-7.241Z" transform="translate(-408.436 -77.377)" fill="#2a1e17"/>
      <path id="Path_2694" data-name="Path 2694" d="M741.342,194.64c-2.92,9.085-11.357,35.365-20.765,38.609s-19.2-.83-19.2-.83l-10.023,5.129c-1.118,3.355-9.028,6.243-19.242,6.637-7.564.292-12.169-9.419-9.93-16.451,1.028-3.228,4.868-19.143,4.868-19.143s8.11-29.847,15.572-36.012,14.475-12.268,34.39-4.217C747.505,180.69,741.342,194.64,741.342,194.64Z" transform="translate(-424.448 -139.63)" fill="#f9865f"/>
      <path id="Path_2695" data-name="Path 2695" d="M678.979,206.5c-1.339,5.579-7.141,16.736-10.934,14.727s-5.132-7.141-2.454-16.958,4.908-32.131,12.494-36.146,10.934.668,10.934.668-3.346-16.287,6.471-18.518c0,0,3.346-1.563,2.007,9.593,0,0,3.795-10.263,16.066-8.925s16.511,18.52,16.511,18.52.892-4.685,6.471-4.685,14.057,8.256,12.049,17.4c0,0,14.277-4.468,21.868,6.918s6.694,23.875-11.6,28.783c-19.131,5.134-18.965-17.181-21.866-20.082s-6.026-6.247-16.736-2.231-21.866-7.809-21.866-7.809-1.786,14.28-3.57,15.619-5.355,3.124-4.463-3.57,2.009-6.024,1.339-7.809-3.69-7.417-10.042-2.456C674.516,195.126,678.979,206.5,678.979,206.5Z" transform="translate(-422.544 -150.202)" fill="#2a1e33"/>
      <path id="Path_2696" data-name="Path 2696" d="M676.638,193.433c-4.256-3.574-7.207-9.875-3.461-16.174s9.873-7.15,11.746-4.767,2.6,6.4.836,11.167" transform="translate(-417.167 -134.631)" fill="none" stroke="#2a1e33" stroke-linecap="round" stroke-linejoin="round" stroke-width="1"/>
      <path id="Path_2697" data-name="Path 2697" d="M616.292,441.989l2.129,4.892-6.565,25.609a8.762,8.762,0,0,0,2.764,8.812h0l32.506-48.052a11.175,11.175,0,0,0-1.652-14.449l-7.263-6.748Z" transform="translate(-461.428 42.709)"/>
      <path id="Path_2698" data-name="Path 2698" d="M682.694,165.24s-2.489-8.1-9.95-10.228" transform="translate(-416.219 -146.647)" fill="none" stroke="#2a1e33" stroke-linecap="round" stroke-linejoin="round" stroke-width="1"/>
      <line id="Line_15" data-name="Line 15" y1="125.798" x2="90.055" transform="translate(108.318 76.52)" fill="none" stroke="#2a1e17" stroke-linecap="round" stroke-linejoin="round" stroke-width="1"/>
      <path id="Path_2699" data-name="Path 2699" d="M661.557,199.261c-3.244,4.219-4.722,22.372,10.205,23.551s24.471-5.379,24.471-5.379" transform="translate(-426.065 -114.048)" fill="none" stroke="#2a1e17" stroke-linecap="round" stroke-linejoin="round" stroke-width="1"/>
      <path id="Path_2700" data-name="Path 2700" d="M546.015,165.9s10.294,13.626,11.911,18.478" transform="translate(-509.889 -138.6)" fill="none" stroke="#2a1e17" stroke-linecap="round" stroke-linejoin="round" stroke-width="1"/>
      <path id="Path_2701" data-name="Path 2701" d="M767.636,275.1s6.877,5.663,20.574-1.664c4.967-2.657,1.43-8.944-4.857-7.374s-13.751-.784-13.751-.784" transform="translate(-346.081 -65.39)" fill="none" stroke="#2a1e17" stroke-linecap="round" stroke-linejoin="round" stroke-width="1"/>
      <path id="Path_2702" data-name="Path 2702" d="M784.158,264.632s6.6,7.7,6.417,12.271" transform="translate(-333.869 -65.868)" fill="none" stroke="#2a1e17" stroke-linecap="round" stroke-linejoin="round" stroke-width="1"/>
      <path id="Path_2703" data-name="Path 2703" d="M728.323,267.76s5.965-7.95,13.591-8.494" transform="translate(-375.138 -69.821)" fill="none" stroke="#2a1e17" stroke-linecap="round" stroke-linejoin="round" stroke-width="1"/>
      <path id="Path_2704" data-name="Path 2704" d="M583.668,209.169s3.483-10.849,14.643-12.844" transform="translate(-482.058 -116.111)" fill="none" stroke="#2a1e17" stroke-linecap="round" stroke-linejoin="round" stroke-width="1"/>
      <path id="Path_2705" data-name="Path 2705" d="M620.351,298.385l-13.311,25.468s-43.9,74.287-29,122.281" transform="translate(-488.501 -41.107)" fill="none" stroke="#2a1e17" stroke-linecap="round" stroke-linejoin="round" stroke-width="1"/>
      <path id="Path_2706" data-name="Path 2706" d="M623.418,434.383l43.191-74.04s56.609-82.1,62.4-93.687L748.989,229.7" transform="translate(-452.678 -91.718)" fill="none" stroke="#2a1e17" stroke-linecap="round" stroke-linejoin="round" stroke-width="1"/>
      <path id="Path_2707" data-name="Path 2707" d="M590.993,271.068s76.805,56,99.583,58.7" transform="translate(-476.644 -61.151)" fill="none" stroke="#2a1e17" stroke-linecap="round" stroke-linejoin="round" stroke-width="1"/>
      <path id="Path_2708" data-name="Path 2708" d="M613.953,191.812s-.07,35.141,9.4,49.55" transform="translate(-459.674 -119.446)" fill="none" stroke="#2a1e17" stroke-linecap="round" stroke-linejoin="round" stroke-width="1"/>
      <path id="Path_2709" data-name="Path 2709" d="M725.925,231.6c-2.412,14.485-34.478,44.9-34.478,44.9" transform="translate(-402.395 -90.227)" fill="none" stroke="#2a1e17" stroke-linecap="round" stroke-linejoin="round" stroke-width="1"/>
    </g>
    <path id="Path_2710" data-name="Path 2710" d="M706.911,256.121" transform="translate(228.683 107.995)" fill="#2a1e17"/>
    <path id="Path_2711" data-name="Path 2711" d="M789.613,315.892" transform="translate(289.762 152.073)" fill="#f9865f"/>
    <circle id="Ellipse_30" data-name="Ellipse 30" cx="4.561" cy="4.561" r="4.561" transform="translate(699.459 492.606)" fill="#2a1e17"/>
    <g id="Group_109" data-name="Group 109" transform="translate(610.554 292.162)">
      <path id="Path_2712" data-name="Path 2712" d="M820.824,396.466,818.3,379.021l14.88,9.892-7.787,1.7Z" transform="translate(-299.503 -93.459)" fill="none" stroke="#2a1e17" stroke-linecap="round" stroke-linejoin="round" stroke-width="1"/>
      <path id="Path_2713" data-name="Path 2713" d="M547.851,220.03c-28.2-24.878-74.788,37.158,95.7,234.617,98.35,113.9,175.625,124.121,186.091,84.493,18.781-71.1-49.042-89.068-23.807-61.221,36.7,40.491,141.077,49.045,218.857,11.259,76.748-37.284,29.574-95.185,24.809-98.562" transform="translate(-519.994 -214.823)" fill="none" stroke="#2a1e17" stroke-linecap="round" stroke-linejoin="round" stroke-width="1"/>
      <circle id="Ellipse_31" data-name="Ellipse 31" cx="4.561" cy="4.561" r="4.561" transform="translate(501.371 269.438)" fill="#2a1e17"/>
      <line id="Line_16" data-name="Line 16" y1="76.197" x2="135.188" transform="translate(439.567 235.027)" fill="none" stroke="#2a1e17" stroke-linecap="round" stroke-linejoin="round" stroke-width="1"/>
      <circle id="Ellipse_32" data-name="Ellipse 32" cx="4.561" cy="4.561" r="4.561" transform="translate(26.108 4.332)" fill="#2a1e17"/>
    </g>
    <circle id="Ellipse_33" data-name="Ellipse 33" cx="9.785" cy="9.785" r="9.785" transform="translate(747.756 197.49)" fill="#ff6d66"/>
    <g id="Ellipse_34" data-name="Ellipse 34" transform="translate(575.81 132.645)" fill="none" stroke="#a0c6f4" stroke-miterlimit="10" stroke-width="4">
      <circle cx="4.301" cy="4.301" r="4.301" stroke="none"/>
      <circle cx="4.301" cy="4.301" r="2.301" fill="none"/>
    </g>
    <circle id="Ellipse_35" data-name="Ellipse 35" cx="4.301" cy="4.301" r="4.301" transform="translate(1151.9 657.637)" fill="#fad8b0"/>
    <g id="Group_110" data-name="Group 110" transform="translate(1030.358 346.419)">
      <path id="Path_2714" data-name="Path 2714" d="M810.439,345.088l-46.24-21.7a4.8,4.8,0,0,1,.106-8.739L850.331,276.8a4.806,4.806,0,0,1,3.826-.017l59.089,25.364Z" transform="translate(-761.438 -223.477)" fill="#2a1e33"/>
      <path id="Path_2715" data-name="Path 2715" d="M787.966,296.262c.118,19.134,2.864,71.315,2.864,71.315l102.807-42.945-2.306-72.614a6.243,6.243,0,0,0-8.83-5.483l-88.519,40.338A10.249,10.249,0,0,0,787.966,296.262Z" transform="translate(-741.829 -245.966)" fill="#c6cbcb"/>
      <path id="Path_2716" data-name="Path 2716" d="M789.613,367.534,892.42,324.59l-2.306-72.614s-.685-7.927-8.83-5.483" transform="translate(-740.612 -245.923)" fill="none" stroke="#2a1e17" stroke-linecap="round" stroke-linejoin="round" stroke-width="1"/>
      <line id="Line_17" data-name="Line 17" y1="16.406" x2="6.941" transform="translate(98.761 53.015)" fill="none" stroke="#2a1e17" stroke-linecap="round" stroke-linejoin="round" stroke-width="1"/>
      <line id="Line_18" data-name="Line 18" y1="16.406" x2="6.941" transform="translate(105.702 53.015)" fill="none" stroke="#2a1e17" stroke-linecap="round" stroke-linejoin="round" stroke-width="1"/>
    </g>
    <circle id="Ellipse_36" data-name="Ellipse 36" cx="4.301" cy="4.301" r="4.301" transform="translate(594.353 586.016)" fill="#ff6d66"/>
    <circle id="Ellipse_37" data-name="Ellipse 37" cx="5.976" cy="5.976" r="5.976" transform="translate(955.152 605.628)" fill="#ff6d66"/>
    <g id="Group_111" data-name="Group 111" transform="translate(632.057 653.688)">
      <path id="Path_2717" data-name="Path 2717" d="M543.412,423.088a127.65,127.65,0,0,0,54.313,11.645,2.446,2.446,0,0,1,2.43,2.758L596.4,467.276a2.448,2.448,0,0,1-1.983,2.1c-7.612,1.43-38.3,5.64-61.249-13.823a2.444,2.444,0,0,1-.764-2.494l7.584-28.393A2.446,2.446,0,0,1,543.412,423.088Z" transform="translate(-532.322 -422.846)" fill="#fff7dc"/>
      <path id="Path_2718" data-name="Path 2718" d="M540.25,428.018s13.259,18.631,17.988,21.3,30.254-12.546,30.254-12.546" transform="translate(-526.463 -419.023)" fill="none" stroke="#2a1e17" stroke-linecap="round" stroke-linejoin="round" stroke-width="1"/>
      <line id="Line_19" data-name="Line 19" x2="13.929" y2="14.318" transform="translate(44.275 27.696)" fill="none" stroke="#2a1e17" stroke-linecap="round" stroke-linejoin="round" stroke-width="1"/>
      <line id="Line_20" data-name="Line 20" x1="16.293" y2="4.429" transform="translate(8.631 24.937)" fill="none" stroke="#2a1e17" stroke-linecap="round" stroke-linejoin="round" stroke-width="1"/>
    </g>
    <rect id="Rectangle_223" data-name="Rectangle 223" width="15.562" height="15.562" transform="translate(1053.96 302.026)" fill="#ffe1c0"/>
    <path id="Path_2719" data-name="Path 2719" d="M780.141,341.086l4.625,8.011,4.625,8.011h-18.5l4.625-8.011Z" transform="translate(275.931 170.642)" fill="#a0c6f4"/>
    <g id="Group_112" data-name="Group 112" transform="translate(682.173 111.6)">
      <path id="Path_2720" data-name="Path 2720" d="M561.155,156.392l1.205-36.371c-.127-3.4,1.256-4.478,3.348-4.941,9.88-2.184,39.913-8.88,72.579.776,4.221,1.249,4.085,3.482,4.017,5.494l-1.167,34.675c-.085,2.546-2.746,4.39-5.715,3.955-9.537-1.4-22.51-1.828-35.682-1.717-13.61.115-25.739,1.127-34.226,2.76C562.275,161.648,561.06,159.234,561.155,156.392Z" transform="translate(-561.15 -110.782)" fill="none" stroke="#2a1e17" stroke-linecap="round" stroke-linejoin="round" stroke-width="1"/>
      <path id="Path_2721" data-name="Path 2721" d="M567.473,143.409l19.012-22.256,21.047,20.771C600.277,139.56,567.473,143.409,567.473,143.409Z" transform="translate(-556.477 -103.117)" fill="none" stroke="#2a1e17" stroke-linecap="round" stroke-linejoin="round" stroke-width="1"/>
      <path id="Path_2722" data-name="Path 2722" d="M585.106,132.3,600.477,120l12.952,9.245.487,14.453-19.417-.929" transform="translate(-543.443 -103.966)" fill="none" stroke="#2a1e17" stroke-linecap="round" stroke-linejoin="round" stroke-width="1"/>
      <ellipse id="Ellipse_38" data-name="Ellipse 38" cx="3.175" cy="3.743" rx="3.175" ry="3.743" transform="matrix(0.101, -0.995, 0.995, 0.101, 11.508, 18.802)" fill="none" stroke="#2a1e17" stroke-linecap="round" stroke-linejoin="round" stroke-width="1"/>
    </g>
    <g id="Group_113" data-name="Group 113" transform="translate(998.713 627.001)">
      <path id="Path_2723" data-name="Path 2723" d="M794.221,409.6l12.755,23.551c1.343,2.11.868,3.31-.29,4.381-5.464,5.063-22.052,20.48-46.392,26.489-3.144.776-3.889-.692-4.595-1.995l-12.148-22.461c-.892-1.649.113-3.809,2.16-4.636,6.577-2.657,14.977-7.207,23.3-12.174a148.745,148.745,0,0,0,20.715-14.477C791.556,406.679,793.224,407.76,794.221,409.6Z" transform="translate(-743.224 -407.501)" fill="none" stroke="#2a1e17" stroke-linecap="round" stroke-linejoin="round" stroke-width="1"/>
      <path id="Path_2724" data-name="Path 2724" d="M780.249,413l-3.8,21.205-21.091-5.369C760.844,427.639,780.249,413,780.249,413Z" transform="translate(-734.258 -403.437)" fill="none" stroke="#2a1e17" stroke-linecap="round" stroke-linejoin="round" stroke-width="1"/>
      <path id="Path_2725" data-name="Path 2725" d="M770.6,425.263l-5.191,13.528-11.664-1.057-5.682-9,12.679-6.628" transform="translate(-739.646 -396.707)" fill="none" stroke="#2a1e17" stroke-linecap="round" stroke-linejoin="round" stroke-width="1"/>
      <ellipse id="Ellipse_39" data-name="Ellipse 39" cx="2.755" cy="2.337" rx="2.755" ry="2.337" transform="translate(48.644 25.694) rotate(-24.564)" fill="none" stroke="#2a1e17" stroke-linecap="round" stroke-linejoin="round" stroke-width="1"/>
    </g>
    <g id="Group_116" data-name="Group 116" transform="translate(986.607 164.616)">
      <g id="Group_114" data-name="Group 114" transform="translate(0 46.652)">
        <path id="Path_2726" data-name="Path 2726" d="M737.273,184.5l51.818,39.661a2.56,2.56,0,0,0,3.616-.513l7.824-10.6a2.56,2.56,0,0,0-.461-3.518l-51.087-40.877a2.559,2.559,0,0,0-3.671.5l-8.555,11.821A2.558,2.558,0,0,0,737.273,184.5Z" transform="translate(-736.27 -168.091)" fill="#fff" stroke="#2a1e17" stroke-linecap="round" stroke-linejoin="round" stroke-width="1"/>
        <path id="Path_2727" data-name="Path 2727" d="M739.053,180.979,751.62,189.8l7.415-8.85-12.569-10.483Z" transform="translate(-734.213 -166.337)" fill="#ff6d66"/>
        <path id="Path_2728" data-name="Path 2728" d="M749,187.21l12.583,9.983,6.745-8.3L755.66,178.617Z" transform="translate(-726.862 -160.311)" fill="#fad8b0"/>
        <path id="Path_2729" data-name="Path 2729" d="M758.668,195.258l12.566,8.818,5.985-7.691-11.9-9.961Z" transform="translate(-719.715 -154.541)" fill="#a0c6f4"/>
      </g>
      <g id="Group_115" data-name="Group 115" transform="translate(104.369)">
        <path id="Path_2730" data-name="Path 2730" d="M796.31,148.883l11.807,99.228a3.92,3.92,0,0,0,4.424,3.421l19.993-2.737a3.919,3.919,0,0,0,3.369-4.263l-9.691-99.724a3.92,3.92,0,0,0-4.47-3.5l-22.108,3.233A3.919,3.919,0,0,0,796.31,148.883Z" transform="translate(-796.282 -141.267)" fill="#fff" stroke="#2a1e17" stroke-linecap="round" stroke-linejoin="round" stroke-width="1"/>
        <path id="Path_2731" data-name="Path 2731" d="M799.77,148.295l3.742,23.21,17.632-1.313L819.227,145.2Z" transform="translate(-793.703 -138.359)" fill="#ff6d66"/>
        <path id="Path_2732" data-name="Path 2732" d="M802.657,166.215l2.48,24.471,16.31-1.458L819.2,164.35Z" transform="translate(-791.57 -124.205)" fill="#91ba83"/>
        <path id="Path_2733" data-name="Path 2733" d="M804.261,185.428,808,208.638l14.834-1.644-1.778-23.7Z" transform="translate(-790.384 -110.205)" fill="#fad8b0"/>
      </g>
      <path id="Path_2734" data-name="Path 2734" d="M781.547,163.084l32.7,96.115a3.116,3.116,0,0,0,4.007,1.929l20.482-7.372a3.121,3.121,0,0,0,1.917-3.875l-30.7-97.065a3.118,3.118,0,0,0-4.056-1.984l-22.475,8.324A3.119,3.119,0,0,0,781.547,163.084Z" transform="translate(-702.928 -134.341)" fill="#fff" stroke="#2a1e17" stroke-linecap="round" stroke-linejoin="round" stroke-width="1"/>
      <path id="Path_2735" data-name="Path 2735" d="M785.295,161.807l8.487,21.924,16.973-4.951-7.072-24.046Z" transform="translate(-700.034 -131.312)" fill="#a0c6f4"/>
      <path id="Path_2736" data-name="Path 2736" d="M791.953,178.478l7.515,23.421,15.65-4.818-7.371-23.867Z" transform="translate(-695.113 -117.654)" fill="#f9865f"/>
      <path id="Path_2737" data-name="Path 2737" d="M797.494,196.96l8.487,21.924,14.168-4.693-6.669-22.814Z" transform="translate(-691.017 -104.229)" fill="#fad8b0"/>
    </g>
    <g id="Group_117" data-name="Group 117" transform="translate(644.264 314.55)">
      <rect id="Rectangle_224" data-name="Rectangle 224" width="184.195" height="41.408" rx="5.484" transform="translate(0 0)" fill="#7595ec"/>
      <rect id="Rectangle_225" data-name="Rectangle 225" width="96.319" height="6.301" rx="1.812" transform="translate(19.625 12.191)" fill="#fff"/>
      <line id="Line_21" data-name="Line 21" x2="153.03" transform="translate(20.525 26.655)" fill="none" stroke="#2a1e17" stroke-linecap="round" stroke-linejoin="round" stroke-width="1"/>
    </g>
    <g id="Group_118" data-name="Group 118" transform="translate(562.01 219.89)">
      <path id="Rectangle_226" data-name="Rectangle 226" d="M0,0H5.119a1.7,1.7,0,0,1,1.7,1.7V9.985a1.7,1.7,0,0,1-1.7,1.7H0a0,0,0,0,1,0,0V0A0,0,0,0,1,0,0Z" transform="matrix(0.674, 0.738, -0.738, 0.674, 24.585, 16.869)" fill="#91ba83"/>
      <rect id="Rectangle_227" data-name="Rectangle 227" width="21.616" height="14.901" rx="0.98" transform="matrix(-0.674, -0.738, 0.738, -0.674, 14.578, 26.01)" fill="none" stroke="#2a1e17" stroke-linecap="round" stroke-linejoin="round" stroke-width="1"/>
    </g>
    <g id="Group_119" data-name="Group 119" transform="translate(525.672 283.16)">
      <rect id="Rectangle_228" data-name="Rectangle 228" width="15.429" height="14.087" transform="translate(9.229 9.065)" fill="#ff6d66"/>
      <path id="Path_2738" data-name="Path 2738" d="M480.331,209.53v9.065H471.1" transform="translate(-471.103 -209.53)" fill="none" stroke="#2a1e17" stroke-linecap="round" stroke-linejoin="round" stroke-width="1"/>
    </g>
    <g id="Group_120" data-name="Group 120" transform="translate(1033.715 124.257)">
      <rect id="Rectangle_229" data-name="Rectangle 229" width="15.429" height="14.087" transform="translate(9.229 9.065)" fill="#fad8b0"/>
      <path id="Path_2739" data-name="Path 2739" d="M772.581,118.06v9.065h-9.229" transform="translate(-763.352 -118.06)" fill="none" stroke="#2a1e17" stroke-linecap="round" stroke-linejoin="round" stroke-width="1"/>
    </g>
    <g id="Group_122" data-name="Group 122" transform="translate(446.7 191.836)">
      <path id="Path_2740" data-name="Path 2740" d="M599.115,180.854c-159.938-66.3-283.066,61.388,18.423,256.914,23.741,15.4,60.146,20.8,60.146,20.8" transform="translate(-420.198 -152.296)" fill="none" stroke="#2a1e17" stroke-linecap="round" stroke-linejoin="round" stroke-width="1"/>
      <circle id="Ellipse_40" data-name="Ellipse 40" cx="4.561" cy="4.561" r="4.561" transform="translate(27.256 28.456)" fill="#2a1e17"/>
      <g id="Group_121" data-name="Group 121">
        <path id="Path_2741" data-name="Path 2741" d="M427.3,163.546l4.991-4.792,11.474,6.565,5.767,17.794-17.612-7.371Z" transform="translate(-424.506 -155.561)" fill="none" stroke="#2a1e17" stroke-linecap="round" stroke-linejoin="round" stroke-width="1"/>
        <path id="Path_2742" data-name="Path 2742" d="M433.48,160.112l-4.991,4.792-2.8-3.394,4.792-4.592Z" transform="translate(-425.694 -156.918)" fill="none" stroke="#2a1e17" stroke-linecap="round" stroke-linejoin="round" stroke-width="1"/>
        <line id="Line_22" data-name="Line 22" x1="11.453" y1="12.583" transform="translate(13.575 14.971)" fill="none" stroke="#2a1e17" stroke-linecap="round" stroke-linejoin="round" stroke-width="1"/>
      </g>
    </g>
    <g id="Group_123" data-name="Group 123" transform="translate(499.403 531.99)">
      <path id="Path_2743" data-name="Path 2743" d="M456.045,358.981l12.433,64.059a2.557,2.557,0,0,0,3.043,2.016l12.891-2.737a2.562,2.562,0,0,0,1.991-2.937L475.325,354.9a2.559,2.559,0,0,0-3.076-2.066L458,355.995A2.562,2.562,0,0,0,456.045,358.981Z" transform="translate(-455.998 -352.772)" fill="#fff" stroke="#2a1e17" stroke-linecap="round" stroke-linejoin="round" stroke-width="1"/>
      <path id="Path_2744" data-name="Path 2744" d="M458.351,358.3l3.546,14.936,11.42-1.7-2.443-16.184Z" transform="translate(-454.259 -350.865)" fill="#ff6d66"/>
      <path id="Path_2745" data-name="Path 2745" d="M461.112,369.77l2.785,15.818,10.552-1.729L471.8,367.765Z" transform="translate(-452.218 -341.69)" fill="#fad8b0"/>
      <path id="Path_2746" data-name="Path 2746" d="M463.069,382.211l3.546,14.936,9.582-1.78-2.291-15.351Z" transform="translate(-450.771 -332.634)" fill="#a0c6f4"/>
    </g>
    <g id="Group_127" data-name="Group 127" transform="translate(829.717 684.511)">
      <path id="Path_2747" data-name="Path 2747" d="M660.71,454.633l52.537-14.064,2,5.693-53.128,13.792Z" transform="translate(-635.159 -440.569)" fill="none" stroke="#2a1e17" stroke-linecap="round" stroke-linejoin="round" stroke-width="1"/>
      <g id="Group_124" data-name="Group 124" transform="translate(16.781 6.717)">
        <line id="Line_23" data-name="Line 23" x2="1.516" y2="4.77" transform="translate(1.481)" fill="none" stroke="#2a1e17" stroke-linecap="round" stroke-linejoin="round" stroke-width="1"/>
        <line id="Line_24" data-name="Line 24" y1="1.523" x2="4.433" transform="translate(0 1.588)" fill="none" stroke="#2a1e17" stroke-linecap="round" stroke-linejoin="round" stroke-width="1"/>
      </g>
      <g id="Group_125" data-name="Group 125" transform="translate(13.277 24.932)">
        <line id="Line_25" data-name="Line 25" x2="2.859" y2="8.998" transform="translate(2.435)" fill="none" stroke="#2a1e17" stroke-linecap="round" stroke-linejoin="round" stroke-width="1"/>
        <line id="Line_26" data-name="Line 26" y1="2.508" x2="7.894" transform="translate(0 3.197)" fill="none" stroke="#2a1e17" stroke-linecap="round" stroke-linejoin="round" stroke-width="1"/>
      </g>
      <g id="Group_126" data-name="Group 126" transform="translate(0 10.082)">
        <line id="Line_27" data-name="Line 27" x2="3.729" y2="11.917" transform="translate(3.706)" fill="none" stroke="#2a1e17" stroke-linecap="round" stroke-linejoin="round" stroke-width="1"/>
        <line id="Line_28" data-name="Line 28" y1="3.531" x2="11.063" transform="translate(0 3.89)" fill="none" stroke="#2a1e17" stroke-linecap="round" stroke-linejoin="round" stroke-width="1"/>
      </g>
    </g>
    <g id="Group_131" data-name="Group 131" transform="translate(439.113 109.677)">
      <path id="Path_2748" data-name="Path 2748" d="M454.578,128.491l-33.247-15.008,1.377-3.807,33.438,15.4Z" transform="translate(-421.331 -109.677)" fill="none" stroke="#2a1e17" stroke-linecap="round" stroke-linejoin="round" stroke-width="0.671"/>
      <g id="Group_128" data-name="Group 128" transform="translate(33.052 22.603)">
        <line id="Line_29" data-name="Line 29" y1="3.12" x2="1.239" transform="translate(0.859)" fill="none" stroke="#2a1e17" stroke-linecap="round" stroke-linejoin="round" stroke-width="0.671"/>
        <line id="Line_30" data-name="Line 30" x1="2.948" y1="1.092" transform="translate(0 1.042)" fill="none" stroke="#2a1e17" stroke-linecap="round" stroke-linejoin="round" stroke-width="0.671"/>
      </g>
      <g id="Group_129" data-name="Group 129" transform="translate(41.493 11.465)">
        <line id="Line_31" data-name="Line 31" y1="5.885" x2="2.337" transform="translate(1.476)" fill="none" stroke="#2a1e17" stroke-linecap="round" stroke-linejoin="round" stroke-width="0.671"/>
        <line id="Line_32" data-name="Line 32" x1="5.163" y1="2.05" transform="translate(0 1.907)" fill="none" stroke="#2a1e17" stroke-linecap="round" stroke-linejoin="round" stroke-width="0.671"/>
      </g>
      <g id="Group_130" data-name="Group 130" transform="translate(40.728 22.388)">
        <line id="Line_33" data-name="Line 33" y1="7.77" x2="3.125" transform="translate(2.168)" fill="none" stroke="#2a1e17" stroke-linecap="round" stroke-linejoin="round" stroke-width="0.671"/>
        <line id="Line_34" data-name="Line 34" x1="7.243" y1="2.865" transform="translate(0 2.626)" fill="none" stroke="#2a1e17" stroke-linecap="round" stroke-linejoin="round" stroke-width="0.671"/>
      </g>
    </g>
    <g id="Group_132" data-name="Group 132" transform="translate(515.018 334.846)">
      <path id="Path_2749" data-name="Path 2749" d="M528.376,313.43c-23.433-16.871-46.458-43.091-36.358-70.023,0,0,16.16-10.772,41.746,2.694l25.584,13.466Z" transform="translate(-446.794 -239.327)" fill="#fad8b0"/>
      <g id="Path_2750" data-name="Path 2750" transform="translate(-463.43 -237.594)" fill="#fff" stroke-miterlimit="10">
        <path d="M 534.8911743164062 425.5574645996094 C 533.376708984375 424.8679504394531 530.6002197265625 423.5505065917969 527.0401000976562 421.6271362304688 C 521.9996337890625 418.9040222167969 514.3111572265625 414.3739013671875 506.3070373535156 408.2565307617188 C 497.3385314941406 401.4020690917969 489.8074035644531 393.9910583496094 483.9228820800781 386.2292785644531 C 476.6061706542969 376.5784912109375 471.8301086425781 366.3541259765625 469.7273559570312 355.8402709960938 C 467.6219787597656 345.3135375976562 468.4014282226562 332.8318786621094 472.0440368652344 318.7420349121094 C 474.9778137207031 307.3939819335938 479.7619934082031 294.9973449707031 486.263671875 281.8965454101562 C 492.0588989257812 270.2191162109375 498.1710815429688 260.1394958496094 502.2780456542969 253.7400054931641 C 503.2984924316406 252.1499938964844 504.2482604980469 250.7033233642578 505.1064453125 249.4174499511719 C 503.611083984375 259.6578063964844 506.2447204589844 270.3271484375 512.981201171875 281.2449951171875 C 521.4580078125 294.9835205078125 534.6016845703125 306.0493774414062 544.1350708007812 312.9132690429688 C 557.9324951171875 322.8470153808594 567.5455932617188 327.369873046875 581.964111328125 332.7203979492188 L 534.8911743164062 425.5574645996094 Z" stroke="none"/>
        <path d="M 503.1941528320312 255.0910339355469 C 499.1140747070312 261.4795532226562 493.1865844726562 271.3106384277344 487.564697265625 282.6491394042969 C 481.1215209960938 295.6441040039062 476.384033203125 307.9300842285156 473.4838256835938 319.1658020019531 C 469.908935546875 333.014892578125 469.1399536132812 345.2549743652344 471.1981811523438 355.5460815429688 C 473.2537231445312 365.8238830566406 477.9286499023438 375.8312072753906 485.0931396484375 385.2900695800781 C 490.8868408203125 392.9391479492188 498.3109741210938 400.2501220703125 507.1591796875 407.0198974609375 C 515.0809936523438 413.0808410644531 522.6964721679688 417.572509765625 527.6900634765625 420.2733154296875 C 530.3861083984375 421.7315063476562 532.6294555664062 422.8391723632812 534.208740234375 423.5864868164062 L 579.8679809570312 333.5375061035156 C 566.424072265625 328.4700927734375 556.588623046875 323.7278137207031 543.2586669921875 314.1305847167969 C 533.6143798828125 307.1868896484375 520.3114013671875 295.9817199707031 511.70458984375 282.0326232910156 C 506.047607421875 272.8641967773438 503.2059936523438 263.8502502441406 503.1941528320312 255.0910339355469 M 508.6531982421875 241.6729736328125 C 498.5540161132812 268.6053161621094 521.578369140625 294.8245239257812 545.011474609375 311.6959533691406 C 559.0724487304688 321.8194580078125 568.914306640625 326.3412170410156 584.0639038085938 331.8960266113281 L 535.5853881835938 427.505126953125 C 535.5853881835938 427.505126953125 477.6824951171875 403.2650756835938 468.2564697265625 356.1344299316406 C 458.8302612304688 309.0037231445312 508.6531982421875 241.6729736328125 508.6531982421875 241.6729736328125 Z" stroke="none" fill="#fad8b0"/>
      </g>
      <path id="Path_2751" data-name="Path 2751" d="M483.447,264.171a57.777,57.777,0,0,0,29.944,41.538" transform="translate(-451.325 -220.965)" fill="none" stroke="#2a1e17" stroke-linecap="round" stroke-linejoin="round" stroke-width="1"/>
      <line id="Line_35" data-name="Line 35" x2="27.047" y2="14.49" transform="translate(76.556 94.403)" fill="none" stroke="#2a1e17" stroke-linecap="round" stroke-linejoin="round" stroke-width="1"/>
      <path id="Path_2752" data-name="Path 2752" d="M485.668,286.389s8.694,19.318,36.708,31.877" transform="translate(-449.683 -204.543)" fill="none" stroke="#2a1e17" stroke-linecap="round" stroke-linejoin="round" stroke-width="1"/>
      <path id="Path_2753" data-name="Path 2753" d="M472.894,288.055s.965,20.285,14.489,27.047" transform="translate(-459.125 -203.311)" fill="none" stroke="#2a1e17" stroke-linecap="round" stroke-linejoin="round" stroke-width="1"/>
      <path id="Path_2754" data-name="Path 2754" d="M490.681,247.508s-2.506,26.052,36.9,59.875" transform="translate(-446.002 -233.281)" fill="none" stroke="#2a1e17" stroke-linecap="round" stroke-linejoin="round" stroke-width="1"/>
      <path id="Path_2755" data-name="Path 2755" d="M499,250.291s12.557-.965,30.911,12.558" transform="translate(-439.83 -231.235)" fill="none" stroke="#2a1e17" stroke-linecap="round" stroke-linejoin="round" stroke-width="1"/>
      <path id="Path_2756" data-name="Path 2756" d="M465.092,298.111c-.809,12.92.807,59.752,68.632,89.626" transform="translate(-464.977 -195.878)" fill="none" stroke="#2a1e17" stroke-linecap="round" stroke-linejoin="round" stroke-width="1"/>
    </g>
    <g id="Group_133" data-name="Group 133" transform="translate(833.072 410.928)">
      <path id="Path_2757" data-name="Path 2757" d="M726.3,283.13l-28.769,57.658s19.513,7.181,4.259,29.548c0,0,36.065,14.957,59.663-23.889S726.3,283.13,726.3,283.13Z" transform="translate(-611.312 -283.13)" fill="#91ba83"/>
      <g id="Path_2758" data-name="Path 2758" transform="translate(-647.955 -256.22)" fill="#fff" stroke-miterlimit="10">
        <path d="M 697.0992431640625 433.5332641601562 C 682.0488891601562 433.5332641601562 666.1860961914062 427.31005859375 649.9343872070312 415.0340576171875 L 704.854736328125 324.0538940429688 L 737.6343383789062 344.6951599121094 L 737.7418212890625 344.7628784179688 L 737.8591918945312 344.8115234375 C 738.1492309570312 344.9317626953125 745.0755615234375 347.7559814453125 754.914794921875 347.7566223144531 C 754.9155883789062 347.7566223144531 754.9172973632812 347.7566223144531 754.9180908203125 347.7566223144531 C 764.0709228515625 347.7566223144531 775.9979858398438 345.2762145996094 787.1082153320312 335.3634643554688 L 744.7879028320312 407.7653198242188 C 744.4632568359375 408.2455749511719 740.1533203125 414.5121459960938 732.383056640625 420.6878967285156 C 727.6808471679688 424.4252014160156 722.6466674804688 427.4006958007812 717.42041015625 429.5317687988281 C 710.9098510742188 432.1865234375 704.0740356445312 433.5328063964844 697.102783203125 433.5332641601562 C 697.1018676757812 433.5332641601562 697.1001586914062 433.5332641601562 697.0992431640625 433.5332641601562 Z" stroke="none"/>
        <path d="M 705.3489379882812 326.1377258300781 L 651.9207153320312 414.6460571289062 C 667.5267333984375 426.1864318847656 682.7154541015625 432.0332641601562 697.1029052734375 432.0332641601562 C 703.8583374023438 432.0332641601562 710.484130859375 430.7325134277344 716.7962646484375 428.1671752929688 C 721.88134765625 426.1005554199219 726.7845458984375 423.210693359375 731.3696899414062 419.5779418945312 C 738.867431640625 413.6375732421875 743.0861206054688 407.5979614257812 743.5181884765625 406.965087890625 L 781.9302978515625 341.2494506835938 C 772.3726806640625 347.5321960449219 762.6773681640625 349.256591796875 754.9149169921875 349.256591796875 C 744.7802734375 349.256591796875 737.5858764648438 346.3220520019531 737.2846069335938 346.1970825195312 L 737.0499267578125 346.0998229980469 L 705.3489379882812 326.1377258300781 M 798.0965576171875 319.5369873046875 L 746.059814453125 408.561767578125 C 746.059814453125 408.561767578125 728.615478515625 435.0332641601562 697.1029052734375 435.0332641601562 C 683.31787109375 435.0332641601562 666.8436889648438 429.9703369140625 647.955078125 415.4104614257812 L 704.3605346679688 321.9700927734375 L 738.43359375 343.4258728027344 C 738.43359375 343.4258728027344 745.2610473632812 346.256591796875 754.9149169921875 346.256591796875 C 767.4539184570312 346.256591796875 784.763427734375 341.4847412109375 798.0965576171875 319.5369873046875 Z" stroke="none" fill="#96bd89"/>
      </g>
      <path id="Path_2759" data-name="Path 2759" d="M697.531,316.283s21.458,7.576,4.259,29.548" transform="translate(-611.312 -258.625)" fill="none" stroke="#2a1e17" stroke-linecap="round" stroke-linejoin="round" stroke-width="1"/>
      <path id="Path_2760" data-name="Path 2760" d="M680.005,319.785s29.226,26.772,45.407,26.591,35.153-4.033,46.346-23.334" transform="translate(-624.266 -256.037)" fill="none" stroke="#2a1e17" stroke-linecap="round" stroke-linejoin="round" stroke-width="1"/>
      <path id="Path_2761" data-name="Path 2761" d="M682.066,339.7s20.063,17.814,42.5,12.092" transform="translate(-622.742 -241.317)" fill="none" stroke="#2a1e17" stroke-linecap="round" stroke-linejoin="round" stroke-width="1"/>
      <path id="Path_2762" data-name="Path 2762" d="M694.182,355.007s10.527,7.889,25.24.428" transform="translate(-613.787 -230.003)" fill="none" stroke="#2a1e17" stroke-linecap="round" stroke-linejoin="round" stroke-width="1"/>
      <path id="Path_2763" data-name="Path 2763" d="M666.341,361.319s24.287,24.151,62.518,8.221" transform="translate(-634.365 -225.338)" fill="none" stroke="#2a1e17" stroke-linecap="round" stroke-linejoin="round" stroke-width="1"/>
      <path id="Path_2764" data-name="Path 2764" d="M673.94,347.773s9.91,7.085,16.117,9.348" transform="translate(-628.748 -235.35)" fill="none" stroke="#2a1e17" stroke-linecap="round" stroke-linejoin="round" stroke-width="1"/>
      <path id="Path_2765" data-name="Path 2765" d="M716.914,292.753s22.174,7.252,24.83,36.51" transform="translate(-596.985 -276.017)" fill="none" stroke="#2a1e17" stroke-linecap="round" stroke-linejoin="round" stroke-width="1"/>
      <path id="Path_2766" data-name="Path 2766" d="M726.316,313.543s10.209,15.8-7.045,31.595" transform="translate(-595.243 -260.651)" fill="none" stroke="#2a1e17" stroke-linecap="round" stroke-linejoin="round" stroke-width="1"/>
      <path id="Path_2767" data-name="Path 2767" d="M649.137,380.631s55.678,47.685,96.086-8.075" transform="translate(-647.081 -217.032)" fill="none" stroke="#2a1e17" stroke-linecap="round" stroke-linejoin="round" stroke-width="1"/>
    </g>
    <line id="Line_36" data-name="Line 36" x2="12.98" transform="translate(433.408 393.064)" fill="none" stroke="#ff6d66" stroke-linecap="round" stroke-linejoin="round" stroke-width="1"/>
    <line id="Line_37" data-name="Line 37" x2="12.98" transform="translate(1156.199 237.224)" fill="none" stroke="#ff6d66" stroke-linecap="round" stroke-linejoin="round" stroke-width="1"/>
    <line id="Line_38" data-name="Line 38" x2="12.98" transform="translate(808.238 148.167)" fill="none" stroke="#fad8b0" stroke-miterlimit="10" stroke-width="1"/>
    <line id="Line_39" data-name="Line 39" x2="12.775" y2="2.295" transform="translate(1180.972 304.356)" fill="none" stroke="#fad8b0" stroke-miterlimit="10" stroke-width="1"/>
    <line id="Line_40" data-name="Line 40" x2="12.98" transform="translate(671.276 627.912)" fill="none" stroke="#a0c6f4" stroke-linecap="round" stroke-linejoin="round" stroke-width="1"/>
    <circle id="Ellipse_41" data-name="Ellipse 41" cx="4.301" cy="4.301" r="4.301" transform="translate(1204.627 461.966)" fill="#91ba83"/>
    <circle id="Ellipse_42" data-name="Ellipse 42" cx="4.301" cy="4.301" r="4.301" transform="translate(397.275 255.865)" fill="#91ba83"/>
    <circle id="Ellipse_43" data-name="Ellipse 43" cx="4.561" cy="4.561" r="4.561" transform="translate(1032.37 816.267)" fill="#2a1e17"/>
    <circle id="Ellipse_44" data-name="Ellipse 44" cx="4.561" cy="4.561" r="4.561" transform="translate(1292.153 662.45)" fill="#2a1e17"/>
    <path id="Path_2768" data-name="Path 2768" d="M1185.657,411.68s35.81-106.628-124.289-43.722c-166.449,65.4-232.926,202.535-205.656,213.359S923.6,567.723,923.6,567.723" transform="translate(112.085 253.508)" fill="none" stroke="#2a1e17" stroke-linecap="round" stroke-linejoin="round" stroke-width="1"/>
  </g>
</svg>