<svg xmlns="http://www.w3.org/2000/svg" width="43" height="50" viewBox="0 0 43 50">
  <path id="Codeigniter" d="M2.2,47.37c-.874,0-1.128-.5-1.128-1.248a6.536,6.536,0,0,1,.071-.827C1.336,44,1.8,43.259,2.931,43.259c.763,0,1.135.335,1.135.943v.3h.757c.008,0,.008-.273.008-.335a1.687,1.687,0,0,0-1.9-1.732c-1.836,0-2.591.979-2.869,2.9A4.835,4.835,0,0,0,0,46.084a1.891,1.891,0,0,0,2.074,2.16,2.6,2.6,0,0,0,2.392-1.315l-.723-.478A1.7,1.7,0,0,1,2.2,47.37ZM7.168,43.8c-1.47,0-2.106.741-2.32,2.215a3.776,3.776,0,0,0-.04.515,1.536,1.536,0,0,0,1.708,1.708c1.47,0,2.114-.772,2.329-2.224a4.165,4.165,0,0,0,.04-.53A1.522,1.522,0,0,0,7.168,43.8Zm.612,2.215c-.159,1.069-.5,1.4-1.145,1.4-.516,0-.77-.211-.77-.843a3.832,3.832,0,0,1,.048-.554c.159-1.061.477-1.388,1.128-1.388.525,0,.786.211.786.85a3.548,3.548,0,0,1-.048.538Zm4.8-3.5-.246,1.432c-.016.124-.008.083.04.2a1.779,1.779,0,0,0-.922-.285c-1.319,0-2.058.586-2.3,2.224a3.143,3.143,0,0,0-.04.523,1.485,1.485,0,0,0,1.676,1.639,1.643,1.643,0,0,0,1.112-.249l.079.485h.763l.89-5.97H12.58Zm-.755,4.673a1.85,1.85,0,0,1-.921.258c-.58,0-.739-.3-.739-.772a4.6,4.6,0,0,1,.056-.616c.182-1.24.588-1.459,1.112-1.459a1.707,1.707,0,0,1,.85.188l-.358,2.4ZM15.958,43.8c-1.455,0-2.137.678-2.368,2.215a4.24,4.24,0,0,0-.04.538,1.535,1.535,0,0,0,1.756,1.685,2.125,2.125,0,0,0,2.011-1.085l-.8-.32a1.2,1.2,0,0,1-1.088.577c-.588,0-.826-.155-.826-.67a.748.748,0,0,1,.024-.249h2.868c.04-.4.087-.679.087-.913A1.56,1.56,0,0,0,15.958,43.8Zm.548,1.9H14.758c.175-.4.469-1.014,1.073-1.014a.641.641,0,0,1,.7.729,1.178,1.178,0,0,1-.024.285Zm4.131-1.99.1-.8H18.491l-.095.8h.588l-.635,3.98H17.76l-.095.8h2.241l.1-.8h-.588l.635-3.98h.588ZM25.19,44.9l.286-.8h-.771l-.556.113a2.23,2.23,0,0,0-1.128-.341c-1.137,0-2.106.539-2.106,1.764a1.288,1.288,0,0,0,.278.808.727.727,0,0,0-.445.614.583.583,0,0,0,.143.369,1.487,1.487,0,0,0-.77,1.293c0,1.054,1.12,1.278,1.978,1.278,1.081,0,2.368-.242,2.368-1.592,0-.46-.294-.819-1.144-.975l-1.534-.281c-.175-.031-.214-.086-.214-.164a.168.168,0,0,1,.191-.179l.1.015a3.2,3.2,0,0,0,.691.07c1.1,0,2.09-.468,2.09-1.685a1.088,1.088,0,0,0-.111-.476,1.745,1.745,0,0,0,.381.164h.269Zm-2.185,3.229c.3.055.4.164.4.359,0,.632-.691.71-1.192.71-.763,0-1.049-.179-1.049-.577a.95.95,0,0,1,.342-.765Zm-.326-2.043c-.461,0-.715-.164-.715-.554a.844.844,0,0,1,.938-.913c.477,0,.707.2.707.577A.821.821,0,0,1,22.679,46.083ZM28.013,43.8a2.205,2.205,0,0,0-1.335.6l-.071-.292h-.874l-.612,4.377h1.057l.461-3.32a2.373,2.373,0,0,1,1.017-.459c.4,0,.541.188.541.547a4.059,4.059,0,0,1-.024.434l-.389,2.8H28.84l.389-2.821c.016-.132.032-.349.032-.474A1.218,1.218,0,0,0,28.013,43.8Zm3.255,3.585.008-.107.461-3.174H29.981l-.111.8h.77c-.064,0-.1.07-.111.133l-.318,2.114a3.594,3.594,0,0,0-.024.4.852.852,0,0,0,.921.937h.541l.119-.8h-.341c-.12,0-.159-.207-.159-.3Zm.683-4.873H30.919c-.064,0-.064-.23-.071-.152L30.7,43.479c-.008.071-.008.224.055.224h1.034c.064,0,.064-.273.071-.344l.143-.866c.008-.078.008.015-.056.015Zm2.155,4.9c-.262,0-.389-.109-.389-.343l.008-.016L34.06,44.9h1.208l.365-.8H34.171l.246-1.751L33.3,42.7l-.2,1.4h-.643l-.111.8H33.1c-.071.4-.143.14-.151.218L32.661,47a1.13,1.13,0,0,0-.016.226c0,.741.556,1.018,1.224,1.018a2.3,2.3,0,0,0,1.51-.5l-.493-.6a1.291,1.291,0,0,1-.779.255ZM37.985,43.8c-1.454,0-2.137.678-2.368,2.215a4.3,4.3,0,0,0-.04.538,1.535,1.535,0,0,0,1.756,1.685,2.125,2.125,0,0,0,2.011-1.085l-.8-.32a1.2,1.2,0,0,1-1.089.577c-.588,0-.826-.155-.826-.67a.742.742,0,0,1,.025-.249h2.868c.04-.4.087-.679.087-.913A1.561,1.561,0,0,0,37.985,43.8Zm.549,1.9H36.785c.175-.4.468-1.014,1.073-1.014a.641.641,0,0,1,.7.729,1.2,1.2,0,0,1-.024.285Zm4-1.9a1.668,1.668,0,0,0-1.1.549L41.37,44.1H40.5l-.612,4.377h1.065l.469-3.39a1.874,1.874,0,0,1,.9-.3,4.346,4.346,0,0,1,.548-.007l.136-.9a2.581,2.581,0,0,0-.469-.078ZM15.544,39.374c-2.405-1.021-4.656-3.614-4.661-6.268-.007-2.894,1.862-5.35,4.185-6.965a3.1,3.1,0,0,0,.26,2.91A2.829,2.829,0,0,0,18.162,30.1c2.486-.534,2.6-3.217,1.126-4.78-1.457-1.548-2.867-3.3-2.312-5.54a5.759,5.759,0,0,1,1.873-2.932c-.685,1.768,1.262,3.511,2.545,4.38,2.226,1.507,4.668,2.645,6.714,4.411,2.153,1.856,3.742,4.366,3.421,7.277-.348,3.155-2.9,5.349-5.767,6.457,6.054-1.312,12.309-5.924,12.437-12.514.106-5.422-3.683-9.595-8.377-11.984l-.245-.131a1.93,1.93,0,0,1,.166.8,2.755,2.755,0,0,0,.079-.532,2.548,2.548,0,0,1-.086.643l.007-.111a2.674,2.674,0,0,1-.348.813l.069-.073a2.979,2.979,0,0,1-4.724.277c-2.013-2.539.042-5.277.33-7.966.36-3.37-1.793-6.642-4.463-8.6,1.47,2.335-.467,5.424-2.017,7.151-1.5,1.674-3.33,3.072-4.99,4.593a41.123,41.123,0,0,0-4.96,5.272c-2.93,3.838-4.723,8.664-3.405,13.452s5.539,7.83,10.307,8.907Z" fill="#383838"/>
</svg>
