<svg xmlns="http://www.w3.org/2000/svg" width="45.33" height="58.983" viewBox="0 0 125.33 168.983">
  <g id="Java" transform="translate(-154.626 -191.8)">
    <path id="Path_28964" data-name="Path 28964" d="M289.482,191.8c5.04,8.008,6.811,16.424,3.037,25.463-2.1,5.041-5.863,8.848-9.741,12.523-5.15,4.88-11,8.952-16.121,13.864-.871.835-1.68,1.736-2.5,2.62-3.276,3.518-2.639,7.69-1.925,11.848a86.544,86.544,0,0,0,7.287,21.777c.254.547.556,1.075.774,1.636a1.527,1.527,0,0,1-.321,1.95,1.415,1.415,0,0,1-1.938-.238c-7.532-6.379-14.287-13.372-17.819-22.865-2.592-6.967-1.5-13.425,2.57-19.567a56.788,56.788,0,0,1,13.852-13.971c4.535-3.379,9.321-6.417,13.583-10.166,4.661-4.1,6.436-9.534,7.284-15.414a23.535,23.535,0,0,0-.008-7.064,2.56,2.56,0,0,1,.67-2.4Z" transform="translate(-55.33)" fill="#383838"/>
    <path id="Path_28965" data-name="Path 28965" d="M167.209,539.692c3.325,1.651,6.811,2.162,10.261,2.721a210.951,210.951,0,0,0,41.876,2.237c14.21-.54,28.353-1.875,42.177-5.5a22.355,22.355,0,0,0,4.648-1.638c.839-.433,1.29-1.035.847-2a1.32,1.32,0,0,1,.463-1.871,1.688,1.688,0,0,1,1.975.348c2.7,2.176,2.859,5.271.36,7.677a17.97,17.97,0,0,1-6.165,3.4,87.513,87.513,0,0,1-17.97,4.627,238.916,238.916,0,0,1-31.454,2.774c-8.252.263-16.484.09-24.714-.225-8.549-.326-17.1-.908-25.414-3.193a16.365,16.365,0,0,1-7.548-3.831c-3-2.983-2.433-6.74,1.284-8.695,4.124-2.169,8.649-2.756,13.169-3.291,2.94-.348,5.905-.486,8.859-.713.933-.072,1.9,0,2.034,1.139.123,1.081-.7,1.435-1.664,1.643a60.416,60.416,0,0,0-10.765,2.988A5.43,5.43,0,0,0,167.209,539.692Z" transform="translate(0 -200.148)" fill="#383838"/>
    <path id="Path_28966" data-name="Path 28966" d="M201.73,420.966a19.879,19.879,0,0,0,6.356,1.19,245.033,245.033,0,0,0,34.589.186,191.942,191.942,0,0,0,20.79-2.111c1.621-.273,3.23-.634,4.83-1.017.958-.23,1.826-.191,2.228.8.387.956-.336,1.515-1.04,1.993-4.887,3.321-10.37,5.24-16.017,6.746-13,3.467-26.285,3.683-39.595,3.252a70.714,70.714,0,0,1-17.72-2.533A16.949,16.949,0,0,1,189,425.885c-2.867-2.7-2.536-6.185.756-8.328,3.124-2.034,6.714-2.647,10.289-3.244a81.333,81.333,0,0,1,14.278-1.054c.969.01,2.184-.26,2.377,1.118.207,1.477-1.128,1.59-2.089,1.8a56.681,56.681,0,0,0-10.374,3.176A5.548,5.548,0,0,0,201.73,420.966Z" transform="translate(-19.049 -130.09)" fill="#383838"/>
    <path id="Path_28967" data-name="Path 28967" d="M310.117,338.028c.062-.167.206-.637.405-1.083a28.836,28.836,0,0,0,2.007-6.763,6.682,6.682,0,0,0-1.389-5.546,57.028,57.028,0,0,1-5.634-7.911,25.2,25.2,0,0,1-2.957-14c.312-3.912,2.6-6.932,5.236-9.656,4.8-4.967,10.7-8.381,16.738-11.57,3.156-1.666,6.429-3.086,9.72-4.463.859-.359,1.7-.653,2.309.361.625,1.049-.148,1.63-.844,2.184-5.723,4.554-11.467,9.084-16.381,14.549a20.43,20.43,0,0,0-2.943,4.156,8.651,8.651,0,0,0,.407,9.214c1.146,1.81,2.367,3.575,3.45,5.421,4.518,7.708,3.885,14.256-1.982,21.016a35.9,35.9,0,0,1-5.755,5.413,1.587,1.587,0,0,1-1.835.265C310.21,339.356,310.029,338.887,310.117,338.028Z" transform="translate(-86.852 -49.88)" fill="#383838"/>
    <path id="Path_28968" data-name="Path 28968" d="M257.385,509.07c5.94-.209,12.027-1.417,18.128-2.488a3.644,3.644,0,0,1,2.807.455c2.366,1.5,4.785,2.917,7.171,4.386.653.4,1.35.8,1.3,1.743-.048.973-.814,1.206-1.532,1.5a69.339,69.339,0,0,1-19.783,4.682,87.437,87.437,0,0,1-29.563-2.083,15.288,15.288,0,0,1-6.324-3.058c-3.3-2.8-2.976-6.875.819-8.946a12.4,12.4,0,0,1,6.343-1.509c1.389.038,1.92.8,1.272,2.051-.467.9-.224,1.076.612,1.3a64.2,64.2,0,0,0,10.73,1.581C251.937,508.912,254.524,508.939,257.385,509.07Z" transform="translate(-42.707 -183.258)" fill="#383838"/>
    <path id="Path_28969" data-name="Path 28969" d="M243.542,476.117c-7.449-.013-14.791-.733-21.842-3.352a14.9,14.9,0,0,1-4.039-2.2c-2.446-1.917-2.468-4.567-.083-6.549,2.407-2,5.4-2.61,8.3-3.411a1.23,1.23,0,0,1,1.475.79,1.308,1.308,0,0,1-.58,1.7c-.66.512-2.021.742-1.736,1.673s1.632.907,2.581,1.073a102.472,102.472,0,0,0,25.6.778,135.97,135.97,0,0,0,20.458-3.2,2.458,2.458,0,0,1,2.147.46c1.928,1.365,3.857,2.73,5.8,4.077.675.469,1.2,1,1,1.9-.189.861-.975,1.028-1.645,1.172-7.667,1.649-15.354,3.193-23.155,4.094A110.849,110.849,0,0,1,243.542,476.117Z" transform="translate(-35.942 -157.887)" fill="#383838"/>
    <path id="Path_28970" data-name="Path 28970" d="M257.208,575.207a219.024,219.024,0,0,1-41.8-3.99c-.376-.073-.747-.179-1.117-.282-.779-.218-1.292-.7-1.155-1.543a1.36,1.36,0,0,1,1.564-1.145c2.144.035,4.289.013,6.43.1,13.232.564,26.474.765,39.711.471,8.6-.191,17.258-.244,25.748-1.895s16.777-3.987,23.726-9.555c.565-.453,1.19-.872,1.925-.295a1.771,1.771,0,0,1,.421,2.119,13.265,13.265,0,0,1-4.176,6.016c-4.292,3.678-9.452,5.54-14.88,6.628a180.838,180.838,0,0,1-26.115,3.087C263.972,575.113,260.461,575.088,257.208,575.207Z" transform="translate(-34.358 -214.424)" fill="#383838"/>
    <path id="Path_28971" data-name="Path 28971" d="M403.881,407.7c7.338-.044,11.944,4.064,13.461,12.031,1.229,6.457-1.875,11.043-6.644,14.729-5.794,4.477-12.556,6.891-19.587,8.639-.83.206-1.58.2-1.994-.624-.468-.928.1-1.536.83-2.053a71.975,71.975,0,0,0,12.375-10.57A22.225,22.225,0,0,0,406,424.613a6.1,6.1,0,0,0-2.479-8.379c-3.125-1.955-6.644-2.478-10.208-2.815-.875-.083-1.7-.176-1.9-1.192-.212-1.063.633-1.442,1.378-1.774A27.363,27.363,0,0,1,403.881,407.7Z" transform="translate(-137.656 -126.832)" fill="#383838"/>
  </g>
</svg>
