<svg xmlns="http://www.w3.org/2000/svg" width="54.388" height="47.682" viewBox="0 0 114.388 117.682">
  <path id="Laravel" d="M-268.709-227c3.1,1.758,6.2,3.506,9.287,5.276,4.369,2.5,8.722,5.033,13.1,7.523a2.346,2.346,0,0,1,1.292,2.259q-.02,23.09-.009,46.179v.756c.227-.117.38-.188.525-.271q8.788-5.06,17.58-10.116a.709.709,0,0,0,.405-.717q-.014-11.761-.012-23.522a2.044,2.044,0,0,1,1.107-1.92q10.85-6.237,21.69-12.491a2.138,2.138,0,0,1,2.34-.007q10.8,6.234,21.612,12.439a2.141,2.141,0,0,1,1.181,2.025q-.019,12.361,0,24.722a2.126,2.126,0,0,1-1.186,2.017q-10.255,5.879-20.5,11.78a.814.814,0,0,0-.468.826c.012,7.777,0,15.553.017,23.33a2.2,2.2,0,0,1-1.209,2.1q-21.786,12.522-43.551,25.078a2.446,2.446,0,0,1-2.723-.006q-21.8-12.587-43.63-25.124A2.587,2.587,0,0,1-293-136.267v-76.427a2.913,2.913,0,0,1,1.559-1.646c5.141-2.941,10.267-5.91,15.405-8.857,2.241-1.285,4.5-2.536,6.751-3.8Zm20.033,112.788v-.694q0-9.96.01-19.921a.991.991,0,0,0-.578-1.009c-6.755-3.8-13.492-7.635-20.249-11.433a2.338,2.338,0,0,1-1.333-2.27q.031-24.241.018-48.483a.778.778,0,0,0-.4-.821q-8.844-5.06-17.668-10.154c-.129-.074-.269-.131-.478-.231v.565q0,35.258-.01,70.516a.824.824,0,0,0,.489.819q19.6,11.269,39.193,22.556C-249.382-114.6-249.078-114.435-248.676-114.212Zm44.3-44.486c-.25.132-.391.2-.527.279q-19.845,11.326-39.694,22.645a.787.787,0,0,0-.468.783q.017,10.1.009,20.21c0,.165.021.33.036.551.227-.123.382-.2.532-.289q19.822-11.41,39.649-22.814a.822.822,0,0,0,.472-.828q-.02-9.961-.009-19.922Zm-44.3-50.531c-.188.087-.276.12-.357.167q-8.913,5.13-17.83,10.254a.669.669,0,0,0-.337.707q.005,22.63,0,45.26v.592c.245-.132.411-.216.572-.309q8.706-5.008,17.415-10.01a.933.933,0,0,0,.545-.936q-.02-22.534-.011-45.068Zm42.417,47.386c-.165-.106-.255-.171-.351-.226q-8.893-5.12-17.783-10.244a.563.563,0,0,0-.65,0c-1.726,1.007-3.461,2-5.193,2.995q-17.29,9.953-34.579,19.907c-.155.089-.3.2-.484.322.167.1.272.176.383.238q8.848,5.007,17.691,10.021a.677.677,0,0,0,.779-.046q19.84-11.332,39.684-22.658C-206.607-161.617-206.463-161.713-206.254-161.843ZM-287.476-212.4c.177.11.269.172.364.227q8.871,5.11,17.738,10.226a.677.677,0,0,0,.783-.036q8.8-5.08,17.615-10.148c.131-.075.252-.166.426-.282-.19-.121-.318-.21-.452-.288q-8.809-5.072-17.614-10.149a.715.715,0,0,0-.826.032q-8.784,5.068-17.576,10.122C-287.152-212.618-287.278-212.528-287.476-212.4Zm103.383,12.527c-.216-.134-.373-.238-.537-.332q-8.767-5.048-17.531-10.1a.711.711,0,0,0-.823.005q-8.137,4.7-16.286,9.386c-.578.332-1.154.667-1.78,1.03.178.116.293.2.415.269q8.83,5.086,17.656,10.176a.714.714,0,0,0,.824,0q8.655-5,17.32-9.987C-184.6-199.562-184.375-199.7-184.093-199.872Zm-38.793,3.152c-.014.243-.03.382-.03.522q0,10.056-.01,20.111a.713.713,0,0,0,.443.7q8.794,5.05,17.58,10.115c.144.083.3.149.531.265v-.607q0-9.96.008-19.919a.786.786,0,0,0-.447-.794Q-212.965-191-221.1-195.7C-221.667-196.026-222.234-196.348-222.886-196.721ZM-200.754-165c.231-.123.383-.2.53-.283q8.767-5.045,17.538-10.086a.75.75,0,0,0,.445-.748q-.018-10.007-.01-20.014c0-.166-.016-.331-.028-.556-.179.091-.292.143-.4.2q-8.83,5.082-17.665,10.158a.741.741,0,0,0-.417.757q.016,9.983.008,19.966Z" transform="translate(293 227)" fill="#383838"/>
</svg>
