<svg xmlns="http://www.w3.org/2000/svg" width="75" height="38" viewBox="0 0 95 58">
  <g id="node_js" data-name="node js" transform="translate(-280 -1057)">
    <path id="Path_20005" data-name="Path 20005" d="M1715.278,5c1.685.947,3.354,1.924,5.062,2.827a1.757,1.757,0,0,1,1.052,1.768q-.037,12.717-.007,25.434a1.516,1.516,0,0,1-.847,1.474q-4.32,2.457-8.609,4.97a1.428,1.428,0,0,1-1.6.012q-4.355-2.546-8.735-5.049a1.318,1.318,0,0,1-.731-1.268q.019-5.072,0-10.144a1.319,1.319,0,0,1,.735-1.266q4.427-2.534,8.837-5.1a1.236,1.236,0,0,1,1.366,0c.65.388,1.31.758,1.967,1.135.519.3.766.158.766-.436q0-6.787-.005-13.575a.828.828,0,0,1,.373-.786Zm-7.6,25.075c0,.534.015,1.069-.006,1.6a.576.576,0,0,0,.347.589q1.4.782,2.772,1.6a.537.537,0,0,0,.617,0q1.393-.823,2.8-1.618a.539.539,0,0,0,.315-.532c-.011-1.081-.01-2.162,0-3.242a.512.512,0,0,0-.284-.511q-1.442-.814-2.868-1.656a.472.472,0,0,0-.546,0q-1.426.841-2.869,1.653a.5.5,0,0,0-.283.511C1707.685,29.006,1707.677,29.54,1707.677,30.075Z" transform="translate(-1371.192 1052)" fill="#383838"/>
    <path id="Union_388" data-name="Union 388" d="M.064,20.615A.179.179,0,0,0,0,20.623v-6.85a.23.23,0,0,1,.066.184A.23.23,0,0,0,0,13.773V6.03a1.887,1.887,0,0,1,.854-.859Q5.049,2.718,9.228.239a1.352,1.352,0,0,1,1.529,0q4.255,2.53,8.532,5.022A1.332,1.332,0,0,1,20,6.529q-.024,6.85-.031,13.7c0,.062,0,.124,0,.186-.032.5-.408.733-.84.482q-2.623-1.52-5.234-3.062a1.161,1.161,0,0,1-.569-1.089c0-2.1-.007-4.194.008-6.291a1.272,1.272,0,0,0-.7-1.238c-.681-.379-1.349-.781-2.015-1.185a1.125,1.125,0,0,0-1.267.011c-.635.386-1.267.778-1.922,1.127a1.379,1.379,0,0,0-.773,1.383c.023,2.01,0,4.02.015,6.031A1.417,1.417,0,0,1,5.9,17.965c-1.661.945-3.3,1.927-4.953,2.891A.866.866,0,0,1,.523,21C.331,21,.188,20.873.064,20.615Zm0-6.564q0,1.231,0,2.461,0-1.231,0-2.461Z" transform="translate(280 1070)" fill="#383838"/>
    <path id="Union_392" data-name="Union 392" d="M9.67,23q-1.546-.916-3.091-1.833c-.111-.066-.283-.108-.274-.261s.2-.153.313-.2a4.582,4.582,0,0,0,.89-.413.486.486,0,0,1,.6.006c.6.374,1.212.719,1.812,1.088a.53.53,0,0,0,.608,0q4.05-2.351,8.109-4.688a.514.514,0,0,0,.28-.5q-.006-4.675,0-9.35a.544.544,0,0,0-.3-.529q-4.075-2.345-8.141-4.7a.451.451,0,0,0-.507,0Q5.882,3.982,1.792,6.337a.49.49,0,0,0-.273.471q0,4.712,0,9.423a.455.455,0,0,0,.251.444c.719.406,1.426.835,2.149,1.235a1.607,1.607,0,0,0,1.293.213,1.03,1.03,0,0,0,.756-.927c.013-.145.01-.292.01-.438q0-4.474,0-8.949c0-.556.025-.583.569-.58h.3c.795-.008.7-.016.7.987q0,4.346,0,8.693a4.3,4.3,0,0,1-.125,1.12,2.2,2.2,0,0,1-2.079,1.691,4.08,4.08,0,0,1-2.365-.592c-.646-.363-1.28-.748-1.928-1.106A1.877,1.877,0,0,1,0,16.273q0-4.748,0-9.5A1.913,1.913,0,0,1,1.062,5C3.793,3.44,6.513,1.858,9.238.284a1.82,1.82,0,0,1,1.937-.01q4.15,2.4,8.3,4.8a1.783,1.783,0,0,1,.936,1.657q-.008,4.785,0,9.569a1.785,1.785,0,0,1-.939,1.657q-4.161,2.414-8.328,4.817c-.145.084-.3.151-.45.226Zm1.008-7.068A2.753,2.753,0,0,1,8.82,13.418c-.011-.319.1-.458.419-.425a.691.691,0,0,0,.087,0h.059c.088,0,.18,0,.271-.006a1.466,1.466,0,0,1,.6.051c.284.112.186.5.292.748a1.447,1.447,0,0,0,1.045.885,7.1,7.1,0,0,0,3.254.017,1.424,1.424,0,0,0,.587-.284.946.946,0,0,0-.25-1.68,11.092,11.092,0,0,0-2.544-.448,9.194,9.194,0,0,1-2.13-.466,2.35,2.35,0,0,1-.56-3.966,4.326,4.326,0,0,1,2.338-.826c.241-.022.487,0,.73,0a5.928,5.928,0,0,1,2.294.333,2.762,2.762,0,0,1,1.841,2.417c.041.306-.059.474-.388.456a.955.955,0,0,0-.183,0c-.6.084-1.043-.005-1.191-.731a1.182,1.182,0,0,0-.942-.836,5.461,5.461,0,0,0-2.815-.014.981.981,0,0,0-.842.926.66.66,0,0,0,.53.8,10.737,10.737,0,0,0,1.893.377,16.391,16.391,0,0,1,2.575.493,2.121,2.121,0,0,1,1.7,1.985,2.52,2.52,0,0,1-1.241,2.47,4.974,4.974,0,0,1-2.442.653c-.182.008-.365.013-.546.013A7.172,7.172,0,0,1,10.677,15.932ZM23.356,7.74A1.643,1.643,0,1,1,25,6.105,1.654,1.654,0,0,1,23.36,7.74ZM22,6.093a1.381,1.381,0,0,0,1.365,1.39,1.388,1.388,0,0,0,0-2.776h-.012A1.363,1.363,0,0,0,22,6.093Zm1.7.8a2.9,2.9,0,0,1-.059-.388c-.02-.192-.153-.212-.312-.22-.2-.01-.182.116-.209.251-.033.163.167.479-.2.451-.308-.023-.109-.3-.146-.463a1.915,1.915,0,0,1-.007-.427V5.635c0-.472,0-.472.628-.439.487.025.748.215.6.536-.177.4.032.719.036,1.074,0,.076.077.174-.064.192a.961.961,0,0,1-.12.012A.137.137,0,0,1,23.7,6.9Zm-.58-1.186c.007.146-.013.3.2.267.187,0,.331-.032.337-.241s-.145-.237-.311-.252l-.041,0C23.158,5.482,23.11,5.559,23.117,5.709Z" transform="translate(316.913 1092)" fill="#383838"/>
    <path id="Path_20010" data-name="Path 20010" d="M2057.111,189.687q0,1.49,0,2.98a1.021,1.021,0,0,1-.549.753q-2.666,1.552-5.336,3.1c-.518.3-.919.067-.926-.526-.009-.744-.017-1.489,0-2.233a.857.857,0,0,0-.505-.862c-.837-.457-1.661-.938-2.481-1.425a.762.762,0,0,0-.865,0q-1.26.752-2.544,1.466a.785.785,0,0,0-.445.781q.023,1.451,0,2.9a.787.787,0,0,0,.458.771q4.279,2.437,8.546,4.9c.086.049.171.1.258.148.244.135.488.278.487.6s-.237.464-.485.6q-1.676.924-3.347,1.857c-.6.331-1.195.656-1.785,1a1.265,1.265,0,0,1-1.367,0q-4.4-2.522-8.818-5.021a1.21,1.21,0,0,1-.674-1.146q.011-5.156,0-10.312a1.191,1.191,0,0,1,.65-1.122q4.446-2.557,8.885-5.127a1.272,1.272,0,0,1,1.4,0q4.382,2.557,8.775,5.1A1.149,1.149,0,0,1,2057.111,189.687Z" transform="translate(-1682.111 887.037)" fill="#383838"/>
    <path id="Union_387" data-name="Union 387" d="M9.351,22.8Q4.98,20.247.606,17.7a.747.747,0,0,1-.394-.363A.8.8,0,0,1,0,16.766q0-3.574.011-7.148c0-1.13-.017-2.261-.009-3.391a.959.959,0,0,1,.592-.9h0c1.341-.84,2.72-1.615,4.093-2.4a9.9,9.9,0,0,1,1.239-.71l.088-.06.065-.037h0A10.3,10.3,0,0,1,7.329,1.4q0,6.885,0,13.771,0-6.885,0-13.771A14.978,14.978,0,0,1,8.74.568a.431.431,0,0,1,.2.442.431.431,0,0,0-.2-.442c.432-.246.812-.618,1.366-.562.083.008.17,0,.231.073a2.442,2.442,0,0,1,.706.365q1.557.908,3.111,1.824a.329.329,0,0,0,0,.042.329.329,0,0,1,0-.042q2.662,1.544,5.323,3.09c.1.059.219.116.249.253A20.633,20.633,0,0,0,18.385,7.99a20.633,20.633,0,0,1,1.341-2.379.879.879,0,0,1,.263.663c0,1.706,0,3.411-.009,5.117q0,1.293,0,2.587h0c.021.938.033,1.876-.009,2.814a.877.877,0,0,1-.459.814c-.68.415-1.378.8-2.069,1.2a3.8,3.8,0,0,1-.731.428,12.435,12.435,0,0,1-1.592.909,2.46,2.46,0,0,0-.318.2,6,6,0,0,1-.877.514.3.3,0,0,1-.089-.231.3.3,0,0,0,.089.231,8.655,8.655,0,0,1-1.754.963c-.052.2-.246.223-.386.3a12.355,12.355,0,0,1-1.3.734.444.444,0,0,1-.372.129A.848.848,0,0,1,9.97,23,1.229,1.229,0,0,1,9.351,22.8Zm2.667-1.445v0q0-8.8,0-17.6Q12.018,12.553,12.018,21.353Zm.9-16.611a4.793,4.793,0,0,1,.9,2.065c.011.158.029.317.029.476q0,6.56,0,13.119-.006-6.56,0-13.119c0-.159-.018-.318-.029-.476a4.793,4.793,0,0,0-.9-2.065,6.935,6.935,0,0,0-.824-1.335A25.751,25.751,0,0,0,10.482.6a.523.523,0,0,0-.087.3.523.523,0,0,1,.087-.3,25.751,25.751,0,0,1,1.611,2.809.233.233,0,0,0-.079.193.233.233,0,0,1,.079-.193A6.935,6.935,0,0,1,12.916,4.742ZM7.179,17.457q.681,1.4,1.475,2.734-.793-1.336-1.475-2.734a17.873,17.873,0,0,1-1.016-1.836A17.911,17.911,0,0,0,7.179,17.457Zm1.764,2.381c0,.061,0,.123,0,.185,0-.061,0-.124,0-.185Zm7.616-.984c0,.027,0,.053,0,.08,0-.027,0-.053,0-.08q0-1.723,0-3.447Q16.56,17.13,16.559,18.854Zm-1.845.029c0-.5.019-.992.019-1.487C14.733,17.891,14.714,18.387,14.714,18.883ZM7.331,17.138c0,.042.006.088.006.132,0-.044-.006-.09-.006-.132ZM6.095,15.109c0-.058-.009-.118-.009-.174C6.086,14.991,6.095,15.051,6.095,15.109ZM17.44,15q0-.864,0-1.729Q17.44,14.137,17.44,15Zm-6.958-.81q0-6.334.01-12.668Q10.48,7.858,10.483,14.191Zm9.463-.211-.032,0Zm0,0h0ZM18.235,13.2l1.437.69.018.009-.018-.009-1.437-.69-.012-.006ZM6.088,12.643q0,.572,0,1.144,0-.572,0-1.144,0-.658,0-1.315Q6.087,11.985,6.088,12.643ZM14.729,8.2q0,2.566,0,5.133,0-2.566,0-5.133c0-.04,0-.081,0-.121C14.729,8.12,14.729,8.16,14.729,8.2Zm3.074,4.96a.825.825,0,0,0,.074.079l0-.008,0,.008a.825.825,0,0,1-.074-.079Zm.082.062c.04-.08.086-.107.135-.108C17.971,13.116,17.925,13.144,17.885,13.223Zm.33-.034-.049-.026Zm-.186-.074h0Zm-.482-.22a.148.148,0,0,0-.127.165.148.148,0,0,1,.127-.165h0Zm.005,0a.164.164,0,0,1,.034,0A.164.164,0,0,0,17.552,12.894Zm.038,0h0ZM4.613,12.727c.158-.021.158-.132.156-.243,0,.111,0,.222-.156.243Zm.156-.28q0-1.42,0-2.839Q4.77,11.027,4.769,12.447Zm12.118-1.7c-.086.263-.337.433-.336.754,0-.321.25-.491.336-.754a1.722,1.722,0,0,1,.182-.317c.075-.122.1-.272.221-.369l.755-1.43-.755,1.43c-.117.1-.146.247-.221.369A1.722,1.722,0,0,0,16.888,10.747Zm3.057.645h0Zm0,0h0ZM1.658,7.375c.679,1.3,1.389,2.584,2.086,3.875-.7-1.291-1.408-2.574-2.086-3.875l-.084-.159Zm17.363,3.642L19,11.01Zm-1.951-.588h0Zm-.231-.13-.009-.011ZM14.846,7.561c.306.411.606.827.907,1.242l1.053,1.453L15.753,8.8c-.3-.415-.6-.831-.907-1.242l0,0Zm-5.9-6.443q0,2.972,0,5.945v0q0-2.972,0-5.945ZM.453,9.768.38,9.73Zm-.42-.152h0Zm.024,0h0ZM14.841,7.554l0-.007Zm-.2-.114a.089.089,0,0,0-.058.081.089.089,0,0,1,.058-.081.1.1,0,0,1,.044-.012A.1.1,0,0,0,14.643,7.441Zm.05-.012h0ZM10.483.58C10.483.436,10.3.344,10.3.2,10.3.344,10.483.436,10.483.58Z" transform="translate(304.945 1071)" fill="#383838"/>
    <path id="Union_389" data-name="Union 389" d="M1.87,3.965.121,3.078C.09,3.062.056,3.048.042,3.015A.129.129,0,0,1,0,2.916q0-.622,0-1.243c0-.2,0-.393,0-.59A.168.168,0,0,1,.119.927h0C.387.781.663.646.937.509A2.083,2.083,0,0,1,1.185.386L1.2.376,1.216.369h0a2.162,2.162,0,0,1,.25-.125q0,1.2,0,2.395,0-1.2,0-2.395A3.1,3.1,0,0,1,1.748.1a.072.072,0,0,1,.041.077A.072.072,0,0,0,1.748.1.5.5,0,0,1,2.021,0c.017,0,.034,0,.046.013a.519.519,0,0,1,.141.063l.622.317A.043.043,0,0,0,2.83.4a.043.043,0,0,1,0-.007L3.9.932c.02.01.044.02.05.044a3.493,3.493,0,0,0-.268.414A3.493,3.493,0,0,1,3.945.976.143.143,0,0,1,4,1.091c0,.3,0,.593,0,.89q0,.225,0,.45H4c0,.163.007.326,0,.489a.15.15,0,0,1-.092.142c-.136.072-.276.139-.414.208a.79.79,0,0,1-.146.074,2.605,2.605,0,0,1-.318.158.511.511,0,0,0-.063.035,1.25,1.25,0,0,1-.175.089.048.048,0,0,1-.018-.04.048.048,0,0,0,.018.04,1.821,1.821,0,0,1-.351.167c-.01.035-.049.039-.077.053a2.57,2.57,0,0,1-.261.128A.1.1,0,0,1,2.022,4L1.994,4A.272.272,0,0,1,1.87,3.965ZM2.4,3.713h0q0-1.53,0-3.061Q2.4,2.183,2.4,3.713ZM2.583.825a.783.783,0,0,1,.181.359c0,.028.006.055.006.083q0,1.141,0,2.282,0-1.141,0-2.282c0-.028,0-.055-.006-.083A.783.783,0,0,0,2.583.825,1.2,1.2,0,0,0,2.419.593,4.392,4.392,0,0,0,2.1.1a.083.083,0,0,0-.017.052A.083.083,0,0,1,2.1.1a4.392,4.392,0,0,1,.322.489A.038.038,0,0,0,2.4.626.038.038,0,0,1,2.419.593,1.2,1.2,0,0,1,2.583.825ZM1.436,3.036q.136.243.295.476-.159-.232-.295-.476a3.014,3.014,0,0,1-.2-.319A3.014,3.014,0,0,0,1.436,3.036Zm.353.414c0,.011,0,.021,0,.032,0-.011,0-.021,0-.032Zm1.523-.171s0,.009,0,.014,0-.009,0-.014q0-.3,0-.6Q3.312,2.979,3.312,3.279Zm-.369.005c0-.086,0-.172,0-.259C2.947,3.112,2.943,3.2,2.943,3.284Zm-1.477-.3c0,.007,0,.015,0,.023,0-.008,0-.016,0-.023Zm-.247-.353c0-.01,0-.02,0-.03C1.217,2.607,1.219,2.618,1.219,2.628Zm2.269-.019q0-.15,0-.3Q3.488,2.459,3.488,2.609ZM2.1,2.468q0-1.1,0-2.2Q2.1,1.367,2.1,2.468Zm1.893-.037h0Zm0,0h0ZM3.647,2.3l.287.12,0,0,0,0L3.647,2.3h0Zm-2.43-.1q0,.1,0,.2,0-.1,0-.2t0-.229Q1.217,2.084,1.218,2.2Zm1.728-.773q0,.446,0,.893,0-.446,0-.893c0-.007,0-.014,0-.021S2.946,1.419,2.946,1.426Zm.615.863a.174.174,0,0,0,.015.014h0a.174.174,0,0,1-.015-.014Zm.016.011A.032.032,0,0,1,3.6,2.281.032.032,0,0,0,3.577,2.3Zm.066-.006-.01,0Zm-.037-.013h0Zm-.1-.038c-.021,0-.025.016-.025.029,0-.013,0-.024.025-.029h0Zm0,0h0Zm.008,0h0Zm-2.6-.028c.032,0,.032-.023.031-.042,0,.019,0,.039-.031.042Zm.031-.049q0-.247,0-.494Q.954,1.918.954,2.165Zm2.424-.3c-.017.046-.067.075-.067.131,0-.056.05-.085.067-.131a.283.283,0,0,1,.036-.055c.015-.021.021-.047.044-.064L3.609,1.5l-.151.249c-.023.017-.029.043-.044.064A.283.283,0,0,0,3.378,1.869Zm.611.112h0Zm0,0h0Zm-3.658-.7c.136.226.278.449.417.674C.609,1.732.467,1.509.332,1.283L.315,1.255ZM3.8,1.916h0Zm-.39-.1h0Zm-.046-.023,0,0Zm-.4-.476c.061.072.121.144.181.216l.211.253-.211-.253c-.06-.072-.12-.145-.181-.216h0ZM1.789.194v0ZM.091,1.7.076,1.692ZM.007,1.672h0Zm0,0h0Zm2.957-.359h0Zm-.04-.02c-.009,0-.012.009-.012.014s0-.01.012-.014l.009,0Zm.01,0h0ZM2.1.1C2.1.076,2.06.06,2.059.035,2.06.06,2.1.076,2.1.1Z" transform="translate(362.835 1080)" fill="#383838"/>
  </g>
</svg>
