<svg xmlns="http://www.w3.org/2000/svg" width="53.778" height="38.518" viewBox="0 0 273.778 138.518">
  <path id="php" d="M-5477.552-13950.624c-24.01-2.047-47.253-7.255-69.174-17.526-11.682-5.473-22.547-12.233-31.174-22.023-16.585-18.823-16.119-40.391,1.386-58.44,13.8-14.227,31.255-22.292,49.743-28.33,23.925-7.817,48.643-10.593,74.5-11.057,33.238.768,66.448,5.445,97.258,21.137,11.516,5.865,21.963,13.191,29.89,23.628,12.063,15.882,11.869,34.486-.629,50.033-12.788,15.9-30.254,24.7-48.954,31.265-25.074,8.813-50.764,12.454-76.844,12.455C-5460.177-13949.483-5468.846-13949.882-5477.552-13950.624Zm69.913-101.122a4,4,0,0,0-2.79,2.563c-4.755,23.939-9.355,47.9-14.05,72.2h16.462c1.138-5.646,2.411-10.822,3.154-16.072.4-2.822,1.57-3.575,4.2-3.561,5.66.031,11.332-.043,16.985-.354a32.278,32.278,0,0,0,29.675-24.686c4.122-16.812-2.638-28.066-19.17-29.735a149.461,149.461,0,0,0-15.053-.653C-5394.694-14052.043-5401.181-14051.8-5407.639-14051.746Zm-130.277.795q-7.08,36.429-14.376,73.966h16.465c1.068-5.3,2.355-10.3,3-15.388.438-3.482,1.976-4.352,5.215-4.264,5.151.142,10.328.032,15.468-.29,18.244-1.139,31.386-15.175,31.439-33.411.032-11.028-6.053-19.439-17.116-20.358-5.147-.428-10.321-.557-15.553-.557C-5521.376-14051.253-5529.516-14050.951-5537.916-14050.951Zm64.327,54.452c4.572.527,6.262-1.185,7.018-5.745,2.062-12.4,4.717-24.7,7.117-36.943,5.795,0,11.109-.092,16.416.028,4.116.092,6.053,2.34,5.6,6.484-.2,1.81-.435,3.627-.774,5.42-1.877,9.938-3.794,19.873-5.859,30.664,5.3,0,9.776.2,14.217-.142,1.093-.085,2.719-1.8,2.966-2.994,2.249-10.9,4.4-21.818,6.276-32.782,1.938-11.3-1.93-16.95-13.127-18.435-7.524-1-15.186-.94-23.077-1.372,1.156-6.428,2.284-12.714,3.461-19.283h-16.26c-4.844,24.891-9.649,49.6-14.592,75.025,2.494,0,4.712-.113,6.808-.113A33.248,33.248,0,0,1-5473.588-13996.5Zm71.809-12.226c2.132-10.858,4.1-20.9,6.2-31.591,6.2.441,12.148.633,18.032,1.347,4.791.583,7.078,3.7,7.245,8.574.47,13.757-6.385,21.273-20,21.655-1.334.037-2.669.048-4.034.048C-5396.678-14008.691-5399.109-14008.725-5401.78-14008.725Zm-127.76-.025c2.04-10.528,3.988-20.577,6.113-31.534,6.2.438,12.463.584,18.633,1.407,4.583.615,6.948,4.06,6.764,8.531-.537,12.831-5.021,21.6-19.676,21.6Z" transform="translate(5590 14088.001)" fill="#383838"/>
</svg>
