<svg xmlns="http://www.w3.org/2000/svg" width="50" height="50" viewBox="0 0 50 50">
  <path id="python" d="M-5566.073-14038c-.128-.016-.255-.037-.384-.045a20.284,20.284,0,0,1-6.343-1.326,9.768,9.768,0,0,1-3.4-2.1,3.74,3.74,0,0,1-1.291-2.651c.008-3.262.031-6.523.1-9.784a16.838,16.838,0,0,1,.623-4.114,5.079,5.079,0,0,1,4.2-3.981,22.746,22.746,0,0,1,3.858-.347c2.781-.045,5.563-.058,8.345-.114a15.6,15.6,0,0,0,3.569-.484,6.191,6.191,0,0,0,4.539-4.1,15.06,15.06,0,0,0,.825-4.1c.1-1.346.125-2.7.183-4.045,0-.095,0-.19,0-.309h.293c1.529,0,3.059.007,4.589,0a3.623,3.623,0,0,1,2.066.626,6.767,6.767,0,0,1,2.079,2.326,17.322,17.322,0,0,1,2.074,6.854c.062.539.1,1.081.149,1.622v2.148c-.015.1-.037.206-.042.31a20.974,20.974,0,0,1-.987,5.479,11.275,11.275,0,0,1-2.178,4.052,4.383,4.383,0,0,1-3.481,1.6c-6-.033-11.992-.014-17.989-.014h-.306v1.257h12.482v.259c0,1.554,0,3.108,0,4.662a3.462,3.462,0,0,1-.46,1.747,6.467,6.467,0,0,1-2.509,2.364,17.323,17.323,0,0,1-6.833,2.063c-.54.062-1.083.1-1.624.148Zm5.638-6.262a2.308,2.308,0,0,0,2.3,2.318,2.3,2.3,0,0,0,2.32-2.295,2.3,2.3,0,0,0-2.3-2.318h-.013A2.306,2.306,0,0,0-5560.436-14044.263Zm-24.986-6.7a6.455,6.455,0,0,1-2.365-2.509,17.293,17.293,0,0,1-2.062-6.835c-.062-.54-.1-1.082-.149-1.623v-2.148c.015-.111.037-.222.043-.334a20.925,20.925,0,0,1,.985-5.454,11.232,11.232,0,0,1,2.194-4.07,4.365,4.365,0,0,1,3.44-1.581c6,.032,12.009.014,18.014.014h.306v-1.257H-5577.5v-.283c0-1.529.007-3.059,0-4.589a3.606,3.606,0,0,1,.638-2.087,7.221,7.221,0,0,1,2.716-2.287,17.809,17.809,0,0,1,6.475-1.85c.532-.06,1.066-.1,1.6-.147h2.149c.355.032.71.064,1.066.095a19.654,19.654,0,0,1,5.664,1.275,9.8,9.8,0,0,1,3.378,2.089,3.772,3.772,0,0,1,1.308,2.7c-.017,3.441.125,6.886-.139,10.323a16.031,16.031,0,0,1-.632,3.595,5.5,5.5,0,0,1-1.678,2.722,6.066,6.066,0,0,1-2.75,1.181,24.675,24.675,0,0,1-4.565.38c-2.376.035-4.752.028-7.128.066a17.489,17.489,0,0,0-3.774.434,6.069,6.069,0,0,0-4.585,4.156,15.692,15.692,0,0,0-.715,3.206,42.456,42.456,0,0,0-.272,4.944c0,.1,0,.208,0,.339h-.263q-2.344,0-4.687,0h-.008A3.429,3.429,0,0,1-5585.422-14050.96Zm11.24-30.8a2.3,2.3,0,0,0,2.3,2.315,2.3,2.3,0,0,0,2.32-2.3,2.3,2.3,0,0,0-2.3-2.314h-.008A2.3,2.3,0,0,0-5574.182-14081.76Z" transform="translate(5589.999 14088.001)" fill="#383838"/>
</svg>
